<svg width="28" height="28" viewBox="0 0 28 28" fill="none" xmlns="http://www.w3.org/2000/svg">
<path d="M27.9194 10.3157C26.7912 4.33883 20.9357 0 13.9999 0C7.06406 0 1.20856 4.33883 0.0803963 10.3157C-0.210104 11.8487 0.286896 13.4202 1.41623 14.5262L8.4419 21.2777C8.26456 21.735 8.16773 22.2308 8.16773 22.75V23.9167C8.16773 26.1683 9.9994 28 12.2511 28H15.7511C18.0027 28 19.8344 26.1683 19.8344 23.9167V22.75C19.8344 22.2308 19.7364 21.735 19.5602 21.2777L26.5929 14.5192C27.7141 13.4202 28.2111 11.8487 27.9206 10.3145L27.9194 10.3157ZM24.8476 8.42917C24.3984 8.26583 23.8944 8.16667 23.3332 8.16667C21.9414 8.16667 20.6452 8.757 19.6594 9.38583C19.2102 6.47033 17.9689 4.18017 16.8454 2.62383C20.4469 3.37517 23.4114 5.52533 24.8476 8.42917ZM14.7804 18.6667H13.2194L10.6399 12.0447C11.4029 11.3995 12.7434 10.5 13.9987 10.5C15.2541 10.5 16.5969 11.4007 17.3587 12.0435L14.7804 18.6667ZM10.7636 9.12217C11.3982 6.08883 13.0316 3.899 13.9999 2.81983C14.9682 3.90017 16.6016 6.09 17.2362 9.12217C16.3181 8.60183 15.1946 8.16667 13.9999 8.16667C12.8052 8.16667 11.6817 8.60183 10.7636 9.12217ZM11.1544 2.62383C10.0309 4.18017 8.78956 6.47033 8.3404 9.38583C7.35456 8.757 6.05723 8.16667 4.66656 8.16667C4.1054 8.16667 3.6014 8.26583 3.15223 8.42917C4.5884 5.52533 7.55406 3.37517 11.1544 2.62383ZM2.46856 11.9548C2.84306 11.3412 3.55706 10.4988 4.66656 10.4988C6.02106 10.4988 7.47473 11.5453 8.1934 12.1882L10.8172 18.9257C10.4824 19.0517 10.1686 19.2197 9.88156 19.425L3.0414 12.8508C2.7789 12.5942 2.58756 12.2873 2.46856 11.9548ZM17.4999 23.9155C17.4999 24.8803 16.7147 25.6655 15.7499 25.6655H12.2499C11.2851 25.6655 10.4999 24.8803 10.4999 23.9155V22.7488C10.4999 21.784 11.2851 20.9988 12.2499 20.9988H15.7499C16.7147 20.9988 17.4999 21.784 17.4999 22.7488V23.9155ZM18.1182 19.425C17.8312 19.2208 17.5174 19.0517 17.1826 18.9257L19.8064 12.1882C20.5262 11.543 21.9787 10.4988 23.3332 10.4988C24.4427 10.4988 25.1579 11.3412 25.5324 11.956C25.4146 12.2862 25.2244 12.5918 24.9666 12.8438L18.1194 19.425H18.1182Z" fill="#FF0000"/>
</svg>
