
<svg width="7" height="10" viewBox="0 0 7 10" fill="none" xmlns="http://www.w3.org/2000/svg">
<path fill-rule="evenodd" clip-rule="evenodd" d="M0.861278 3.80473C1.12163 4.06508 1.54374 4.06508 1.80409 3.80473L3.66602 1.9428L5.52794 3.80473C5.78829 4.06508 6.2104 4.06508 6.47075 3.80473C6.7311 3.54438 6.7311 3.12227 6.47075 2.86192L4.13742 0.52859C3.87707 0.268241 3.45496 0.268241 3.19461 0.52859L0.861278 2.86192C0.600928 3.12227 0.600928 3.54438 0.861278 3.80473Z" fill="#777E91"/>
<path fill-rule="evenodd" clip-rule="evenodd" d="M0.861278 6.19527C1.12163 5.93492 1.54374 5.93492 1.80409 6.19527L3.66602 8.0572L5.52794 6.19527C5.78829 5.93492 6.2104 5.93492 6.47075 6.19527C6.7311 6.45562 6.7311 6.87773 6.47075 7.13808L4.13742 9.47141C3.87707 9.73176 3.45496 9.73176 3.19461 9.47141L0.861278 7.13808C0.600928 6.87773 0.600928 6.45562 0.861278 6.19527Z" fill="#777E91"/>
</svg>