
<svg width="25" height="25" viewBox="0 0 25 25" fill="none" xmlns="http://www.w3.org/2000/svg">
<g clip-path="url(#clip0_0_9771)">
<path d="M5.08353 5.8228L1.16453 9.7418C0.528152 10.4087 0.173096 11.295 0.173096 12.2168C0.173096 13.1386 0.528152 14.0249 1.16453 14.6918L5.08353 18.6108C5.2219 18.7541 5.38741 18.8683 5.57042 18.947C5.75343 19.0256 5.95026 19.0669 6.14943 19.0687C6.34859 19.0704 6.54611 19.0325 6.73046 18.957C6.9148 18.8816 7.08228 18.7702 7.22312 18.6294C7.36396 18.4886 7.47534 18.3211 7.55076 18.1367C7.62618 17.9524 7.66413 17.7549 7.6624 17.5557C7.66067 17.3565 7.61929 17.1597 7.54068 16.9767C7.46207 16.7937 7.34779 16.6282 7.20453 16.4898L4.42553 13.7088L22.6755 13.6858C23.0734 13.6858 23.4549 13.5278 23.7362 13.2465C24.0175 12.9652 24.1755 12.5836 24.1755 12.1858C24.1755 11.788 24.0175 11.4064 23.7362 11.1251C23.4549 10.8438 23.0734 10.6858 22.6755 10.6858L4.44053 10.7088L7.20453 7.9438C7.47777 7.6609 7.62896 7.28199 7.62554 6.8887C7.62212 6.4954 7.46437 6.11919 7.18626 5.84107C6.90814 5.56296 6.53192 5.40521 6.13863 5.40179C5.74533 5.39837 5.36643 5.54956 5.08353 5.8228Z" fill="white"/>
</g>
<defs>
<clipPath id="clip0_0_9771">
<rect width="24" height="24" fill="white" transform="translate(0.140625 0.216797)"/>
</clipPath>
</defs>
</svg>
