
<svg width="16" height="16" viewBox="0 0 16 16" fill="none" xmlns="http://www.w3.org/2000/svg">
<path fill-rule="evenodd" clip-rule="evenodd" d="M1.33268 2C1.70087 2 1.99935 2.29848 1.99935 2.66667V12C1.99935 12.3682 2.29783 12.6667 2.66602 12.6667H14.666C15.0342 12.6667 15.3327 12.9651 15.3327 13.3333C15.3327 13.7015 15.0342 14 14.666 14H2.66602C1.56145 14 0.666016 13.1046 0.666016 12V2.66667C0.666016 2.29848 0.964492 2 1.33268 2Z" fill="#777E91"/>
<path d="M12.0007 3.33331C11.6325 3.33331 11.334 3.63179 11.334 3.99998V10.6666C11.334 11.0348 11.6325 11.3333 12.0007 11.3333C12.3688 11.3333 12.6673 11.0348 12.6673 10.6666V3.99998C12.6673 3.63179 12.3688 3.33331 12.0007 3.33331Z" fill="#777E91"/>
<path d="M6.66732 4.66665C6.29913 4.66665 6.00065 4.96512 6.00065 5.33331V10.6666C6.00065 11.0348 6.29913 11.3333 6.66732 11.3333C7.03551 11.3333 7.33398 11.0348 7.33398 10.6666V5.33331C7.33398 4.96512 7.03551 4.66665 6.66732 4.66665Z" fill="#777E91"/>
<path d="M4.00065 8.66665C3.63246 8.66665 3.33398 8.96512 3.33398 9.33331V10.6666C3.33398 11.0348 3.63246 11.3333 4.00065 11.3333C4.36884 11.3333 4.66732 11.0348 4.66732 10.6666V9.33331C4.66732 8.96512 4.36884 8.66665 4.00065 8.66665Z" fill="#777E91"/>
<path d="M8.66732 6.66665C8.66732 6.29846 8.96579 5.99998 9.33398 5.99998C9.70217 5.99998 10.0007 6.29846 10.0007 6.66665V10.6666C10.0007 11.0348 9.70217 11.3333 9.33398 11.3333C8.96579 11.3333 8.66732 11.0348 8.66732 10.6666V6.66665Z" fill="#777E91"/>
</svg>
