<svg width="28" height="27" viewBox="0 0 28 27" fill="none" xmlns="http://www.w3.org/2000/svg">
<path d="M25.1533 1.31992C24.668 0.61875 23.9365 0.16375 23.0918 0.0354168C22.2343 -0.0952498 21.3418 0.143917 20.65 0.687584C18.6678 2.24625 16.8968 3.11542 15.1667 3.38608V2.32092C15.1667 1.67692 14.644 1.15425 14 1.15425C13.356 1.15425 12.8333 1.67692 12.8333 2.32092V3.39658C10.3472 3.02908 8.18417 1.59408 7.03033 0.687584C6.3385 0.143917 5.44717 -0.0964165 4.5885 0.0354168C3.74383 0.162584 3.01233 0.61875 2.527 1.31992C0.663833 4.01608 0 7.82642 0 10.4934C0 13.5944 1.15267 17.2962 2.87 19.7042C3.3565 20.3844 4.07983 20.8277 4.907 20.9526C5.74933 21.0821 6.62783 20.8534 7.31383 20.3284C8.78617 19.2061 10.6878 17.9519 12.8322 17.5961V25.6554C12.8322 26.2994 13.3548 26.8221 13.9988 26.8221C14.6428 26.8221 15.1655 26.2994 15.1655 25.6554V17.5879C17.4417 17.9379 19.5522 19.2201 21.0058 20.3284C21.567 20.7566 22.2565 20.9864 22.9507 20.9864C23.1047 20.9864 23.2598 20.9747 23.4127 20.9514C24.2398 20.8266 24.9643 20.3832 25.4508 19.7019C27.3315 17.0629 28 13.0916 28 10.4923C28 7.46825 26.8567 3.78275 25.1533 1.31992ZM5.89983 18.4734C5.71083 18.6169 5.47633 18.6764 5.25467 18.6461C5.11467 18.6251 4.91633 18.5563 4.76933 18.3498C3.3355 16.3384 2.33333 13.1079 2.33333 10.4946C2.33333 7.58492 3.16283 4.50492 4.44733 2.64758C4.59433 2.43525 4.795 2.36525 4.93733 2.34308C5.16367 2.31158 5.39933 2.37458 5.58833 2.52275C6.986 3.62175 9.66817 5.37525 12.8333 5.74392V15.2324C10.031 15.5813 7.68367 17.1131 5.89983 18.4734ZM23.5515 18.3486C23.4033 18.5562 23.2062 18.6251 23.065 18.6461C22.8433 18.6788 22.6077 18.6169 22.421 18.4734C20.6675 17.1364 18.0658 15.5789 15.1667 15.2312V5.74508C18.1172 5.39158 20.4972 3.77692 22.092 2.52158C22.281 2.37342 22.5202 2.30925 22.7442 2.34192C22.8865 2.36408 23.086 2.43408 23.233 2.64642C24.6657 4.71842 25.6655 7.94542 25.6655 10.4934C25.6655 12.9259 25.011 16.2987 23.5503 18.3474L23.5515 18.3486Z" fill="#FF0000"/>
</svg>
