<svg width="375" height="75" viewBox="0 0 375 75" fill="none" xmlns="http://www.w3.org/2000/svg">
<rect width="1440" height="75" transform="translate(-229)" fill="url(#paint0_linear_292_3031)"/>
<mask id="mask0_292_3031" style="mask-type:alpha" maskUnits="userSpaceOnUse" x="-121" y="8" width="1224" height="62">
<rect x="-121" y="8.4" width="1224" height="61.2" fill="url(#paint1_linear_292_3031)"/>
</mask>
<g mask="url(#mask0_292_3031)">
<g clip-path="url(#clip0_292_3031)">
<g clip-path="url(#clip1_292_3031)">
<mask id="mask1_292_3031" style="mask-type:luminance" maskUnits="userSpaceOnUse" x="13" y="22" width="65" height="34">
<path d="M13.1641 22.85H77.7641V55.15H13.1641V22.85Z" fill="white"/>
</mask>
<g mask="url(#mask1_292_3031)">
<path d="M25.6398 30.5213C22.5007 34.7407 19.9269 38.2129 19.9269 38.2333C19.9269 38.2427 21.4612 37.7488 23.3388 37.1224L26.7405 35.9825L29.112 33.2064L31.4835 30.4201L31.515 32.5001C31.5345 34.4177 31.5549 34.5792 31.7164 34.5384C31.8074 34.5086 32.7662 34.2664 33.8261 33.9944L35.7743 33.4988V22.85H31.3526L25.6398 30.5213ZM39.0035 27.8055V32.7619L39.216 32.7109C39.3367 32.6811 40.3159 32.4797 41.386 32.2672L43.3444 31.8847V26.5135L47.2204 26.4328C50.6714 26.3716 51.1559 26.3818 51.6005 26.5237C52.731 26.8969 53.4484 27.9364 53.4679 29.2284C53.4781 29.6322 53.4484 30.0963 53.4076 30.2578L53.3268 30.5408L54.0638 30.4796C54.7361 30.4302 55.4091 30.39 56.0825 30.3589L57.3643 30.2884L57.4349 29.6322C57.474 29.1923 57.4774 28.75 57.4451 28.3096C57.2938 26.4421 55.921 24.5449 54.0434 23.5666C52.6103 22.8186 52.9435 22.8492 45.5944 22.8492H39.0035V27.8055ZM60.9071 26.5645V30.279L62.8043 30.4108C63.8447 30.4813 64.8137 30.5621 64.9752 30.5918L65.2472 30.6428V22.85H60.9071V26.5645ZM56.2134 31.2276C46.9476 31.8634 36.0557 34.1244 24.0146 37.9299C22.7204 38.3404 21.4284 38.7578 20.1386 39.1819L18.9877 39.5755L17.2418 41.5237C16.2728 42.6032 15.5052 43.4914 15.5248 43.5127C15.546 43.5322 16.0501 43.3104 16.6553 43.0282C19.8759 41.5135 25.0439 39.4344 29.0109 38.0412C41.4056 33.7011 52.7412 31.4801 62.8749 31.4197C64.4193 31.4095 64.8741 31.3789 64.5409 31.3186C63.8949 31.1877 57.7783 31.1273 56.2134 31.2276Z" fill="#1C1C1C"/>
<path d="M59.797 32.0351C48.5625 32.6106 36.0973 35.7598 23.9644 41.0995C22.1275 41.907 16.6263 44.6321 14.3254 45.874L13.3156 46.4188L17.3726 46.4494L21.4203 46.469L23.026 45.5909C24.8526 44.5922 27.497 43.29 29.9195 42.1994L31.5855 41.4531L31.6152 44.0065L31.6357 46.5701H35.7734V39.737L37.3375 39.1615C37.8728 38.9646 38.4112 38.7762 38.9524 38.5963C38.983 38.5963 39.0035 40.3932 39.0035 42.5828V46.5701H46.0993C52.9333 46.5701 53.2155 46.5599 53.9422 46.3687C55.1628 46.0355 56.2738 45.4294 57.111 44.6432C58.3427 43.4914 58.8875 42.1892 58.8875 40.332C58.8875 38.4246 58.3223 36.83 57.3133 35.8712C56.7583 35.3459 55.6881 34.7602 55.2844 34.7602C54.9818 34.7602 54.992 34.6191 55.2946 34.3777C55.5266 34.195 57.3941 33.8932 60.2305 33.5592L60.9062 33.4886V46.5701H77.7635V42.9364H65.2481V33.1155L68.6591 33.1758C71.9401 33.2362 73.9988 33.3781 76.1688 33.7011C76.7239 33.7921 77.2084 33.8422 77.2288 33.8116C77.3198 33.7207 74.8666 33.1053 73.2219 32.8027C71.98 32.5808 69.447 32.257 67.872 32.1363C65.9544 31.985 61.8863 31.934 59.797 32.0351ZM53.014 36.6676C53.711 36.9813 54.4573 37.7981 54.6792 38.4951C54.8917 39.1615 54.9018 40.1101 54.6893 40.8071C54.4777 41.5237 53.7917 42.2096 52.974 42.5428C52.3782 42.7851 52.3578 42.7851 47.806 42.8148L43.2432 42.8454L43.2637 39.9894L43.2934 37.1334L44.5556 36.7594L45.8171 36.3854L49.1482 36.4058C52.419 36.4262 52.4887 36.4254 53.014 36.6676ZM14.7487 49.0334C13.1634 49.5987 12.6279 51.7075 13.7389 52.94C14.3339 53.5954 14.7886 53.7875 15.7874 53.7875C16.7062 53.7875 17.2315 53.6056 17.6557 53.1313L17.8571 52.9094L17.4338 52.5159L17.0088 52.1223L16.6357 52.3739C15.7075 53.0106 14.577 52.4351 14.577 51.3344C14.577 50.2243 15.9293 49.6386 16.7368 50.396L16.9493 50.5983L17.4032 50.1937L17.8571 49.8001L17.4831 49.4576C17.2723 49.2757 16.9289 49.0734 16.7164 49.013C16.192 48.8515 15.223 48.8719 14.7487 49.0334ZM20.6332 49.104C19.0182 49.8307 18.634 51.8495 19.8759 53.0811C21.0871 54.3017 23.4085 53.9787 24.1854 52.4946C24.4889 51.8996 24.499 50.8201 24.1956 50.2549C23.9276 49.7391 23.489 49.3324 22.9546 49.104C22.329 48.8209 21.2588 48.8209 20.6332 49.104ZM22.2176 50.1027C22.278 50.1027 22.4701 50.2345 22.6316 50.4062C23.4391 51.2137 22.9036 52.6264 21.7935 52.6264C21.2384 52.6264 20.7845 52.2736 20.623 51.7177C20.3595 50.8601 21.0973 49.9013 21.8946 50.0628C22.0051 50.0832 22.1471 50.1027 22.2176 50.1027ZM39.771 49.0538C38.802 49.4066 38.1959 50.2846 38.1959 51.3344C38.1959 52.3238 38.6601 53.0905 39.5585 53.5656C40.134 53.8784 41.5067 53.8784 42.083 53.5656C42.9806 53.0905 43.4447 52.3238 43.4447 51.3344C43.4447 50.2642 42.8395 49.3964 41.8399 49.0436C41.295 48.8515 40.2955 48.8626 39.771 49.0538ZM41.2755 50.1435C42.1629 50.5175 42.2938 51.9302 41.4863 52.4649C41.3452 52.5558 41.0324 52.6264 40.7901 52.6264C40.003 52.6264 39.539 52.0314 39.6393 51.1533C39.6903 50.6484 39.9112 50.3458 40.366 50.1435C40.7595 49.9718 40.8505 49.9718 41.2755 50.1435ZM67.872 48.9824C66.6301 49.3666 65.8941 50.5575 66.1456 51.7985C66.3377 52.7777 66.903 53.4135 67.8321 53.6965C69.1334 54.0901 70.5674 53.5758 71.102 52.515C71.9801 50.7997 70.7484 48.8821 68.7807 48.9025C68.4169 48.9025 68.0131 48.9425 67.872 48.9824ZM69.4666 50.2744C69.5984 50.3552 69.7701 50.5779 69.8508 50.7589C70.2444 51.7177 69.6893 52.6264 68.6999 52.6264C67.9221 52.6264 67.3476 51.7985 67.5694 51.0216C67.8219 50.1537 68.7203 49.8001 69.4666 50.2744ZM26.1854 51.3548V53.7373H27.5982V52.5261H27.9509C28.2646 52.5261 28.3351 52.5856 28.7083 53.1313L29.1222 53.7365H29.8787C30.4541 53.7365 30.6156 53.7067 30.5655 53.6158C30.5255 53.5452 30.2935 53.212 30.0606 52.8686L29.6271 52.2532L29.9297 52.0314C30.7882 51.3956 30.6768 49.8613 29.7376 49.2757C29.3951 49.0632 29.2233 49.0436 27.78 49.013L26.1846 48.9731L26.1854 51.3548ZM28.9106 50.305C29.4053 50.7997 28.9505 51.4151 28.0929 51.4151H27.5982V50.1027H28.1532C28.5774 50.1027 28.7592 50.1537 28.9106 50.305ZM32.342 51.365V53.7365H33.7547V52.5558L34.552 52.5048C35.9452 52.4249 36.581 51.8495 36.581 50.6782C36.581 49.9922 36.2988 49.5383 35.6723 49.2153C35.2686 49.013 35.0773 48.9926 33.7853 48.9926H32.342V51.365ZM34.9855 50.2744C35.2082 50.4767 35.2286 51.042 35.0067 51.2239C34.926 51.2944 34.603 51.365 34.2995 51.3956L33.7547 51.4355V50.1036H34.28C34.6226 50.1036 34.8648 50.1631 34.9855 50.2744ZM45.262 51.365V53.7365H46.6747V52.5261H47.0079C47.291 52.5354 47.3819 52.6068 47.7346 53.1313L48.1384 53.7365H48.8652C49.2689 53.7365 49.6021 53.7067 49.6021 53.677C49.6021 53.6464 49.3896 53.3132 49.138 52.9494L48.6833 52.2932L48.9867 52.011C49.3802 51.6574 49.5009 51.3344 49.5009 50.668C49.5009 49.9922 49.2188 49.5281 48.5923 49.2145C48.1885 49.013 47.9973 48.9935 46.7053 48.9935H45.262V51.365ZM47.9055 50.2744C48.1282 50.4767 48.1486 51.042 47.9268 51.2239C47.846 51.2944 47.523 51.365 47.2196 51.3956L46.6756 51.4355V50.1036H47.2C47.5425 50.1036 47.7848 50.1631 47.9055 50.2744ZM52.7411 49.2145C52.6901 49.3462 52.2362 50.3756 51.7322 51.5163C51.2273 52.657 50.8133 53.6158 50.8133 53.6557C50.8133 53.7067 51.1261 53.7373 51.5103 53.7373H52.2065L52.3876 53.2826L52.5592 52.8287H54.4972L54.6792 53.2826L54.8713 53.7373H55.5674C55.9508 53.7373 56.2635 53.6965 56.2635 53.6557C56.2635 53.6056 55.8198 52.5558 55.2648 51.3046L54.2652 49.0436L53.5486 49.013C52.8823 48.9824 52.8219 49.0028 52.7411 49.2145ZM53.7305 50.9315C54.1139 51.8393 54.1241 51.8189 53.5486 51.8189C53.2664 51.8189 53.0335 51.7891 53.0335 51.7483C53.0335 51.6472 53.4781 50.5073 53.518 50.5073C53.5282 50.5073 53.6294 50.6994 53.7305 50.9315ZM57.071 49.5485V50.1036H58.4846V53.7365H59.8973V50.1027H61.4112V48.9926H57.071V49.5485ZM62.9258 51.365V53.7365H64.3386V48.9935H62.9258V51.365ZM73.1208 51.365V53.7365H74.5241L74.5538 52.5558L74.5845 51.365L75.5433 52.5465L76.502 53.7271H77.0877L77.6632 53.7365V48.9935H76.361L76.3304 50.1741L76.3006 51.3641L75.3418 50.1835L74.3822 49.0028H73.7566L73.1208 48.9926V51.365Z" fill="#1C1C1C"/>
</g>
</g>
</g>
<g clip-path="url(#clip2_292_3031)">
<g clip-path="url(#clip3_292_3031)">
<mask id="mask2_292_3031" style="mask-type:luminance" maskUnits="userSpaceOnUse" x="197" y="15" width="37" height="48">
<path d="M197.614 15.2H233.314V62.8H197.614V15.2Z" fill="white"/>
</mask>
<g mask="url(#mask2_292_3031)">
<path d="M210.993 40.6958C212.931 40.7459 214.863 40.8947 216.784 41.142C216.875 41.1556 216.957 41.2011 217.017 41.2704C217.741 42.2943 218.574 43.2355 219.503 44.0771H208.449C208.458 43.6538 208.456 42.7052 208.465 42.6125C208.468 42.1117 208.669 41.6324 209.023 41.2782C209.377 40.924 209.857 40.7234 210.357 40.7196C210.568 40.6983 210.781 40.6907 210.993 40.6958ZM231.212 39.1267H226.427L226.448 17.5384C226.446 17.0655 226.301 16.6044 226.032 16.2152C225.764 15.8261 225.384 15.5272 224.942 15.3576C224.501 15.188 224.019 15.1557 223.558 15.2649C223.098 15.374 222.682 15.6195 222.364 15.9693L200.237 40.1739C199.931 40.5088 199.73 40.9254 199.658 41.3727C199.586 41.82 199.646 42.2787 199.83 42.6926C200.015 43.1065 200.316 43.4576 200.697 43.7031C201.077 43.9485 201.522 44.0776 201.975 44.0745H207.7C207.597 42.644 207.649 41.2066 207.854 39.7871C207.953 39.3791 208.147 38.9992 208.421 38.6804C208.625 38.4393 208.885 38.2524 209.178 38.1364C209.472 38.0205 209.789 37.979 210.102 38.0157C211.329 38.1169 212.552 38.2495 213.776 38.3693C214.06 38.3965 214.344 38.428 214.681 38.462C214.566 38.303 214.477 38.1815 214.391 38.0599C213.452 36.8341 212.693 35.4802 212.137 34.0394C211.817 33.2249 211.667 32.3532 211.697 31.4784C211.728 30.6036 211.937 29.7443 212.313 28.9539C212.506 28.5501 212.747 28.1719 213.028 27.8234C213.386 27.3883 213.852 27.0545 214.379 26.855C214.906 26.6555 215.476 26.5973 216.033 26.6861C217.546 26.8705 219.002 27.3754 220.304 28.1668C221.875 29.0784 223.204 30.353 224.181 31.8838C224.74 32.7288 225.1 33.6894 225.233 34.6936C225.367 35.6977 225.272 36.719 224.954 37.6808C224.712 38.5696 224.269 39.3911 223.66 40.0821C223.34 40.4316 222.954 40.7143 222.525 40.9138C222.095 41.1134 221.63 41.2259 221.157 41.2449C220.388 41.2933 219.614 41.2491 218.843 41.2449H218.694C218.902 41.4285 219.078 41.573 219.243 41.7251C219.759 42.2011 220.303 42.6448 220.874 43.0545V46.0831C220.875 46.285 220.956 46.4783 221.099 46.6207C221.242 46.7631 221.436 46.843 221.638 46.843H225.663C225.763 46.8435 225.862 46.8243 225.955 46.7864C226.047 46.7484 226.132 46.6925 226.203 46.6219C226.274 46.5513 226.33 46.4673 226.368 46.3749C226.407 46.2824 226.427 46.1832 226.427 46.0831V44.0745H231.216C231.317 44.0751 231.416 44.0559 231.509 44.0179C231.601 43.98 231.686 43.9241 231.757 43.8535C231.828 43.7829 231.884 43.6989 231.922 43.6064C231.961 43.514 231.981 43.4148 231.981 43.3146V39.884C231.978 39.6822 231.895 39.4897 231.752 39.3481C231.608 39.2065 231.414 39.1273 231.212 39.1275V39.1267ZM222.028 38.6405C222.429 38.5809 222.814 38.4389 223.158 38.2235C223.502 38.0081 223.798 37.7238 224.027 37.3887C224.256 37.0535 224.413 36.6746 224.488 36.2758C224.563 35.877 224.556 35.4669 224.465 35.0713C224.299 34.3828 223.965 33.7464 223.491 33.22C222.293 31.8857 220.788 30.8622 219.107 30.2374C218.758 30.126 218.146 29.9093 217.521 29.7359C216.649 29.4618 215.737 29.3334 214.823 29.3559C214.392 29.3441 213.968 29.4755 213.619 29.7297C213.269 29.9838 213.014 30.3465 212.892 30.761C212.816 31.0058 212.764 31.2574 212.737 31.5124C212.676 32.3572 212.827 33.204 213.179 33.9748C213.871 35.622 214.829 37.1446 216.013 38.4824C216.089 38.5572 216.188 38.6035 216.294 38.6133C217.101 38.6762 217.908 38.7416 218.716 38.7748C219.821 38.8462 220.931 38.8003 222.028 38.6405ZM197.614 59.8386L201.46 49.3233H202.95L206.794 59.8378H205.171L204.067 56.8033H200.341L199.238 59.8378L197.614 59.8386ZM202.204 51.6931L200.848 55.3957H203.545L202.204 51.6931ZM210.149 59.8089C209.859 59.8922 209.558 59.9364 209.257 59.9423C208.153 59.9423 207.647 59.2895 207.647 58.0026V48.9824H209.137V57.9737C209.126 58.0478 209.132 58.1233 209.155 58.1947C209.178 58.266 209.216 58.3312 209.268 58.3855C209.319 58.4397 209.383 58.4816 209.453 58.5079C209.523 58.5342 209.598 58.5442 209.672 58.5373C209.804 58.5381 209.936 58.5186 210.061 58.4778L210.149 59.8089ZM212.788 62.7983H211.299V52.4317H212.686L212.791 52.9808C213.279 52.5669 213.897 52.3364 214.537 52.3289C216.282 52.3289 217.488 53.7654 217.488 55.6906V56.5041C217.488 58.7107 216.37 59.9389 214.612 59.9389C214.266 59.9349 213.925 59.8577 213.612 59.7123C213.298 59.567 213.019 59.3568 212.793 59.0957L212.788 62.7983ZM212.788 57.8063C213.239 58.2415 213.833 58.4999 214.46 58.5322C215.459 58.5322 215.993 57.8649 215.993 56.4726V55.7059C215.993 54.4326 215.351 53.7365 214.443 53.7365C213.814 53.7611 213.219 54.0323 212.789 54.4921V57.8088L212.788 57.8063ZM220.15 48.9824V53.3514C220.736 52.7272 221.545 52.3597 222.401 52.3289C222.693 52.3042 222.987 52.3444 223.262 52.4465C223.537 52.5486 223.786 52.7102 223.991 52.9196C224.196 53.129 224.352 53.3811 224.448 53.658C224.545 53.9348 224.579 54.2295 224.548 54.521V59.8386H223.057V54.5355C223.057 53.9575 222.774 53.7365 222.224 53.7365C221.813 53.7888 221.417 53.9247 221.06 54.136C220.704 54.3472 220.394 54.6293 220.15 54.9647V59.8369H218.66V48.979H220.15V48.9824ZM231.927 59.8386H230.437V58.414H225.846V57.0064L230.318 49.3199H231.927V57.0064H233.314V58.414H231.927V59.8386ZM230.437 57.009V51.8707L227.544 57.009H230.437Z" fill="#292929"/>
</g>
</g>
</g>
<g clip-path="url(#clip4_292_3031)">
<g clip-path="url(#clip5_292_3031)">
<mask id="mask3_292_3031" style="mask-type:luminance" maskUnits="userSpaceOnUse" x="337" y="26" width="97" height="26">
<path d="M337.864 26.25H433.064V51.75H337.864V26.25Z" fill="white"/>
</mask>
<g mask="url(#mask3_292_3031)">
<path fill-rule="evenodd" clip-rule="evenodd" d="M355.763 28.3614C359.537 30.4065 362.115 34.4831 362.115 39.1828C362.115 43.8824 359.537 47.9718 355.763 50.0041V48.6067C357.217 47.7038 358.435 46.4671 359.316 44.9993L355.763 43.5135V41.2525L359.66 44.3907C360.501 42.784 360.937 40.9963 360.931 39.1828C360.931 35.1946 358.858 31.6892 355.763 29.758V28.3614ZM350.273 26.9776C352.247 26.9776 354.109 27.4732 355.763 28.3614V29.758C354.206 28.795 352.424 28.2572 350.595 28.1965L351.95 38.1925L355.763 41.2525V43.5135L350.249 41.2151L344.771 43.5271V41.278L348.608 38.1917L349.952 28.1957C348.118 28.2528 346.331 28.7916 344.771 29.758V28.3606C346.461 27.4475 348.352 26.9718 350.273 26.9768V26.9776ZM355.763 50.0041C354.077 50.9183 352.191 51.3982 350.273 51.4007C348.288 51.4007 346.413 50.8932 344.772 50.0169V48.6067C346.421 49.6387 348.328 50.1847 350.273 50.1818C352.272 50.1818 354.147 49.6097 355.763 48.6067V50.0041ZM344.772 50.0169C340.984 47.9718 338.407 43.8824 338.407 39.1828C338.407 34.4831 340.984 30.4065 344.771 28.3623V29.758C341.664 31.6883 339.591 35.1818 339.591 39.1828C339.591 41.0749 340.06 42.8667 340.875 44.4154L344.771 41.278V43.5271L341.232 45.0248C342.112 46.4821 343.325 47.7097 344.772 48.6067V50.0169Z" fill="#292929"/>
<path d="M398.497 35.2345C397.96 35.3815 397.411 35.4838 396.857 35.5405V35.7301C397.541 35.7301 397.629 35.8091 397.629 36.3914V38.3498C397.226 37.6783 396.91 37.4768 396.324 37.4768C395.161 37.4768 394.347 38.6073 394.347 40.2189C394.347 41.8314 395.172 42.9619 396.357 42.9619C396.977 42.9619 397.4 42.6712 397.704 42.0439C397.748 42.4689 397.748 42.5148 397.857 42.9398C398.302 42.7944 398.486 42.7494 399.128 42.6712L399.29 42.6482V42.4578C398.563 42.4357 398.497 42.3796 398.497 41.6971V35.2345ZM369.179 35.3161C368.837 35.357 368.492 35.3757 368.146 35.3722C367.841 35.3722 367.679 35.3612 367.256 35.328V35.6068C368.005 35.6519 368.157 35.7632 368.157 36.2783V36.3463L367.929 41.8424C367.908 42.4476 367.799 42.536 367.038 42.5921V42.8616C367.399 42.8265 367.762 42.8078 368.124 42.8055C368.429 42.8055 368.645 42.8165 369.2 42.8616V42.5921C368.44 42.536 368.298 42.4357 368.298 41.9427V41.8424L368.515 36.0327L370.298 40.9916L370.428 41.3826L370.581 41.8195L370.732 42.2564L370.852 42.6151H371.015L371.134 42.2462L371.276 41.8195L371.427 41.4064L371.558 41.0358L373.352 36.0437L373.449 41.8424V41.8985C373.449 42.4247 373.286 42.5471 372.548 42.5921V42.8616C373.232 42.7936 373.492 42.7715 373.905 42.7715C374.318 42.7715 374.579 42.7944 375.264 42.8616V42.5921C374.482 42.536 374.383 42.4476 374.373 41.8424L374.254 36.3463V36.2681C374.254 35.7641 374.416 35.6519 375.155 35.6068V35.3272C374.742 35.3612 374.568 35.3722 374.296 35.3722C373.971 35.3722 373.744 35.3603 373.254 35.3161L371.201 40.9814L369.178 35.3153L369.179 35.3161ZM411.448 35.3603V35.6408C412.23 35.6859 412.34 35.7743 412.34 36.3795V41.8084C412.34 42.4136 412.253 42.491 411.448 42.559V42.8276H414.198C415.002 42.8276 415.436 42.7273 415.893 42.4366C416.436 42.0779 416.795 41.3945 416.795 40.689C416.795 40.0855 416.545 39.5372 416.12 39.2015C415.892 39.0221 415.653 38.921 415.262 38.8428C416.045 38.5402 416.458 37.969 416.458 37.1861C416.458 36.6039 416.218 36.0879 415.805 35.7641C415.436 35.4836 415.012 35.3603 414.306 35.3603H411.448ZM413.252 35.7088H414.176C415.089 35.7088 415.491 36.167 415.491 37.2082C415.491 37.7225 415.372 38.0922 415.133 38.3838C414.893 38.6634 414.6 38.7527 413.99 38.7527H413.252V35.7088ZM388.26 37.3085L387.967 37.8797C387.618 37.5321 387.326 37.4097 386.858 37.4097C385.577 37.4097 384.706 38.5512 384.706 40.2189C384.706 41.8535 385.565 42.9508 386.826 42.9508C387.804 42.9508 388.423 42.3014 388.564 41.1038H388.118C387.988 42.0889 387.586 42.5819 386.911 42.5819C386.076 42.5819 385.652 41.7863 385.652 40.2189C385.652 38.6184 386.131 37.7114 386.946 37.7114C387.609 37.7114 388.01 38.1815 388.206 39.1556H388.445V37.3085H388.26ZM407.731 37.3425L407.547 37.8015C407.177 37.544 406.862 37.4428 406.438 37.4428C405.482 37.4428 404.808 38.048 404.808 38.932C404.808 39.5814 405.059 39.8951 405.852 40.275L406.351 40.5096L406.764 40.7C407.297 40.9465 407.503 41.2041 407.503 41.584C407.503 42.1561 407.025 42.5921 406.384 42.5921C405.623 42.5921 405.167 42.1 404.971 41.0817L404.733 41.0927V42.9627H404.928L405.188 42.4578C405.601 42.7944 405.993 42.9279 406.493 42.9279C407.514 42.9279 408.242 42.2572 408.242 41.3163C408.242 40.6567 407.949 40.2971 407.122 39.9282L406.666 39.7268C405.677 39.2788 405.515 39.1343 405.515 38.6864C405.515 38.1594 405.96 37.7565 406.536 37.7565C407.22 37.7565 407.579 38.1823 407.677 39.0774H407.927V37.3425H407.731ZM423.793 37.3425C423.36 37.4989 422.99 37.589 422.359 37.6783V37.8687C422.414 37.8687 422.469 37.8797 422.501 37.8797C423.045 37.8797 423.109 37.9477 423.12 38.4067V42.0328C423.12 42.5139 423.012 42.604 422.349 42.6372V42.8616C422.915 42.8055 423.142 42.7944 423.522 42.7944C423.913 42.7944 424.132 42.8055 424.697 42.8616V42.6372C424.132 42.6151 423.99 42.5029 423.99 42.0558V39.346C423.99 38.428 424.381 37.9469 425.12 37.9469C425.815 37.9469 426.098 38.3379 426.098 39.3128V42.0558C426.098 42.5029 425.957 42.6151 425.369 42.6372V42.8616C425.935 42.8055 426.151 42.7944 426.554 42.7944C426.945 42.7944 427.163 42.8055 427.739 42.8616V42.6372C427.076 42.6032 426.966 42.5139 426.966 42.0328V39.346C426.966 38.921 426.913 38.6065 426.803 38.3387C426.587 37.7905 426.021 37.4428 425.369 37.4428C424.74 37.4428 424.293 37.7123 423.902 38.3166C423.88 37.8916 423.849 37.6001 423.793 37.3425ZM381.973 37.3646C381.528 37.4981 381.158 37.5661 380.539 37.6222V37.8236H380.681C381.245 37.8347 381.3 37.8916 381.31 38.3727V42.0328C381.31 42.5139 381.191 42.604 380.528 42.6372V42.8616C381.126 42.8055 381.355 42.7936 381.746 42.7936C382.126 42.7936 382.354 42.8055 382.952 42.8616V42.6372C382.289 42.6032 382.18 42.5139 382.18 42.0328V39.6928C382.18 38.5844 382.539 37.8806 383.103 37.8806C383.299 37.8806 383.429 37.9911 383.429 38.1483V38.2486L383.407 38.3617C383.397 38.4067 383.386 38.4509 383.386 38.473C383.386 38.6974 383.582 38.8538 383.832 38.8538C384.104 38.8538 384.288 38.6413 384.288 38.3158C384.288 37.7786 383.886 37.4097 383.343 37.4097C382.778 37.4097 382.31 37.7794 382.071 38.4169V38.2937C382.05 37.9829 382.018 37.673 381.973 37.3646ZM377.904 37.4097C376.599 37.4097 375.785 38.4951 375.785 40.2189C375.785 41.9427 376.599 42.9508 378.001 42.9508C379.066 42.9508 379.761 42.2674 379.903 41.1148H379.468C379.338 42.0668 378.86 42.5819 378.088 42.5819C377.1 42.5819 376.665 41.7982 376.654 40.0515H379.893C379.871 38.3277 379.185 37.4097 377.904 37.4097ZM391.458 37.4097C390.153 37.4097 389.338 38.4951 389.338 40.2189C389.338 41.9427 390.154 42.9508 391.555 42.9508C392.62 42.9508 393.316 42.2674 393.457 41.1148H393.022C392.892 42.0668 392.414 42.5819 391.642 42.5819C390.654 42.5819 390.218 41.7982 390.207 40.0515H393.446C393.424 38.3277 392.741 37.4097 391.458 37.4097ZM401.822 37.4097C400.518 37.4097 399.703 38.4951 399.703 40.2189C399.703 41.9427 400.518 42.9508 401.92 42.9508C402.984 42.9508 403.679 42.2674 403.821 41.1148H403.386C403.255 42.0668 402.778 42.5819 402.006 42.5819C401.018 42.5819 400.582 41.7982 400.571 40.0515H403.81C403.788 38.3277 403.104 37.4097 401.822 37.4097ZM419.796 37.4097C418.492 37.4097 417.677 38.4951 417.677 40.2189C417.677 41.9427 418.492 42.9508 419.894 42.9508C420.959 42.9508 421.654 42.2674 421.795 41.1148H421.361C421.23 42.0668 420.753 42.5819 419.982 42.5819C418.993 42.5819 418.557 41.7982 418.547 40.0515H421.785C421.763 38.3277 421.079 37.4097 419.796 37.4097ZM428.531 37.544L428.28 38.9992H428.498C428.889 37.9911 429.063 37.8347 429.77 37.8347H431.105L428.161 42.8276H431.898L432.182 41.216H431.953C431.627 42.2343 431.324 42.5369 430.584 42.5369H429.313L432.269 37.544H428.531ZM377.893 37.7004C378.598 37.7004 378.958 38.3268 379.023 39.6486H376.675C376.784 38.3608 377.197 37.7004 377.893 37.7004ZM391.446 37.7004C392.151 37.7004 392.511 38.3268 392.576 39.6486H390.229C390.337 38.3608 390.751 37.7004 391.446 37.7004ZM401.811 37.7004C402.517 37.7004 402.876 38.3268 402.941 39.6486H400.594C400.702 38.3608 401.115 37.7004 401.811 37.7004ZM419.786 37.7004C420.492 37.7004 420.85 38.3268 420.915 39.6486H418.568C418.676 38.3608 419.09 37.7004 419.786 37.7004ZM396.422 37.7896C397.226 37.7896 397.639 38.6413 397.639 40.2869C397.639 41.8424 397.237 42.6482 396.455 42.6482C395.672 42.6482 395.26 41.8093 395.26 40.2087C395.26 38.5852 395.64 37.7896 396.422 37.7896ZM413.252 39.1003H414.284C414.861 39.1003 415.186 39.2006 415.436 39.4573C415.686 39.7157 415.826 40.1968 415.826 40.734C415.826 41.8535 415.283 42.4808 414.317 42.4808H413.926C413.349 42.4808 413.252 42.3907 413.252 41.8985V39.1003ZM408.894 39.544V40.1229H411.322V39.544H408.894Z" fill="#292929"/>
</g>
</g>
</g>
</g>
<defs>
<linearGradient id="paint0_linear_292_3031" x1="720" y1="0" x2="720" y2="75" gradientUnits="userSpaceOnUse">
<stop stop-color="white"/>
<stop offset="1" stop-color="#F7F6F5"/>
</linearGradient>
<linearGradient id="paint1_linear_292_3031" x1="-121" y1="39" x2="1103" y2="39" gradientUnits="userSpaceOnUse">
<stop stop-opacity="0"/>
<stop offset="0.125"/>
<stop offset="0.875"/>
<stop offset="1" stop-opacity="0"/>
</linearGradient>
<clipPath id="clip0_292_3031">
<rect width="153" height="61.2" fill="white" transform="translate(-31.0361 8.40002)"/>
</clipPath>
<clipPath id="clip1_292_3031">
<rect width="153" height="61.2" fill="white" transform="translate(-31.0361 8.40002)"/>
</clipPath>
<clipPath id="clip2_292_3031">
<rect width="153" height="61.2" fill="white" transform="translate(138.964 8.40002)"/>
</clipPath>
<clipPath id="clip3_292_3031">
<rect width="153" height="61.2" fill="white" transform="translate(138.964 8.40002)"/>
</clipPath>
<clipPath id="clip4_292_3031">
<rect width="153" height="61.2" fill="white" transform="translate(308.964 8.40002)"/>
</clipPath>
<clipPath id="clip5_292_3031">
<rect width="153" height="61.2" fill="white" transform="translate(308.964 8.40002)"/>
</clipPath>
</defs>
</svg>