
<svg width="18" height="22" viewBox="0 0 18 22" fill="none" xmlns="http://www.w3.org/2000/svg">
<path d="M7.15437 11.6581C7.39271 11.6581 7.62128 11.7528 7.7898 11.9213C7.95833 12.0898 8.053 12.3184 8.053 12.5567C8.053 12.795 7.95833 13.0236 7.7898 13.1921C7.62128 13.3607 7.39271 13.4553 7.15437 13.4553H4.45848C4.22015 13.4553 3.99158 13.3607 3.82306 13.1921C3.65453 13.0236 3.55985 12.795 3.55985 12.5567C3.55985 12.3184 3.65453 12.0898 3.82306 11.9213C3.99158 11.7528 4.22015 11.6581 4.45848 11.6581H7.15437ZM12.5462 8.96218C12.5462 8.72385 12.4515 8.49528 12.283 8.32676C12.1144 8.15823 11.8859 8.06355 11.6475 8.06355H4.45848C4.22015 8.06355 3.99158 8.15823 3.82306 8.32676C3.65453 8.49528 3.55985 8.72385 3.55985 8.96218C3.55985 9.20052 3.65453 9.42909 3.82306 9.59761C3.99158 9.76614 4.22015 9.86081 4.45848 9.86081H11.6475C11.8859 9.86081 12.1144 9.76614 12.283 9.59761C12.4515 9.42909 12.5462 9.20052 12.5462 8.96218ZM4.45848 6.26629H11.6475C11.8859 6.26629 12.1144 6.17162 12.283 6.00309C12.4515 5.83456 12.5462 5.60599 12.5462 5.36766C12.5462 5.12933 12.4515 4.90076 12.283 4.73224C12.1144 4.56371 11.8859 4.46903 11.6475 4.46903H4.45848C4.22015 4.46903 3.99158 4.56371 3.82306 4.73224C3.65453 4.90076 3.55985 5.12933 3.55985 5.36766C3.55985 5.60599 3.65453 5.83456 3.82306 6.00309C3.99158 6.17162 4.22015 6.26629 4.45848 6.26629ZM15.242 18.3475V21.7919C15.2421 21.9201 15.2041 22.0454 15.133 22.1521C15.0618 22.2587 14.9606 22.3418 14.8421 22.3908C14.7237 22.4399 14.5934 22.4527 14.4676 22.4277C14.3419 22.4027 14.2264 22.3409 14.1358 22.2502L13.4448 21.5601L12.7537 22.2502C12.6631 22.3409 12.5477 22.4027 12.4219 22.4277C12.2962 22.4527 12.1659 22.4399 12.0475 22.3908C11.929 22.3418 11.8278 22.2587 11.7566 22.1521C11.6854 22.0454 11.6475 21.9201 11.6475 21.7919V18.3475C10.9622 17.9537 10.4263 17.3444 10.1233 16.6143C9.82029 15.8843 9.7672 15.0746 9.97229 14.3112C10.1774 13.5479 10.6291 12.8738 11.2572 12.3939C11.8853 11.9141 12.6544 11.6553 13.4448 11.6581C13.7486 11.6619 14.0506 11.7048 14.3434 11.7857V5.36766C14.3434 4.65267 14.0594 3.96696 13.5538 3.46138C13.0482 2.9558 12.3625 2.67177 11.6475 2.67177H4.45848C3.74349 2.67177 3.05778 2.9558 2.5522 3.46138C2.04662 3.96696 1.76259 4.65267 1.76259 5.36766V16.1512C1.76259 16.8662 2.04662 17.5519 2.5522 18.0575C3.05778 18.5631 3.74349 18.8471 4.45848 18.8471H8.95163C9.18997 18.8471 9.41854 18.9418 9.58706 19.1103C9.75559 19.2788 9.85026 19.5074 9.85026 19.7457C9.85026 19.9841 9.75559 20.2127 9.58706 20.3812C9.41854 20.5497 9.18997 20.6444 8.95163 20.6444H4.45848C3.26726 20.643 2.12524 20.1691 1.28292 19.3268C0.440601 18.4845 -0.0332411 17.3424 -0.034668 16.1512V5.36766C-0.0332411 4.17644 0.440601 3.03442 1.28292 2.1921C2.12524 1.34978 3.26726 0.875939 4.45848 0.874512L11.6475 0.874512C12.8387 0.875939 13.9808 1.34978 14.8231 2.1921C15.6654 3.03442 16.1392 4.17644 16.1407 5.36766V12.9C16.4927 13.2953 16.7518 13.7643 16.8991 14.2727C17.0464 14.7811 17.0782 15.316 16.992 15.8383C16.9059 16.3605 16.704 16.8569 16.4012 17.2911C16.0984 17.7252 15.7024 18.0862 15.242 18.3475ZM15.242 15.2526C15.242 14.8971 15.1366 14.5496 14.9392 14.2541C14.7417 13.9585 14.461 13.7282 14.1326 13.5921C13.8042 13.4561 13.4428 13.4205 13.0942 13.4899C12.7455 13.5592 12.4253 13.7304 12.1739 13.9817C11.9226 14.2331 11.7514 14.5533 11.6821 14.902C11.6127 15.2506 11.6483 15.612 11.7843 15.9404C11.9204 16.2688 12.1507 16.5495 12.4463 16.747C12.7418 16.9444 13.0893 17.0499 13.4448 17.0499C13.9214 17.0499 14.3786 16.8605 14.7156 16.5235C15.0527 16.1864 15.242 15.7293 15.242 15.2526Z" fill="#E5E5E5"/>
</svg>
