<svg width="674" height="246" viewBox="0 0 674 246" fill="none" xmlns="http://www.w3.org/2000/svg">
<rect x="0.5" y="0.5" width="673" height="245" rx="15.5" fill="#181818"/>
<rect x="0.5" y="0.5" width="673" height="245" rx="15.5" stroke="#262626"/>
<path d="M35.826 34.54H33.288C32.91 33.208 31.884 32.506 30.516 32.506C28.464 32.506 27.276 34.18 27.276 36.898C27.276 39.634 28.446 41.254 30.516 41.254C31.812 41.254 32.838 40.588 33.252 39.31H35.808C35.16 41.866 33.054 43.27 30.552 43.27C26.97 43.27 24.792 40.858 24.792 36.898C24.792 32.956 27.006 30.49 30.588 30.49C33.126 30.49 35.268 31.876 35.826 34.54ZM37.5073 43V30.04H39.8113V34.648C40.4413 33.604 41.4493 33.082 42.6733 33.082C44.5993 33.082 45.9133 34.234 45.9133 36.574V43H43.6093V37.042C43.6093 35.728 43.0513 34.99 41.8813 34.99C40.6033 34.99 39.8113 36.106 39.8113 37.402V43H37.5073ZM50.2686 36.52H47.9466C48.2526 34.378 49.8186 33.082 52.2486 33.082C54.9306 33.082 56.2986 34.666 56.2986 36.898V40.642C56.2986 41.83 56.4066 42.496 56.5866 43H54.1926C54.0666 42.676 54.0126 42.208 53.9946 41.686C53.2026 42.802 52.0146 43.27 50.8626 43.27C48.9726 43.27 47.6226 42.334 47.6226 40.48C47.6226 39.166 48.3606 38.176 49.8366 37.69C51.1146 37.258 52.3566 37.15 53.9766 37.132V36.898C53.9766 35.656 53.3826 34.99 52.1046 34.99C51.0066 34.99 50.4126 35.602 50.2686 36.52ZM49.9446 40.354C49.9446 41.092 50.5206 41.56 51.4566 41.56C52.8786 41.56 53.9766 40.408 53.9766 38.968V38.554C50.7006 38.608 49.9446 39.382 49.9446 40.354ZM58.4956 43V30.04H60.7996V43H58.4956ZM62.9077 43V30.04H65.2117V43H62.9077ZM76.1218 39.85C75.5998 42.082 73.8718 43.27 71.5678 43.27C68.6518 43.27 66.8698 41.344 66.8698 38.194C66.8698 34.918 68.6698 33.082 71.4778 33.082C74.3038 33.082 76.0498 34.99 76.0498 38.104V38.644H69.2458C69.3538 40.408 70.1638 41.38 71.5678 41.38C72.6478 41.38 73.3858 40.876 73.6918 39.85H76.1218ZM71.4778 34.972C70.2538 34.972 69.5158 35.746 69.2998 37.204H73.6378C73.4218 35.764 72.6838 34.972 71.4778 34.972ZM77.7788 43V33.352H80.0828V34.648C80.7128 33.604 81.7208 33.082 82.9448 33.082C84.8708 33.082 86.1848 34.234 86.1848 36.574V43H83.8808V37.042C83.8808 35.728 83.3228 34.99 82.1528 34.99C80.8748 34.99 80.0828 36.106 80.0828 37.402V43H77.7788ZM91.8181 43.036C89.3701 43.036 87.8581 41.146 87.8581 38.068C87.8581 34.864 89.4061 33.082 91.8181 33.082C92.9701 33.082 93.8701 33.514 94.4641 34.324V33.352H96.7681V43.306C96.7681 45.916 94.9681 47.248 92.5741 47.248C90.1981 47.248 88.4701 46.15 88.1281 43.864H90.4501C90.5941 44.89 91.4221 45.43 92.5381 45.43C93.6901 45.43 94.4641 44.872 94.4641 43.342V41.722C93.8341 42.586 92.9341 43.036 91.8181 43.036ZM92.3401 41.128C93.7261 41.128 94.4641 40.048 94.4641 38.068C94.4641 36.106 93.6901 34.99 92.3401 34.99C90.9721 34.99 90.2341 36.07 90.2341 38.068C90.2341 40.03 90.9721 41.128 92.3401 41.128ZM107.692 39.85C107.17 42.082 105.442 43.27 103.138 43.27C100.222 43.27 98.4401 41.344 98.4401 38.194C98.4401 34.918 100.24 33.082 103.048 33.082C105.874 33.082 107.62 34.99 107.62 38.104V38.644H100.816C100.924 40.408 101.734 41.38 103.138 41.38C104.218 41.38 104.956 40.876 105.262 39.85H107.692ZM103.048 34.972C101.824 34.972 101.086 35.746 100.87 37.204H105.208C104.992 35.764 104.254 34.972 103.048 34.972ZM115.826 43V32.758H111.884V30.76H122.198V32.758H118.256V43H115.826ZM123.979 47.23C123.511 47.23 123.025 47.104 122.791 47.014V45.25H123.331C124.375 45.25 124.861 45.034 125.599 43.198L125.833 42.604L122.035 33.352H124.501L126.643 38.95L127.039 40.354L127.435 38.95L129.487 33.352H131.845L127.597 43.954C126.607 46.456 125.743 47.23 123.979 47.23ZM135.296 46.96H132.992V33.352H135.296V34.45C135.908 33.568 136.772 33.082 137.834 33.082C140.354 33.082 141.902 35.008 141.902 38.158C141.902 41.434 140.318 43.27 137.834 43.27C136.772 43.27 135.89 42.82 135.296 41.956V46.96ZM137.42 34.99C136.034 34.99 135.296 36.106 135.296 38.158C135.296 40.21 136.07 41.362 137.42 41.362C138.788 41.362 139.526 40.228 139.526 38.158C139.526 36.124 138.77 34.99 137.42 34.99ZM152.376 39.85C151.854 42.082 150.126 43.27 147.822 43.27C144.906 43.27 143.124 41.344 143.124 38.194C143.124 34.918 144.924 33.082 147.732 33.082C150.558 33.082 152.304 34.99 152.304 38.104V38.644H145.5C145.608 40.408 146.418 41.38 147.822 41.38C148.902 41.38 149.64 40.876 149.946 39.85H152.376ZM147.732 34.972C146.508 34.972 145.77 35.746 145.554 37.204H149.892C149.676 35.764 148.938 34.972 147.732 34.972Z" fill="#E5E5E5"/>
<path d="M25.924 64.318C25.924 66.814 31.345 64.877 31.345 68.504C31.345 70.207 29.967 71.156 28.082 71.156C26.184 71.156 24.884 70.285 24.494 68.504H25.742C26.028 69.557 26.821 70.129 28.095 70.129C29.421 70.129 30.123 69.544 30.123 68.66C30.123 65.956 24.702 67.971 24.702 64.396C24.702 63.122 25.768 62.004 27.718 62.004C29.421 62.004 30.786 62.823 31.111 64.708H29.85C29.577 63.538 28.823 63.031 27.692 63.031C26.574 63.031 25.924 63.538 25.924 64.318ZM38.71 68.751C38.333 70.363 37.176 71.156 35.603 71.156C33.601 71.156 32.392 69.804 32.392 67.555C32.392 65.215 33.601 63.928 35.538 63.928C37.488 63.928 38.658 65.267 38.658 67.464V67.75H33.562C33.627 69.297 34.355 70.168 35.603 70.168C36.578 70.168 37.267 69.7 37.514 68.751H38.71ZM35.538 64.916C34.433 64.916 33.77 65.605 33.601 66.892H37.462C37.306 65.618 36.617 64.916 35.538 64.916ZM40.1825 71V61.64H41.3265V71H40.1825ZM49.1075 68.751C48.7305 70.363 47.5735 71.156 46.0005 71.156C43.9985 71.156 42.7895 69.804 42.7895 67.555C42.7895 65.215 43.9985 63.928 45.9355 63.928C47.8855 63.928 49.0555 65.267 49.0555 67.464V67.75H43.9595C44.0245 69.297 44.7525 70.168 46.0005 70.168C46.9755 70.168 47.6645 69.7 47.9115 68.751H49.1075ZM45.9355 64.916C44.8305 64.916 44.1675 65.605 43.9985 66.892H47.8595C47.7035 65.618 47.0145 64.916 45.9355 64.916ZM56.2869 66.476H55.1429C54.9609 65.423 54.2589 64.916 53.3489 64.916C52.0749 64.916 51.3989 65.852 51.3989 67.555C51.3989 69.232 52.1139 70.181 53.3879 70.181C54.3109 70.181 54.9739 69.687 55.1949 68.699H56.3389C56.0269 70.415 54.8699 71.156 53.3619 71.156C51.3989 71.156 50.2289 69.791 50.2289 67.555C50.2289 65.215 51.4249 63.928 53.3489 63.928C54.8699 63.928 56.0659 64.786 56.2869 66.476ZM57.9088 69.011V65.007H56.9468V64.097H57.9088V62.511H59.0528V64.097H60.5738V65.007H59.0528V69.011C59.0528 69.843 59.2998 70.233 60.3138 70.233H60.5478V71.052C60.4178 71.117 60.1318 71.156 59.8068 71.156C58.5198 71.156 57.9088 70.467 57.9088 69.011ZM64.2655 71V61.64H65.4095V65.033C65.8775 64.305 66.6315 63.928 67.5415 63.928C69.0105 63.928 69.8815 64.786 69.8815 66.385V71H68.7375V66.619C68.7375 65.579 68.2695 64.903 67.2295 64.903C66.0855 64.903 65.4095 65.93 65.4095 66.918V71H64.2655ZM74.5129 71.156C72.5369 71.156 71.3539 69.804 71.3539 67.555C71.3539 65.215 72.5759 63.928 74.5129 63.928C76.4889 63.928 77.6719 65.306 77.6719 67.555C77.6719 69.882 76.4499 71.156 74.5129 71.156ZM74.5129 70.168C75.7999 70.168 76.5019 69.245 76.5019 67.555C76.5019 65.878 75.7869 64.916 74.5129 64.916C73.2259 64.916 72.5239 65.852 72.5239 67.555C72.5239 69.219 73.2389 70.168 74.5129 70.168ZM84.9974 71L83.5024 65.839L83.3464 65.059L83.1904 65.839L81.7084 71H80.2914L78.2374 64.097H79.4724L80.8894 69.453L81.0584 70.155L81.2274 69.453L82.8004 64.097H84.0354L85.6084 69.453L85.7644 70.129L85.9074 69.453L87.3244 64.097H88.5074L86.4404 71H84.9974ZM92.4564 74.016C92.1964 74.016 91.9234 73.951 91.7804 73.912V73.028H92.1314C92.9764 73.028 93.2104 72.859 93.8864 71.312L94.1204 70.779L91.2994 64.097H92.5344L94.4064 68.66L94.7184 69.583L95.0304 68.66L96.8504 64.097H98.0204L94.7964 71.91C94.1074 73.574 93.6524 74.016 92.4564 74.016ZM101.744 71.156C99.7684 71.156 98.5854 69.804 98.5854 67.555C98.5854 65.215 99.8074 63.928 101.744 63.928C103.72 63.928 104.903 65.306 104.903 67.555C104.903 69.882 103.681 71.156 101.744 71.156ZM101.744 70.168C103.031 70.168 103.733 69.245 103.733 67.555C103.733 65.878 103.018 64.916 101.744 64.916C100.457 64.916 99.7554 65.852 99.7554 67.555C99.7554 69.219 100.47 70.168 101.744 70.168ZM110.77 68.179V64.097H111.914V71H110.77V70.064C110.302 70.792 109.574 71.156 108.677 71.156C107.234 71.156 106.376 70.311 106.376 68.712V64.097H107.52V68.478C107.52 69.518 107.975 70.181 108.989 70.181C110.107 70.181 110.77 69.167 110.77 68.179ZM122.322 71L120.827 65.839L120.671 65.059L120.515 65.839L119.033 71H117.616L115.562 64.097H116.797L118.214 69.453L118.383 70.155L118.552 69.453L120.125 64.097H121.36L122.933 69.453L123.089 70.129L123.232 69.453L124.649 64.097H125.832L123.765 71H122.322ZM127.919 66.346H126.775C126.996 64.825 127.997 63.928 129.687 63.928C131.533 63.928 132.43 65.007 132.43 66.619V69.336C132.43 70.129 132.495 70.623 132.677 71H131.468C131.338 70.727 131.299 70.324 131.286 69.908C130.701 70.779 129.765 71.156 128.933 71.156C127.503 71.156 126.541 70.493 126.541 69.18C126.541 68.231 127.061 67.542 128.075 67.204C129.011 66.892 129.96 66.814 131.286 66.801V66.645C131.286 65.527 130.766 64.916 129.583 64.916C128.595 64.916 128.062 65.462 127.919 66.346ZM127.711 69.154C127.711 69.791 128.244 70.168 129.05 70.168C130.324 70.168 131.286 69.167 131.286 67.984V67.659C128.348 67.685 127.711 68.309 127.711 69.154ZM134.306 71V64.097H135.45V65.033C135.918 64.305 136.672 63.928 137.582 63.928C139.051 63.928 139.922 64.786 139.922 66.385V71H138.778V66.619C138.778 65.579 138.31 64.903 137.27 64.903C136.126 64.903 135.45 65.93 135.45 66.918V71H134.306ZM141.901 69.011V65.007H140.939V64.097H141.901V62.511H143.045V64.097H144.566V65.007H143.045V69.011C143.045 69.843 143.292 70.233 144.306 70.233H144.54V71.052C144.41 71.117 144.124 71.156 143.799 71.156C142.512 71.156 141.901 70.467 141.901 69.011ZM148.414 69.011V65.007H147.452V64.097H148.414V62.511H149.558V64.097H151.079V65.007H149.558V69.011C149.558 69.843 149.805 70.233 150.819 70.233H151.053V71.052C150.923 71.117 150.637 71.156 150.312 71.156C149.025 71.156 148.414 70.467 148.414 69.011ZM154.976 71.156C153 71.156 151.817 69.804 151.817 67.555C151.817 65.215 153.039 63.928 154.976 63.928C156.952 63.928 158.135 65.306 158.135 67.555C158.135 69.882 156.913 71.156 154.976 71.156ZM154.976 70.168C156.263 70.168 156.965 69.245 156.965 67.555C156.965 65.878 156.25 64.916 154.976 64.916C153.689 64.916 152.987 65.852 152.987 67.555C152.987 69.219 153.702 70.168 154.976 70.168ZM164.797 71.156C162.964 71.156 161.859 69.804 161.859 67.555C161.859 65.215 162.99 63.928 164.797 63.928C165.616 63.928 166.279 64.266 166.734 64.903V64.097H167.878V73.86H166.734V70.129C166.279 70.779 165.616 71.156 164.797 71.156ZM164.875 70.168C166.084 70.168 166.734 69.245 166.734 67.555C166.734 65.878 166.058 64.916 164.875 64.916C163.679 64.916 163.029 65.852 163.029 67.555C163.029 69.219 163.705 70.168 164.875 70.168ZM174.107 68.179V64.097H175.251V71H174.107V70.064C173.639 70.792 172.911 71.156 172.014 71.156C170.571 71.156 169.713 70.311 169.713 68.712V64.097H170.857V68.478C170.857 69.518 171.312 70.181 172.326 70.181C173.444 70.181 174.107 69.167 174.107 68.179ZM178.129 66.346H176.985C177.206 64.825 178.207 63.928 179.897 63.928C181.743 63.928 182.64 65.007 182.64 66.619V69.336C182.64 70.129 182.705 70.623 182.887 71H181.678C181.548 70.727 181.509 70.324 181.496 69.908C180.911 70.779 179.975 71.156 179.143 71.156C177.713 71.156 176.751 70.493 176.751 69.18C176.751 68.231 177.271 67.542 178.285 67.204C179.221 66.892 180.17 66.814 181.496 66.801V66.645C181.496 65.527 180.976 64.916 179.793 64.916C178.805 64.916 178.272 65.462 178.129 66.346ZM177.921 69.154C177.921 69.791 178.454 70.168 179.26 70.168C180.534 70.168 181.496 69.167 181.496 67.984V67.659C178.558 67.685 177.921 68.309 177.921 69.154ZM184.515 71V61.64H185.659V71H184.515ZM187.473 63.174V61.64H188.617V63.174H187.473ZM187.473 71V64.097H188.617V71H187.473ZM189.586 65.007V64.097H190.548V63.629C190.548 62.173 191.146 61.484 192.42 61.484C192.706 61.484 192.94 61.536 193.057 61.588V62.407H192.94C191.939 62.407 191.692 62.797 191.692 63.629V64.097H193.057V65.007H191.692V71H190.548V65.007H189.586ZM194.285 74.016C194.025 74.016 193.752 73.951 193.609 73.912V73.028H193.96C194.805 73.028 195.039 72.859 195.715 71.312L195.949 70.779L193.128 64.097H194.363L196.235 68.66L196.547 69.583L196.859 68.66L198.679 64.097H199.849L196.625 71.91C195.936 73.574 195.481 74.016 194.285 74.016ZM202.586 65.007V64.097H203.548V63.629C203.548 62.173 204.146 61.484 205.42 61.484C205.706 61.484 205.94 61.536 206.057 61.588V62.407H205.94C204.939 62.407 204.692 62.797 204.692 63.629V64.097H206.057V65.007H204.692V71H203.548V65.007H202.586ZM209.781 71.156C207.805 71.156 206.622 69.804 206.622 67.555C206.622 65.215 207.844 63.928 209.781 63.928C211.757 63.928 212.94 65.306 212.94 67.555C212.94 69.882 211.718 71.156 209.781 71.156ZM209.781 70.168C211.068 70.168 211.77 69.245 211.77 67.555C211.77 65.878 211.055 64.916 209.781 64.916C208.494 64.916 207.792 65.852 207.792 67.555C207.792 69.219 208.507 70.168 209.781 70.168ZM214.413 71V64.097H215.557V65.163C216.025 64.318 216.766 63.928 217.598 63.928C217.871 63.928 218.118 63.993 218.248 64.097V65.124C218.053 65.059 217.806 65.033 217.533 65.033C216.155 65.033 215.557 65.891 215.557 67.139V71H214.413ZM222.918 66.346H221.774C221.995 64.825 222.996 63.928 224.686 63.928C226.532 63.928 227.429 65.007 227.429 66.619V69.336C227.429 70.129 227.494 70.623 227.676 71H226.467C226.337 70.727 226.298 70.324 226.285 69.908C225.7 70.779 224.764 71.156 223.932 71.156C222.502 71.156 221.54 70.493 221.54 69.18C221.54 68.231 222.06 67.542 223.074 67.204C224.01 66.892 224.959 66.814 226.285 66.801V66.645C226.285 65.527 225.765 64.916 224.582 64.916C223.594 64.916 223.061 65.462 222.918 66.346ZM222.71 69.154C222.71 69.791 223.243 70.168 224.049 70.168C225.323 70.168 226.285 69.167 226.285 67.984V67.659C223.347 67.685 222.71 68.309 222.71 69.154ZM231.062 65.007V64.097H232.024V63.629C232.024 62.173 232.622 61.484 233.896 61.484C234.182 61.484 234.416 61.536 234.533 61.588V62.407H234.416C233.415 62.407 233.168 62.797 233.168 63.629V64.097H234.533V65.007H233.168V71H232.024V65.007H231.062ZM239.843 68.179V64.097H240.987V71H239.843V70.064C239.375 70.792 238.647 71.156 237.75 71.156C236.307 71.156 235.449 70.311 235.449 68.712V64.097H236.593V68.478C236.593 69.518 237.048 70.181 238.062 70.181C239.18 70.181 239.843 69.167 239.843 68.179ZM242.812 71V64.097H243.956V65.033C244.424 64.305 245.178 63.928 246.088 63.928C247.557 63.928 248.428 64.786 248.428 66.385V71H247.284V66.619C247.284 65.579 246.816 64.903 245.776 64.903C244.632 64.903 243.956 65.93 243.956 66.918V71H242.812ZM252.839 71.156C251.006 71.156 249.901 69.804 249.901 67.555C249.901 65.215 251.032 63.928 252.839 63.928C253.658 63.928 254.321 64.266 254.776 64.903V61.64H255.92V71H254.776V70.129C254.321 70.779 253.658 71.156 252.839 71.156ZM252.917 70.168C254.126 70.168 254.776 69.245 254.776 67.555C254.776 65.878 254.1 64.916 252.917 64.916C251.721 64.916 251.071 65.852 251.071 67.555C251.071 69.219 251.747 70.168 252.917 70.168ZM263.709 68.751C263.332 70.363 262.175 71.156 260.602 71.156C258.6 71.156 257.391 69.804 257.391 67.555C257.391 65.215 258.6 63.928 260.537 63.928C262.487 63.928 263.657 65.267 263.657 67.464V67.75H258.561C258.626 69.297 259.354 70.168 260.602 70.168C261.577 70.168 262.266 69.7 262.513 68.751H263.709ZM260.537 64.916C259.432 64.916 258.769 65.605 258.6 66.892H262.461C262.305 65.618 261.616 64.916 260.537 64.916ZM267.768 71.156C265.935 71.156 264.83 69.804 264.83 67.555C264.83 65.215 265.961 63.928 267.768 63.928C268.587 63.928 269.25 64.266 269.705 64.903V61.64H270.849V71H269.705V70.129C269.25 70.779 268.587 71.156 267.768 71.156ZM267.846 70.168C269.055 70.168 269.705 69.245 269.705 67.555C269.705 65.878 269.029 64.916 267.846 64.916C266.65 64.916 266 65.852 266 67.555C266 69.219 266.676 70.168 267.846 70.168ZM276.327 66.346H275.183C275.404 64.825 276.405 63.928 278.095 63.928C279.941 63.928 280.838 65.007 280.838 66.619V69.336C280.838 70.129 280.903 70.623 281.085 71H279.876C279.746 70.727 279.707 70.324 279.694 69.908C279.109 70.779 278.173 71.156 277.341 71.156C275.911 71.156 274.949 70.493 274.949 69.18C274.949 68.231 275.469 67.542 276.483 67.204C277.419 66.892 278.368 66.814 279.694 66.801V66.645C279.694 65.527 279.174 64.916 277.991 64.916C277.003 64.916 276.47 65.462 276.327 66.346ZM276.119 69.154C276.119 69.791 276.652 70.168 277.458 70.168C278.732 70.168 279.694 69.167 279.694 67.984V67.659C276.756 67.685 276.119 68.309 276.119 69.154ZM288.421 66.476H287.277C287.095 65.423 286.393 64.916 285.483 64.916C284.209 64.916 283.533 65.852 283.533 67.555C283.533 69.232 284.248 70.181 285.522 70.181C286.445 70.181 287.108 69.687 287.329 68.699H288.473C288.161 70.415 287.004 71.156 285.496 71.156C283.533 71.156 282.363 69.791 282.363 67.555C282.363 65.215 283.559 63.928 285.483 63.928C287.004 63.928 288.2 64.786 288.421 66.476ZM295.594 66.476H294.45C294.268 65.423 293.566 64.916 292.656 64.916C291.382 64.916 290.706 65.852 290.706 67.555C290.706 69.232 291.421 70.181 292.695 70.181C293.618 70.181 294.281 69.687 294.502 68.699H295.646C295.334 70.415 294.177 71.156 292.669 71.156C290.706 71.156 289.536 69.791 289.536 67.555C289.536 65.215 290.732 63.928 292.656 63.928C294.177 63.928 295.373 64.786 295.594 66.476ZM299.867 71.156C297.891 71.156 296.708 69.804 296.708 67.555C296.708 65.215 297.93 63.928 299.867 63.928C301.843 63.928 303.026 65.306 303.026 67.555C303.026 69.882 301.804 71.156 299.867 71.156ZM299.867 70.168C301.154 70.168 301.856 69.245 301.856 67.555C301.856 65.878 301.141 64.916 299.867 64.916C298.58 64.916 297.878 65.852 297.878 67.555C297.878 69.219 298.593 70.168 299.867 70.168ZM308.893 68.179V64.097H310.037V71H308.893V70.064C308.425 70.792 307.697 71.156 306.8 71.156C305.357 71.156 304.499 70.311 304.499 68.712V64.097H305.643V68.478C305.643 69.518 306.098 70.181 307.112 70.181C308.23 70.181 308.893 69.167 308.893 68.179ZM311.862 71V64.097H313.006V65.033C313.474 64.305 314.228 63.928 315.138 63.928C316.607 63.928 317.478 64.786 317.478 66.385V71H316.334V66.619C316.334 65.579 315.866 64.903 314.826 64.903C313.682 64.903 313.006 65.93 313.006 66.918V71H311.862ZM319.458 69.011V65.007H318.496V64.097H319.458V62.511H320.602V64.097H322.123V65.007H320.602V69.011C320.602 69.843 320.849 70.233 321.863 70.233H322.097V71.052C321.967 71.117 321.681 71.156 321.356 71.156C320.069 71.156 319.458 70.467 319.458 69.011ZM323.082 71V69.596H324.486V71H323.082ZM328.876 71V62.16H334.869V63.135H330.072V65.93H334.388V66.905H330.072V70.025H334.869V71H328.876ZM337.404 66.346H336.26C336.481 64.825 337.482 63.928 339.172 63.928C341.018 63.928 341.915 65.007 341.915 66.619V69.336C341.915 70.129 341.98 70.623 342.162 71H340.953C340.823 70.727 340.784 70.324 340.771 69.908C340.186 70.779 339.25 71.156 338.418 71.156C336.988 71.156 336.026 70.493 336.026 69.18C336.026 68.231 336.546 67.542 337.56 67.204C338.496 66.892 339.445 66.814 340.771 66.801V66.645C340.771 65.527 340.251 64.916 339.068 64.916C338.08 64.916 337.547 65.462 337.404 66.346ZM337.196 69.154C337.196 69.791 337.729 70.168 338.535 70.168C339.809 70.168 340.771 69.167 340.771 67.984V67.659C337.833 67.685 337.196 68.309 337.196 69.154ZM349.498 66.476H348.354C348.172 65.423 347.47 64.916 346.56 64.916C345.286 64.916 344.61 65.852 344.61 67.555C344.61 69.232 345.325 70.181 346.599 70.181C347.522 70.181 348.185 69.687 348.406 68.699H349.55C349.238 70.415 348.081 71.156 346.573 71.156C344.61 71.156 343.44 69.791 343.44 67.555C343.44 65.215 344.636 63.928 346.56 63.928C348.081 63.928 349.277 64.786 349.498 66.476ZM350.964 71V61.64H352.108V65.033C352.576 64.305 353.33 63.928 354.24 63.928C355.709 63.928 356.58 64.786 356.58 66.385V71H355.436V66.619C355.436 65.579 354.968 64.903 353.928 64.903C352.784 64.903 352.108 65.93 352.108 66.918V71H350.964ZM361.162 69.011V65.007H360.2V64.097H361.162V62.511H362.306V64.097H363.827V65.007H362.306V69.011C362.306 69.843 362.553 70.233 363.567 70.233H363.801V71.052C363.671 71.117 363.385 71.156 363.06 71.156C361.773 71.156 361.162 70.467 361.162 69.011ZM365.228 74.016C364.968 74.016 364.695 73.951 364.552 73.912V73.028H364.903C365.748 73.028 365.982 72.859 366.658 71.312L366.892 70.779L364.071 64.097H365.306L367.178 68.66L367.49 69.583L367.802 68.66L369.622 64.097H370.792L367.568 71.91C366.879 73.574 366.424 74.016 365.228 74.016ZM372.928 73.86H371.784V64.097H372.928V64.955C373.383 64.305 374.046 63.928 374.865 63.928C376.698 63.928 377.803 65.28 377.803 67.529C377.803 69.869 376.672 71.156 374.865 71.156C374.046 71.156 373.383 70.818 372.928 70.181V73.86ZM374.787 64.916C373.578 64.916 372.928 65.839 372.928 67.529C372.928 69.206 373.604 70.168 374.787 70.168C375.983 70.168 376.633 69.232 376.633 67.529C376.633 65.865 375.957 64.916 374.787 64.916ZM385.241 68.751C384.864 70.363 383.707 71.156 382.134 71.156C380.132 71.156 378.923 69.804 378.923 67.555C378.923 65.215 380.132 63.928 382.069 63.928C384.019 63.928 385.189 65.267 385.189 67.464V67.75H380.093C380.158 69.297 380.886 70.168 382.134 70.168C383.109 70.168 383.798 69.7 384.045 68.751H385.241ZM382.069 64.916C380.964 64.916 380.301 65.605 380.132 66.892H383.993C383.837 65.618 383.148 64.916 382.069 64.916ZM389.316 71V61.64H390.46V65.033C390.928 64.305 391.682 63.928 392.592 63.928C394.061 63.928 394.932 64.786 394.932 66.385V71H393.788V66.619C393.788 65.579 393.32 64.903 392.28 64.903C391.136 64.903 390.46 65.93 390.46 66.918V71H389.316ZM397.809 66.346H396.665C396.886 64.825 397.887 63.928 399.577 63.928C401.423 63.928 402.32 65.007 402.32 66.619V69.336C402.32 70.129 402.385 70.623 402.567 71H401.358C401.228 70.727 401.189 70.324 401.176 69.908C400.591 70.779 399.655 71.156 398.823 71.156C397.393 71.156 396.431 70.493 396.431 69.18C396.431 68.231 396.951 67.542 397.965 67.204C398.901 66.892 399.85 66.814 401.176 66.801V66.645C401.176 65.527 400.656 64.916 399.473 64.916C398.485 64.916 397.952 65.462 397.809 66.346ZM397.601 69.154C397.601 69.791 398.134 70.168 398.94 70.168C400.214 70.168 401.176 69.167 401.176 67.984V67.659C398.238 67.685 397.601 68.309 397.601 69.154ZM405.04 65.865C405.04 67.789 409.525 66.203 409.525 69.05C409.525 70.337 408.381 71.156 406.756 71.156C405.118 71.156 403.974 70.376 403.714 68.751H404.858C405.014 69.713 405.729 70.246 406.795 70.246C407.835 70.246 408.381 69.778 408.381 69.128C408.381 67.243 403.948 68.803 403.948 65.943C403.948 64.89 404.767 63.928 406.457 63.928C407.952 63.928 409.057 64.63 409.278 66.346H408.134C407.965 65.267 407.367 64.864 406.392 64.864C405.534 64.864 405.04 65.293 405.04 65.865ZM416.075 71.156C414.242 71.156 413.137 69.804 413.137 67.555C413.137 65.215 414.268 63.928 416.075 63.928C416.894 63.928 417.557 64.266 418.012 64.903V61.64H419.156V71H418.012V70.129C417.557 70.779 416.894 71.156 416.075 71.156ZM416.153 70.168C417.362 70.168 418.012 69.245 418.012 67.555C418.012 65.878 417.336 64.916 416.153 64.916C414.957 64.916 414.307 65.852 414.307 67.555C414.307 69.219 414.983 70.168 416.153 70.168ZM420.978 63.174V61.64H422.122V63.174H420.978ZM420.978 71V64.097H422.122V71H420.978ZM423.091 65.007V64.097H424.053V63.629C424.053 62.173 424.651 61.484 425.925 61.484C426.211 61.484 426.445 61.536 426.562 61.588V62.407H426.445C425.444 62.407 425.197 62.797 425.197 63.629V64.097H426.562V65.007H425.197V71H424.053V65.007H423.091ZM426.633 65.007V64.097H427.595V63.629C427.595 62.173 428.193 61.484 429.467 61.484C429.753 61.484 429.987 61.536 430.104 61.588V62.407H429.987C428.986 62.407 428.739 62.797 428.739 63.629V64.097H430.104V65.007H428.739V71H427.595V65.007H426.633ZM436.987 68.751C436.61 70.363 435.453 71.156 433.88 71.156C431.878 71.156 430.669 69.804 430.669 67.555C430.669 65.215 431.878 63.928 433.815 63.928C435.765 63.928 436.935 65.267 436.935 67.464V67.75H431.839C431.904 69.297 432.632 70.168 433.88 70.168C434.855 70.168 435.544 69.7 435.791 68.751H436.987ZM433.815 64.916C432.71 64.916 432.047 65.605 431.878 66.892H435.739C435.583 65.618 434.894 64.916 433.815 64.916ZM438.46 71V64.097H439.604V65.163C440.072 64.318 440.813 63.928 441.645 63.928C441.918 63.928 442.165 63.993 442.295 64.097V65.124C442.1 65.059 441.853 65.033 441.58 65.033C440.202 65.033 439.604 65.891 439.604 67.139V71H438.46ZM449.149 68.751C448.772 70.363 447.615 71.156 446.042 71.156C444.04 71.156 442.831 69.804 442.831 67.555C442.831 65.215 444.04 63.928 445.977 63.928C447.927 63.928 449.097 65.267 449.097 67.464V67.75H444.001C444.066 69.297 444.794 70.168 446.042 70.168C447.017 70.168 447.706 69.7 447.953 68.751H449.149ZM445.977 64.916C444.872 64.916 444.209 65.605 444.04 66.892H447.901C447.745 65.618 447.056 64.916 445.977 64.916ZM450.622 71V64.097H451.766V65.033C452.234 64.305 452.988 63.928 453.898 63.928C455.367 63.928 456.238 64.786 456.238 66.385V71H455.094V66.619C455.094 65.579 454.626 64.903 453.586 64.903C452.442 64.903 451.766 65.93 451.766 66.918V71H450.622ZM458.217 69.011V65.007H457.255V64.097H458.217V62.511H459.361V64.097H460.882V65.007H459.361V69.011C459.361 69.843 459.608 70.233 460.622 70.233H460.856V71.052C460.726 71.117 460.44 71.156 460.115 71.156C458.828 71.156 458.217 70.467 458.217 69.011ZM464.574 71V64.097H465.718V65.163C466.186 64.318 466.927 63.928 467.759 63.928C468.032 63.928 468.279 63.993 468.409 64.097V65.124C468.214 65.059 467.967 65.033 467.694 65.033C466.316 65.033 465.718 65.891 465.718 67.139V71H464.574ZM473.818 68.179V64.097H474.962V71H473.818V70.064C473.35 70.792 472.622 71.156 471.725 71.156C470.282 71.156 469.424 70.311 469.424 68.712V64.097H470.568V68.478C470.568 69.518 471.023 70.181 472.037 70.181C473.155 70.181 473.818 69.167 473.818 68.179ZM476.787 71V61.64H477.931V71H476.787ZM485.712 68.751C485.335 70.363 484.178 71.156 482.605 71.156C480.603 71.156 479.394 69.804 479.394 67.555C479.394 65.215 480.603 63.928 482.54 63.928C484.49 63.928 485.66 65.267 485.66 67.464V67.75H480.564C480.629 69.297 481.357 70.168 482.605 70.168C483.58 70.168 484.269 69.7 484.516 68.751H485.712ZM482.54 64.916C481.435 64.916 480.772 65.605 480.603 66.892H484.464C484.308 65.618 483.619 64.916 482.54 64.916ZM488.029 65.865C488.029 67.789 492.514 66.203 492.514 69.05C492.514 70.337 491.37 71.156 489.745 71.156C488.107 71.156 486.963 70.376 486.703 68.751H487.847C488.003 69.713 488.718 70.246 489.784 70.246C490.824 70.246 491.37 69.778 491.37 69.128C491.37 67.243 486.937 68.803 486.937 65.943C486.937 64.89 487.756 63.928 489.446 63.928C490.941 63.928 492.046 64.63 492.267 66.346H491.123C490.954 65.267 490.356 64.864 489.381 64.864C488.523 64.864 488.029 65.293 488.029 65.865ZM497.53 66.346H496.386C496.607 64.825 497.608 63.928 499.298 63.928C501.144 63.928 502.041 65.007 502.041 66.619V69.336C502.041 70.129 502.106 70.623 502.288 71H501.079C500.949 70.727 500.91 70.324 500.897 69.908C500.312 70.779 499.376 71.156 498.544 71.156C497.114 71.156 496.152 70.493 496.152 69.18C496.152 68.231 496.672 67.542 497.686 67.204C498.622 66.892 499.571 66.814 500.897 66.801V66.645C500.897 65.527 500.377 64.916 499.194 64.916C498.206 64.916 497.673 65.462 497.53 66.346ZM497.322 69.154C497.322 69.791 497.855 70.168 498.661 70.168C499.935 70.168 500.897 69.167 500.897 67.984V67.659C497.959 67.685 497.322 68.309 497.322 69.154ZM503.917 71V64.097H505.061V65.033C505.529 64.305 506.283 63.928 507.193 63.928C508.662 63.928 509.533 64.786 509.533 66.385V71H508.389V66.619C508.389 65.579 507.921 64.903 506.881 64.903C505.737 64.903 505.061 65.93 505.061 66.918V71H503.917ZM513.943 71.156C512.11 71.156 511.005 69.804 511.005 67.555C511.005 65.215 512.136 63.928 513.943 63.928C514.762 63.928 515.425 64.266 515.88 64.903V61.64H517.024V71H515.88V70.129C515.425 70.779 514.762 71.156 513.943 71.156ZM514.021 70.168C515.23 70.168 515.88 69.245 515.88 67.555C515.88 65.878 515.204 64.916 514.021 64.916C512.825 64.916 512.175 65.852 512.175 67.555C512.175 69.219 512.851 70.168 514.021 70.168ZM521.449 71V64.097H522.593V65.163C523.061 64.318 523.802 63.928 524.634 63.928C524.907 63.928 525.154 63.993 525.284 64.097V65.124C525.089 65.059 524.842 65.033 524.569 65.033C523.191 65.033 522.593 65.891 522.593 67.139V71H521.449ZM532.139 68.751C531.762 70.363 530.605 71.156 529.032 71.156C527.03 71.156 525.821 69.804 525.821 67.555C525.821 65.215 527.03 63.928 528.967 63.928C530.917 63.928 532.087 65.267 532.087 67.464V67.75H526.991C527.056 69.297 527.784 70.168 529.032 70.168C530.007 70.168 530.696 69.7 530.943 68.751H532.139ZM528.967 64.916C527.862 64.916 527.199 65.605 527.03 66.892H530.891C530.735 65.618 530.046 64.916 528.967 64.916ZM536.198 71.156C534.365 71.156 533.26 69.804 533.26 67.555C533.26 65.215 534.391 63.928 536.198 63.928C537.017 63.928 537.68 64.266 538.135 64.903V64.097H539.279V73.86H538.135V70.129C537.68 70.779 537.017 71.156 536.198 71.156ZM536.276 70.168C537.485 70.168 538.135 69.245 538.135 67.555C538.135 65.878 537.459 64.916 536.276 64.916C535.08 64.916 534.43 65.852 534.43 67.555C534.43 69.219 535.106 70.168 536.276 70.168ZM545.508 68.179V64.097H546.652V71H545.508V70.064C545.04 70.792 544.312 71.156 543.415 71.156C541.972 71.156 541.114 70.311 541.114 68.712V64.097H542.258V68.478C542.258 69.518 542.713 70.181 543.727 70.181C544.845 70.181 545.508 69.167 545.508 68.179ZM548.477 63.174V61.64H549.621V63.174H548.477ZM548.477 71V64.097H549.621V71H548.477ZM551.435 71V64.097H552.579V65.163C553.047 64.318 553.788 63.928 554.62 63.928C554.893 63.928 555.14 63.993 555.27 64.097V65.124C555.075 65.059 554.828 65.033 554.555 65.033C553.177 65.033 552.579 65.891 552.579 67.139V71H551.435ZM562.125 68.751C561.748 70.363 560.591 71.156 559.018 71.156C557.016 71.156 555.807 69.804 555.807 67.555C555.807 65.215 557.016 63.928 558.953 63.928C560.903 63.928 562.073 65.267 562.073 67.464V67.75H556.977C557.042 69.297 557.77 70.168 559.018 70.168C559.993 70.168 560.682 69.7 560.929 68.751H562.125ZM558.953 64.916C557.848 64.916 557.185 65.605 557.016 66.892H560.877C560.721 65.618 560.032 64.916 558.953 64.916ZM563.598 71V64.097H564.742V64.981C565.184 64.279 565.873 63.928 566.718 63.928C567.667 63.928 568.356 64.344 568.681 65.15C569.136 64.344 569.89 63.928 570.812 63.928C572.217 63.928 573.062 64.786 573.062 66.385V71H571.918V66.619C571.918 65.579 571.502 64.903 570.566 64.903C569.526 64.903 568.902 65.93 568.902 66.918V71H567.758V66.619C567.758 65.579 567.342 64.903 566.406 64.903C565.366 64.903 564.742 65.93 564.742 66.918V71H563.598ZM580.851 68.751C580.474 70.363 579.317 71.156 577.744 71.156C575.742 71.156 574.533 69.804 574.533 67.555C574.533 65.215 575.742 63.928 577.679 63.928C579.629 63.928 580.799 65.267 580.799 67.464V67.75H575.703C575.768 69.297 576.496 70.168 577.744 70.168C578.719 70.168 579.408 69.7 579.655 68.751H580.851ZM577.679 64.916C576.574 64.916 575.911 65.605 575.742 66.892H579.603C579.447 65.618 578.758 64.916 577.679 64.916ZM582.323 71V64.097H583.467V65.033C583.935 64.305 584.689 63.928 585.599 63.928C587.068 63.928 587.939 64.786 587.939 66.385V71H586.795V66.619C586.795 65.579 586.327 64.903 585.287 64.903C584.143 64.903 583.467 65.93 583.467 66.918V71H582.323ZM589.919 69.011V65.007H588.957V64.097H589.919V62.511H591.063V64.097H592.584V65.007H591.063V69.011C591.063 69.843 591.31 70.233 592.324 70.233H592.558V71.052C592.428 71.117 592.142 71.156 591.817 71.156C590.53 71.156 589.919 70.467 589.919 69.011ZM594.518 65.865C594.518 67.789 599.003 66.203 599.003 69.05C599.003 70.337 597.859 71.156 596.234 71.156C594.596 71.156 593.452 70.376 593.192 68.751H594.336C594.492 69.713 595.207 70.246 596.273 70.246C597.313 70.246 597.859 69.778 597.859 69.128C597.859 67.243 593.426 68.803 593.426 65.943C593.426 64.89 594.245 63.928 595.935 63.928C597.43 63.928 598.535 64.63 598.756 66.346H597.612C597.443 65.267 596.845 64.864 595.87 64.864C595.012 64.864 594.518 65.293 594.518 65.865ZM600.233 71V69.596H601.637V71H600.233Z" fill="#868686"/>
<rect x="24.5" y="118.5" width="308" height="103" rx="15.5" fill="#252525" fill-opacity="0.3"/>
<rect x="24.5" y="118.5" width="308" height="103" rx="15.5" stroke="#E5E5E5"/>
<path d="M45.278 151.21C42.394 151.21 40.616 149.32 40.616 146.254C40.616 143.188 42.394 141.27 45.278 141.27C48.162 141.27 49.954 143.188 49.954 146.254C49.954 149.32 48.162 151.21 45.278 151.21ZM45.278 149.642C47 149.642 48.022 148.368 48.022 146.254C48.022 144.14 47 142.838 45.278 142.838C43.556 142.838 42.548 144.126 42.548 146.254C42.548 148.368 43.556 149.642 45.278 149.642ZM51.3944 151V143.496H53.1864V144.504C53.6764 143.692 54.4604 143.286 55.4124 143.286C56.9104 143.286 57.9324 144.182 57.9324 146.002V151H56.1404V146.366C56.1404 145.344 55.7064 144.77 54.7964 144.77C53.8024 144.77 53.1864 145.638 53.1864 146.646V151H51.3944ZM66.4298 148.55C66.0238 150.286 64.6798 151.21 62.8878 151.21C60.6198 151.21 59.2338 149.712 59.2338 147.262C59.2338 144.714 60.6338 143.286 62.8178 143.286C65.0158 143.286 66.3738 144.77 66.3738 147.192V147.612H61.0818C61.1658 148.984 61.7958 149.74 62.8878 149.74C63.7278 149.74 64.3018 149.348 64.5398 148.55H66.4298ZM62.8178 144.756C61.8658 144.756 61.2918 145.358 61.1238 146.492H64.4978C64.3298 145.372 63.7558 144.756 62.8178 144.756ZM67.6906 147.948V146.422H71.5266V147.948H67.6906ZM74.868 143.874C74.868 146.156 80.566 144.308 80.566 148.2C80.566 150.118 78.998 151.21 76.842 151.21C74.672 151.21 73.132 150.202 72.768 148.13H74.742C74.98 149.138 75.708 149.698 76.856 149.698C78.032 149.698 78.634 149.208 78.634 148.438C78.634 146.016 72.95 147.836 72.95 144.042C72.95 142.53 74.196 141.27 76.45 141.27C78.368 141.27 79.992 142.194 80.3 144.336H78.298C78.074 143.272 77.416 142.782 76.394 142.782C75.442 142.782 74.868 143.216 74.868 143.874ZM82.066 148.662V144.882H81.1V143.496H82.066V141.774H83.858V143.496H85.44V144.882H83.858V148.508C83.858 149.292 84.082 149.712 85.076 149.712H85.412V151.028C85.216 151.126 84.81 151.21 84.32 151.21C82.794 151.21 82.066 150.342 82.066 148.662ZM93.3361 148.55C92.9301 150.286 91.5861 151.21 89.7941 151.21C87.5261 151.21 86.1401 149.712 86.1401 147.262C86.1401 144.714 87.5401 143.286 89.7241 143.286C91.9221 143.286 93.2801 144.77 93.2801 147.192V147.612H87.9881C88.0721 148.984 88.7021 149.74 89.7941 149.74C90.6341 149.74 91.2081 149.348 91.4461 148.55H93.3361ZM89.7241 144.756C88.7721 144.756 88.1981 145.358 88.0301 146.492H91.4041C91.2361 145.372 90.6621 144.756 89.7241 144.756ZM96.4168 154.08H94.6248V143.496H96.4168V144.35C96.8928 143.664 97.5648 143.286 98.3908 143.286C100.351 143.286 101.555 144.784 101.555 147.234C101.555 149.782 100.323 151.21 98.3908 151.21C97.5648 151.21 96.8788 150.86 96.4168 150.188V154.08ZM98.0688 144.77C96.9908 144.77 96.4168 145.638 96.4168 147.234C96.4168 148.83 97.0188 149.726 98.0688 149.726C99.1328 149.726 99.7068 148.844 99.7068 147.234C99.7068 145.652 99.1188 144.77 98.0688 144.77Z" fill="#E5E5E5"/>
<path d="M41.014 181V172.16H44.199C46.058 172.16 47.241 173.122 47.241 174.656C47.241 175.67 46.747 176.385 45.915 176.762C46.487 177.022 46.786 177.503 47.007 178.374L47.67 181H46.409L45.85 178.608C45.59 177.503 45.148 177.295 44.082 177.295H42.21V181H41.014ZM44.173 173.135H42.21V176.32H44.147C45.317 176.32 46.006 175.696 46.006 174.721C46.006 173.746 45.317 173.135 44.173 173.135ZM54.9639 178.751C54.5869 180.363 53.4299 181.156 51.8569 181.156C49.8549 181.156 48.6459 179.804 48.6459 177.555C48.6459 175.215 49.8549 173.928 51.7919 173.928C53.7419 173.928 54.9119 175.267 54.9119 177.464V177.75H49.8159C49.8809 179.297 50.6089 180.168 51.8569 180.168C52.8319 180.168 53.5209 179.7 53.7679 178.751H54.9639ZM51.7919 174.916C50.6869 174.916 50.0239 175.605 49.8549 176.892H53.7159C53.5599 175.618 52.8709 174.916 51.7919 174.916ZM57.4894 176.346H56.3454C56.5664 174.825 57.5674 173.928 59.2574 173.928C61.1034 173.928 62.0004 175.007 62.0004 176.619V179.336C62.0004 180.129 62.0654 180.623 62.2474 181H61.0384C60.9084 180.727 60.8694 180.324 60.8564 179.908C60.2714 180.779 59.3354 181.156 58.5034 181.156C57.0734 181.156 56.1114 180.493 56.1114 179.18C56.1114 178.231 56.6314 177.542 57.6454 177.204C58.5814 176.892 59.5304 176.814 60.8564 176.801V176.645C60.8564 175.527 60.3364 174.916 59.1534 174.916C58.1654 174.916 57.6324 175.462 57.4894 176.346ZM57.2814 179.154C57.2814 179.791 57.8144 180.168 58.6204 180.168C59.8944 180.168 60.8564 179.167 60.8564 177.984V177.659C57.9184 177.685 57.2814 178.309 57.2814 179.154ZM69.5828 176.476H68.4388C68.2568 175.423 67.5548 174.916 66.6448 174.916C65.3708 174.916 64.6948 175.852 64.6948 177.555C64.6948 179.232 65.4098 180.181 66.6838 180.181C67.6068 180.181 68.2698 179.687 68.4908 178.699H69.6348C69.3228 180.415 68.1658 181.156 66.6578 181.156C64.6948 181.156 63.5248 179.791 63.5248 177.555C63.5248 175.215 64.7208 173.928 66.6448 173.928C68.1658 173.928 69.3618 174.786 69.5828 176.476ZM71.0487 181V171.64H72.1927V175.033C72.6607 174.305 73.4147 173.928 74.3247 173.928C75.7937 173.928 76.6647 174.786 76.6647 176.385V181H75.5207V176.619C75.5207 175.579 75.0527 174.903 74.0127 174.903C72.8687 174.903 72.1927 175.93 72.1927 176.918V181H71.0487ZM81.4027 184.016C81.1427 184.016 80.8697 183.951 80.7267 183.912V183.028H81.0777C81.9227 183.028 82.1567 182.859 82.8327 181.312L83.0667 180.779L80.2457 174.097H81.4807L83.3527 178.66L83.6647 179.583L83.9767 178.66L85.7967 174.097H86.9667L83.7427 181.91C83.0537 183.574 82.5987 184.016 81.4027 184.016ZM90.6907 181.156C88.7147 181.156 87.5317 179.804 87.5317 177.555C87.5317 175.215 88.7537 173.928 90.6907 173.928C92.6667 173.928 93.8497 175.306 93.8497 177.555C93.8497 179.882 92.6277 181.156 90.6907 181.156ZM90.6907 180.168C91.9777 180.168 92.6797 179.245 92.6797 177.555C92.6797 175.878 91.9647 174.916 90.6907 174.916C89.4037 174.916 88.7017 175.852 88.7017 177.555C88.7017 179.219 89.4167 180.168 90.6907 180.168ZM99.7161 178.179V174.097H100.86V181H99.7161V180.064C99.2481 180.792 98.5201 181.156 97.6231 181.156C96.1801 181.156 95.3221 180.311 95.3221 178.712V174.097H96.4661V178.478C96.4661 179.518 96.9211 180.181 97.9351 180.181C99.0531 180.181 99.7161 179.167 99.7161 178.179ZM102.685 181V174.097H103.829V175.163C104.297 174.318 105.038 173.928 105.87 173.928C106.143 173.928 106.39 173.993 106.52 174.097V175.124C106.325 175.059 106.078 175.033 105.805 175.033C104.427 175.033 103.829 175.891 103.829 177.139V181H102.685ZM109.293 175.007V174.097H110.255V173.629C110.255 172.173 110.853 171.484 112.127 171.484C112.413 171.484 112.647 171.536 112.764 171.588V172.407H112.647C111.646 172.407 111.399 172.797 111.399 173.629V174.097H112.764V175.007H111.399V181H110.255V175.007H109.293ZM118.074 178.179V174.097H119.218V181H118.074V180.064C117.606 180.792 116.878 181.156 115.981 181.156C114.538 181.156 113.68 180.311 113.68 178.712V174.097H114.824V178.478C114.824 179.518 115.279 180.181 116.293 180.181C117.411 180.181 118.074 179.167 118.074 178.179ZM121.043 181V174.097H122.187V175.033C122.655 174.305 123.409 173.928 124.319 173.928C125.788 173.928 126.659 174.786 126.659 176.385V181H125.515V176.619C125.515 175.579 125.047 174.903 124.007 174.903C122.863 174.903 122.187 175.93 122.187 176.918V181H121.043ZM131.069 181.156C129.236 181.156 128.131 179.804 128.131 177.555C128.131 175.215 129.262 173.928 131.069 173.928C131.888 173.928 132.551 174.266 133.006 174.903V171.64H134.15V181H133.006V180.129C132.551 180.779 131.888 181.156 131.069 181.156ZM131.147 180.168C132.356 180.168 133.006 179.245 133.006 177.555C133.006 175.878 132.33 174.916 131.147 174.916C129.951 174.916 129.301 175.852 129.301 177.555C129.301 179.219 129.977 180.168 131.147 180.168ZM141.94 178.751C141.562 180.363 140.406 181.156 138.833 181.156C136.831 181.156 135.622 179.804 135.622 177.555C135.622 175.215 136.831 173.928 138.768 173.928C140.718 173.928 141.888 175.267 141.888 177.464V177.75H136.792C136.857 179.297 137.585 180.168 138.833 180.168C139.808 180.168 140.497 179.7 140.744 178.751H141.94ZM138.768 174.916C137.663 174.916 137 175.605 136.831 176.892H140.692C140.536 175.618 139.847 174.916 138.768 174.916ZM145.999 181.156C144.166 181.156 143.061 179.804 143.061 177.555C143.061 175.215 144.192 173.928 145.999 173.928C146.818 173.928 147.481 174.266 147.936 174.903V171.64H149.08V181H147.936V180.129C147.481 180.779 146.818 181.156 145.999 181.156ZM146.077 180.168C147.286 180.168 147.936 179.245 147.936 177.555C147.936 175.878 147.26 174.916 146.077 174.916C144.881 174.916 144.231 175.852 144.231 177.555C144.231 179.219 144.907 180.168 146.077 180.168ZM154.558 176.346H153.414C153.635 174.825 154.636 173.928 156.326 173.928C158.172 173.928 159.069 175.007 159.069 176.619V179.336C159.069 180.129 159.134 180.623 159.316 181H158.107C157.977 180.727 157.938 180.324 157.925 179.908C157.34 180.779 156.404 181.156 155.572 181.156C154.142 181.156 153.18 180.493 153.18 179.18C153.18 178.231 153.7 177.542 154.714 177.204C155.65 176.892 156.599 176.814 157.925 176.801V176.645C157.925 175.527 157.405 174.916 156.222 174.916C155.234 174.916 154.701 175.462 154.558 176.346ZM154.35 179.154C154.35 179.791 154.883 180.168 155.689 180.168C156.963 180.168 157.925 179.167 157.925 177.984V177.659C154.987 177.685 154.35 178.309 154.35 179.154ZM166.651 176.476H165.507C165.325 175.423 164.623 174.916 163.713 174.916C162.439 174.916 161.763 175.852 161.763 177.555C161.763 179.232 162.478 180.181 163.752 180.181C164.675 180.181 165.338 179.687 165.559 178.699H166.703C166.391 180.415 165.234 181.156 163.726 181.156C161.763 181.156 160.593 179.791 160.593 177.555C160.593 175.215 161.789 173.928 163.713 173.928C165.234 173.928 166.43 174.786 166.651 176.476ZM173.824 176.476H172.68C172.498 175.423 171.796 174.916 170.886 174.916C169.612 174.916 168.936 175.852 168.936 177.555C168.936 179.232 169.651 180.181 170.925 180.181C171.848 180.181 172.511 179.687 172.732 178.699H173.876C173.564 180.415 172.407 181.156 170.899 181.156C168.936 181.156 167.766 179.791 167.766 177.555C167.766 175.215 168.962 173.928 170.886 173.928C172.407 173.928 173.603 174.786 173.824 176.476ZM178.098 181.156C176.122 181.156 174.939 179.804 174.939 177.555C174.939 175.215 176.161 173.928 178.098 173.928C180.074 173.928 181.257 175.306 181.257 177.555C181.257 179.882 180.035 181.156 178.098 181.156ZM178.098 180.168C179.385 180.168 180.087 179.245 180.087 177.555C180.087 175.878 179.372 174.916 178.098 174.916C176.811 174.916 176.109 175.852 176.109 177.555C176.109 179.219 176.824 180.168 178.098 180.168ZM187.123 178.179V174.097H188.267V181H187.123V180.064C186.655 180.792 185.927 181.156 185.03 181.156C183.587 181.156 182.729 180.311 182.729 178.712V174.097H183.873V178.478C183.873 179.518 184.328 180.181 185.342 180.181C186.46 180.181 187.123 179.167 187.123 178.179ZM190.093 181V174.097H191.237V175.033C191.705 174.305 192.459 173.928 193.369 173.928C194.838 173.928 195.709 174.786 195.709 176.385V181H194.565V176.619C194.565 175.579 194.097 174.903 193.057 174.903C191.913 174.903 191.237 175.93 191.237 176.918V181H190.093ZM197.688 179.011V175.007H196.726V174.097H197.688V172.511H198.832V174.097H200.353V175.007H198.832V179.011C198.832 179.843 199.079 180.233 200.093 180.233H200.327V181.052C200.197 181.117 199.911 181.156 199.586 181.156C198.299 181.156 197.688 180.467 197.688 179.011ZM203.2 175.007V174.097H204.162V173.629C204.162 172.173 204.76 171.484 206.034 171.484C206.32 171.484 206.554 171.536 206.671 171.588V172.407H206.554C205.553 172.407 205.306 172.797 205.306 173.629V174.097H206.671V175.007H205.306V181H204.162V175.007H203.2ZM208.64 176.346H207.496C207.717 174.825 208.718 173.928 210.408 173.928C212.254 173.928 213.151 175.007 213.151 176.619V179.336C213.151 180.129 213.216 180.623 213.398 181H212.189C212.059 180.727 212.02 180.324 212.007 179.908C211.422 180.779 210.486 181.156 209.654 181.156C208.224 181.156 207.262 180.493 207.262 179.18C207.262 178.231 207.782 177.542 208.796 177.204C209.732 176.892 210.681 176.814 212.007 176.801V176.645C212.007 175.527 211.487 174.916 210.304 174.916C209.316 174.916 208.783 175.462 208.64 176.346ZM208.432 179.154C208.432 179.791 208.965 180.168 209.771 180.168C211.045 180.168 212.007 179.167 212.007 177.984V177.659C209.069 177.685 208.432 178.309 208.432 179.154ZM215.871 175.865C215.871 177.789 220.356 176.203 220.356 179.05C220.356 180.337 219.212 181.156 217.587 181.156C215.949 181.156 214.805 180.376 214.545 178.751H215.689C215.845 179.713 216.56 180.246 217.626 180.246C218.666 180.246 219.212 179.778 219.212 179.128C219.212 177.243 214.779 178.803 214.779 175.943C214.779 174.89 215.598 173.928 217.288 173.928C218.783 173.928 219.888 174.63 220.109 176.346H218.965C218.796 175.267 218.198 174.864 217.223 174.864C216.365 174.864 215.871 175.293 215.871 175.865ZM221.873 179.011V175.007H220.911V174.097H221.873V172.511H223.017V174.097H224.538V175.007H223.017V179.011C223.017 179.843 223.264 180.233 224.278 180.233H224.512V181.052C224.382 181.117 224.096 181.156 223.771 181.156C222.484 181.156 221.873 180.467 221.873 179.011ZM231.594 178.751C231.217 180.363 230.06 181.156 228.487 181.156C226.485 181.156 225.276 179.804 225.276 177.555C225.276 175.215 226.485 173.928 228.422 173.928C230.372 173.928 231.542 175.267 231.542 177.464V177.75H226.446C226.511 179.297 227.239 180.168 228.487 180.168C229.462 180.168 230.151 179.7 230.398 178.751H231.594ZM228.422 174.916C227.317 174.916 226.654 175.605 226.485 176.892H230.346C230.19 175.618 229.501 174.916 228.422 174.916ZM233.066 181V174.097H234.21V175.163C234.678 174.318 235.419 173.928 236.251 173.928C236.524 173.928 236.771 173.993 236.901 174.097V175.124C236.706 175.059 236.459 175.033 236.186 175.033C234.808 175.033 234.21 175.891 234.21 177.139V181H233.066ZM246.498 181L245.003 175.839L244.847 175.059L244.691 175.839L243.209 181H241.792L239.738 174.097H240.973L242.39 179.453L242.559 180.155L242.728 179.453L244.301 174.097H245.536L247.109 179.453L247.265 180.129L247.408 179.453L248.825 174.097H250.008L247.941 181H246.498ZM251.043 173.174V171.64H252.187V173.174H251.043ZM251.043 181V174.097H252.187V181H251.043ZM254.157 179.011V175.007H253.195V174.097H254.157V172.511H255.301V174.097H256.822V175.007H255.301V179.011C255.301 179.843 255.548 180.233 256.562 180.233H256.796V181.052C256.666 181.117 256.38 181.156 256.055 181.156C254.768 181.156 254.157 180.467 254.157 179.011ZM257.911 181V171.64H259.055V175.033C259.523 174.305 260.277 173.928 261.187 173.928C262.656 173.928 263.527 174.786 263.527 176.385V181H262.383V176.619C262.383 175.579 261.915 174.903 260.875 174.903C259.731 174.903 259.055 175.93 259.055 176.918V181H257.911ZM267.953 173.174V171.64H269.097V173.174H267.953ZM269.097 181.884C269.097 183.34 268.499 184.029 267.225 184.029C266.939 184.029 266.705 183.977 266.588 183.925V183.106H266.705C267.706 183.106 267.953 182.716 267.953 181.884V174.097H269.097V181.884ZM275.305 178.179V174.097H276.449V181H275.305V180.064C274.837 180.792 274.109 181.156 273.212 181.156C271.769 181.156 270.911 180.311 270.911 178.712V174.097H272.055V178.478C272.055 179.518 272.51 180.181 273.524 180.181C274.642 180.181 275.305 179.167 275.305 178.179ZM279.119 175.865C279.119 177.789 283.604 176.203 283.604 179.05C283.604 180.337 282.46 181.156 280.835 181.156C279.197 181.156 278.053 180.376 277.793 178.751H278.937C279.093 179.713 279.808 180.246 280.874 180.246C281.914 180.246 282.46 179.778 282.46 179.128C282.46 177.243 278.027 178.803 278.027 175.943C278.027 174.89 278.846 173.928 280.536 173.928C282.031 173.928 283.136 174.63 283.357 176.346H282.213C282.044 175.267 281.446 174.864 280.471 174.864C279.613 174.864 279.119 175.293 279.119 175.865ZM285.121 179.011V175.007H284.159V174.097H285.121V172.511H286.265V174.097H287.786V175.007H286.265V179.011C286.265 179.843 286.512 180.233 287.526 180.233H287.76V181.052C287.63 181.117 287.344 181.156 287.019 181.156C285.732 181.156 285.121 180.467 285.121 179.011ZM294.285 181.156C292.309 181.156 291.126 179.804 291.126 177.555C291.126 175.215 292.348 173.928 294.285 173.928C296.261 173.928 297.444 175.306 297.444 177.555C297.444 179.882 296.222 181.156 294.285 181.156ZM294.285 180.168C295.572 180.168 296.274 179.245 296.274 177.555C296.274 175.878 295.559 174.916 294.285 174.916C292.998 174.916 292.296 175.852 292.296 177.555C292.296 179.219 293.011 180.168 294.285 180.168ZM298.917 181V174.097H300.061V175.033C300.529 174.305 301.283 173.928 302.193 173.928C303.662 173.928 304.533 174.786 304.533 176.385V181H303.389V176.619C303.389 175.579 302.921 174.903 301.881 174.903C300.737 174.903 300.061 175.93 300.061 176.918V181H298.917ZM312.323 178.751C311.946 180.363 310.789 181.156 309.216 181.156C307.214 181.156 306.005 179.804 306.005 177.555C306.005 175.215 307.214 173.928 309.151 173.928C311.101 173.928 312.271 175.267 312.271 177.464V177.75H307.175C307.24 179.297 307.968 180.168 309.216 180.168C310.191 180.168 310.88 179.7 311.127 178.751H312.323ZM309.151 174.916C308.046 174.916 307.383 175.605 307.214 176.892H311.075C310.919 175.618 310.23 174.916 309.151 174.916ZM42.067 203.86H40.923V194.097H42.067V194.955C42.522 194.305 43.185 193.928 44.004 193.928C45.837 193.928 46.942 195.28 46.942 197.529C46.942 199.869 45.811 201.156 44.004 201.156C43.185 201.156 42.522 200.818 42.067 200.181V203.86ZM43.926 194.916C42.717 194.916 42.067 195.839 42.067 197.529C42.067 199.206 42.743 200.168 43.926 200.168C45.122 200.168 45.772 199.232 45.772 197.529C45.772 195.865 45.096 194.916 43.926 194.916ZM48.4129 201V191.64H49.5569V195.033C50.0249 194.305 50.7789 193.928 51.6889 193.928C53.1579 193.928 54.0289 194.786 54.0289 196.385V201H52.8849V196.619C52.8849 195.579 52.4169 194.903 51.3769 194.903C50.2329 194.903 49.5569 195.93 49.5569 196.918V201H48.4129ZM56.9054 196.346H55.7614C55.9824 194.825 56.9834 193.928 58.6734 193.928C60.5194 193.928 61.4164 195.007 61.4164 196.619V199.336C61.4164 200.129 61.4814 200.623 61.6634 201H60.4544C60.3244 200.727 60.2854 200.324 60.2724 199.908C59.6874 200.779 58.7514 201.156 57.9194 201.156C56.4894 201.156 55.5274 200.493 55.5274 199.18C55.5274 198.231 56.0474 197.542 57.0614 197.204C57.9974 196.892 58.9464 196.814 60.2724 196.801V196.645C60.2724 195.527 59.7524 194.916 58.5694 194.916C57.5814 194.916 57.0484 195.462 56.9054 196.346ZM56.6974 199.154C56.6974 199.791 57.2304 200.168 58.0364 200.168C59.3104 200.168 60.2724 199.167 60.2724 197.984V197.659C57.3344 197.685 56.6974 198.309 56.6974 199.154ZM64.1368 195.865C64.1368 197.789 68.6218 196.203 68.6218 199.05C68.6218 200.337 67.4778 201.156 65.8528 201.156C64.2148 201.156 63.0708 200.376 62.8108 198.751H63.9548C64.1108 199.713 64.8258 200.246 65.8918 200.246C66.9318 200.246 67.4778 199.778 67.4778 199.128C67.4778 197.243 63.0448 198.803 63.0448 195.943C63.0448 194.89 63.8638 193.928 65.5538 193.928C67.0488 193.928 68.1538 194.63 68.3748 196.346H67.2308C67.0618 195.267 66.4638 194.864 65.4888 194.864C64.6308 194.864 64.1368 195.293 64.1368 195.865ZM75.9493 198.751C75.5723 200.363 74.4153 201.156 72.8423 201.156C70.8403 201.156 69.6313 199.804 69.6313 197.555C69.6313 195.215 70.8403 193.928 72.7773 193.928C74.7273 193.928 75.8973 195.267 75.8973 197.464V197.75H70.8013C70.8663 199.297 71.5943 200.168 72.8423 200.168C73.8173 200.168 74.5063 199.7 74.7533 198.751H75.9493ZM72.7773 194.916C71.6723 194.916 71.0093 195.605 70.8403 196.892H74.7013C74.5453 195.618 73.8563 194.916 72.7773 194.916ZM77.0378 201V199.596H78.4418V201H77.0378ZM83.7424 194.318C83.7424 196.814 89.1634 194.877 89.1634 198.504C89.1634 200.207 87.7854 201.156 85.9004 201.156C84.0024 201.156 82.7024 200.285 82.3124 198.504H83.5604C83.8464 199.557 84.6394 200.129 85.9134 200.129C87.2394 200.129 87.9414 199.544 87.9414 198.66C87.9414 195.956 82.5204 197.971 82.5204 194.396C82.5204 193.122 83.5864 192.004 85.5364 192.004C87.2394 192.004 88.6044 192.823 88.9294 194.708H87.6684C87.3954 193.538 86.6414 193.031 85.5104 193.031C84.3924 193.031 83.7424 193.538 83.7424 194.318ZM90.5614 193.174V191.64H91.7054V193.174H90.5614ZM90.5614 201V194.097H91.7054V201H90.5614ZM93.5194 201V194.097H94.6634V194.981C95.1054 194.279 95.7944 193.928 96.6394 193.928C97.5884 193.928 98.2774 194.344 98.6024 195.15C99.0574 194.344 99.8114 193.928 100.734 193.928C102.138 193.928 102.983 194.786 102.983 196.385V201H101.839V196.619C101.839 195.579 101.423 194.903 100.487 194.903C99.4474 194.903 98.8234 195.93 98.8234 196.918V201H97.6794V196.619C97.6794 195.579 97.2634 194.903 96.3274 194.903C95.2874 194.903 94.6634 195.93 94.6634 196.918V201H93.5194ZM105.963 203.86H104.819V194.097H105.963V194.955C106.418 194.305 107.081 193.928 107.9 193.928C109.733 193.928 110.838 195.28 110.838 197.529C110.838 199.869 109.707 201.156 107.9 201.156C107.081 201.156 106.418 200.818 105.963 200.181V203.86ZM107.822 194.916C106.613 194.916 105.963 195.839 105.963 197.529C105.963 199.206 106.639 200.168 107.822 200.168C109.018 200.168 109.668 199.232 109.668 197.529C109.668 195.865 108.992 194.916 107.822 194.916ZM112.308 201V191.64H113.452V201H112.308ZM121.233 198.751C120.856 200.363 119.699 201.156 118.126 201.156C116.124 201.156 114.915 199.804 114.915 197.555C114.915 195.215 116.124 193.928 118.061 193.928C120.011 193.928 121.181 195.267 121.181 197.464V197.75H116.085C116.15 199.297 116.878 200.168 118.126 200.168C119.101 200.168 119.79 199.7 120.037 198.751H121.233ZM118.061 194.916C116.956 194.916 116.293 195.605 116.124 196.892H119.985C119.829 195.618 119.14 194.916 118.061 194.916ZM125.308 201V194.097H126.452V195.163C126.92 194.318 127.661 193.928 128.493 193.928C128.766 193.928 129.013 193.993 129.143 194.097V195.124C128.948 195.059 128.701 195.033 128.428 195.033C127.05 195.033 126.452 195.891 126.452 197.139V201H125.308ZM134.552 198.179V194.097H135.696V201H134.552V200.064C134.084 200.792 133.356 201.156 132.459 201.156C131.016 201.156 130.158 200.311 130.158 198.712V194.097H131.302V198.478C131.302 199.518 131.757 200.181 132.771 200.181C133.889 200.181 134.552 199.167 134.552 198.179ZM137.521 201V191.64H138.665V201H137.521ZM146.446 198.751C146.069 200.363 144.912 201.156 143.339 201.156C141.337 201.156 140.128 199.804 140.128 197.555C140.128 195.215 141.337 193.928 143.274 193.928C145.224 193.928 146.394 195.267 146.394 197.464V197.75H141.298C141.363 199.297 142.091 200.168 143.339 200.168C144.314 200.168 145.003 199.7 145.25 198.751H146.446ZM143.274 194.916C142.169 194.916 141.506 195.605 141.337 196.892H145.198C145.042 195.618 144.353 194.916 143.274 194.916ZM148.764 195.865C148.764 197.789 153.249 196.203 153.249 199.05C153.249 200.337 152.105 201.156 150.48 201.156C148.842 201.156 147.698 200.376 147.438 198.751H148.582C148.738 199.713 149.453 200.246 150.519 200.246C151.559 200.246 152.105 199.778 152.105 199.128C152.105 197.243 147.672 198.803 147.672 195.943C147.672 194.89 148.491 193.928 150.181 193.928C151.676 193.928 152.781 194.63 153.002 196.346H151.858C151.689 195.267 151.091 194.864 150.116 194.864C149.258 194.864 148.764 195.293 148.764 195.865ZM154.479 201V199.596H155.883V200.35C155.883 201.559 155.688 202.3 155.233 203.145H154.583C154.882 202.365 155.051 201.806 155.051 201H154.479ZM162.757 201.156C160.924 201.156 159.819 199.804 159.819 197.555C159.819 195.215 160.95 193.928 162.757 193.928C163.576 193.928 164.239 194.266 164.694 194.903V194.097H165.838V203.86H164.694V200.129C164.239 200.779 163.576 201.156 162.757 201.156ZM162.835 200.168C164.044 200.168 164.694 199.245 164.694 197.555C164.694 195.878 164.018 194.916 162.835 194.916C161.639 194.916 160.989 195.852 160.989 197.555C160.989 199.219 161.665 200.168 162.835 200.168ZM172.067 198.179V194.097H173.211V201H172.067V200.064C171.599 200.792 170.871 201.156 169.974 201.156C168.531 201.156 167.673 200.311 167.673 198.712V194.097H168.817V198.478C168.817 199.518 169.272 200.181 170.286 200.181C171.404 200.181 172.067 199.167 172.067 198.179ZM175.036 193.174V191.64H176.18V193.174H175.036ZM175.036 201V194.097H176.18V201H175.036ZM183.701 196.476H182.557C182.375 195.423 181.673 194.916 180.763 194.916C179.489 194.916 178.813 195.852 178.813 197.555C178.813 199.232 179.528 200.181 180.802 200.181C181.725 200.181 182.388 199.687 182.609 198.699H183.753C183.441 200.415 182.284 201.156 180.776 201.156C178.813 201.156 177.643 199.791 177.643 197.555C177.643 195.215 178.839 193.928 180.763 193.928C182.284 193.928 183.48 194.786 183.701 196.476ZM185.167 201V191.64H186.311V197.061L189.288 194.097H190.692L187.546 197.178L190.874 201H189.418L186.311 197.477V201H185.167ZM197.367 198.751C196.99 200.363 195.833 201.156 194.26 201.156C192.258 201.156 191.049 199.804 191.049 197.555C191.049 195.215 192.258 193.928 194.195 193.928C196.145 193.928 197.315 195.267 197.315 197.464V197.75H192.219C192.284 199.297 193.012 200.168 194.26 200.168C195.235 200.168 195.924 199.7 196.171 198.751H197.367ZM194.195 194.916C193.09 194.916 192.427 195.605 192.258 196.892H196.119C195.963 195.618 195.274 194.916 194.195 194.916ZM198.84 201V194.097H199.984V195.163C200.452 194.318 201.193 193.928 202.025 193.928C202.298 193.928 202.545 193.993 202.675 194.097V195.124C202.48 195.059 202.233 195.033 201.96 195.033C200.582 195.033 199.984 195.891 199.984 197.139V201H198.84ZM207.345 196.346H206.201C206.422 194.825 207.423 193.928 209.113 193.928C210.959 193.928 211.856 195.007 211.856 196.619V199.336C211.856 200.129 211.921 200.623 212.103 201H210.894C210.764 200.727 210.725 200.324 210.712 199.908C210.127 200.779 209.191 201.156 208.359 201.156C206.929 201.156 205.967 200.493 205.967 199.18C205.967 198.231 206.487 197.542 207.501 197.204C208.437 196.892 209.386 196.814 210.712 196.801V196.645C210.712 195.527 210.192 194.916 209.009 194.916C208.021 194.916 207.488 195.462 207.345 196.346ZM207.137 199.154C207.137 199.791 207.67 200.168 208.476 200.168C209.75 200.168 210.712 199.167 210.712 197.984V197.659C207.774 197.685 207.137 198.309 207.137 199.154ZM219.438 196.476H218.294C218.112 195.423 217.41 194.916 216.5 194.916C215.226 194.916 214.55 195.852 214.55 197.555C214.55 199.232 215.265 200.181 216.539 200.181C217.462 200.181 218.125 199.687 218.346 198.699H219.49C219.178 200.415 218.021 201.156 216.513 201.156C214.55 201.156 213.38 199.791 213.38 197.555C213.38 195.215 214.576 193.928 216.5 193.928C218.021 193.928 219.217 194.786 219.438 196.476ZM226.611 196.476H225.467C225.285 195.423 224.583 194.916 223.673 194.916C222.399 194.916 221.723 195.852 221.723 197.555C221.723 199.232 222.438 200.181 223.712 200.181C224.635 200.181 225.298 199.687 225.519 198.699H226.663C226.351 200.415 225.194 201.156 223.686 201.156C221.723 201.156 220.553 199.791 220.553 197.555C220.553 195.215 221.749 193.928 223.673 193.928C225.194 193.928 226.39 194.786 226.611 196.476ZM234.044 198.751C233.667 200.363 232.51 201.156 230.937 201.156C228.935 201.156 227.726 199.804 227.726 197.555C227.726 195.215 228.935 193.928 230.872 193.928C232.822 193.928 233.992 195.267 233.992 197.464V197.75H228.896C228.961 199.297 229.689 200.168 230.937 200.168C231.912 200.168 232.601 199.7 232.848 198.751H234.044ZM230.872 194.916C229.767 194.916 229.104 195.605 228.935 196.892H232.796C232.64 195.618 231.951 194.916 230.872 194.916ZM236.361 195.865C236.361 197.789 240.846 196.203 240.846 199.05C240.846 200.337 239.702 201.156 238.077 201.156C236.439 201.156 235.295 200.376 235.035 198.751H236.179C236.335 199.713 237.05 200.246 238.116 200.246C239.156 200.246 239.702 199.778 239.702 199.128C239.702 197.243 235.269 198.803 235.269 195.943C235.269 194.89 236.088 193.928 237.778 193.928C239.273 193.928 240.378 194.63 240.599 196.346H239.455C239.286 195.267 238.688 194.864 237.713 194.864C236.855 194.864 236.361 195.293 236.361 195.865ZM243.052 195.865C243.052 197.789 247.537 196.203 247.537 199.05C247.537 200.337 246.393 201.156 244.768 201.156C243.13 201.156 241.986 200.376 241.726 198.751H242.87C243.026 199.713 243.741 200.246 244.807 200.246C245.847 200.246 246.393 199.778 246.393 199.128C246.393 197.243 241.96 198.803 241.96 195.943C241.96 194.89 242.779 193.928 244.469 193.928C245.964 193.928 247.069 194.63 247.29 196.346H246.146C245.977 195.267 245.379 194.864 244.404 194.864C243.546 194.864 243.052 195.293 243.052 195.865ZM248.767 201V199.596H250.171V201H248.767Z" fill="#E5E5E5"/>
<rect x="341.5" y="118.5" width="308" height="103" rx="15.5" stroke="#3E3E3E"/>
<path d="M360.444 151V143.034H357.378V141.48H365.4V143.034H362.334V151H360.444ZM372.72 151L371.362 145.974L371.222 145.092L371.054 145.974L369.71 151H367.484L365.398 143.496H367.316L368.52 148.788L368.702 149.698L368.912 148.788L370.354 143.496H372.216L373.658 148.788L373.84 149.67L374.008 148.788L375.226 143.496H377.06L374.96 151H372.72ZM381.226 151.21C379 151.21 377.628 149.712 377.628 147.262C377.628 144.714 379.042 143.286 381.226 143.286C383.438 143.286 384.81 144.798 384.81 147.262C384.81 149.782 383.396 151.21 381.226 151.21ZM381.226 149.726C382.36 149.726 382.962 148.858 382.962 147.262C382.962 145.666 382.346 144.77 381.226 144.77C380.078 144.77 379.476 145.652 379.476 147.262C379.476 148.844 380.092 149.726 381.226 149.726ZM386.085 147.948V146.422H389.921V147.948H386.085ZM393.263 143.874C393.263 146.156 398.961 144.308 398.961 148.2C398.961 150.118 397.393 151.21 395.237 151.21C393.067 151.21 391.527 150.202 391.163 148.13H393.137C393.375 149.138 394.103 149.698 395.251 149.698C396.427 149.698 397.029 149.208 397.029 148.438C397.029 146.016 391.345 147.836 391.345 144.042C391.345 142.53 392.591 141.27 394.845 141.27C396.763 141.27 398.387 142.194 398.695 144.336H396.693C396.469 143.272 395.811 142.782 394.789 142.782C393.837 142.782 393.263 143.216 393.263 143.874ZM400.46 148.662V144.882H399.494V143.496H400.46V141.774H402.252V143.496H403.834V144.882H402.252V148.508C402.252 149.292 402.476 149.712 403.47 149.712H403.806V151.028C403.61 151.126 403.204 151.21 402.714 151.21C401.188 151.21 400.46 150.342 400.46 148.662ZM411.731 148.55C411.325 150.286 409.981 151.21 408.189 151.21C405.921 151.21 404.535 149.712 404.535 147.262C404.535 144.714 405.935 143.286 408.119 143.286C410.317 143.286 411.675 144.77 411.675 147.192V147.612H406.383C406.467 148.984 407.097 149.74 408.189 149.74C409.029 149.74 409.603 149.348 409.841 148.55H411.731ZM408.119 144.756C407.167 144.756 406.593 145.358 406.425 146.492H409.799C409.631 145.372 409.057 144.756 408.119 144.756ZM414.811 154.08H413.019V143.496H414.811V144.35C415.287 143.664 415.959 143.286 416.785 143.286C418.745 143.286 419.949 144.784 419.949 147.234C419.949 149.782 418.717 151.21 416.785 151.21C415.959 151.21 415.273 150.86 414.811 150.188V154.08ZM416.463 144.77C415.385 144.77 414.811 145.638 414.811 147.234C414.811 148.83 415.413 149.726 416.463 149.726C417.527 149.726 418.101 148.844 418.101 147.234C418.101 145.652 417.513 144.77 416.463 144.77Z" fill="#E5E5E5"/>
<path d="M360.432 181V173.174H357.403V172.16H364.657V173.174H361.628V181H360.432ZM365.324 181V174.097H366.468V175.163C366.936 174.318 367.677 173.928 368.509 173.928C368.782 173.928 369.029 173.993 369.159 174.097V175.124C368.964 175.059 368.717 175.033 368.444 175.033C367.066 175.033 366.468 175.891 366.468 177.139V181H365.324ZM371.1 176.346H369.956C370.177 174.825 371.178 173.928 372.868 173.928C374.714 173.928 375.611 175.007 375.611 176.619V179.336C375.611 180.129 375.676 180.623 375.858 181H374.649C374.519 180.727 374.48 180.324 374.467 179.908C373.882 180.779 372.946 181.156 372.114 181.156C370.684 181.156 369.722 180.493 369.722 179.18C369.722 178.231 370.242 177.542 371.256 177.204C372.192 176.892 373.141 176.814 374.467 176.801V176.645C374.467 175.527 373.947 174.916 372.764 174.916C371.776 174.916 371.243 175.462 371.1 176.346ZM370.892 179.154C370.892 179.791 371.425 180.168 372.231 180.168C373.505 180.168 374.467 179.167 374.467 177.984V177.659C371.529 177.685 370.892 178.309 370.892 179.154ZM380.073 181.156C378.24 181.156 377.135 179.804 377.135 177.555C377.135 175.215 378.266 173.928 380.073 173.928C380.892 173.928 381.555 174.266 382.01 174.903V171.64H383.154V181H382.01V180.129C381.555 180.779 380.892 181.156 380.073 181.156ZM380.151 180.168C381.36 180.168 382.01 179.245 382.01 177.555C382.01 175.878 381.334 174.916 380.151 174.916C378.955 174.916 378.305 175.852 378.305 177.555C378.305 179.219 378.981 180.168 380.151 180.168ZM384.976 173.174V171.64H386.12V173.174H384.976ZM384.976 181V174.097H386.12V181H384.976ZM388.09 179.011V175.007H387.128V174.097H388.09V172.511H389.234V174.097H390.755V175.007H389.234V179.011C389.234 179.843 389.481 180.233 390.495 180.233H390.729V181.052C390.599 181.117 390.313 181.156 389.988 181.156C388.701 181.156 388.09 180.467 388.09 179.011ZM391.845 173.174V171.64H392.989V173.174H391.845ZM391.845 181V174.097H392.989V181H391.845ZM397.611 181.156C395.635 181.156 394.452 179.804 394.452 177.555C394.452 175.215 395.674 173.928 397.611 173.928C399.587 173.928 400.77 175.306 400.77 177.555C400.77 179.882 399.548 181.156 397.611 181.156ZM397.611 180.168C398.898 180.168 399.6 179.245 399.6 177.555C399.6 175.878 398.885 174.916 397.611 174.916C396.324 174.916 395.622 175.852 395.622 177.555C395.622 179.219 396.337 180.168 397.611 180.168ZM402.242 181V174.097H403.386V175.033C403.854 174.305 404.608 173.928 405.518 173.928C406.987 173.928 407.858 174.786 407.858 176.385V181H406.714V176.619C406.714 175.579 406.246 174.903 405.206 174.903C404.062 174.903 403.386 175.93 403.386 176.918V181H402.242ZM410.734 176.346H409.59C409.811 174.825 410.812 173.928 412.502 173.928C414.348 173.928 415.245 175.007 415.245 176.619V179.336C415.245 180.129 415.31 180.623 415.492 181H414.283C414.153 180.727 414.114 180.324 414.101 179.908C413.516 180.779 412.58 181.156 411.748 181.156C410.318 181.156 409.356 180.493 409.356 179.18C409.356 178.231 409.876 177.542 410.89 177.204C411.826 176.892 412.775 176.814 414.101 176.801V176.645C414.101 175.527 413.581 174.916 412.398 174.916C411.41 174.916 410.877 175.462 410.734 176.346ZM410.526 179.154C410.526 179.791 411.059 180.168 411.865 180.168C413.139 180.168 414.101 179.167 414.101 177.984V177.659C411.163 177.685 410.526 178.309 410.526 179.154ZM417.121 181V171.64H418.265V181H417.121ZM428.648 178.751C428.271 180.363 427.114 181.156 425.541 181.156C423.539 181.156 422.33 179.804 422.33 177.555C422.33 175.215 423.539 173.928 425.476 173.928C427.426 173.928 428.596 175.267 428.596 177.464V177.75H423.5C423.565 179.297 424.293 180.168 425.541 180.168C426.516 180.168 427.205 179.7 427.452 178.751H428.648ZM425.476 174.916C424.371 174.916 423.708 175.605 423.539 176.892H427.4C427.244 175.618 426.555 174.916 425.476 174.916ZM431.723 181L429.149 174.097H430.384L432.295 179.453L432.464 180.051L432.633 179.453L434.544 174.097H435.701L433.127 181H431.723ZM437.725 176.346H436.581C436.802 174.825 437.803 173.928 439.493 173.928C441.339 173.928 442.236 175.007 442.236 176.619V179.336C442.236 180.129 442.301 180.623 442.483 181H441.274C441.144 180.727 441.105 180.324 441.092 179.908C440.507 180.779 439.571 181.156 438.739 181.156C437.309 181.156 436.347 180.493 436.347 179.18C436.347 178.231 436.867 177.542 437.881 177.204C438.817 176.892 439.766 176.814 441.092 176.801V176.645C441.092 175.527 440.572 174.916 439.389 174.916C438.401 174.916 437.868 175.462 437.725 176.346ZM437.517 179.154C437.517 179.791 438.05 180.168 438.856 180.168C440.13 180.168 441.092 179.167 441.092 177.984V177.659C438.154 177.685 437.517 178.309 437.517 179.154ZM444.111 181V171.64H445.255V181H444.111ZM451.463 178.179V174.097H452.607V181H451.463V180.064C450.995 180.792 450.267 181.156 449.37 181.156C447.927 181.156 447.069 180.311 447.069 178.712V174.097H448.213V178.478C448.213 179.518 448.668 180.181 449.682 180.181C450.8 180.181 451.463 179.167 451.463 178.179ZM455.485 176.346H454.341C454.562 174.825 455.563 173.928 457.253 173.928C459.099 173.928 459.996 175.007 459.996 176.619V179.336C459.996 180.129 460.061 180.623 460.243 181H459.034C458.904 180.727 458.865 180.324 458.852 179.908C458.267 180.779 457.331 181.156 456.499 181.156C455.069 181.156 454.107 180.493 454.107 179.18C454.107 178.231 454.627 177.542 455.641 177.204C456.577 176.892 457.526 176.814 458.852 176.801V176.645C458.852 175.527 458.332 174.916 457.149 174.916C456.161 174.916 455.628 175.462 455.485 176.346ZM455.277 179.154C455.277 179.791 455.81 180.168 456.616 180.168C457.89 180.168 458.852 179.167 458.852 177.984V177.659C455.914 177.685 455.277 178.309 455.277 179.154ZM462.028 179.011V175.007H461.066V174.097H462.028V172.511H463.172V174.097H464.693V175.007H463.172V179.011C463.172 179.843 463.419 180.233 464.433 180.233H464.667V181.052C464.537 181.117 464.251 181.156 463.926 181.156C462.639 181.156 462.028 180.467 462.028 179.011ZM465.782 173.174V171.64H466.926V173.174H465.782ZM465.782 181V174.097H466.926V181H465.782ZM471.548 181.156C469.572 181.156 468.389 179.804 468.389 177.555C468.389 175.215 469.611 173.928 471.548 173.928C473.524 173.928 474.707 175.306 474.707 177.555C474.707 179.882 473.485 181.156 471.548 181.156ZM471.548 180.168C472.835 180.168 473.537 179.245 473.537 177.555C473.537 175.878 472.822 174.916 471.548 174.916C470.261 174.916 469.559 175.852 469.559 177.555C469.559 179.219 470.274 180.168 471.548 180.168ZM476.18 181V174.097H477.324V175.033C477.792 174.305 478.546 173.928 479.456 173.928C480.925 173.928 481.796 174.786 481.796 176.385V181H480.652V176.619C480.652 175.579 480.184 174.903 479.144 174.903C478 174.903 477.324 175.93 477.324 176.918V181H476.18ZM492.202 181L490.707 175.839L490.551 175.059L490.395 175.839L488.913 181H487.496L485.442 174.097H486.677L488.094 179.453L488.263 180.155L488.432 179.453L490.005 174.097H491.24L492.813 179.453L492.969 180.129L493.112 179.453L494.529 174.097H495.712L493.645 181H492.202ZM496.746 173.174V171.64H497.89V173.174H496.746ZM496.746 181V174.097H497.89V181H496.746ZM499.86 179.011V175.007H498.898V174.097H499.86V172.511H501.004V174.097H502.525V175.007H501.004V179.011C501.004 179.843 501.251 180.233 502.265 180.233H502.499V181.052C502.369 181.117 502.083 181.156 501.758 181.156C500.471 181.156 499.86 180.467 499.86 179.011ZM503.614 181V171.64H504.758V175.033C505.226 174.305 505.98 173.928 506.89 173.928C508.359 173.928 509.23 174.786 509.23 176.385V181H508.086V176.619C508.086 175.579 507.618 174.903 506.578 174.903C505.434 174.903 504.758 175.93 504.758 176.918V181H503.614ZM514.67 174.318C514.67 176.814 520.091 174.877 520.091 178.504C520.091 180.207 518.713 181.156 516.828 181.156C514.93 181.156 513.63 180.285 513.24 178.504H514.488C514.774 179.557 515.567 180.129 516.841 180.129C518.167 180.129 518.869 179.544 518.869 178.66C518.869 175.956 513.448 177.971 513.448 174.396C513.448 173.122 514.514 172.004 516.464 172.004C518.167 172.004 519.532 172.823 519.857 174.708H518.596C518.323 173.538 517.569 173.031 516.438 173.031C515.32 173.031 514.67 173.538 514.67 174.318ZM521.645 179.011V175.007H520.683V174.097H521.645V172.511H522.789V174.097H524.31V175.007H522.789V179.011C522.789 179.843 523.036 180.233 524.05 180.233H524.284V181.052C524.154 181.117 523.868 181.156 523.543 181.156C522.256 181.156 521.645 180.467 521.645 179.011ZM526.452 176.346H525.308C525.529 174.825 526.53 173.928 528.22 173.928C530.066 173.928 530.963 175.007 530.963 176.619V179.336C530.963 180.129 531.028 180.623 531.21 181H530.001C529.871 180.727 529.832 180.324 529.819 179.908C529.234 180.779 528.298 181.156 527.466 181.156C526.036 181.156 525.074 180.493 525.074 179.18C525.074 178.231 525.594 177.542 526.608 177.204C527.544 176.892 528.493 176.814 529.819 176.801V176.645C529.819 175.527 529.299 174.916 528.116 174.916C527.128 174.916 526.595 175.462 526.452 176.346ZM526.244 179.154C526.244 179.791 526.777 180.168 527.583 180.168C528.857 180.168 529.819 179.167 529.819 177.984V177.659C526.881 177.685 526.244 178.309 526.244 179.154ZM535.296 181.052C533.541 181.052 532.488 179.713 532.488 177.503C532.488 175.189 533.567 173.928 535.296 173.928C536.219 173.928 536.908 174.253 537.363 174.851V174.097H538.507V181.208C538.507 183.132 537.272 184.029 535.686 184.029C534.061 184.029 532.917 183.249 532.67 181.676H533.814C533.957 182.586 534.672 183.08 535.673 183.08C536.687 183.08 537.363 182.534 537.363 181.247V180.064C536.882 180.714 536.18 181.052 535.296 181.052ZM535.504 180.064C536.713 180.064 537.363 179.154 537.363 177.49C537.363 175.865 536.687 174.916 535.504 174.916C534.308 174.916 533.658 175.826 533.658 177.503C533.658 179.128 534.321 180.064 535.504 180.064ZM546.309 178.751C545.932 180.363 544.775 181.156 543.202 181.156C541.2 181.156 539.991 179.804 539.991 177.555C539.991 175.215 541.2 173.928 543.137 173.928C545.087 173.928 546.257 175.267 546.257 177.464V177.75H541.161C541.226 179.297 541.954 180.168 543.202 180.168C544.177 180.168 544.866 179.7 545.113 178.751H546.309ZM543.137 174.916C542.032 174.916 541.369 175.605 541.2 176.892H545.061C544.905 175.618 544.216 174.916 543.137 174.916ZM551.268 181V180.09H552.867V174.24H551.268V173.33H552.217C552.893 173.33 553.062 173.174 553.062 172.797V172.641H554.063V180.09H555.662V181H551.268ZM561.529 176.346H560.385C560.606 174.825 561.607 173.928 563.297 173.928C565.143 173.928 566.04 175.007 566.04 176.619V179.336C566.04 180.129 566.105 180.623 566.287 181H565.078C564.948 180.727 564.909 180.324 564.896 179.908C564.311 180.779 563.375 181.156 562.543 181.156C561.113 181.156 560.151 180.493 560.151 179.18C560.151 178.231 560.671 177.542 561.685 177.204C562.621 176.892 563.57 176.814 564.896 176.801V176.645C564.896 175.527 564.376 174.916 563.193 174.916C562.205 174.916 561.672 175.462 561.529 176.346ZM561.321 179.154C561.321 179.791 561.854 180.168 562.66 180.168C563.934 180.168 564.896 179.167 564.896 177.984V177.659C561.958 177.685 561.321 178.309 561.321 179.154ZM567.916 181V174.097H569.06V175.033C569.528 174.305 570.282 173.928 571.192 173.928C572.661 173.928 573.532 174.786 573.532 176.385V181H572.388V176.619C572.388 175.579 571.92 174.903 570.88 174.903C569.736 174.903 569.06 175.93 569.06 176.918V181H567.916ZM577.942 181.156C576.109 181.156 575.004 179.804 575.004 177.555C575.004 175.215 576.135 173.928 577.942 173.928C578.761 173.928 579.424 174.266 579.879 174.903V171.64H581.023V181H579.879V180.129C579.424 180.779 578.761 181.156 577.942 181.156ZM578.02 180.168C579.229 180.168 579.879 179.245 579.879 177.555C579.879 175.878 579.203 174.916 578.02 174.916C576.824 174.916 576.174 175.852 576.174 177.555C576.174 179.219 576.85 180.168 578.02 180.168ZM586.462 174.318C586.462 176.814 591.883 174.877 591.883 178.504C591.883 180.207 590.505 181.156 588.62 181.156C586.722 181.156 585.422 180.285 585.032 178.504H586.28C586.566 179.557 587.359 180.129 588.633 180.129C589.959 180.129 590.661 179.544 590.661 178.66C590.661 175.956 585.24 177.971 585.24 174.396C585.24 173.122 586.306 172.004 588.256 172.004C589.959 172.004 591.324 172.823 591.649 174.708H590.388C590.115 173.538 589.361 173.031 588.23 173.031C587.112 173.031 586.462 173.538 586.462 174.318ZM593.437 179.011V175.007H592.475V174.097H593.437V172.511H594.581V174.097H596.102V175.007H594.581V179.011C594.581 179.843 594.828 180.233 595.842 180.233H596.076V181.052C595.946 181.117 595.66 181.156 595.335 181.156C594.048 181.156 593.437 180.467 593.437 179.011ZM598.244 176.346H597.1C597.321 174.825 598.322 173.928 600.012 173.928C601.858 173.928 602.755 175.007 602.755 176.619V179.336C602.755 180.129 602.82 180.623 603.002 181H601.793C601.663 180.727 601.624 180.324 601.611 179.908C601.026 180.779 600.09 181.156 599.258 181.156C597.828 181.156 596.866 180.493 596.866 179.18C596.866 178.231 597.386 177.542 598.4 177.204C599.336 176.892 600.285 176.814 601.611 176.801V176.645C601.611 175.527 601.091 174.916 599.908 174.916C598.92 174.916 598.387 175.462 598.244 176.346ZM598.036 179.154C598.036 179.791 598.569 180.168 599.375 180.168C600.649 180.168 601.611 179.167 601.611 177.984V177.659C598.673 177.685 598.036 178.309 598.036 179.154ZM607.088 181.052C605.333 181.052 604.28 179.713 604.28 177.503C604.28 175.189 605.359 173.928 607.088 173.928C608.011 173.928 608.7 174.253 609.155 174.851V174.097H610.299V181.208C610.299 183.132 609.064 184.029 607.478 184.029C605.853 184.029 604.709 183.249 604.462 181.676H605.606C605.749 182.586 606.464 183.08 607.465 183.08C608.479 183.08 609.155 182.534 609.155 181.247V180.064C608.674 180.714 607.972 181.052 607.088 181.052ZM607.296 180.064C608.505 180.064 609.155 179.154 609.155 177.49C609.155 175.865 608.479 174.916 607.296 174.916C606.1 174.916 605.45 175.826 605.45 177.503C605.45 179.128 606.113 180.064 607.296 180.064ZM618.101 178.751C617.724 180.363 616.567 181.156 614.994 181.156C612.992 181.156 611.783 179.804 611.783 177.555C611.783 175.215 612.992 173.928 614.929 173.928C616.879 173.928 618.049 175.267 618.049 177.464V177.75H612.953C613.018 179.297 613.746 180.168 614.994 180.168C615.969 180.168 616.658 179.7 616.905 178.751H618.101ZM614.929 174.916C613.824 174.916 613.161 175.605 612.992 176.892H616.853C616.697 175.618 616.008 174.916 614.929 174.916ZM622.072 181V180.688C622.072 176.931 626.7 177.243 626.7 174.994C626.7 174.045 626.141 173.473 625.101 173.473C623.957 173.473 623.398 174.058 623.242 175.02H622.059C622.28 173.447 623.333 172.485 625.114 172.485C626.934 172.485 627.87 173.564 627.87 174.981C627.87 177.685 623.736 177.659 623.255 180.09H627.961V181H622.072ZM358.066 199.011V195.007H357.104V194.097H358.066V192.511H359.21V194.097H360.731V195.007H359.21V199.011C359.21 199.843 359.457 200.233 360.471 200.233H360.705V201.052C360.575 201.117 360.289 201.156 359.964 201.156C358.677 201.156 358.066 200.467 358.066 199.011ZM362.873 196.346H361.729C361.95 194.825 362.951 193.928 364.641 193.928C366.487 193.928 367.384 195.007 367.384 196.619V199.336C367.384 200.129 367.449 200.623 367.631 201H366.422C366.292 200.727 366.253 200.324 366.24 199.908C365.655 200.779 364.719 201.156 363.887 201.156C362.457 201.156 361.495 200.493 361.495 199.18C361.495 198.231 362.015 197.542 363.029 197.204C363.965 196.892 364.914 196.814 366.24 196.801V196.645C366.24 195.527 365.72 194.916 364.537 194.916C363.549 194.916 363.016 195.462 362.873 196.346ZM362.665 199.154C362.665 199.791 363.198 200.168 364.004 200.168C365.278 200.168 366.24 199.167 366.24 197.984V197.659C363.302 197.685 362.665 198.309 362.665 199.154ZM369.26 201V194.097H370.404V195.163C370.872 194.318 371.613 193.928 372.445 193.928C372.718 193.928 372.965 193.993 373.095 194.097V195.124C372.9 195.059 372.653 195.033 372.38 195.033C371.002 195.033 370.404 195.891 370.404 197.139V201H369.26ZM376.439 201.052C374.684 201.052 373.631 199.713 373.631 197.503C373.631 195.189 374.71 193.928 376.439 193.928C377.362 193.928 378.051 194.253 378.506 194.851V194.097H379.65V201.208C379.65 203.132 378.415 204.029 376.829 204.029C375.204 204.029 374.06 203.249 373.813 201.676H374.957C375.1 202.586 375.815 203.08 376.816 203.08C377.83 203.08 378.506 202.534 378.506 201.247V200.064C378.025 200.714 377.323 201.052 376.439 201.052ZM376.647 200.064C377.856 200.064 378.506 199.154 378.506 197.49C378.506 195.865 377.83 194.916 376.647 194.916C375.451 194.916 374.801 195.826 374.801 197.503C374.801 199.128 375.464 200.064 376.647 200.064ZM387.452 198.751C387.075 200.363 385.918 201.156 384.345 201.156C382.343 201.156 381.134 199.804 381.134 197.555C381.134 195.215 382.343 193.928 384.28 193.928C386.23 193.928 387.4 195.267 387.4 197.464V197.75H382.304C382.369 199.297 383.097 200.168 384.345 200.168C385.32 200.168 386.009 199.7 386.256 198.751H387.452ZM384.28 194.916C383.175 194.916 382.512 195.605 382.343 196.892H386.204C386.048 195.618 385.359 194.916 384.28 194.916ZM389.081 199.011V195.007H388.119V194.097H389.081V192.511H390.225V194.097H391.746V195.007H390.225V199.011C390.225 199.843 390.472 200.233 391.486 200.233H391.72V201.052C391.59 201.117 391.304 201.156 390.979 201.156C389.692 201.156 389.081 200.467 389.081 199.011ZM393.68 195.865C393.68 197.789 398.165 196.203 398.165 199.05C398.165 200.337 397.021 201.156 395.396 201.156C393.758 201.156 392.614 200.376 392.354 198.751H393.498C393.654 199.713 394.369 200.246 395.435 200.246C396.475 200.246 397.021 199.778 397.021 199.128C397.021 197.243 392.588 198.803 392.588 195.943C392.588 194.89 393.407 193.928 395.097 193.928C396.592 193.928 397.697 194.63 397.918 196.346H396.774C396.605 195.267 396.007 194.864 395.032 194.864C394.174 194.864 393.68 195.293 393.68 195.865ZM399.395 201V199.596H400.799V201H399.395ZM406.1 194.318C406.1 196.814 411.521 194.877 411.521 198.504C411.521 200.207 410.143 201.156 408.258 201.156C406.36 201.156 405.06 200.285 404.67 198.504H405.918C406.204 199.557 406.997 200.129 408.271 200.129C409.597 200.129 410.299 199.544 410.299 198.66C410.299 195.956 404.878 197.971 404.878 194.396C404.878 193.122 405.944 192.004 407.894 192.004C409.597 192.004 410.962 192.823 411.287 194.708H410.026C409.753 193.538 408.999 193.031 407.868 193.031C406.75 193.031 406.1 193.538 406.1 194.318ZM413.075 199.011V195.007H412.113V194.097H413.075V192.511H414.219V194.097H415.74V195.007H414.219V199.011C414.219 199.843 414.466 200.233 415.48 200.233H415.714V201.052C415.584 201.117 415.298 201.156 414.973 201.156C413.686 201.156 413.075 200.467 413.075 199.011ZM416.829 201V194.097H417.973V195.163C418.441 194.318 419.182 193.928 420.014 193.928C420.287 193.928 420.534 193.993 420.664 194.097V195.124C420.469 195.059 420.222 195.033 419.949 195.033C418.571 195.033 417.973 195.891 417.973 197.139V201H416.829ZM421.679 193.174V191.64H422.823V193.174H421.679ZM421.679 201V194.097H422.823V201H421.679ZM430.344 196.476H429.2C429.018 195.423 428.316 194.916 427.406 194.916C426.132 194.916 425.456 195.852 425.456 197.555C425.456 199.232 426.171 200.181 427.445 200.181C428.368 200.181 429.031 199.687 429.252 198.699H430.396C430.084 200.415 428.927 201.156 427.419 201.156C425.456 201.156 424.286 199.791 424.286 197.555C424.286 195.215 425.482 193.928 427.406 193.928C428.927 193.928 430.123 194.786 430.344 196.476ZM431.965 199.011V195.007H431.003V194.097H431.965V192.511H433.109V194.097H434.63V195.007H433.109V199.011C433.109 199.843 433.356 200.233 434.37 200.233H434.604V201.052C434.474 201.117 434.188 201.156 433.863 201.156C432.576 201.156 431.965 200.467 431.965 199.011ZM441.687 198.751C441.31 200.363 440.153 201.156 438.58 201.156C436.578 201.156 435.369 199.804 435.369 197.555C435.369 195.215 436.578 193.928 438.515 193.928C440.465 193.928 441.635 195.267 441.635 197.464V197.75H436.539C436.604 199.297 437.332 200.168 438.58 200.168C439.555 200.168 440.244 199.7 440.491 198.751H441.687ZM438.515 194.916C437.41 194.916 436.747 195.605 436.578 196.892H440.439C440.283 195.618 439.594 194.916 438.515 194.916ZM443.159 201V194.097H444.303V195.163C444.771 194.318 445.512 193.928 446.344 193.928C446.617 193.928 446.864 193.993 446.994 194.097V195.124C446.799 195.059 446.552 195.033 446.279 195.033C444.901 195.033 444.303 195.891 444.303 197.139V201H443.159ZM450.611 201V194.097H451.755V195.163C452.223 194.318 452.964 193.928 453.796 193.928C454.069 193.928 454.316 193.993 454.446 194.097V195.124C454.251 195.059 454.004 195.033 453.731 195.033C452.353 195.033 451.755 195.891 451.755 197.139V201H450.611ZM459.855 198.179V194.097H460.999V201H459.855V200.064C459.387 200.792 458.659 201.156 457.762 201.156C456.319 201.156 455.461 200.311 455.461 198.712V194.097H456.605V198.478C456.605 199.518 457.06 200.181 458.074 200.181C459.192 200.181 459.855 199.167 459.855 198.179ZM462.824 201V191.64H463.968V201H462.824ZM471.749 198.751C471.372 200.363 470.215 201.156 468.642 201.156C466.64 201.156 465.431 199.804 465.431 197.555C465.431 195.215 466.64 193.928 468.577 193.928C470.527 193.928 471.697 195.267 471.697 197.464V197.75H466.601C466.666 199.297 467.394 200.168 468.642 200.168C469.617 200.168 470.306 199.7 470.553 198.751H471.749ZM468.577 194.916C467.472 194.916 466.809 195.605 466.64 196.892H470.501C470.345 195.618 469.656 194.916 468.577 194.916ZM474.067 195.865C474.067 197.789 478.552 196.203 478.552 199.05C478.552 200.337 477.408 201.156 475.783 201.156C474.145 201.156 473.001 200.376 472.741 198.751H473.885C474.041 199.713 474.756 200.246 475.822 200.246C476.862 200.246 477.408 199.778 477.408 199.128C477.408 197.243 472.975 198.803 472.975 195.943C472.975 194.89 473.794 193.928 475.484 193.928C476.979 193.928 478.084 194.63 478.305 196.346H477.161C476.992 195.267 476.394 194.864 475.419 194.864C474.561 194.864 474.067 195.293 474.067 195.865ZM483.658 201H482.514V191.64H483.658V194.955C484.113 194.305 484.776 193.928 485.595 193.928C487.428 193.928 488.533 195.28 488.533 197.529C488.533 199.869 487.402 201.156 485.595 201.156C484.776 201.156 484.113 200.818 483.658 200.181V201ZM485.517 194.916C484.308 194.916 483.658 195.839 483.658 197.529C483.658 199.206 484.334 200.168 485.517 200.168C486.713 200.168 487.363 199.232 487.363 197.529C487.363 195.865 486.687 194.916 485.517 194.916ZM494.399 198.179V194.097H495.543V201H494.399V200.064C493.931 200.792 493.203 201.156 492.306 201.156C490.863 201.156 490.005 200.311 490.005 198.712V194.097H491.149V198.478C491.149 199.518 491.604 200.181 492.618 200.181C493.736 200.181 494.399 199.167 494.399 198.179ZM497.524 199.011V195.007H496.562V194.097H497.524V192.511H498.668V194.097H500.189V195.007H498.668V199.011C498.668 199.843 498.915 200.233 499.929 200.233H500.163V201.052C500.033 201.117 499.747 201.156 499.422 201.156C498.135 201.156 497.524 200.467 497.524 199.011ZM503.881 201V191.64H505.025V201H503.881ZM509.647 201.156C507.671 201.156 506.488 199.804 506.488 197.555C506.488 195.215 507.71 193.928 509.647 193.928C511.623 193.928 512.806 195.306 512.806 197.555C512.806 199.882 511.584 201.156 509.647 201.156ZM509.647 200.168C510.934 200.168 511.636 199.245 511.636 197.555C511.636 195.878 510.921 194.916 509.647 194.916C508.36 194.916 507.658 195.852 507.658 197.555C507.658 199.219 508.373 200.168 509.647 200.168ZM520.131 201L518.636 195.839L518.48 195.059L518.324 195.839L516.842 201H515.425L513.371 194.097H514.606L516.023 199.453L516.192 200.155L516.361 199.453L517.934 194.097H519.169L520.742 199.453L520.898 200.129L521.041 199.453L522.458 194.097H523.641L521.574 201H520.131ZM530.579 198.751C530.202 200.363 529.045 201.156 527.472 201.156C525.47 201.156 524.261 199.804 524.261 197.555C524.261 195.215 525.47 193.928 527.407 193.928C529.357 193.928 530.527 195.267 530.527 197.464V197.75H525.431C525.496 199.297 526.224 200.168 527.472 200.168C528.447 200.168 529.136 199.7 529.383 198.751H530.579ZM527.407 194.916C526.302 194.916 525.639 195.605 525.47 196.892H529.331C529.175 195.618 528.486 194.916 527.407 194.916ZM532.052 201V194.097H533.196V195.163C533.664 194.318 534.405 193.928 535.237 193.928C535.51 193.928 535.757 193.993 535.887 194.097V195.124C535.692 195.059 535.445 195.033 535.172 195.033C533.794 195.033 533.196 195.891 533.196 197.139V201H532.052ZM539.504 201V194.097H540.648V195.163C541.116 194.318 541.857 193.928 542.689 193.928C542.962 193.928 543.209 193.993 543.339 194.097V195.124C543.144 195.059 542.897 195.033 542.624 195.033C541.246 195.033 540.648 195.891 540.648 197.139V201H539.504ZM544.353 193.174V191.64H545.497V193.174H544.353ZM544.353 201V194.097H545.497V201H544.353ZM548.156 195.865C548.156 197.789 552.641 196.203 552.641 199.05C552.641 200.337 551.497 201.156 549.872 201.156C548.234 201.156 547.09 200.376 546.83 198.751H547.974C548.13 199.713 548.845 200.246 549.911 200.246C550.951 200.246 551.497 199.778 551.497 199.128C551.497 197.243 547.064 198.803 547.064 195.943C547.064 194.89 547.883 193.928 549.573 193.928C551.068 193.928 552.173 194.63 552.394 196.346H551.25C551.081 195.267 550.483 194.864 549.508 194.864C548.65 194.864 548.156 195.293 548.156 195.865ZM554.002 201V191.64H555.146V197.061L558.123 194.097H559.527L556.381 197.178L559.709 201H558.253L555.146 197.477V201H554.002ZM560.689 201V199.596H562.093V201H560.689Z" fill="#868686"/>
</svg>
