<svg width="14" height="13" viewBox="0 0 14 13" fill="none" xmlns="http://www.w3.org/2000/svg">
<path d="M12.0498 0.214455C12.248 0.175047 12.454 0.21649 12.6221 0.328712C12.7901 0.440878 12.9066 0.614996 12.9463 0.813087C12.9859 1.01135 12.9451 1.21711 12.833 1.38535L6.08301 11.5104C6.0204 11.6041 5.93752 11.6828 5.84082 11.7408C5.74427 11.7987 5.63643 11.8352 5.52441 11.8463C5.41221 11.8574 5.29855 11.8432 5.19238 11.8053C5.08623 11.7673 4.98989 11.7063 4.91016 11.6266L0.405273 7.12168C0.270634 6.97719 0.196767 6.78594 0.200195 6.58848C0.203681 6.39094 0.284125 6.20181 0.423828 6.06211C0.563451 5.92263 0.751888 5.84299 0.949219 5.83945C1.14662 5.83597 1.33791 5.90905 1.48242 6.04356L1.48828 6.04844H1.4873L5.33008 9.89024L11.5645 0.538673L11.6602 0.422462C11.7659 0.317078 11.9012 0.244024 12.0498 0.214455Z" fill="white" stroke="white" stroke-width="0.4"/>
</svg>
