<svg width="291" height="107" viewBox="0 0 291 107" fill="none" xmlns="http://www.w3.org/2000/svg">
<rect x="0.230712" y="0.230712" width="289.769" height="106.292" rx="7.15208" fill="#181818"/>
<rect x="0.230712" y="0.230712" width="289.769" height="106.292" rx="7.15208" stroke="#262626" stroke-width="0.461424"/>
<rect x="11.3049" y="11.3049" width="267.621" height="39.9955" rx="7.15208" fill="#0E0E0E"/>
<rect x="11.3049" y="11.3049" width="267.621" height="39.9955" rx="7.15208" stroke="#E5E5E5" stroke-width="0.461424"/>
<path d="M20.8924 26.5539C19.5617 26.5539 18.7413 25.6818 18.7413 24.2671C18.7413 22.8523 19.5617 21.9673 20.8924 21.9673C22.2232 21.9673 23.05 22.8523 23.05 24.2671C23.05 25.6818 22.2232 26.5539 20.8924 26.5539ZM20.8924 25.8304C21.687 25.8304 22.1586 25.2425 22.1586 24.2671C22.1586 23.2916 21.687 22.6908 20.8924 22.6908C20.0979 22.6908 19.6327 23.2851 19.6327 24.2671C19.6327 25.2425 20.0979 25.8304 20.8924 25.8304ZM23.7147 26.457V22.9944H24.5415V23.4596C24.7676 23.0849 25.1294 22.8975 25.5687 22.8975C26.2599 22.8975 26.7315 23.311 26.7315 24.1508V26.457H25.9046V24.3187C25.9046 23.8472 25.7043 23.5823 25.2844 23.5823C24.8258 23.5823 24.5415 23.9828 24.5415 24.4479V26.457H23.7147ZM30.6524 25.3265C30.4651 26.1275 29.8449 26.5539 29.018 26.5539C27.9715 26.5539 27.332 25.8627 27.332 24.7322C27.332 23.5565 27.978 22.8975 28.9857 22.8975C29.9999 22.8975 30.6266 23.5823 30.6266 24.6999V24.8937H28.1847C28.2235 25.5267 28.5142 25.8756 29.018 25.8756C29.4056 25.8756 29.6705 25.6947 29.7803 25.3265H30.6524ZM28.9857 23.5758C28.5464 23.5758 28.2816 23.8536 28.2041 24.3769H29.7609C29.6834 23.8601 29.4185 23.5758 28.9857 23.5758ZM31.2341 25.0487V24.3446H33.0042V25.0487H31.2341ZM34.546 23.1689C34.546 24.2218 37.1752 23.3691 37.1752 25.165C37.1752 26.05 36.4517 26.5539 35.4568 26.5539C34.4555 26.5539 33.7449 26.0888 33.577 25.1327H34.4878C34.5976 25.5978 34.9336 25.8562 35.4633 25.8562C36.0059 25.8562 36.2837 25.6301 36.2837 25.2748C36.2837 24.1572 33.661 24.997 33.661 23.2464C33.661 22.5487 34.2359 21.9673 35.2759 21.9673C36.161 21.9673 36.9103 22.3937 37.0524 23.382H36.1287C36.0253 22.8911 35.7217 22.665 35.2501 22.665C34.8108 22.665 34.546 22.8652 34.546 23.1689ZM37.8673 25.3782V23.634H37.4216V22.9944H37.8673V22.1999H38.6942V22.9944H39.4241V23.634H38.6942V25.3071C38.6942 25.6689 38.7975 25.8627 39.2562 25.8627H39.4112V26.4699C39.3208 26.5151 39.1334 26.5539 38.9073 26.5539C38.2032 26.5539 37.8673 26.1534 37.8673 25.3782ZM43.0676 25.3265C42.8803 26.1275 42.2601 26.5539 41.4332 26.5539C40.3867 26.5539 39.7472 25.8627 39.7472 24.7322C39.7472 23.5565 40.3932 22.8975 41.4009 22.8975C42.4151 22.8975 43.0418 23.5823 43.0418 24.6999V24.8937H40.5999C40.6387 25.5267 40.9293 25.8756 41.4332 25.8756C41.8208 25.8756 42.0857 25.6947 42.1955 25.3265H43.0676ZM41.4009 23.5758C40.9616 23.5758 40.6968 23.8536 40.6193 24.3769H42.1761C42.0986 23.8601 41.8337 23.5758 41.4009 23.5758ZM44.4891 27.8782H43.6623V22.9944H44.4891V23.3885C44.7088 23.072 45.0188 22.8975 45.4 22.8975C46.3044 22.8975 46.8599 23.5888 46.8599 24.7192C46.8599 25.895 46.2915 26.5539 45.4 26.5539C45.0188 26.5539 44.7023 26.3924 44.4891 26.0823V27.8782ZM45.2514 23.5823C44.754 23.5823 44.4891 23.9828 44.4891 24.7192C44.4891 25.4557 44.7669 25.8691 45.2514 25.8691C45.7424 25.8691 46.0072 25.4621 46.0072 24.7192C46.0072 23.9893 45.7359 23.5823 45.2514 23.5823Z" fill="#E5E5E5"/>
<path d="M18.9249 41.1483V37.0693H20.3946C21.2523 37.0693 21.7982 37.5132 21.7982 38.221C21.7982 38.6889 21.5703 39.0188 21.1864 39.1928C21.4503 39.3128 21.5883 39.5347 21.6902 39.9366L21.9962 41.1483H21.4143L21.1564 40.0446C21.0364 39.5347 20.8324 39.4387 20.3406 39.4387H19.4768V41.1483H18.9249ZM20.3826 37.5192H19.4768V38.9888H20.3706C20.9104 38.9888 21.2283 38.7009 21.2283 38.251C21.2283 37.8011 20.9104 37.5192 20.3826 37.5192ZM25.3617 40.1106C25.1878 40.8544 24.6539 41.2203 23.9281 41.2203C23.0043 41.2203 22.4465 40.5965 22.4465 39.5587C22.4465 38.479 23.0043 37.8851 23.8981 37.8851C24.7979 37.8851 25.3378 38.503 25.3378 39.5167V39.6487H22.9863C23.0163 40.3625 23.3522 40.7644 23.9281 40.7644C24.378 40.7644 24.6959 40.5485 24.8099 40.1106H25.3617ZM23.8981 38.341C23.3882 38.341 23.0823 38.6589 23.0043 39.2528H24.7859C24.7139 38.6649 24.396 38.341 23.8981 38.341ZM26.5271 39.0008H25.9992C26.1012 38.299 26.563 37.8851 27.3428 37.8851C28.1946 37.8851 28.6085 38.383 28.6085 39.1268V40.3805C28.6085 40.7464 28.6385 40.9744 28.7225 41.1483H28.1646C28.1047 41.0223 28.0867 40.8364 28.0807 40.6444C27.8107 41.0463 27.3788 41.2203 26.9949 41.2203C26.3351 41.2203 25.8912 40.9144 25.8912 40.3085C25.8912 39.8706 26.1311 39.5527 26.599 39.3967C27.0309 39.2528 27.4688 39.2168 28.0807 39.2108V39.1388C28.0807 38.6229 27.8407 38.341 27.2949 38.341C26.839 38.341 26.593 38.5929 26.5271 39.0008ZM26.4311 40.2965C26.4311 40.5905 26.677 40.7644 27.0489 40.7644C27.6368 40.7644 28.0807 40.3025 28.0807 39.7567V39.6067C26.725 39.6187 26.4311 39.9066 26.4311 40.2965ZM32.1073 39.0608H31.5794C31.4954 38.575 31.1715 38.341 30.7516 38.341C30.1637 38.341 29.8518 38.7729 29.8518 39.5587C29.8518 40.3325 30.1817 40.7704 30.7696 40.7704C31.1955 40.7704 31.5014 40.5425 31.6034 40.0866H32.1313C31.9873 40.8784 31.4534 41.2203 30.7576 41.2203C29.8518 41.2203 29.312 40.5905 29.312 39.5587C29.312 38.479 29.8638 37.8851 30.7516 37.8851C31.4534 37.8851 32.0053 38.281 32.1073 39.0608ZM32.7836 41.1483V36.8294H33.3115V38.395C33.5275 38.0591 33.8754 37.8851 34.2953 37.8851C34.9731 37.8851 35.375 38.281 35.375 39.0188V41.1483H34.8471V39.1268C34.8471 38.6469 34.6312 38.335 34.1513 38.335C33.6234 38.335 33.3115 38.8089 33.3115 39.2648V41.1483H32.7836ZM37.5612 42.54C37.4413 42.54 37.3153 42.51 37.2493 42.492V42.0841H37.4113C37.8012 42.0841 37.9091 42.0061 38.2211 41.2923L38.329 41.0463L37.0274 37.9631H37.5972L38.461 40.0686L38.605 40.4945L38.7489 40.0686L39.5887 37.9631H40.1286L38.641 41.5682C38.323 42.336 38.1131 42.54 37.5612 42.54ZM41.8469 41.2203C40.9352 41.2203 40.3893 40.5965 40.3893 39.5587C40.3893 38.479 40.9532 37.8851 41.8469 37.8851C42.7587 37.8851 43.3046 38.521 43.3046 39.5587C43.3046 40.6324 42.7407 41.2203 41.8469 41.2203ZM41.8469 40.7644C42.4408 40.7644 42.7647 40.3385 42.7647 39.5587C42.7647 38.7849 42.4348 38.341 41.8469 38.341C41.2531 38.341 40.9292 38.7729 40.9292 39.5587C40.9292 40.3265 41.2591 40.7644 41.8469 40.7644ZM46.0115 39.8466V37.9631H46.5394V41.1483H46.0115V40.7164C45.7956 41.0523 45.4596 41.2203 45.0457 41.2203C44.3799 41.2203 43.984 40.8304 43.984 40.0926V37.9631H44.5119V39.9846C44.5119 40.4645 44.7218 40.7704 45.1897 40.7704C45.7056 40.7704 46.0115 40.3025 46.0115 39.8466ZM47.3816 41.1483V37.9631H47.9095V38.455C48.1254 38.0651 48.4673 37.8851 48.8512 37.8851C48.9772 37.8851 49.0912 37.9151 49.1512 37.9631V38.437C49.0612 38.407 48.9472 38.395 48.8212 38.395C48.1854 38.395 47.9095 38.7909 47.9095 39.3668V41.1483H47.3816ZM50.4303 38.383V37.9631H50.8742V37.7472C50.8742 37.0753 51.1501 36.7574 51.738 36.7574C51.8699 36.7574 51.9779 36.7814 52.0319 36.8054V37.1833H51.9779C51.516 37.1833 51.4021 37.3633 51.4021 37.7472V37.9631H52.0319V38.383H51.4021V41.1483H50.8742V38.383H50.4303ZM54.4821 39.8466V37.9631H55.0099V41.1483H54.4821V40.7164C54.2661 41.0523 53.9302 41.2203 53.5163 41.2203C52.8505 41.2203 52.4546 40.8304 52.4546 40.0926V37.9631H52.9824V39.9846C52.9824 40.4645 53.1924 40.7704 53.6603 40.7704C54.1761 40.7704 54.4821 40.3025 54.4821 39.8466ZM55.8522 41.1483V37.9631H56.38V38.395C56.596 38.0591 56.9439 37.8851 57.3638 37.8851C58.0416 37.8851 58.4435 38.281 58.4435 39.0188V41.1483H57.9156V39.1268C57.9156 38.6469 57.6997 38.335 57.2198 38.335C56.6919 38.335 56.38 38.8089 56.38 39.2648V41.1483H55.8522ZM60.4786 41.2203C59.6328 41.2203 59.1229 40.5965 59.1229 39.5587C59.1229 38.479 59.6448 37.8851 60.4786 37.8851C60.8565 37.8851 61.1624 38.0411 61.3724 38.335V36.8294H61.9003V41.1483H61.3724V40.7464C61.1624 41.0463 60.8565 41.2203 60.4786 41.2203ZM60.5146 40.7644C61.0725 40.7644 61.3724 40.3385 61.3724 39.5587C61.3724 38.7849 61.0605 38.341 60.5146 38.341C59.9627 38.341 59.6628 38.7729 59.6628 39.5587C59.6628 40.3265 59.9747 40.7644 60.5146 40.7644ZM65.4944 40.1106C65.3204 40.8544 64.7866 41.2203 64.0607 41.2203C63.137 41.2203 62.5791 40.5965 62.5791 39.5587C62.5791 38.479 63.137 37.8851 64.0308 37.8851C64.9305 37.8851 65.4704 38.503 65.4704 39.5167V39.6487H63.119C63.149 40.3625 63.4849 40.7644 64.0607 40.7644C64.5106 40.7644 64.8286 40.5485 64.9425 40.1106H65.4944ZM64.0308 38.341C63.5209 38.341 63.215 38.6589 63.137 39.2528H64.9185C64.8466 38.6649 64.5286 38.341 64.0308 38.341ZM67.3675 41.2203C66.5217 41.2203 66.0119 40.5965 66.0119 39.5587C66.0119 38.479 66.5337 37.8851 67.3675 37.8851C67.7454 37.8851 68.0514 38.0411 68.2613 38.335V36.8294H68.7892V41.1483H68.2613V40.7464C68.0514 41.0463 67.7454 41.2203 67.3675 41.2203ZM67.4035 40.7644C67.9614 40.7644 68.2613 40.3385 68.2613 39.5587C68.2613 38.7849 67.9494 38.341 67.4035 38.341C66.8517 38.341 66.5517 38.7729 66.5517 39.5587C66.5517 40.3265 66.8637 40.7644 67.4035 40.7644ZM71.3168 39.0008H70.7889C70.8909 38.299 71.3527 37.8851 72.1326 37.8851C72.9843 37.8851 73.3982 38.383 73.3982 39.1268V40.3805C73.3982 40.7464 73.4282 40.9744 73.5122 41.1483H72.9543C72.8944 41.0223 72.8764 40.8364 72.8704 40.6444C72.6004 41.0463 72.1685 41.2203 71.7846 41.2203C71.1248 41.2203 70.6809 40.9144 70.6809 40.3085C70.6809 39.8706 70.9209 39.5527 71.3887 39.3967C71.8206 39.2528 72.2585 39.2168 72.8704 39.2108V39.1388C72.8704 38.6229 72.6304 38.341 72.0846 38.341C71.6287 38.341 71.3827 38.5929 71.3168 39.0008ZM71.2208 40.2965C71.2208 40.5905 71.4667 40.7644 71.8386 40.7644C72.4265 40.7644 72.8704 40.3025 72.8704 39.7567V39.6067C71.5147 39.6187 71.2208 39.9066 71.2208 40.2965ZM76.897 39.0608H76.3691C76.2851 38.575 75.9612 38.341 75.5413 38.341C74.9534 38.341 74.6415 38.7729 74.6415 39.5587C74.6415 40.3325 74.9714 40.7704 75.5593 40.7704C75.9852 40.7704 76.2911 40.5425 76.3931 40.0866H76.921C76.777 40.8784 76.2431 41.2203 75.5473 41.2203C74.6415 41.2203 74.1017 40.5905 74.1017 39.5587C74.1017 38.479 74.6535 37.8851 75.5413 37.8851C76.2431 37.8851 76.795 38.281 76.897 39.0608ZM80.2067 39.0608H79.6788C79.5948 38.575 79.2709 38.341 78.851 38.341C78.2632 38.341 77.9513 38.7729 77.9513 39.5587C77.9513 40.3325 78.2812 40.7704 78.869 40.7704C79.2949 40.7704 79.6008 40.5425 79.7028 40.0866H80.2307C80.0867 40.8784 79.5529 41.2203 78.857 41.2203C77.9513 41.2203 77.4114 40.5905 77.4114 39.5587C77.4114 38.479 77.9632 37.8851 78.851 37.8851C79.5529 37.8851 80.1047 38.281 80.2067 39.0608ZM82.1788 41.2203C81.267 41.2203 80.7211 40.5965 80.7211 39.5587C80.7211 38.479 81.285 37.8851 82.1788 37.8851C83.0905 37.8851 83.6364 38.521 83.6364 39.5587C83.6364 40.6324 83.0725 41.2203 82.1788 41.2203ZM82.1788 40.7644C82.7726 40.7644 83.0965 40.3385 83.0965 39.5587C83.0965 38.7849 82.7666 38.341 82.1788 38.341C81.5849 38.341 81.261 38.7729 81.261 39.5587C81.261 40.3265 81.5909 40.7644 82.1788 40.7644ZM86.3433 39.8466V37.9631H86.8712V41.1483H86.3433V40.7164C86.1274 41.0523 85.7915 41.2203 85.3776 41.2203C84.7117 41.2203 84.3158 40.8304 84.3158 40.0926V37.9631H84.8437V39.9846C84.8437 40.4645 85.0536 40.7704 85.5215 40.7704C86.0374 40.7704 86.3433 40.3025 86.3433 39.8466ZM87.7134 41.1483V37.9631H88.2413V38.395C88.4572 38.0591 88.8051 37.8851 89.225 37.8851C89.9029 37.8851 90.3048 38.281 90.3048 39.0188V41.1483H89.7769V39.1268C89.7769 38.6469 89.561 38.335 89.0811 38.335C88.5532 38.335 88.2413 38.8089 88.2413 39.2648V41.1483H87.7134ZM91.2181 40.2305V38.383H90.7743V37.9631H91.2181V37.2313H91.746V37.9631H92.4478V38.383H91.746V40.2305C91.746 40.6144 91.86 40.7944 92.3279 40.7944H92.4358V41.1723C92.3759 41.2023 92.2439 41.2203 92.0939 41.2203C91.5001 41.2203 91.2181 40.9024 91.2181 40.2305ZM93.7614 38.383V37.9631H94.2053V37.7472C94.2053 37.0753 94.4812 36.7574 95.069 36.7574C95.201 36.7574 95.309 36.7814 95.363 36.8054V37.1833H95.309C94.8471 37.1833 94.7331 37.3633 94.7331 37.7472V37.9631H95.363V38.383H94.7331V41.1483H94.2053V38.383H93.7614ZM96.2715 39.0008H95.7436C95.8456 38.299 96.3075 37.8851 97.0873 37.8851C97.9391 37.8851 98.353 38.383 98.353 39.1268V40.3805C98.353 40.7464 98.383 40.9744 98.467 41.1483H97.9091C97.8491 41.0223 97.8311 40.8364 97.8251 40.6444C97.5552 41.0463 97.1233 41.2203 96.7394 41.2203C96.0796 41.2203 95.6357 40.9144 95.6357 40.3085C95.6357 39.8706 95.8756 39.5527 96.3435 39.3967C96.7754 39.2528 97.2133 39.2168 97.8251 39.2108V39.1388C97.8251 38.6229 97.5852 38.341 97.0393 38.341C96.5834 38.341 96.3375 38.5929 96.2715 39.0008ZM96.1755 40.2965C96.1755 40.5905 96.4215 40.7644 96.7934 40.7644C97.3812 40.7644 97.8251 40.3025 97.8251 39.7567V39.6067C96.4695 39.6187 96.1755 39.9066 96.1755 40.2965ZM99.6083 38.7789C99.6083 39.6667 101.678 38.9349 101.678 40.2485C101.678 40.8424 101.15 41.2203 100.4 41.2203C99.6443 41.2203 99.1164 40.8604 98.9964 40.1106H99.5243C99.5963 40.5545 99.9262 40.8004 100.418 40.8004C100.898 40.8004 101.15 40.5845 101.15 40.2845C101.15 39.4147 99.1044 40.1346 99.1044 38.8149C99.1044 38.329 99.4823 37.8851 100.262 37.8851C100.952 37.8851 101.462 38.209 101.564 39.0008H101.036C100.958 38.503 100.682 38.317 100.232 38.317C99.8362 38.317 99.6083 38.515 99.6083 38.7789ZM102.377 40.2305V38.383H101.934V37.9631H102.377V37.2313H102.905V37.9631H103.607V38.383H102.905V40.2305C102.905 40.6144 103.019 40.7944 103.487 40.7944H103.595V41.1723C103.535 41.2023 103.403 41.2203 103.253 41.2203C102.659 41.2203 102.377 40.9024 102.377 40.2305ZM106.863 40.1106C106.689 40.8544 106.155 41.2203 105.429 41.2203C104.506 41.2203 103.948 40.5965 103.948 39.5587C103.948 38.479 104.506 37.8851 105.399 37.8851C106.299 37.8851 106.839 38.503 106.839 39.5167V39.6487H104.488C104.518 40.3625 104.854 40.7644 105.429 40.7644C105.879 40.7644 106.197 40.5485 106.311 40.1106H106.863ZM105.399 38.341C104.89 38.341 104.584 38.6589 104.506 39.2528H106.287C106.215 38.6649 105.897 38.341 105.399 38.341ZM107.542 41.1483V37.9631H108.07V38.455C108.286 38.0651 108.628 37.8851 109.012 37.8851C109.138 37.8851 109.252 37.9151 109.312 37.9631V38.437C109.222 38.407 109.108 38.395 108.982 38.395C108.346 38.395 108.07 38.7909 108.07 39.3668V41.1483H107.542ZM113.74 41.1483L113.051 38.7669L112.979 38.407L112.907 38.7669L112.223 41.1483H111.569L110.621 37.9631H111.191L111.845 40.4345L111.923 40.7584L112.001 40.4345L112.727 37.9631H113.297L114.022 40.4345L114.094 40.7464L114.16 40.4345L114.814 37.9631H115.36L114.406 41.1483H113.74ZM115.837 37.5372V36.8294H116.365V37.5372H115.837ZM115.837 41.1483V37.9631H116.365V41.1483H115.837ZM117.274 40.2305V38.383H116.83V37.9631H117.274V37.2313H117.802V37.9631H118.504V38.383H117.802V40.2305C117.802 40.6144 117.916 40.7944 118.384 40.7944H118.492V41.1723C118.432 41.2023 118.3 41.2203 118.15 41.2203C117.556 41.2203 117.274 40.9024 117.274 40.2305ZM119.006 41.1483V36.8294H119.534V38.395C119.75 38.0591 120.098 37.8851 120.518 37.8851C121.196 37.8851 121.598 38.281 121.598 39.0188V41.1483H121.07V39.1268C121.07 38.6469 120.854 38.335 120.374 38.335C119.846 38.335 119.534 38.8089 119.534 39.2648V41.1483H119.006ZM123.64 37.5372V36.8294H124.168V37.5372H123.64ZM124.168 41.5562C124.168 42.228 123.892 42.546 123.304 42.546C123.172 42.546 123.064 42.522 123.01 42.498V42.1201H123.064C123.526 42.1201 123.64 41.9401 123.64 41.5562V37.9631H124.168V41.5562ZM127.032 39.8466V37.9631H127.56V41.1483H127.032V40.7164C126.817 41.0523 126.481 41.2203 126.067 41.2203C125.401 41.2203 125.005 40.8304 125.005 40.0926V37.9631H125.533V39.9846C125.533 40.4645 125.743 40.7704 126.211 40.7704C126.727 40.7704 127.032 40.3025 127.032 39.8466ZM128.792 38.7789C128.792 39.6667 130.862 38.9349 130.862 40.2485C130.862 40.8424 130.334 41.2203 129.584 41.2203C128.828 41.2203 128.301 40.8604 128.181 40.1106H128.708C128.78 40.5545 129.11 40.8004 129.602 40.8004C130.082 40.8004 130.334 40.5845 130.334 40.2845C130.334 39.4147 128.289 40.1346 128.289 38.8149C128.289 38.329 128.667 37.8851 129.446 37.8851C130.136 37.8851 130.646 38.209 130.748 39.0008H130.22C130.142 38.503 129.866 38.317 129.416 38.317C129.02 38.317 128.792 38.515 128.792 38.7789ZM131.562 40.2305V38.383H131.118V37.9631H131.562V37.2313H132.09V37.9631H132.791V38.383H132.09V40.2305C132.09 40.6144 132.204 40.7944 132.671 40.7944H132.779V41.1723C132.719 41.2023 132.587 41.2203 132.437 41.2203C131.844 41.2203 131.562 40.9024 131.562 40.2305ZM135.79 41.2203C134.879 41.2203 134.333 40.5965 134.333 39.5587C134.333 38.479 134.897 37.8851 135.79 37.8851C136.702 37.8851 137.248 38.521 137.248 39.5587C137.248 40.6324 136.684 41.2203 135.79 41.2203ZM135.79 40.7644C136.384 40.7644 136.708 40.3385 136.708 39.5587C136.708 38.7849 136.378 38.341 135.79 38.341C135.197 38.341 134.873 38.7729 134.873 39.5587C134.873 40.3265 135.203 40.7644 135.79 40.7644ZM137.928 41.1483V37.9631H138.455V38.395C138.671 38.0591 139.019 37.8851 139.439 37.8851C140.117 37.8851 140.519 38.281 140.519 39.0188V41.1483H139.991V39.1268C139.991 38.6469 139.775 38.335 139.295 38.335C138.767 38.335 138.455 38.8089 138.455 39.2648V41.1483H137.928ZM144.114 40.1106C143.94 40.8544 143.406 41.2203 142.68 41.2203C141.756 41.2203 141.198 40.5965 141.198 39.5587C141.198 38.479 141.756 37.8851 142.65 37.8851C143.55 37.8851 144.09 38.503 144.09 39.5167V39.6487H141.738C141.768 40.3625 142.104 40.7644 142.68 40.7644C143.13 40.7644 143.448 40.5485 143.562 40.1106H144.114ZM142.65 38.341C142.14 38.341 141.834 38.6589 141.756 39.2528H143.538C143.466 38.6649 143.148 38.341 142.65 38.341ZM146.528 42.468H146V37.9631H146.528V38.359C146.738 38.0591 147.044 37.8851 147.422 37.8851C148.267 37.8851 148.777 38.509 148.777 39.5467C148.777 40.6264 148.255 41.2203 147.422 41.2203C147.044 41.2203 146.738 41.0643 146.528 40.7704V42.468ZM147.386 38.341C146.828 38.341 146.528 38.7669 146.528 39.5467C146.528 40.3205 146.84 40.7644 147.386 40.7644C147.937 40.7644 148.237 40.3325 148.237 39.5467C148.237 38.7789 147.925 38.341 147.386 38.341ZM149.456 41.1483V36.8294H149.984V38.395C150.2 38.0591 150.548 37.8851 150.968 37.8851C151.645 37.8851 152.047 38.281 152.047 39.0188V41.1483H151.519V39.1268C151.519 38.6469 151.303 38.335 150.824 38.335C150.296 38.335 149.984 38.8089 149.984 39.2648V41.1483H149.456ZM153.375 39.0008H152.847C152.949 38.299 153.411 37.8851 154.19 37.8851C155.042 37.8851 155.456 38.383 155.456 39.1268V40.3805C155.456 40.7464 155.486 40.9744 155.57 41.1483H155.012C154.952 41.0223 154.934 40.8364 154.928 40.6444C154.658 41.0463 154.226 41.2203 153.842 41.2203C153.183 41.2203 152.739 40.9144 152.739 40.3085C152.739 39.8706 152.979 39.5527 153.447 39.3967C153.878 39.2528 154.316 39.2168 154.928 39.2108V39.1388C154.928 38.6229 154.688 38.341 154.142 38.341C153.686 38.341 153.441 38.5929 153.375 39.0008ZM153.279 40.2965C153.279 40.5905 153.525 40.7644 153.896 40.7644C154.484 40.7644 154.928 40.3025 154.928 39.7567V39.6067C153.573 39.6187 153.279 39.9066 153.279 40.2965ZM156.711 38.7789C156.711 39.6667 158.781 38.9349 158.781 40.2485C158.781 40.8424 158.253 41.2203 157.503 41.2203C156.747 41.2203 156.219 40.8604 156.1 40.1106H156.627C156.699 40.5545 157.029 40.8004 157.521 40.8004C158.001 40.8004 158.253 40.5845 158.253 40.2845C158.253 39.4147 156.207 40.1346 156.207 38.8149C156.207 38.329 156.585 37.8851 157.365 37.8851C158.055 37.8851 158.565 38.209 158.667 39.0008H158.139C158.061 38.503 157.785 38.317 157.335 38.317C156.939 38.317 156.711 38.515 156.711 38.7789ZM162.162 40.1106C161.988 40.8544 161.454 41.2203 160.728 41.2203C159.804 41.2203 159.247 40.5965 159.247 39.5587C159.247 38.479 159.804 37.8851 160.698 37.8851C161.598 37.8851 162.138 38.503 162.138 39.5167V39.6487H159.786C159.816 40.3625 160.152 40.7644 160.728 40.7644C161.178 40.7644 161.496 40.5485 161.61 40.1106H162.162ZM160.698 38.341C160.188 38.341 159.882 38.6589 159.804 39.2528H161.586C161.514 38.6649 161.196 38.341 160.698 38.341ZM162.664 41.1483V40.5005H163.312V41.1483H162.664ZM165.758 38.0651C165.758 39.2168 168.259 38.323 168.259 39.9966C168.259 40.7824 167.623 41.2203 166.754 41.2203C165.878 41.2203 165.278 40.8184 165.098 39.9966H165.674C165.806 40.4825 166.172 40.7464 166.76 40.7464C167.371 40.7464 167.695 40.4765 167.695 40.0686C167.695 38.8209 165.194 39.7507 165.194 38.1011C165.194 37.5132 165.686 36.9973 166.586 36.9973C167.371 36.9973 168.001 37.3752 168.151 38.245H167.569C167.443 37.7052 167.095 37.4712 166.574 37.4712C166.058 37.4712 165.758 37.7052 165.758 38.0651ZM168.904 37.5372V36.8294H169.432V37.5372H168.904ZM168.904 41.1483V37.9631H169.432V41.1483H168.904ZM170.269 41.1483V37.9631H170.797V38.371C171.001 38.0471 171.319 37.8851 171.709 37.8851C172.147 37.8851 172.465 38.0771 172.615 38.449C172.825 38.0771 173.172 37.8851 173.598 37.8851C174.246 37.8851 174.636 38.281 174.636 39.0188V41.1483H174.108V39.1268C174.108 38.6469 173.916 38.335 173.484 38.335C173.004 38.335 172.717 38.8089 172.717 39.2648V41.1483H172.189V39.1268C172.189 38.6469 171.997 38.335 171.565 38.335C171.085 38.335 170.797 38.8089 170.797 39.2648V41.1483H170.269ZM176.011 42.468H175.483V37.9631H176.011V38.359C176.221 38.0591 176.527 37.8851 176.905 37.8851C177.75 37.8851 178.26 38.509 178.26 39.5467C178.26 40.6264 177.738 41.2203 176.905 41.2203C176.527 41.2203 176.221 41.0643 176.011 40.7704V42.468ZM176.869 38.341C176.311 38.341 176.011 38.7669 176.011 39.5467C176.011 40.3205 176.323 40.7644 176.869 40.7644C177.42 40.7644 177.72 40.3325 177.72 39.5467C177.72 38.7789 177.408 38.341 176.869 38.341ZM178.939 41.1483V36.8294H179.467V41.1483H178.939ZM183.057 40.1106C182.883 40.8544 182.349 41.2203 181.623 41.2203C180.7 41.2203 180.142 40.5965 180.142 39.5587C180.142 38.479 180.7 37.8851 181.593 37.8851C182.493 37.8851 183.033 38.503 183.033 39.5167V39.6487H180.682C180.712 40.3625 181.048 40.7644 181.623 40.7644C182.073 40.7644 182.391 40.5485 182.505 40.1106H183.057ZM181.593 38.341C181.084 38.341 180.778 38.6589 180.7 39.2528H182.481C182.409 38.6649 182.091 38.341 181.593 38.341ZM184.937 41.1483V37.9631H185.465V38.455C185.681 38.0651 186.023 37.8851 186.407 37.8851C186.533 37.8851 186.647 37.9151 186.707 37.9631V38.437C186.617 38.407 186.503 38.395 186.377 38.395C185.741 38.395 185.465 38.7909 185.465 39.3668V41.1483H184.937ZM189.203 39.8466V37.9631H189.73V41.1483H189.203V40.7164C188.987 41.0523 188.651 41.2203 188.237 41.2203C187.571 41.2203 187.175 40.8304 187.175 40.0926V37.9631H187.703V39.9846C187.703 40.4645 187.913 40.7704 188.381 40.7704C188.897 40.7704 189.203 40.3025 189.203 39.8466ZM190.573 41.1483V36.8294H191.101V41.1483H190.573ZM194.691 40.1106C194.517 40.8544 193.983 41.2203 193.257 41.2203C192.334 41.2203 191.776 40.5965 191.776 39.5587C191.776 38.479 192.334 37.8851 193.227 37.8851C194.127 37.8851 194.667 38.503 194.667 39.5167V39.6487H192.316C192.346 40.3625 192.681 40.7644 193.257 40.7644C193.707 40.7644 194.025 40.5485 194.139 40.1106H194.691ZM193.227 38.341C192.717 38.341 192.412 38.6589 192.334 39.2528H194.115C194.043 38.6649 193.725 38.341 193.227 38.341ZM195.76 38.7789C195.76 39.6667 197.83 38.9349 197.83 40.2485C197.83 40.8424 197.302 41.2203 196.552 41.2203C195.796 41.2203 195.268 40.8604 195.148 40.1106H195.676C195.748 40.5545 196.078 40.8004 196.57 40.8004C197.05 40.8004 197.302 40.5845 197.302 40.2845C197.302 39.4147 195.256 40.1346 195.256 38.8149C195.256 38.329 195.634 37.8851 196.414 37.8851C197.104 37.8851 197.614 38.209 197.716 39.0008H197.188C197.11 38.503 196.834 38.317 196.384 38.317C195.988 38.317 195.76 38.515 195.76 38.7789ZM198.398 41.1483V40.5005H199.045V40.8484C199.045 41.4063 198.955 41.7482 198.745 42.1381H198.446C198.583 41.7782 198.661 41.5202 198.661 41.1483H198.398ZM202.217 41.2203C201.371 41.2203 200.861 40.5965 200.861 39.5587C200.861 38.479 201.383 37.8851 202.217 37.8851C202.595 37.8851 202.901 38.0411 203.111 38.335V37.9631H203.639V42.468H203.111V40.7464C202.901 41.0463 202.595 41.2203 202.217 41.2203ZM202.253 40.7644C202.811 40.7644 203.111 40.3385 203.111 39.5587C203.111 38.7849 202.799 38.341 202.253 38.341C201.701 38.341 201.401 38.7729 201.401 39.5587C201.401 40.3265 201.713 40.7644 202.253 40.7644ZM206.513 39.8466V37.9631H207.041V41.1483H206.513V40.7164C206.297 41.0523 205.961 41.2203 205.547 41.2203C204.881 41.2203 204.485 40.8304 204.485 40.0926V37.9631H205.013V39.9846C205.013 40.4645 205.223 40.7704 205.691 40.7704C206.207 40.7704 206.513 40.3025 206.513 39.8466ZM207.883 37.5372V36.8294H208.411V37.5372H207.883ZM207.883 41.1483V37.9631H208.411V41.1483H207.883ZM211.881 39.0608H211.353C211.269 38.575 210.945 38.341 210.525 38.341C209.938 38.341 209.626 38.7729 209.626 39.5587C209.626 40.3325 209.956 40.7704 210.543 40.7704C210.969 40.7704 211.275 40.5425 211.377 40.0866H211.905C211.761 40.8784 211.227 41.2203 210.531 41.2203C209.626 41.2203 209.086 40.5905 209.086 39.5587C209.086 38.479 209.638 37.8851 210.525 37.8851C211.227 37.8851 211.779 38.281 211.881 39.0608ZM212.558 41.1483V36.8294H213.085V39.3308L214.459 37.9631H215.107L213.655 39.3848L215.191 41.1483H214.519L213.085 39.5227V41.1483H212.558ZM218.187 40.1106C218.013 40.8544 217.479 41.2203 216.753 41.2203C215.83 41.2203 215.272 40.5965 215.272 39.5587C215.272 38.479 215.83 37.8851 216.723 37.8851C217.623 37.8851 218.163 38.503 218.163 39.5167V39.6487H215.812C215.842 40.3625 216.178 40.7644 216.753 40.7644C217.203 40.7644 217.521 40.5485 217.635 40.1106H218.187ZM216.723 38.341C216.214 38.341 215.908 38.6589 215.83 39.2528H217.611C217.539 38.6649 217.221 38.341 216.723 38.341ZM218.867 41.1483V37.9631H219.394V38.455C219.61 38.0651 219.952 37.8851 220.336 37.8851C220.462 37.8851 220.576 37.9151 220.636 37.9631V38.437C220.546 38.407 220.432 38.395 220.306 38.395C219.67 38.395 219.394 38.7909 219.394 39.3668V41.1483H218.867ZM222.791 39.0008H222.263C222.365 38.299 222.827 37.8851 223.607 37.8851C224.459 37.8851 224.872 38.383 224.872 39.1268V40.3805C224.872 40.7464 224.902 40.9744 224.986 41.1483H224.429C224.369 41.0223 224.351 40.8364 224.345 40.6444C224.075 41.0463 223.643 41.2203 223.259 41.2203C222.599 41.2203 222.155 40.9144 222.155 40.3085C222.155 39.8706 222.395 39.5527 222.863 39.3967C223.295 39.2528 223.733 39.2168 224.345 39.2108V39.1388C224.345 38.6229 224.105 38.341 223.559 38.341C223.103 38.341 222.857 38.5929 222.791 39.0008ZM222.695 40.2965C222.695 40.5905 222.941 40.7644 223.313 40.7644C223.901 40.7644 224.345 40.3025 224.345 39.7567V39.6067C222.989 39.6187 222.695 39.9066 222.695 40.2965ZM228.371 39.0608H227.843C227.759 38.575 227.435 38.341 227.016 38.341C226.428 38.341 226.116 38.7729 226.116 39.5587C226.116 40.3325 226.446 40.7704 227.034 40.7704C227.459 40.7704 227.765 40.5425 227.867 40.0866H228.395C228.251 40.8784 227.717 41.2203 227.022 41.2203C226.116 41.2203 225.576 40.5905 225.576 39.5587C225.576 38.479 226.128 37.8851 227.016 37.8851C227.717 37.8851 228.269 38.281 228.371 39.0608ZM231.681 39.0608H231.153C231.069 38.575 230.745 38.341 230.325 38.341C229.737 38.341 229.426 38.7729 229.426 39.5587C229.426 40.3325 229.755 40.7704 230.343 40.7704C230.769 40.7704 231.075 40.5425 231.177 40.0866H231.705C231.561 40.8784 231.027 41.2203 230.331 41.2203C229.426 41.2203 228.886 40.5905 228.886 39.5587C228.886 38.479 229.438 37.8851 230.325 37.8851C231.027 37.8851 231.579 38.281 231.681 39.0608ZM235.111 40.1106C234.937 40.8544 234.403 41.2203 233.677 41.2203C232.753 41.2203 232.195 40.5965 232.195 39.5587C232.195 38.479 232.753 37.8851 233.647 37.8851C234.547 37.8851 235.087 38.503 235.087 39.5167V39.6487H232.735C232.765 40.3625 233.101 40.7644 233.677 40.7644C234.127 40.7644 234.445 40.5485 234.559 40.1106H235.111ZM233.647 38.341C233.137 38.341 232.831 38.6589 232.753 39.2528H234.535C234.463 38.6649 234.145 38.341 233.647 38.341ZM236.18 38.7789C236.18 39.6667 238.249 38.9349 238.249 40.2485C238.249 40.8424 237.722 41.2203 236.972 41.2203C236.216 41.2203 235.688 40.8604 235.568 40.1106H236.096C236.168 40.5545 236.498 40.8004 236.99 40.8004C237.47 40.8004 237.722 40.5845 237.722 40.2845C237.722 39.4147 235.676 40.1346 235.676 38.8149C235.676 38.329 236.054 37.8851 236.834 37.8851C237.524 37.8851 238.034 38.209 238.135 39.0008H237.608C237.53 38.503 237.254 38.317 236.804 38.317C236.408 38.317 236.18 38.515 236.18 38.7789ZM239.267 38.7789C239.267 39.6667 241.337 38.9349 241.337 40.2485C241.337 40.8424 240.809 41.2203 240.059 41.2203C239.303 41.2203 238.775 40.8604 238.655 40.1106H239.183C239.255 40.5545 239.585 40.8004 240.077 40.8004C240.557 40.8004 240.809 40.5845 240.809 40.2845C240.809 39.4147 238.763 40.1346 238.763 38.8149C238.763 38.329 239.141 37.8851 239.921 37.8851C240.611 37.8851 241.121 38.209 241.223 39.0008H240.695C240.617 38.503 240.341 38.317 239.891 38.317C239.495 38.317 239.267 38.515 239.267 38.7789ZM241.904 41.1483V40.5005H242.552V41.1483H241.904Z" fill="#868686"/>
<rect x="11.3049" y="55.4532" width="267.621" height="39.9955" rx="7.15208" stroke="#3E3E3E" stroke-width="0.461424"/>
<path d="M20.0462 70.6053V66.9296H18.6314V66.2126H22.333V66.9296H20.9183V70.6053H20.0462ZM25.7105 70.6053L25.0839 68.2862L25.0193 67.8793L24.9418 68.2862L24.3216 70.6053H23.2945L22.332 67.1428H23.217L23.7726 69.5847L23.8565 70.0046L23.9534 69.5847L24.6188 67.1428H25.478L26.1434 69.5847L26.2273 69.9917L26.3048 69.5847L26.8669 67.1428H27.7131L26.7441 70.6053H25.7105ZM29.6357 70.7022C28.6085 70.7022 27.9755 70.011 27.9755 68.8805C27.9755 67.7048 28.6279 67.0459 29.6357 67.0459C30.6563 67.0459 31.2894 67.7436 31.2894 68.8805C31.2894 70.0433 30.6369 70.7022 29.6357 70.7022ZM29.6357 70.0175C30.1589 70.0175 30.4367 69.617 30.4367 68.8805C30.4367 68.1441 30.1525 67.7307 29.6357 67.7307C29.1059 67.7307 28.8282 68.1376 28.8282 68.8805C28.8282 69.6105 29.1124 70.0175 29.6357 70.0175ZM31.8776 69.1971V68.4929H33.6476V69.1971H31.8776ZM35.1894 67.3172C35.1894 68.3702 37.8186 67.5175 37.8186 69.3134C37.8186 70.1984 37.0951 70.7022 36.1003 70.7022C35.099 70.7022 34.3884 70.2371 34.2204 69.2811H35.1313C35.2411 69.7462 35.577 70.0046 36.1068 70.0046C36.6494 70.0046 36.9272 69.7785 36.9272 69.4232C36.9272 68.3056 34.3044 69.1454 34.3044 67.3948C34.3044 66.6971 34.8794 66.1157 35.9194 66.1157C36.8044 66.1157 37.5538 66.542 37.6959 67.5304H36.7721C36.6688 67.0395 36.3651 66.8134 35.8936 66.8134C35.4543 66.8134 35.1894 67.0136 35.1894 67.3172ZM38.5108 69.5265V67.7824H38.065V67.1428H38.5108V66.3482H39.3376V67.1428H40.0676V67.7824H39.3376V69.4555C39.3376 69.8172 39.441 70.011 39.8996 70.011H40.0547V70.6183C39.9642 70.6635 39.7769 70.7022 39.5508 70.7022C38.8467 70.7022 38.5108 70.3017 38.5108 69.5265ZM43.7111 69.4749C43.5237 70.2759 42.9036 70.7022 42.0767 70.7022C41.0302 70.7022 40.3907 70.011 40.3907 68.8805C40.3907 67.7048 41.0366 67.0459 42.0444 67.0459C43.0586 67.0459 43.6852 67.7307 43.6852 68.8482V69.042H41.2434C41.2821 69.6751 41.5728 70.024 42.0767 70.024C42.4643 70.024 42.7291 69.8431 42.839 69.4749H43.7111ZM42.0444 67.7242C41.6051 67.7242 41.3403 68.002 41.2627 68.5252H42.8196C42.7421 68.0085 42.4772 67.7242 42.0444 67.7242ZM45.1326 72.0265H44.3057V67.1428H45.1326V67.5369C45.3522 67.2203 45.6623 67.0459 46.0435 67.0459C46.9478 67.0459 47.5034 67.7371 47.5034 68.8676C47.5034 70.0433 46.9349 70.7022 46.0435 70.7022C45.6623 70.7022 45.3458 70.5407 45.1326 70.2307V72.0265ZM45.8949 67.7307C45.3975 67.7307 45.1326 68.1312 45.1326 68.8676C45.1326 69.6041 45.4104 70.0175 45.8949 70.0175C46.3858 70.0175 46.6507 69.6105 46.6507 68.8676C46.6507 68.1376 46.3794 67.7307 45.8949 67.7307Z" fill="#E5E5E5"/>
<path d="M20.0406 85.2967V81.6856H18.643V81.2177H21.9902V81.6856H20.5925V85.2967H20.0406ZM22.298 85.2967V82.1115H22.8258V82.6034C23.0418 82.2135 23.3837 82.0335 23.7676 82.0335C23.8936 82.0335 24.0075 82.0635 24.0675 82.1115V82.5854C23.9775 82.5554 23.8636 82.5434 23.7376 82.5434C23.1018 82.5434 22.8258 82.9393 22.8258 83.5151V85.2967H22.298ZM24.963 83.1492H24.4351C24.5371 82.4474 24.999 82.0335 25.7788 82.0335C26.6306 82.0335 27.0445 82.5314 27.0445 83.2752V84.5289C27.0445 84.8948 27.0745 85.1227 27.1584 85.2967H26.6006C26.5406 85.1707 26.5226 84.9848 26.5166 84.7928C26.2467 85.1947 25.8148 85.3687 25.4309 85.3687C24.771 85.3687 24.3271 85.0627 24.3271 84.4569C24.3271 84.019 24.5671 83.7011 25.035 83.5451C25.4669 83.4012 25.9048 83.3652 26.5166 83.3592V83.2872C26.5166 82.7713 26.2767 82.4894 25.7308 82.4894C25.2749 82.4894 25.029 82.7413 24.963 83.1492ZM24.867 84.4449C24.867 84.7388 25.1129 84.9128 25.4849 84.9128C26.0727 84.9128 26.5166 84.4509 26.5166 83.905V83.7551C25.1609 83.7671 24.867 84.055 24.867 84.4449ZM29.1036 85.3687C28.2578 85.3687 27.7479 84.7448 27.7479 83.7071C27.7479 82.6274 28.2698 82.0335 29.1036 82.0335C29.4815 82.0335 29.7874 82.1895 29.9973 82.4834V80.9778H30.5252V85.2967H29.9973V84.8948C29.7874 85.1947 29.4815 85.3687 29.1036 85.3687ZM29.1395 84.9128C29.6974 84.9128 29.9973 84.4869 29.9973 83.7071C29.9973 82.9333 29.6854 82.4894 29.1395 82.4894C28.5877 82.4894 28.2878 82.9213 28.2878 83.7071C28.2878 84.4749 28.5997 84.9128 29.1395 84.9128ZM31.366 81.6856V80.9778H31.8939V81.6856H31.366ZM31.366 85.2967V82.1115H31.8939V85.2967H31.366ZM32.8029 84.3789V82.5314H32.359V82.1115H32.8029V81.3797H33.3308V82.1115H34.0326V82.5314H33.3308V84.3789C33.3308 84.7628 33.4447 84.9428 33.9126 84.9428H34.0206V85.3207C33.9606 85.3507 33.8287 85.3687 33.6787 85.3687C33.0848 85.3687 32.8029 85.0508 32.8029 84.3789ZM34.5352 81.6856V80.9778H35.063V81.6856H34.5352ZM34.5352 85.2967V82.1115H35.063V85.2967H34.5352ZM37.1957 85.3687C36.284 85.3687 35.7381 84.7448 35.7381 83.7071C35.7381 82.6274 36.302 82.0335 37.1957 82.0335C38.1075 82.0335 38.6534 82.6693 38.6534 83.7071C38.6534 84.7808 38.0895 85.3687 37.1957 85.3687ZM37.1957 84.9128C37.7896 84.9128 38.1135 84.4869 38.1135 83.7071C38.1135 82.9333 37.7836 82.4894 37.1957 82.4894C36.6019 82.4894 36.278 82.9213 36.278 83.7071C36.278 84.4749 36.6079 84.9128 37.1957 84.9128ZM39.3328 85.2967V82.1115H39.8607V82.5434C40.0766 82.2075 40.4245 82.0335 40.8444 82.0335C41.5223 82.0335 41.9242 82.4294 41.9242 83.1672V85.2967H41.3963V83.2752C41.3963 82.7953 41.1803 82.4834 40.7005 82.4834C40.1726 82.4834 39.8607 82.9573 39.8607 83.4132V85.2967H39.3328ZM43.2514 83.1492H42.7236C42.8255 82.4474 43.2874 82.0335 44.0672 82.0335C44.919 82.0335 45.3329 82.5314 45.3329 83.2752V84.5289C45.3329 84.8948 45.3629 85.1227 45.4469 85.2967H44.889C44.829 85.1707 44.811 84.9848 44.805 84.7928C44.5351 85.1947 44.1032 85.3687 43.7193 85.3687C43.0595 85.3687 42.6156 85.0627 42.6156 84.4569C42.6156 84.019 42.8555 83.7011 43.3234 83.5451C43.7553 83.4012 44.1932 83.3652 44.805 83.3592V83.2872C44.805 82.7713 44.5651 82.4894 44.0192 82.4894C43.5634 82.4894 43.3174 82.7413 43.2514 83.1492ZM43.1555 84.4449C43.1555 84.7388 43.4014 84.9128 43.7733 84.9128C44.3612 84.9128 44.805 84.4509 44.805 83.905V83.7551C43.4494 83.7671 43.1555 84.055 43.1555 84.4449ZM46.1983 85.2967V80.9778H46.7262V85.2967H46.1983ZM51.5174 84.2589C51.3434 85.0028 50.8096 85.3687 50.0837 85.3687C49.16 85.3687 48.6021 84.7448 48.6021 83.7071C48.6021 82.6274 49.16 82.0335 50.0537 82.0335C50.9535 82.0335 51.4934 82.6513 51.4934 83.6651V83.7971H49.142C49.172 84.5109 49.5079 84.9128 50.0837 84.9128C50.5336 84.9128 50.8515 84.6968 50.9655 84.2589H51.5174ZM50.0537 82.4894C49.5439 82.4894 49.2379 82.8073 49.16 83.4012H50.9415C50.8695 82.8133 50.5516 82.4894 50.0537 82.4894ZM52.936 85.2967L51.7483 82.1115H52.3182L53.2 84.5829L53.2779 84.8588L53.3559 84.5829L54.2377 82.1115H54.7716L53.5839 85.2967H52.936ZM55.7054 83.1492H55.1775C55.2795 82.4474 55.7414 82.0335 56.5212 82.0335C57.373 82.0335 57.7869 82.5314 57.7869 83.2752V84.5289C57.7869 84.8948 57.8169 85.1227 57.9008 85.2967H57.343C57.283 85.1707 57.265 84.9848 57.259 84.7928C56.9891 85.1947 56.5572 85.3687 56.1733 85.3687C55.5134 85.3687 55.0695 85.0627 55.0695 84.4569C55.0695 84.019 55.3095 83.7011 55.7774 83.5451C56.2093 83.4012 56.6471 83.3652 57.259 83.3592V83.2872C57.259 82.7713 57.0191 82.4894 56.4732 82.4894C56.0173 82.4894 55.7714 82.7413 55.7054 83.1492ZM55.6094 84.4449C55.6094 84.7388 55.8553 84.9128 56.2272 84.9128C56.8151 84.9128 57.259 84.4509 57.259 83.905V83.7551C55.9033 83.7671 55.6094 84.055 55.6094 84.4449ZM58.6522 85.2967V80.9778H59.1801V85.2967H58.6522ZM62.0446 83.995V82.1115H62.5725V85.2967H62.0446V84.8648C61.8287 85.2007 61.4928 85.3687 61.0789 85.3687C60.413 85.3687 60.0171 84.9788 60.0171 84.241V82.1115H60.545V84.133C60.545 84.6129 60.755 84.9188 61.2228 84.9188C61.7387 84.9188 62.0446 84.4509 62.0446 83.995ZM63.9006 83.1492H63.3727C63.4747 82.4474 63.9366 82.0335 64.7164 82.0335C65.5682 82.0335 65.9821 82.5314 65.9821 83.2752V84.5289C65.9821 84.8948 66.0121 85.1227 66.0961 85.2967H65.5382C65.4782 85.1707 65.4602 84.9848 65.4542 84.7928C65.1843 85.1947 64.7524 85.3687 64.3685 85.3687C63.7087 85.3687 63.2648 85.0627 63.2648 84.4569C63.2648 84.019 63.5047 83.7011 63.9726 83.5451C64.4045 83.4012 64.8424 83.3652 65.4542 83.3592V83.2872C65.4542 82.7713 65.2143 82.4894 64.6684 82.4894C64.2125 82.4894 63.9666 82.7413 63.9006 83.1492ZM63.8046 84.4449C63.8046 84.7388 64.0506 84.9128 64.4225 84.9128C65.0103 84.9128 65.4542 84.4509 65.4542 83.905V83.7551C64.0986 83.7671 63.8046 84.055 63.8046 84.4449ZM66.9195 84.3789V82.5314H66.4756V82.1115H66.9195V81.3797H67.4473V82.1115H68.1492V82.5314H67.4473V84.3789C67.4473 84.7628 67.5613 84.9428 68.0292 84.9428H68.1372V85.3207C68.0772 85.3507 67.9452 85.3687 67.7952 85.3687C67.2014 85.3687 66.9195 85.0508 66.9195 84.3789ZM68.6517 81.6856V80.9778H69.1796V81.6856H68.6517ZM68.6517 85.2967V82.1115H69.1796V85.2967H68.6517ZM71.3123 85.3687C70.4005 85.3687 69.8547 84.7448 69.8547 83.7071C69.8547 82.6274 70.4185 82.0335 71.3123 82.0335C72.2241 82.0335 72.7699 82.6693 72.7699 83.7071C72.7699 84.7808 72.2061 85.3687 71.3123 85.3687ZM71.3123 84.9128C71.9062 84.9128 72.2301 84.4869 72.2301 83.7071C72.2301 82.9333 71.9002 82.4894 71.3123 82.4894C70.7184 82.4894 70.3945 82.9213 70.3945 83.7071C70.3945 84.4749 70.7244 84.9128 71.3123 84.9128ZM73.4494 85.2967V82.1115H73.9772V82.5434C74.1932 82.2075 74.5411 82.0335 74.961 82.0335C75.6388 82.0335 76.0407 82.4294 76.0407 83.1672V85.2967H75.5129V83.2752C75.5129 82.7953 75.2969 82.4834 74.817 82.4834C74.2892 82.4834 73.9772 82.9573 73.9772 83.4132V85.2967H73.4494ZM80.8423 85.2967L80.1525 82.9153L80.0805 82.5554L80.0085 82.9153L79.3247 85.2967H78.6708L77.7231 82.1115H78.2929L78.9468 84.5829L79.0247 84.9068L79.1027 84.5829L79.8286 82.1115H80.3984L81.1242 84.5829L81.1962 84.8948L81.2622 84.5829L81.916 82.1115H82.4619L81.5081 85.2967H80.8423ZM82.9392 81.6856V80.9778H83.4671V81.6856H82.9392ZM82.9392 85.2967V82.1115H83.4671V85.2967H82.9392ZM84.3761 84.3789V82.5314H83.9322V82.1115H84.3761V81.3797H84.904V82.1115H85.6058V82.5314H84.904V84.3789C84.904 84.7628 85.0179 84.9428 85.4858 84.9428H85.5938V85.3207C85.5338 85.3507 85.4018 85.3687 85.2519 85.3687C84.658 85.3687 84.3761 85.0508 84.3761 84.3789ZM86.1083 85.2967V80.9778H86.6362V82.5434C86.8522 82.2075 87.2001 82.0335 87.62 82.0335C88.2978 82.0335 88.6997 82.4294 88.6997 83.1672V85.2967H88.1718V83.2752C88.1718 82.7953 87.9559 82.4834 87.476 82.4834C86.9481 82.4834 86.6362 82.9573 86.6362 83.4132V85.2967H86.1083ZM91.2098 82.2135C91.2098 83.3652 93.7112 82.4714 93.7112 84.145C93.7112 84.9308 93.0754 85.3687 92.2056 85.3687C91.3298 85.3687 90.73 84.9668 90.55 84.145H91.1259C91.2578 84.6309 91.6237 84.8948 92.2116 84.8948C92.8234 84.8948 93.1474 84.6249 93.1474 84.217C93.1474 82.9693 90.646 83.899 90.646 82.2494C90.646 81.6616 91.1379 81.1457 92.0376 81.1457C92.8234 81.1457 93.4533 81.5236 93.6033 82.3934H93.0214C92.8954 81.8535 92.5475 81.6196 92.0256 81.6196C91.5098 81.6196 91.2098 81.8535 91.2098 82.2135ZM94.4283 84.3789V82.5314H93.9844V82.1115H94.4283V81.3797H94.9562V82.1115H95.658V82.5314H94.9562V84.3789C94.9562 84.7628 95.0701 84.9428 95.538 84.9428H95.646V85.3207C95.586 85.3507 95.454 85.3687 95.3041 85.3687C94.7102 85.3687 94.4283 85.0508 94.4283 84.3789ZM96.6464 83.1492H96.1186C96.2205 82.4474 96.6824 82.0335 97.4622 82.0335C98.314 82.0335 98.7279 82.5314 98.7279 83.2752V84.5289C98.7279 84.8948 98.7579 85.1227 98.8419 85.2967H98.284C98.224 85.1707 98.206 84.9848 98.2 84.7928C97.9301 85.1947 97.4982 85.3687 97.1143 85.3687C96.4545 85.3687 96.0106 85.0627 96.0106 84.4569C96.0106 84.019 96.2505 83.7011 96.7184 83.5451C97.1503 83.4012 97.5882 83.3652 98.2 83.3592V83.2872C98.2 82.7713 97.9601 82.4894 97.4142 82.4894C96.9583 82.4894 96.7124 82.7413 96.6464 83.1492ZM96.5504 84.4449C96.5504 84.7388 96.7964 84.9128 97.1683 84.9128C97.7561 84.9128 98.2 84.4509 98.2 83.905V83.7551C96.8444 83.7671 96.5504 84.055 96.5504 84.4449ZM100.727 85.3207C99.9172 85.3207 99.4313 84.7028 99.4313 83.6831C99.4313 82.6154 99.9292 82.0335 100.727 82.0335C101.153 82.0335 101.471 82.1835 101.681 82.4594V82.1115H102.209V85.3927C102.209 86.2804 101.639 86.6943 100.907 86.6943C100.157 86.6943 99.6293 86.3344 99.5153 85.6086H100.043C100.109 86.0285 100.439 86.2565 100.901 86.2565C101.369 86.2565 101.681 86.0045 101.681 85.4107V84.8648C101.459 85.1647 101.135 85.3207 100.727 85.3207ZM100.823 84.8648C101.381 84.8648 101.681 84.4449 101.681 83.6771C101.681 82.9273 101.369 82.4894 100.823 82.4894C100.271 82.4894 99.9712 82.9093 99.9712 83.6831C99.9712 84.4329 100.277 84.8648 100.823 84.8648ZM105.809 84.2589C105.635 85.0028 105.101 85.3687 104.375 85.3687C103.451 85.3687 102.893 84.7448 102.893 83.7071C102.893 82.6274 103.451 82.0335 104.345 82.0335C105.245 82.0335 105.785 82.6513 105.785 83.6651V83.7971H103.433C103.463 84.5109 103.799 84.9128 104.375 84.9128C104.825 84.9128 105.143 84.6968 105.257 84.2589H105.809ZM104.345 82.4894C103.835 82.4894 103.529 82.8073 103.451 83.4012H105.233C105.161 82.8133 104.843 82.4894 104.345 82.4894ZM108.097 85.2967V84.8768H108.835V82.1775H108.097V81.7576H108.535C108.847 81.7576 108.925 81.6856 108.925 81.5116V81.4396H109.387V84.8768H110.124V85.2967H108.097ZM112.832 83.1492H112.304C112.406 82.4474 112.868 82.0335 113.648 82.0335C114.499 82.0335 114.913 82.5314 114.913 83.2752V84.5289C114.913 84.8948 114.943 85.1227 115.027 85.2967H114.469C114.409 85.1707 114.391 84.9848 114.385 84.7928C114.116 85.1947 113.684 85.3687 113.3 85.3687C112.64 85.3687 112.196 85.0627 112.196 84.4569C112.196 84.019 112.436 83.7011 112.904 83.5451C113.336 83.4012 113.774 83.3652 114.385 83.3592V83.2872C114.385 82.7713 114.146 82.4894 113.6 82.4894C113.144 82.4894 112.898 82.7413 112.832 83.1492ZM112.736 84.4449C112.736 84.7388 112.982 84.9128 113.354 84.9128C113.942 84.9128 114.385 84.4509 114.385 83.905V83.7551C113.03 83.7671 112.736 84.055 112.736 84.4449ZM115.779 85.2967V82.1115H116.307V82.5434C116.523 82.2075 116.87 82.0335 117.29 82.0335C117.968 82.0335 118.37 82.4294 118.37 83.1672V85.2967H117.842V83.2752C117.842 82.7953 117.626 82.4834 117.146 82.4834C116.619 82.4834 116.307 82.9573 116.307 83.4132V85.2967H115.779ZM120.405 85.3687C119.559 85.3687 119.05 84.7448 119.05 83.7071C119.05 82.6274 119.571 82.0335 120.405 82.0335C120.783 82.0335 121.089 82.1895 121.299 82.4834V80.9778H121.827V85.2967H121.299V84.8948C121.089 85.1947 120.783 85.3687 120.405 85.3687ZM120.441 84.9128C120.999 84.9128 121.299 84.4869 121.299 83.7071C121.299 82.9333 120.987 82.4894 120.441 82.4894C119.889 82.4894 119.589 82.9213 119.589 83.7071C119.589 84.4749 119.901 84.9128 120.441 84.9128ZM124.336 82.2135C124.336 83.3652 126.838 82.4714 126.838 84.145C126.838 84.9308 126.202 85.3687 125.332 85.3687C124.456 85.3687 123.857 84.9668 123.677 84.145H124.252C124.384 84.6309 124.75 84.8948 125.338 84.8948C125.95 84.8948 126.274 84.6249 126.274 84.217C126.274 82.9693 123.773 83.899 123.773 82.2494C123.773 81.6616 124.264 81.1457 125.164 81.1457C125.95 81.1457 126.58 81.5236 126.73 82.3934H126.148C126.022 81.8535 125.674 81.6196 125.152 81.6196C124.636 81.6196 124.336 81.8535 124.336 82.2135ZM127.555 84.3789V82.5314H127.111V82.1115H127.555V81.3797H128.083V82.1115H128.785V82.5314H128.083V84.3789C128.083 84.7628 128.197 84.9428 128.665 84.9428H128.773V85.3207C128.713 85.3507 128.581 85.3687 128.431 85.3687C127.837 85.3687 127.555 85.0508 127.555 84.3789ZM129.773 83.1492H129.245C129.347 82.4474 129.809 82.0335 130.589 82.0335C131.441 82.0335 131.854 82.5314 131.854 83.2752V84.5289C131.854 84.8948 131.884 85.1227 131.968 85.2967H131.411C131.351 85.1707 131.333 84.9848 131.327 84.7928C131.057 85.1947 130.625 85.3687 130.241 85.3687C129.581 85.3687 129.137 85.0627 129.137 84.4569C129.137 84.019 129.377 83.7011 129.845 83.5451C130.277 83.4012 130.715 83.3652 131.327 83.3592V83.2872C131.327 82.7713 131.087 82.4894 130.541 82.4894C130.085 82.4894 129.839 82.7413 129.773 83.1492ZM129.677 84.4449C129.677 84.7388 129.923 84.9128 130.295 84.9128C130.883 84.9128 131.327 84.4509 131.327 83.905V83.7551C129.971 83.7671 129.677 84.055 129.677 84.4449ZM133.854 85.3207C133.044 85.3207 132.558 84.7028 132.558 83.6831C132.558 82.6154 133.056 82.0335 133.854 82.0335C134.279 82.0335 134.597 82.1835 134.807 82.4594V82.1115H135.335V85.3927C135.335 86.2804 134.765 86.6943 134.034 86.6943C133.284 86.6943 132.756 86.3344 132.642 85.6086H133.17C133.236 86.0285 133.566 86.2565 134.028 86.2565C134.495 86.2565 134.807 86.0045 134.807 85.4107V84.8648C134.585 85.1647 134.261 85.3207 133.854 85.3207ZM133.95 84.8648C134.507 84.8648 134.807 84.4449 134.807 83.6771C134.807 82.9273 134.495 82.4894 133.95 82.4894C133.398 82.4894 133.098 82.9093 133.098 83.6831C133.098 84.4329 133.404 84.8648 133.95 84.8648ZM138.935 84.2589C138.761 85.0028 138.227 85.3687 137.502 85.3687C136.578 85.3687 136.02 84.7448 136.02 83.7071C136.02 82.6274 136.578 82.0335 137.472 82.0335C138.371 82.0335 138.911 82.6513 138.911 83.6651V83.7971H136.56C136.59 84.5109 136.926 84.9128 137.502 84.9128C137.951 84.9128 138.269 84.6968 138.383 84.2589H138.935ZM137.472 82.4894C136.962 82.4894 136.656 82.8073 136.578 83.4012H138.359C138.287 82.8133 137.969 82.4894 137.472 82.4894ZM140.768 85.2967V85.1527C140.768 83.4192 142.903 83.5631 142.903 82.5254C142.903 82.0875 142.645 81.8236 142.165 81.8236C141.637 81.8236 141.379 82.0935 141.307 82.5374H140.762C140.863 81.8116 141.349 81.3677 142.171 81.3677C143.011 81.3677 143.443 81.8655 143.443 82.5194C143.443 83.7671 141.535 83.7551 141.313 84.8768H143.485V85.2967H140.768ZM145.545 84.3789V82.5314H145.101V82.1115H145.545V81.3797H146.072V82.1115H146.774V82.5314H146.072V84.3789C146.072 84.7628 146.186 84.9428 146.654 84.9428H146.762V85.3207C146.702 85.3507 146.57 85.3687 146.42 85.3687C145.826 85.3687 145.545 85.0508 145.545 84.3789ZM147.763 83.1492H147.235C147.337 82.4474 147.799 82.0335 148.578 82.0335C149.43 82.0335 149.844 82.5314 149.844 83.2752V84.5289C149.844 84.8948 149.874 85.1227 149.958 85.2967H149.4C149.34 85.1707 149.322 84.9848 149.316 84.7928C149.046 85.1947 148.614 85.3687 148.231 85.3687C147.571 85.3687 147.127 85.0627 147.127 84.4569C147.127 84.019 147.367 83.7011 147.835 83.5451C148.267 83.4012 148.704 83.3652 149.316 83.3592V83.2872C149.316 82.7713 149.076 82.4894 148.53 82.4894C148.075 82.4894 147.829 82.7413 147.763 83.1492ZM147.667 84.4449C147.667 84.7388 147.913 84.9128 148.285 84.9128C148.872 84.9128 149.316 84.4509 149.316 83.905V83.7551C147.961 83.7671 147.667 84.055 147.667 84.4449ZM150.71 85.2967V82.1115H151.237V82.6034C151.453 82.2135 151.795 82.0335 152.179 82.0335C152.305 82.0335 152.419 82.0635 152.479 82.1115V82.5854C152.389 82.5554 152.275 82.5434 152.149 82.5434C151.513 82.5434 151.237 82.9393 151.237 83.5151V85.2967H150.71ZM154.022 85.3207C153.213 85.3207 152.727 84.7028 152.727 83.6831C152.727 82.6154 153.225 82.0335 154.022 82.0335C154.448 82.0335 154.766 82.1835 154.976 82.4594V82.1115H155.504V85.3927C155.504 86.2804 154.934 86.6943 154.202 86.6943C153.453 86.6943 152.925 86.3344 152.811 85.6086H153.339C153.405 86.0285 153.734 86.2565 154.196 86.2565C154.664 86.2565 154.976 86.0045 154.976 85.4107V84.8648C154.754 85.1647 154.43 85.3207 154.022 85.3207ZM154.118 84.8648C154.676 84.8648 154.976 84.4449 154.976 83.6771C154.976 82.9273 154.664 82.4894 154.118 82.4894C153.567 82.4894 153.267 82.9093 153.267 83.6831C153.267 84.4329 153.573 84.8648 154.118 84.8648ZM159.104 84.2589C158.93 85.0028 158.396 85.3687 157.67 85.3687C156.747 85.3687 156.189 84.7448 156.189 83.7071C156.189 82.6274 156.747 82.0335 157.64 82.0335C158.54 82.0335 159.08 82.6513 159.08 83.6651V83.7971H156.729C156.759 84.5109 157.095 84.9128 157.67 84.9128C158.12 84.9128 158.438 84.6968 158.552 84.2589H159.104ZM157.64 82.4894C157.131 82.4894 156.825 82.8073 156.747 83.4012H158.528C158.456 82.8133 158.138 82.4894 157.64 82.4894ZM159.855 84.3789V82.5314H159.412V82.1115H159.855V81.3797H160.383V82.1115H161.085V82.5314H160.383V84.3789C160.383 84.7628 160.497 84.9428 160.965 84.9428H161.073V85.3207C161.013 85.3507 160.881 85.3687 160.731 85.3687C160.137 85.3687 159.855 85.0508 159.855 84.3789ZM161.978 82.9273C161.978 83.8151 164.047 83.0832 164.047 84.3969C164.047 84.9908 163.519 85.3687 162.769 85.3687C162.014 85.3687 161.486 85.0088 161.366 84.2589H161.894C161.966 84.7028 162.296 84.9488 162.787 84.9488C163.267 84.9488 163.519 84.7328 163.519 84.4329C163.519 83.5631 161.474 84.2829 161.474 82.9633C161.474 82.4774 161.852 82.0335 162.631 82.0335C163.321 82.0335 163.831 82.3574 163.933 83.1492H163.405C163.327 82.6513 163.051 82.4654 162.601 82.4654C162.206 82.4654 161.978 82.6633 161.978 82.9273ZM164.615 85.2967V84.6489H165.263V85.2967H164.615ZM167.709 82.2135C167.709 83.3652 170.21 82.4714 170.21 84.145C170.21 84.9308 169.574 85.3687 168.704 85.3687C167.828 85.3687 167.229 84.9668 167.049 84.145H167.625C167.756 84.6309 168.122 84.8948 168.71 84.8948C169.322 84.8948 169.646 84.6249 169.646 84.217C169.646 82.9693 167.145 83.899 167.145 82.2494C167.145 81.6616 167.637 81.1457 168.536 81.1457C169.322 81.1457 169.952 81.5236 170.102 82.3934H169.52C169.394 81.8535 169.046 81.6196 168.524 81.6196C168.008 81.6196 167.709 81.8535 167.709 82.2135ZM170.927 84.3789V82.5314H170.483V82.1115H170.927V81.3797H171.455V82.1115H172.157V82.5314H171.455V84.3789C171.455 84.7628 171.569 84.9428 172.037 84.9428H172.145V85.3207C172.085 85.3507 171.953 85.3687 171.803 85.3687C171.209 85.3687 170.927 85.0508 170.927 84.3789ZM172.659 85.2967V82.1115H173.187V82.6034C173.403 82.2135 173.745 82.0335 174.129 82.0335C174.255 82.0335 174.369 82.0635 174.429 82.1115V82.5854C174.339 82.5554 174.225 82.5434 174.099 82.5434C173.463 82.5434 173.187 82.9393 173.187 83.5151V85.2967H172.659ZM174.897 81.6856V80.9778H175.425V81.6856H174.897ZM174.897 85.2967V82.1115H175.425V85.2967H174.897ZM178.895 83.2092H178.367C178.283 82.7233 177.959 82.4894 177.539 82.4894C176.952 82.4894 176.64 82.9213 176.64 83.7071C176.64 84.4809 176.97 84.9188 177.557 84.9188C177.983 84.9188 178.289 84.6908 178.391 84.235H178.919C178.775 85.0268 178.241 85.3687 177.545 85.3687C176.64 85.3687 176.1 84.7388 176.1 83.7071C176.1 82.6274 176.652 82.0335 177.539 82.0335C178.241 82.0335 178.793 82.4294 178.895 83.2092ZM179.644 84.3789V82.5314H179.2V82.1115H179.644V81.3797H180.171V82.1115H180.873V82.5314H180.171V84.3789C180.171 84.7628 180.285 84.9428 180.753 84.9428H180.861V85.3207C180.801 85.3507 180.669 85.3687 180.519 85.3687C179.925 85.3687 179.644 85.0508 179.644 84.3789ZM184.129 84.2589C183.955 85.0028 183.421 85.3687 182.695 85.3687C181.772 85.3687 181.214 84.7448 181.214 83.7071C181.214 82.6274 181.772 82.0335 182.665 82.0335C183.565 82.0335 184.105 82.6513 184.105 83.6651V83.7971H181.754C181.784 84.5109 182.12 84.9128 182.695 84.9128C183.145 84.9128 183.463 84.6968 183.577 84.2589H184.129ZM182.665 82.4894C182.156 82.4894 181.85 82.8073 181.772 83.4012H183.553C183.481 82.8133 183.163 82.4894 182.665 82.4894ZM184.809 85.2967V82.1115H185.336V82.6034C185.552 82.2135 185.894 82.0335 186.278 82.0335C186.404 82.0335 186.518 82.0635 186.578 82.1115V82.5854C186.488 82.5554 186.374 82.5434 186.248 82.5434C185.612 82.5434 185.336 82.9393 185.336 83.5151V85.2967H184.809ZM188.247 85.2967V82.1115H188.775V82.6034C188.991 82.2135 189.333 82.0335 189.717 82.0335C189.843 82.0335 189.957 82.0635 190.017 82.1115V82.5854C189.927 82.5554 189.813 82.5434 189.687 82.5434C189.051 82.5434 188.775 82.9393 188.775 83.5151V85.2967H188.247ZM192.512 83.995V82.1115H193.04V85.2967H192.512V84.8648C192.296 85.2007 191.961 85.3687 191.547 85.3687C190.881 85.3687 190.485 84.9788 190.485 84.241V82.1115H191.013V84.133C191.013 84.6129 191.223 84.9188 191.691 84.9188C192.206 84.9188 192.512 84.4509 192.512 83.995ZM193.882 85.2967V80.9778H194.41V85.2967H193.882ZM198.001 84.2589C197.827 85.0028 197.293 85.3687 196.567 85.3687C195.643 85.3687 195.085 84.7448 195.085 83.7071C195.085 82.6274 195.643 82.0335 196.537 82.0335C197.437 82.0335 197.977 82.6513 197.977 83.6651V83.7971H195.625C195.655 84.5109 195.991 84.9128 196.567 84.9128C197.017 84.9128 197.335 84.6968 197.449 84.2589H198.001ZM196.537 82.4894C196.027 82.4894 195.721 82.8073 195.643 83.4012H197.425C197.353 82.8133 197.035 82.4894 196.537 82.4894ZM199.07 82.9273C199.07 83.8151 201.139 83.0832 201.139 84.3969C201.139 84.9908 200.612 85.3687 199.862 85.3687C199.106 85.3687 198.578 85.0088 198.458 84.2589H198.986C199.058 84.7028 199.388 84.9488 199.88 84.9488C200.36 84.9488 200.612 84.7328 200.612 84.4329C200.612 83.5631 198.566 84.2829 198.566 82.9633C198.566 82.4774 198.944 82.0335 199.724 82.0335C200.414 82.0335 200.924 82.3574 201.026 83.1492H200.498C200.42 82.6513 200.144 82.4654 199.694 82.4654C199.298 82.4654 199.07 82.6633 199.07 82.9273ZM203.496 85.2967H202.968V80.9778H203.496V82.5074C203.706 82.2075 204.012 82.0335 204.39 82.0335C205.236 82.0335 205.745 82.6573 205.745 83.6951C205.745 84.7748 205.224 85.3687 204.39 85.3687C204.012 85.3687 203.706 85.2127 203.496 84.9188V85.2967ZM204.354 82.4894C203.796 82.4894 203.496 82.9153 203.496 83.6951C203.496 84.4689 203.808 84.9128 204.354 84.9128C204.906 84.9128 205.206 84.4809 205.206 83.6951C205.206 82.9273 204.894 82.4894 204.354 82.4894ZM208.452 83.995V82.1115H208.98V85.2967H208.452V84.8648C208.236 85.2007 207.9 85.3687 207.486 85.3687C206.82 85.3687 206.424 84.9788 206.424 84.241V82.1115H206.952V84.133C206.952 84.6129 207.162 84.9188 207.63 84.9188C208.146 84.9188 208.452 84.4509 208.452 83.995ZM209.894 84.3789V82.5314H209.45V82.1115H209.894V81.3797H210.422V82.1115H211.124V82.5314H210.422V84.3789C210.422 84.7628 210.536 84.9428 211.004 84.9428H211.112V85.3207C211.052 85.3507 210.92 85.3687 210.77 85.3687C210.176 85.3687 209.894 85.0508 209.894 84.3789ZM212.827 85.2967V80.9778H213.355V85.2967H212.827ZM215.488 85.3687C214.576 85.3687 214.03 84.7448 214.03 83.7071C214.03 82.6274 214.594 82.0335 215.488 82.0335C216.399 82.0335 216.945 82.6693 216.945 83.7071C216.945 84.7808 216.381 85.3687 215.488 85.3687ZM215.488 84.9128C216.081 84.9128 216.405 84.4869 216.405 83.7071C216.405 82.9333 216.075 82.4894 215.488 82.4894C214.894 82.4894 214.57 82.9213 214.57 83.7071C214.57 84.4749 214.9 84.9128 215.488 84.9128ZM220.325 85.2967L219.636 82.9153L219.564 82.5554L219.492 82.9153L218.808 85.2967H218.154L217.206 82.1115H217.776L218.43 84.5829L218.508 84.9068L218.586 84.5829L219.312 82.1115H219.881L220.607 84.5829L220.679 84.8948L220.745 84.5829L221.399 82.1115H221.945L220.991 85.2967H220.325ZM225.146 84.2589C224.972 85.0028 224.438 85.3687 223.713 85.3687C222.789 85.3687 222.231 84.7448 222.231 83.7071C222.231 82.6274 222.789 82.0335 223.683 82.0335C224.582 82.0335 225.122 82.6513 225.122 83.6651V83.7971H222.771C222.801 84.5109 223.137 84.9128 223.713 84.9128C224.163 84.9128 224.48 84.6968 224.594 84.2589H225.146ZM223.683 82.4894C223.173 82.4894 222.867 82.8073 222.789 83.4012H224.57C224.498 82.8133 224.181 82.4894 223.683 82.4894ZM225.826 85.2967V82.1115H226.354V82.6034C226.57 82.2135 226.911 82.0335 227.295 82.0335C227.421 82.0335 227.535 82.0635 227.595 82.1115V82.5854C227.505 82.5554 227.391 82.5434 227.265 82.5434C226.63 82.5434 226.354 82.9393 226.354 83.5151V85.2967H225.826ZM229.264 85.2967V82.1115H229.792V82.6034C230.008 82.2135 230.35 82.0335 230.734 82.0335C230.86 82.0335 230.974 82.0635 231.034 82.1115V82.5854C230.944 82.5554 230.83 82.5434 230.704 82.5434C230.068 82.5434 229.792 82.9393 229.792 83.5151V85.2967H229.264ZM231.502 81.6856V80.9778H232.03V81.6856H231.502ZM231.502 85.2967V82.1115H232.03V85.2967H231.502ZM233.257 82.9273C233.257 83.8151 235.326 83.0832 235.326 84.3969C235.326 84.9908 234.798 85.3687 234.049 85.3687C233.293 85.3687 232.765 85.0088 232.645 84.2589H233.173C233.245 84.7028 233.575 84.9488 234.067 84.9488C234.547 84.9488 234.798 84.7328 234.798 84.4329C234.798 83.5631 232.753 84.2829 232.753 82.9633C232.753 82.4774 233.131 82.0335 233.911 82.0335C234.601 82.0335 235.11 82.3574 235.212 83.1492H234.685C234.607 82.6513 234.331 82.4654 233.881 82.4654C233.485 82.4654 233.257 82.6633 233.257 82.9273ZM235.954 85.2967V80.9778H236.482V83.4791L237.856 82.1115H238.503L237.052 83.5331L238.587 85.2967H237.916L236.482 83.6711V85.2967H235.954ZM239.04 85.2967V84.6489H239.688V85.2967H239.04Z" fill="#868686"/>
</svg>
