
<svg width="16" height="17" viewBox="0 0 16 17" fill="none" xmlns="http://www.w3.org/2000/svg">
<path d="M8 16.6079C3.58867 16.6079 0 13.0192 0 8.60791C0 4.19658 3.58867 0.60791 8 0.60791C12.4113 0.60791 16 4.19658 16 8.60791C16 13.0192 12.4113 16.6079 8 16.6079ZM8 1.94124C4.324 1.94124 1.33333 4.93191 1.33333 8.60791C1.33333 12.2839 4.324 15.2746 8 15.2746C11.676 15.2746 14.6667 12.2839 14.6667 8.60791C14.6667 4.93191 11.676 1.94124 8 1.94124ZM11.3333 8.60791C11.3333 8.23924 11.0353 7.94124 10.6667 7.94124H8.66667V4.60791C8.66667 4.23924 8.368 3.94124 8 3.94124C7.632 3.94124 7.33333 4.23924 7.33333 4.60791V8.60791C7.33333 8.97658 7.632 9.27458 8 9.27458H10.6667C11.0353 9.27458 11.3333 8.97658 11.3333 8.60791Z" fill="#E5E5E5"/>
</svg>
