
<svg width="16" height="17" viewBox="0 0 16 17" fill="none" xmlns="http://www.w3.org/2000/svg">
<g clip-path="url(#clip0_0_9069)">
<path d="M8.66665 2.69059C8.66665 2.8674 8.73688 3.03697 8.86191 3.162C8.98693 3.28702 9.1565 3.35726 9.33331 3.35726H11.9773C11.9282 2.92438 11.7383 2.51962 11.4366 2.20526L9.91398 0.632592C9.58088 0.294958 9.13899 0.0861754 8.66665 0.0432591V2.69059ZM7.33331 2.69059V0.0239258H4.66665C3.78292 0.0249844 2.93568 0.376514 2.31079 1.00141C1.6859 1.6263 1.33437 2.47353 1.33331 3.35726V10.0239C1.33437 10.9077 1.6859 11.7549 2.31079 12.3798C2.93568 13.0047 3.78292 13.3562 4.66665 13.3573H8.66665C9.55038 13.3562 10.3976 13.0047 11.0225 12.3798C11.6474 11.7549 11.9989 10.9077 12 10.0239V4.69059H9.33331C8.80288 4.69059 8.29417 4.47988 7.9191 4.10481C7.54403 3.72973 7.33331 3.22103 7.33331 2.69059ZM11.3333 16.0239H5.33331C5.1565 16.0239 4.98693 15.9537 4.86191 15.8287C4.73688 15.7036 4.66665 15.5341 4.66665 15.3573C4.66665 15.1804 4.73688 15.0109 4.86191 14.8859C4.98693 14.7608 5.1565 14.6906 5.33331 14.6906H11.3333C11.8637 14.6906 12.3725 14.4799 12.7475 14.1048C13.1226 13.7297 13.3333 13.221 13.3333 12.6906V5.35726C13.3333 5.18045 13.4035 5.01088 13.5286 4.88585C13.6536 4.76083 13.8232 4.69059 14 4.69059C14.1768 4.69059 14.3464 4.76083 14.4714 4.88585C14.5964 5.01088 14.6666 5.18045 14.6666 5.35726V12.6906C14.6656 13.5743 14.3141 14.4216 13.6892 15.0464C13.0643 15.6713 12.217 16.0229 11.3333 16.0239Z" fill="white"/>
</g>
<defs>
<clipPath id="clip0_0_9069">
<rect width="16" height="16" fill="white" transform="translate(0 0.0239258)"/>
</clipPath>
</defs>
</svg>
