<svg width="28" height="28" viewBox="0 0 28 28" fill="none" xmlns="http://www.w3.org/2000/svg">
<g clip-path="url(#clip0_2337_2727)">
<path d="M14 8.16667C10.7835 8.16667 8.16667 10.7835 8.16667 14C8.16667 17.2165 10.7835 19.8333 14 19.8333C17.2165 19.8333 19.8333 17.2165 19.8333 14C19.8333 10.7835 17.2165 8.16667 14 8.16667ZM14 17.5C12.0703 17.5 10.5 15.9297 10.5 14C10.5 12.0703 12.0703 10.5 14 10.5C15.9297 10.5 17.5 12.0703 17.5 14C17.5 15.9297 15.9297 17.5 14 17.5ZM26.8333 12.8333H25.6083C25.0588 7.33017 20.6698 2.94 15.1667 2.39167V1.16667C15.1667 0.5215 14.644 0 14 0C13.356 0 12.8333 0.5215 12.8333 1.16667V2.39167C7.33017 2.94 2.94 7.33017 2.39167 12.8333H1.16667C0.522667 12.8333 0 13.3548 0 14C0 14.6452 0.522667 15.1667 1.16667 15.1667H2.39167C2.94117 20.6698 7.33017 25.06 12.8333 25.6083V26.8333C12.8333 27.4785 13.356 28 14 28C14.644 28 15.1667 27.4785 15.1667 26.8333V25.6083C20.6698 25.0588 25.06 20.6698 25.6083 15.1667H26.8333C27.4773 15.1667 28 14.6452 28 14C28 13.3548 27.4773 12.8333 26.8333 12.8333ZM14 23.3333C8.85383 23.3333 4.66667 19.1462 4.66667 14C4.66667 8.85383 8.85383 4.66667 14 4.66667C19.1462 4.66667 23.3333 8.85383 23.3333 14C23.3333 19.1462 19.1462 23.3333 14 23.3333Z" fill="#FF0000"/>
</g>
<defs>
<clipPath id="clip0_2337_2727">
<rect width="28" height="28" fill="white"/>
</clipPath>
</defs>
</svg>
