
<svg width="16" height="16" viewBox="0 0 16 16" fill="none" xmlns="http://www.w3.org/2000/svg">
<path fill-rule="evenodd" clip-rule="evenodd" d="M8.00065 13.3333C10.9462 13.3333 13.334 10.9455 13.334 7.99998C13.334 5.05446 10.9462 2.66665 8.00065 2.66665C5.05513 2.66665 2.66732 5.05446 2.66732 7.99998C2.66732 10.9455 5.05513 13.3333 8.00065 13.3333ZM8.00065 14.6666C11.6825 14.6666 14.6673 11.6819 14.6673 7.99998C14.6673 4.31808 11.6825 1.33331 8.00065 1.33331C4.31875 1.33331 1.33398 4.31808 1.33398 7.99998C1.33398 11.6819 4.31875 14.6666 8.00065 14.6666Z" fill="#777E91"/>
<path d="M7.33398 4.66667C7.33398 4.29848 7.63246 4 8.00065 4C8.36884 4 8.66732 4.29848 8.66732 4.66667C9.77189 4.66667 10.6673 5.5621 10.6673 6.66667C10.6673 7.03486 10.3688 7.33333 10.0007 7.33333C9.63246 7.33333 9.33398 7.03486 9.33398 6.66667C9.33398 6.29848 9.03551 6 8.66732 6H7.16293C6.88921 6 6.66732 6.22189 6.66732 6.49561C6.66732 6.70894 6.80382 6.89833 7.0062 6.96579L9.41674 7.7693C10.1636 8.01825 10.6673 8.71716 10.6673 9.50439C10.6673 10.5145 9.84847 11.3333 8.83837 11.3333H8.66732C8.66732 11.7015 8.36884 12 8.00065 12C7.63246 12 7.33398 11.7015 7.33398 11.3333C6.22941 11.3333 5.33398 10.4379 5.33398 9.33333C5.33398 8.96514 5.63246 8.66667 6.00065 8.66667C6.36884 8.66667 6.66732 8.96514 6.66732 9.33333C6.66732 9.70152 6.96579 10 7.33398 10H8.83837C9.11209 10 9.33398 9.77811 9.33398 9.50439C9.33398 9.29106 9.19748 9.10167 8.9951 9.03421L6.58457 8.2307C5.83773 7.98176 5.33398 7.28284 5.33398 6.49561C5.33398 5.48551 6.15283 4.66667 7.16293 4.66667H7.33398Z" fill="#777E91"/>
</svg>
