
<svg width="10" height="6" viewBox="0 0 10 6" fill="none" xmlns="http://www.w3.org/2000/svg">
<path d="M1.2759 0.60791H8.7239C8.85573 0.607938 8.9846 0.647053 9.09421 0.720309C9.20381 0.793565 9.28924 0.897674 9.33969 1.01947C9.39013 1.14127 9.40333 1.2753 9.37762 1.4046C9.35191 1.5339 9.28844 1.65268 9.19523 1.74591L5.47123 5.46991C5.34621 5.59489 5.17668 5.6651 4.9999 5.6651C4.82312 5.6651 4.65358 5.59489 4.52857 5.46991L0.804566 1.74591C0.71136 1.65268 0.647889 1.5339 0.622177 1.4046C0.596466 1.2753 0.609668 1.14127 0.660114 1.01947C0.710561 0.897674 0.795987 0.793565 0.905594 0.720309C1.0152 0.647053 1.14407 0.607938 1.2759 0.60791Z" fill="#E5E5E5"/>
</svg>
