<svg width="18" height="18" viewBox="0 0 18 18" fill="none" xmlns="http://www.w3.org/2000/svg">
<path fill-rule="evenodd" clip-rule="evenodd" d="M9.39714 12.21C9.29167 12.3153 9.1487 12.3745 8.99964 12.3745C8.85058 12.3745 8.70761 12.3153 8.60214 12.21L2.97714 6.58499C2.87778 6.47836 2.82369 6.33733 2.82626 6.1916C2.82883 6.04588 2.88786 5.90684 2.99092 5.80378C3.09398 5.70072 3.23302 5.64168 3.37875 5.63911C3.52447 5.63654 3.66551 5.69063 3.77214 5.78999L8.99964 11.0175L14.2271 5.78999C14.2786 5.73473 14.3407 5.6904 14.4097 5.65966C14.4787 5.62891 14.5532 5.61238 14.6287 5.61105C14.7043 5.60972 14.7793 5.62361 14.8493 5.6519C14.9194 5.68019 14.983 5.7223 15.0364 5.77571C15.0898 5.82913 15.1319 5.89275 15.1602 5.96279C15.1885 6.03284 15.2024 6.10786 15.2011 6.18338C15.1998 6.25891 15.1832 6.3334 15.1525 6.4024C15.1217 6.4714 15.0774 6.5335 15.0221 6.58499L9.39714 12.21Z" fill="#777E90"/>
</svg>
