<svg width="15" height="15" viewBox="0 0 15 15" fill="none" xmlns="http://www.w3.org/2000/svg">
<path d="M10.7461 2.02791L12.0114 0.761911C12.2751 0.498153 12.6328 0.349976 13.0059 0.349976C13.3789 0.349976 13.7366 0.498153 14.0004 0.761911C14.2641 1.02567 14.4123 1.3834 14.4123 1.75641C14.4123 2.12942 14.2641 2.48715 14.0004 2.75091L6.03611 10.7152C5.6396 11.1114 5.15063 11.4027 4.61336 11.5627L2.59961 12.1627L3.19961 10.1489C3.35957 9.61164 3.65084 9.12267 4.04711 8.72616L10.7461 2.02791ZM10.7461 2.02791L12.7246 4.00641M11.5996 9.16266V12.7252C11.5996 13.1727 11.4218 13.6019 11.1054 13.9184C10.7889 14.2349 10.3597 14.4127 9.91211 14.4127H2.03711C1.58956 14.4127 1.16033 14.2349 0.843867 13.9184C0.527399 13.6019 0.349609 13.1727 0.349609 12.7252V4.85016C0.349609 4.40261 0.527399 3.97339 0.843867 3.65692C1.16033 3.34045 1.58956 3.16266 2.03711 3.16266H5.59961" stroke="#868686" stroke-width="0.7" stroke-linecap="round" stroke-linejoin="round"/>
</svg>
