<svg width="35" height="35" viewBox="0 0 35 35" fill="none" xmlns="http://www.w3.org/2000/svg">
<rect x="0.25" y="0.0200195" width="34" height="34" rx="17" fill="#F8DFDF"/>
<path d="M17.5282 24.4746V9.92911H18.4601V24.4746H17.5282ZM20.2157 14.5825C20.1627 14.0863 19.9392 13.6999 19.5453 13.4234C19.1551 13.1469 18.6476 13.0087 18.0226 13.0087C17.5832 13.0087 17.2063 13.0749 16.8919 13.2075C16.5775 13.3401 16.3369 13.52 16.1703 13.7473C16.0036 13.9746 15.9184 14.234 15.9146 14.5257C15.9146 14.7681 15.9695 14.9784 16.0794 15.1564C16.193 15.3344 16.3464 15.4859 16.5396 15.6109C16.7328 15.7321 16.9468 15.8344 17.1816 15.9177C17.4165 16.0011 17.6532 16.0712 17.8919 16.128L18.9828 16.4007C19.4222 16.503 19.8445 16.6412 20.2498 16.8155C20.6589 16.9897 21.0244 17.2094 21.3464 17.4746C21.6722 17.7397 21.9297 18.0598 22.1191 18.4348C22.3085 18.8098 22.4032 19.2492 22.4032 19.753C22.4032 20.4348 22.229 21.0352 21.8805 21.5541C21.532 22.0693 21.0282 22.4727 20.3691 22.7643C19.7138 23.0522 18.9203 23.1962 17.9885 23.1962C17.0832 23.1962 16.2972 23.056 15.6305 22.7757C14.9676 22.4954 14.4487 22.0863 14.0737 21.5484C13.7025 21.0105 13.5017 20.3552 13.4714 19.5825H15.5453C15.5756 19.9878 15.7006 20.3249 15.9203 20.5939C16.14 20.8628 16.426 21.0636 16.7782 21.1962C17.1343 21.3287 17.532 21.395 17.9714 21.395C18.4297 21.395 18.8313 21.3268 19.176 21.1905C19.5244 21.0503 19.7972 20.8571 19.9941 20.6109C20.1911 20.3609 20.2915 20.0693 20.2953 19.7359C20.2915 19.4329 20.2025 19.1829 20.0282 18.9859C19.854 18.7852 19.6097 18.6185 19.2953 18.4859C18.9847 18.3496 18.621 18.2284 18.2044 18.1223L16.8805 17.7814C15.9222 17.5352 15.1646 17.1621 14.6078 16.6621C14.0547 16.1583 13.7782 15.4897 13.7782 14.6564C13.7782 13.9708 13.9638 13.3704 14.335 12.8552C14.71 12.3401 15.2195 11.9405 15.8635 11.6564C16.5074 11.3685 17.2366 11.2246 18.051 11.2246C18.8767 11.2246 19.6002 11.3685 20.2214 11.6564C20.8464 11.9405 21.3369 12.3363 21.693 12.8439C22.0491 13.3477 22.2328 13.9272 22.2441 14.5825H20.2157Z" fill="#FF0000"/>
</svg>
