<svg width="23" height="24" viewBox="0 0 23 24" fill="none" xmlns="http://www.w3.org/2000/svg">
<g clip-path="url(#clip0_8_492)">
<path d="M5.09729 14.0268L4.29669 17.0155L1.37052 17.0774C0.496027 15.4554 0 13.5996 0 11.6276C0 9.72058 0.463773 7.92227 1.28584 6.33882H1.28647L3.89158 6.81643L5.03278 9.40591C4.79393 10.1022 4.66374 10.8497 4.66374 11.6276C4.66383 12.4717 4.81675 13.2806 5.09729 14.0268Z" fill="#FBBB00"/>
<path d="M22.7992 9.47922C22.9312 10.1749 23.0001 10.8933 23.0001 11.6276C23.0001 12.4509 22.9135 13.254 22.7486 14.0287C22.1888 16.6648 20.726 18.9667 18.6996 20.5957L18.699 20.595L15.4177 20.4276L14.9533 17.5286C16.2979 16.74 17.3488 15.506 17.9023 14.0287H11.7529V9.47922H17.992H22.7992Z" fill="#518EF8"/>
<path d="M18.6989 20.595L18.6996 20.5957C16.7288 22.1798 14.2253 23.1276 11.5001 23.1276C7.12061 23.1276 3.31298 20.6797 1.37061 17.0774L5.09737 14.0268C6.06853 16.6187 8.56884 18.4638 11.5001 18.4638C12.76 18.4638 13.9404 18.1232 14.9532 17.5286L18.6989 20.595Z" fill="#28B446"/>
<path d="M18.8402 2.77508L15.1147 5.82509C14.0665 5.16986 12.8273 4.79135 11.4998 4.79135C8.50221 4.79135 5.95514 6.72106 5.03262 9.40591L1.28627 6.33882H1.28564C3.19959 2.64871 7.05523 0.127563 11.4998 0.127563C14.2901 0.127563 16.8486 1.1215 18.8402 2.77508Z" fill="#F14336"/>
</g>
<defs>
<clipPath id="clip0_8_492">
<rect width="23" height="23" fill="white" transform="translate(0 0.127563)"/>
</clipPath>
</defs>
</svg>
