
<svg width="17" height="17" viewBox="0 0 17 17" fill="none" xmlns="http://www.w3.org/2000/svg">
<path d="M16.333 8.60791C16.333 10.1902 15.8638 11.7369 14.9848 13.0525C14.1057 14.3681 12.8563 15.3934 11.3945 15.9989C9.93267 16.6044 8.32414 16.7629 6.77229 16.4542C5.22044 16.1455 3.79498 15.3836 2.67616 14.2648C1.55734 13.1459 0.795411 11.7205 0.486729 10.1686C0.178047 8.61679 0.336474 7.00825 0.941975 5.54644C1.54748 4.08463 2.57286 2.8352 3.88845 1.95615C5.20404 1.0771 6.75076 0.60791 8.33301 0.60791C10.454 0.610204 12.4875 1.4538 13.9873 2.95359C15.4871 4.45338 16.3307 6.48688 16.333 8.60791ZM9.66635 8.60791C9.66635 8.25429 9.52587 7.91515 9.27582 7.6651C9.02577 7.41505 8.68663 7.27458 8.33301 7.27458H6.99968V8.60791H8.33301V13.2746H9.66635V8.60791ZM8.33301 3.94124C8.13523 3.94124 7.94189 3.99989 7.77744 4.10977C7.61299 4.21966 7.48482 4.37583 7.40913 4.55856C7.33344 4.74129 7.31364 4.94235 7.35223 5.13633C7.39081 5.33032 7.48605 5.5085 7.62591 5.64835C7.76576 5.7882 7.94394 5.88344 8.13792 5.92203C8.3319 5.96061 8.53297 5.94081 8.7157 5.86512C8.89842 5.78944 9.0546 5.66126 9.16448 5.49681C9.27436 5.33237 9.33301 5.13903 9.33301 4.94124C9.33301 4.67603 9.22766 4.42167 9.04012 4.23414C8.85258 4.0466 8.59823 3.94124 8.33301 3.94124Z" fill="white"/>
</svg>
