
<svg width="19" height="18" viewBox="0 0 19 18" fill="none" xmlns="http://www.w3.org/2000/svg">
<g clip-path="url(#clip0_36_1653)">
<path d="M17.375 7.875H1.625C1.00368 7.875 0.5 8.37868 0.5 9C0.5 9.62132 1.00368 10.125 1.625 10.125H17.375C17.9963 10.125 18.5 9.62132 18.5 9C18.5 8.37868 17.9963 7.875 17.375 7.875Z" fill="#E5E5E5"/>
<path d="M1.625 4.875H17.375C17.9963 4.875 18.5 4.37132 18.5 3.75C18.5 3.12868 17.9963 2.625 17.375 2.625H1.625C1.00368 2.625 0.5 3.12868 0.5 3.75C0.5 4.37132 1.00368 4.875 1.625 4.875Z" fill="#E5E5E5"/>
<path d="M17.375 13.125H1.625C1.00368 13.125 0.5 13.6287 0.5 14.25C0.5 14.8713 1.00368 15.375 1.625 15.375H17.375C17.9963 15.375 18.5 14.8713 18.5 14.25C18.5 13.6287 17.9963 13.125 17.375 13.125Z" fill="#E5E5E5"/>
</g>
<defs>
<clipPath id="clip0_36_1653">
<rect width="18" height="18" fill="white" transform="translate(0.5)"/>
</clipPath>
</defs>
</svg>
