<svg width="291" height="140" viewBox="0 0 291 140" fill="none" xmlns="http://www.w3.org/2000/svg">
<rect x="0.193766" y="0.193766" width="138.866" height="138.669" rx="6.00676" fill="#0E0E0E"/>
<rect x="0.193766" y="0.193766" width="138.866" height="138.669" rx="6.00676" stroke="#262626" stroke-width="0.387533"/>
<path d="M9.75419 16.3008V12.3479H10.289V16.3008H9.75419ZM11.1496 16.3008V13.2141H11.6611V13.6326C11.8704 13.3071 12.2075 13.1385 12.6145 13.1385C13.2713 13.1385 13.6608 13.5222 13.6608 14.2372V16.3008H13.1493V14.3418C13.1493 13.8768 12.94 13.5745 12.4749 13.5745C11.9634 13.5745 11.6611 14.0337 11.6611 14.4755V16.3008H11.1496ZM14.4762 12.8014V12.1154H14.9877V12.8014H14.4762ZM14.4762 16.3008V13.2141H14.9877V16.3008H14.4762ZM15.8686 15.4114V13.621H15.4384V13.2141H15.8686V12.5049H16.3801V13.2141H17.0603V13.621H16.3801V15.4114C16.3801 15.7834 16.4906 15.9578 16.944 15.9578H17.0486V16.324C16.9905 16.3531 16.8626 16.3705 16.7173 16.3705C16.1418 16.3705 15.8686 16.0624 15.8686 15.4114ZM17.5473 12.8014V12.1154H18.0588V12.8014H17.5473ZM17.5473 16.3008V13.2141H18.0588V16.3008H17.5473ZM19.3408 14.2197H18.8293C18.9281 13.5396 19.3757 13.1385 20.1314 13.1385C20.9568 13.1385 21.3579 13.621 21.3579 14.3418V15.5567C21.3579 15.9113 21.387 16.1322 21.4684 16.3008H20.9278C20.8696 16.1787 20.8522 15.9985 20.8464 15.8125C20.5848 16.202 20.1663 16.3705 19.7942 16.3705C19.1548 16.3705 18.7246 16.0741 18.7246 15.487C18.7246 15.0626 18.9572 14.7545 19.4106 14.6034C19.8291 14.4639 20.2535 14.429 20.8464 14.4232V14.3534C20.8464 13.8535 20.6139 13.5803 20.0849 13.5803C19.6431 13.5803 19.4048 13.8244 19.3408 14.2197ZM19.2478 15.4753C19.2478 15.7602 19.4861 15.9287 19.8465 15.9287C20.4162 15.9287 20.8464 15.4811 20.8464 14.9522V14.8068C19.5326 14.8185 19.2478 15.0975 19.2478 15.4753ZM22.1965 16.3008V12.1154H22.7081V16.3008H22.1965ZM27.9847 13.4873H27.4267C27.2814 13.0048 26.8686 12.7374 26.3629 12.7374C25.5898 12.7374 25.1306 13.342 25.1306 14.3302C25.1306 15.3184 25.584 15.9113 26.3629 15.9113C26.8512 15.9113 27.2465 15.6614 27.4151 15.1847H27.9789C27.758 15.9346 27.1128 16.3705 26.3571 16.3705C25.2526 16.3705 24.5841 15.5974 24.5841 14.3302C24.5841 13.0688 25.2643 12.2782 26.3803 12.2782C27.1418 12.2782 27.7929 12.6967 27.9847 13.4873ZM29.1105 14.2197H28.599C28.6978 13.5396 29.1454 13.1385 29.9011 13.1385C30.7265 13.1385 31.1276 13.621 31.1276 14.3418V15.5567C31.1276 15.9113 31.1567 16.1322 31.2381 16.3008H30.6974C30.6393 16.1787 30.6219 15.9985 30.6161 15.8125C30.3545 16.202 29.9359 16.3705 29.5639 16.3705C28.9245 16.3705 28.4943 16.0741 28.4943 15.487C28.4943 15.0626 28.7268 14.7545 29.1803 14.6034C29.5988 14.4639 30.0231 14.429 30.6161 14.4232V14.3534C30.6161 13.8535 30.3835 13.5803 29.8546 13.5803C29.4128 13.5803 29.1744 13.8244 29.1105 14.2197ZM29.0175 15.4753C29.0175 15.7602 29.2558 15.9287 29.6162 15.9287C30.1859 15.9287 30.6161 15.4811 30.6161 14.9522V14.8068C29.3023 14.8185 29.0175 15.0975 29.0175 15.4753ZM32.4836 17.5796H31.972V13.2141H32.4836V13.5977C32.687 13.3071 32.9835 13.1385 33.3497 13.1385C34.1693 13.1385 34.6635 13.7431 34.6635 14.7487C34.6635 15.7951 34.1577 16.3705 33.3497 16.3705C32.9835 16.3705 32.687 16.2194 32.4836 15.9346V17.5796ZM33.3148 13.5803C32.7742 13.5803 32.4836 13.993 32.4836 14.7487C32.4836 15.4986 32.7859 15.9287 33.3148 15.9287C33.8496 15.9287 34.1403 15.5102 34.1403 14.7487C34.1403 14.0046 33.838 13.5803 33.3148 13.5803ZM35.3212 12.8014V12.1154H35.8327V12.8014H35.3212ZM35.3212 16.3008V13.2141H35.8327V16.3008H35.3212ZM36.7136 15.4114V13.621H36.2835V13.2141H36.7136V12.5049H37.2252V13.2141H37.9053V13.621H37.2252V15.4114C37.2252 15.7834 37.3356 15.9578 37.789 15.9578H37.8937V16.324C37.8355 16.3531 37.7076 16.3705 37.5623 16.3705C36.9868 16.3705 36.7136 16.0624 36.7136 15.4114ZM38.8632 14.2197H38.3516C38.4504 13.5396 38.898 13.1385 39.6537 13.1385C40.4792 13.1385 40.8803 13.621 40.8803 14.3418V15.5567C40.8803 15.9113 40.9093 16.1322 40.9907 16.3008H40.4501C40.392 16.1787 40.3745 15.9985 40.3687 15.8125C40.1071 16.202 39.6886 16.3705 39.3166 16.3705C38.6771 16.3705 38.247 16.0741 38.247 15.487C38.247 15.0626 38.4795 14.7545 38.9329 14.6034C39.3514 14.4639 39.7758 14.429 40.3687 14.4232V14.3534C40.3687 13.8535 40.1362 13.5803 39.6072 13.5803C39.1654 13.5803 38.9271 13.8244 38.8632 14.2197ZM38.7701 15.4753C38.7701 15.7602 39.0085 15.9287 39.3689 15.9287C39.9386 15.9287 40.3687 15.4811 40.3687 14.9522V14.8068C39.055 14.8185 38.7701 15.0975 38.7701 15.4753ZM41.7189 16.3008V12.1154H42.2304V16.3008H41.7189Z" fill="#7D7D7D"/>
<path d="M11.2808 30.401V29.7499H12.4248V25.5646H11.2808V24.9135H11.9597C12.4434 24.9135 12.5643 24.8019 12.5643 24.5322V24.4206H13.2804V29.7499H14.4244V30.401H11.2808ZM18.0347 30.5126C16.5559 30.5126 15.7002 29.3593 15.7002 27.4154C15.7002 25.4158 16.5745 24.309 18.0347 24.309C19.5042 24.309 20.3599 25.4623 20.3599 27.4154C20.3599 29.4151 19.4856 30.5126 18.0347 30.5126ZM18.0347 29.8058C18.9927 29.8058 19.5228 28.9501 19.5228 27.4154C19.5228 25.8901 18.9834 25.0158 18.0347 25.0158C17.0674 25.0158 16.5373 25.8622 16.5373 27.4154C16.5373 28.9222 17.0767 29.8058 18.0347 29.8058ZM21.273 30.401V29.3965H22.2775V29.936C22.2775 30.8009 22.138 31.3311 21.8124 31.9356H21.3474C21.5613 31.3776 21.6822 30.9776 21.6822 30.401H21.273ZM25.5099 30.5126C24.031 30.5126 23.1754 29.3593 23.1754 27.4154C23.1754 25.4158 24.0496 24.309 25.5099 24.309C26.9794 24.309 27.8351 25.4623 27.8351 27.4154C27.8351 29.4151 26.9608 30.5126 25.5099 30.5126ZM25.5099 29.8058C26.4678 29.8058 26.998 28.9501 26.998 27.4154C26.998 25.8901 26.4585 25.0158 25.5099 25.0158C24.5426 25.0158 24.0124 25.8622 24.0124 27.4154C24.0124 28.9222 24.5519 29.8058 25.5099 29.8058ZM30.8687 30.5126C29.3899 30.5126 28.5342 29.3593 28.5342 27.4154C28.5342 25.4158 29.4085 24.309 30.8687 24.309C32.3382 24.309 33.1939 25.4623 33.1939 27.4154C33.1939 29.4151 32.3196 30.5126 30.8687 30.5126ZM30.8687 29.8058C31.8267 29.8058 32.3568 28.9501 32.3568 27.4154C32.3568 25.8901 31.8174 25.0158 30.8687 25.0158C29.9014 25.0158 29.3713 25.8622 29.3713 27.4154C29.3713 28.9222 29.9107 29.8058 30.8687 29.8058ZM36.2276 30.5126C34.7487 30.5126 33.8931 29.3593 33.8931 27.4154C33.8931 25.4158 34.7673 24.309 36.2276 24.309C37.6971 24.309 38.5528 25.4623 38.5528 27.4154C38.5528 29.4151 37.6785 30.5126 36.2276 30.5126ZM36.2276 29.8058C37.1855 29.8058 37.7157 28.9501 37.7157 27.4154C37.7157 25.8901 37.1762 25.0158 36.2276 25.0158C35.2603 25.0158 34.7301 25.8622 34.7301 27.4154C34.7301 28.9222 35.2696 29.8058 36.2276 29.8058ZM59.3051 27.9921C59.3051 29.5546 58.3379 30.5126 56.7846 30.5126C55.2221 30.5126 54.2548 29.5546 54.2548 27.9921V24.0765H55.1198V27.9921C55.1198 29.1361 55.7429 29.8244 56.7846 29.8244C57.8263 29.8244 58.4495 29.1268 58.4495 27.9921V24.0765H59.3051V27.9921ZM61.3292 25.6204C61.3292 27.4061 65.2076 26.0203 65.2076 28.6153C65.2076 29.8337 64.2217 30.5126 62.8731 30.5126C61.5152 30.5126 60.5851 29.8895 60.3061 28.6153H61.1989C61.4036 29.3686 61.9709 29.7778 62.8824 29.7778C63.8311 29.7778 64.3333 29.3593 64.3333 28.7269C64.3333 26.7923 60.4549 28.2339 60.4549 25.6762C60.4549 24.7647 61.2175 23.9649 62.6127 23.9649C63.8311 23.9649 64.8076 24.5508 65.0402 25.8994H64.138C63.9427 25.0624 63.4032 24.6996 62.5941 24.6996C61.7942 24.6996 61.3292 25.0624 61.3292 25.6204ZM66.2822 30.401V24.0765H68.347C70.3094 24.0765 71.5371 25.267 71.5371 27.248C71.5371 29.2291 70.3094 30.401 68.347 30.401H66.2822ZM68.347 29.7034C69.7979 29.7034 70.6629 28.792 70.6629 27.248C70.6629 25.6855 69.7979 24.774 68.347 24.774H67.1379V29.7034H68.347ZM73.9886 30.401V24.8019H71.8215V24.0765H77.0114V24.8019H74.8443V30.401H73.9886Z" fill="#E5E5E5"/>
<path d="M39.4658 30.401V29.3965H40.4703V30.401H39.4658ZM43.7027 30.5126C42.2239 30.5126 41.3682 29.3593 41.3682 27.4154C41.3682 25.4158 42.2425 24.309 43.7027 24.309C45.1722 24.309 46.0279 25.4623 46.0279 27.4154C46.0279 29.4151 45.1536 30.5126 43.7027 30.5126ZM43.7027 29.8058C44.6607 29.8058 45.1908 28.9501 45.1908 27.4154C45.1908 25.8901 44.6514 25.0158 43.7027 25.0158C42.7354 25.0158 42.2053 25.8622 42.2053 27.4154C42.2053 28.9222 42.7447 29.8058 43.7027 29.8058ZM49.0616 30.5126C47.5827 30.5126 46.7271 29.3593 46.7271 27.4154C46.7271 25.4158 47.6013 24.309 49.0616 24.309C50.5311 24.309 51.3868 25.4623 51.3868 27.4154C51.3868 29.4151 50.5125 30.5126 49.0616 30.5126ZM49.0616 29.8058C50.0195 29.8058 50.5497 28.9501 50.5497 27.4154C50.5497 25.8901 50.0102 25.0158 49.0616 25.0158C48.0943 25.0158 47.5641 25.8622 47.5641 27.4154C47.5641 28.9222 48.1036 29.8058 49.0616 29.8058Z" fill="#868686"/>
<rect x="29.9043" y="50.3116" width="79.4443" height="79.4443" rx="39.7221" fill="#252525"/>
<path d="M69.6259 52.6949C69.6259 51.3787 70.6939 50.3042 72.0078 50.3831C76.58 50.6578 81.0766 51.7217 85.2966 53.5335C90.2476 55.6592 94.7144 58.7699 98.4252 62.6764C102.136 66.5829 105.013 71.2035 106.882 76.2571C108.475 80.5645 109.306 85.1098 109.346 89.6902C109.357 91.0064 108.229 92.0178 106.915 91.9502C105.6 91.8827 104.598 90.7614 104.576 89.4454C104.51 85.5115 103.78 81.6111 102.411 77.9102C100.767 73.463 98.2348 69.3969 94.9693 65.9592C91.7038 62.5215 87.773 59.784 83.4161 57.9135C79.7904 56.3568 75.9326 55.4275 72.0073 55.1594C70.6941 55.0698 69.6259 54.0112 69.6259 52.6949Z" fill="url(#paint0_linear_292_3426)"/>
<path d="M58.0005 82.779H57.4796C57.344 82.3287 56.9588 82.0791 56.4868 82.0791C55.7652 82.0791 55.3366 82.6433 55.3366 83.5657C55.3366 84.488 55.7597 85.0414 56.4868 85.0414C56.9425 85.0414 57.3114 84.8081 57.4688 84.3632H57.995C57.7889 85.0631 57.1866 85.47 56.4813 85.47C55.4505 85.47 54.8266 84.7484 54.8266 83.5657C54.8266 82.3884 55.4613 81.6505 56.503 81.6505C57.2138 81.6505 57.8214 82.0411 58.0005 82.779ZM59.0512 83.4626H58.5737C58.666 82.8278 59.0837 82.4535 59.789 82.4535C60.5595 82.4535 60.9338 82.9038 60.9338 83.5765V84.7104C60.9338 85.0414 60.9609 85.2476 61.0369 85.4049H60.5323C60.4781 85.291 60.4618 85.1228 60.4564 84.9492C60.2122 85.3127 59.8216 85.47 59.4744 85.47C58.8776 85.47 58.4761 85.1933 58.4761 84.6453C58.4761 84.2493 58.6931 83.9617 59.1163 83.8207C59.5069 83.6905 59.903 83.6579 60.4564 83.6525V83.5874C60.4564 83.1208 60.2393 82.8658 59.7456 82.8658C59.3333 82.8658 59.1109 83.0937 59.0512 83.4626ZM58.9644 84.6345C58.9644 84.9003 59.1868 85.0577 59.5232 85.0577C60.0549 85.0577 60.4564 84.6399 60.4564 84.1462V84.0106C59.2302 84.0214 58.9644 84.2818 58.9644 84.6345ZM62.1994 86.5985H61.7219V82.524H62.1994V82.8821C62.3893 82.6108 62.666 82.4535 63.0078 82.4535C63.7728 82.4535 64.2339 83.0177 64.2339 83.9563C64.2339 84.9329 63.7619 85.47 63.0078 85.47C62.666 85.47 62.3893 85.329 62.1994 85.0631V86.5985ZM62.9752 82.8658C62.4707 82.8658 62.1994 83.251 62.1994 83.9563C62.1994 84.6562 62.4815 85.0577 62.9752 85.0577C63.4744 85.0577 63.7456 84.667 63.7456 83.9563C63.7456 83.2619 63.4635 82.8658 62.9752 82.8658ZM64.8478 82.1388V81.4986H65.3252V82.1388H64.8478ZM64.8478 85.4049V82.524H65.3252V85.4049H64.8478ZM66.1474 84.5748V82.9038H65.7459V82.524H66.1474V81.8621H66.6249V82.524H67.2596V82.9038H66.6249V84.5748C66.6249 84.922 66.7279 85.0848 67.1511 85.0848H67.2488V85.4266C67.1945 85.4537 67.0752 85.47 66.9395 85.47C66.4024 85.47 66.1474 85.1825 66.1474 84.5748ZM68.1536 83.4626H67.6762C67.7684 82.8278 68.1862 82.4535 68.8915 82.4535C69.6619 82.4535 70.0363 82.9038 70.0363 83.5765V84.7104C70.0363 85.0414 70.0634 85.2476 70.1394 85.4049H69.6348C69.5805 85.291 69.5643 85.1228 69.5588 84.9492C69.3147 85.3127 68.9241 85.47 68.5768 85.47C67.98 85.47 67.5786 85.1933 67.5786 84.6453C67.5786 84.2493 67.7956 83.9617 68.2188 83.8207C68.6094 83.6905 69.0054 83.6579 69.5588 83.6525V83.5874C69.5588 83.1208 69.3418 82.8658 68.8481 82.8658C68.4358 82.8658 68.2133 83.0937 68.1536 83.4626ZM68.0668 84.6345C68.0668 84.9003 68.2893 85.0577 68.6257 85.0577C69.1574 85.0577 69.5588 84.6399 69.5588 84.1462V84.0106C68.3327 84.0214 68.0668 84.2818 68.0668 84.6345ZM70.819 85.4049V81.4986H71.2964V85.4049H70.819ZM76.0857 83.9997C76.0857 84.9112 75.5214 85.47 74.6154 85.47C73.7039 85.47 73.1396 84.9112 73.1396 83.9997V81.7156H73.6442V83.9997C73.6442 84.667 74.0077 85.0685 74.6154 85.0685C75.223 85.0685 75.5865 84.6616 75.5865 83.9997V81.7156H76.0857V83.9997ZM77.1958 83.2619C77.1958 84.0648 79.0676 83.4029 79.0676 84.5911C79.0676 85.1282 78.5902 85.47 77.912 85.47C77.2284 85.47 76.7509 85.1445 76.6424 84.4663H77.1199C77.185 84.8678 77.4834 85.0902 77.9282 85.0902C78.3623 85.0902 78.5902 84.8949 78.5902 84.6236C78.5902 83.8369 76.7401 84.488 76.7401 83.2944C76.7401 82.8549 77.0819 82.4535 77.7872 82.4535C78.4111 82.4535 78.8723 82.7464 78.9645 83.4626H78.4871C78.4165 83.0123 78.167 82.8441 77.7601 82.8441C77.402 82.8441 77.1958 83.0231 77.1958 83.2619ZM82.1256 84.4663C81.9683 85.1391 81.4854 85.47 80.829 85.47C79.9934 85.47 79.4889 84.9058 79.4889 83.9672C79.4889 82.9906 79.9934 82.4535 80.8018 82.4535C81.6157 82.4535 82.1039 83.0123 82.1039 83.9292V84.0485H79.9772C80.0043 84.6942 80.3081 85.0577 80.829 85.0577C81.2359 85.0577 81.5234 84.8624 81.6265 84.4663H82.1256ZM80.8018 82.8658C80.3407 82.8658 80.064 83.1533 79.9934 83.6905H81.6048C81.5397 83.1588 81.2521 82.8658 80.8018 82.8658ZM83.8198 85.47C83.0548 85.47 82.5937 84.9058 82.5937 83.9672C82.5937 82.9906 83.0657 82.4535 83.8198 82.4535C84.1616 82.4535 84.4383 82.5945 84.6282 82.8604V81.4986H85.1057V85.4049H84.6282V85.0414C84.4383 85.3127 84.1616 85.47 83.8198 85.47ZM83.8524 85.0577C84.3569 85.0577 84.6282 84.6725 84.6282 83.9672C84.6282 83.2673 84.3461 82.8658 83.8524 82.8658C83.3532 82.8658 83.082 83.2564 83.082 83.9672C83.082 84.6616 83.3641 85.0577 83.8524 85.0577Z" fill="#6B6B6B"/>
<path d="M48.1764 94.7057V94.2174H49.0344V91.0784H48.1764V90.5901H48.6856C49.0483 90.5901 49.139 90.5064 49.139 90.3041V90.2204H49.6761V94.2174H50.5341V94.7057H48.1764ZM54.9439 93.4571C54.9439 94.2174 54.3719 94.7894 53.2628 94.7894C52.2653 94.7894 51.6445 94.2732 51.5189 93.4152H52.1467C52.2304 93.9314 52.5792 94.2593 53.2558 94.2593C53.9534 94.2593 54.3161 93.9523 54.3161 93.4292C54.3161 93.0455 54.1138 92.6339 53.0605 92.6339H52.8791V92.1456H53.0256C54.0231 92.1456 54.1836 91.7341 54.1836 91.4202C54.1836 90.9458 53.8697 90.6668 53.2698 90.6668C52.642 90.6668 52.3211 90.9807 52.2374 91.4969H51.6166C51.7351 90.6529 52.3141 90.1367 53.2768 90.1367C54.2882 90.1367 54.8114 90.6808 54.8114 91.4132C54.8114 91.8317 54.63 92.1596 54.1627 92.3549C54.7416 92.5712 54.9439 92.9757 54.9439 93.4571ZM58.3701 94.7057H57.7423V93.6524H55.559V93.0943L57.8051 90.2204H58.3701V93.1641H59.0258V93.6524H58.3701V94.7057ZM56.1379 93.1641H57.7423V91.0505L56.1379 93.1641ZM61.2802 94.7894C60.171 94.7894 59.5293 93.9244 59.5293 92.4665C59.5293 90.9668 60.185 90.1367 61.2802 90.1367C62.3823 90.1367 63.024 91.0017 63.024 92.4665C63.024 93.9663 62.3683 94.7894 61.2802 94.7894ZM61.2802 94.2593C61.9986 94.2593 62.3962 93.6175 62.3962 92.4665C62.3962 91.3225 61.9917 90.6668 61.2802 90.6668C60.5547 90.6668 60.1571 91.3016 60.1571 92.4665C60.1571 93.5966 60.5617 94.2593 61.2802 94.2593ZM63.7089 94.7057V93.9523H64.4622V94.7057H63.7089ZM68.5886 93.4571C68.5886 94.2174 68.0166 94.7894 66.9074 94.7894C65.9099 94.7894 65.2891 94.2732 65.1635 93.4152H65.7913C65.875 93.9314 66.2238 94.2593 66.9005 94.2593C67.598 94.2593 67.9607 93.9523 67.9607 93.4292C67.9607 93.0455 67.7585 92.6339 66.7051 92.6339H66.5238V92.1456H66.6703C67.6678 92.1456 67.8282 91.7341 67.8282 91.4202C67.8282 90.9458 67.5143 90.6668 66.9144 90.6668C66.2866 90.6668 65.9657 90.9807 65.882 91.4969H65.2612C65.3798 90.6529 65.9588 90.1367 66.9214 90.1367C67.9328 90.1367 68.456 90.6808 68.456 91.4132C68.456 91.8317 68.2747 92.1596 67.8073 92.3549C68.3863 92.5712 68.5886 92.9757 68.5886 93.4571ZM69.8593 94.7057V94.2174H70.7173V91.0784H69.8593V90.5901H70.3685C70.7313 90.5901 70.8219 90.5064 70.8219 90.3041V90.2204H71.3591V94.2174H72.2171V94.7057H69.8593ZM78.5883 92.899C78.5883 94.0709 77.8629 94.7894 76.6979 94.7894C75.526 94.7894 74.8006 94.0709 74.8006 92.899V89.9623H75.4493V92.899C75.4493 93.757 75.9167 94.2732 76.6979 94.2732C77.4792 94.2732 77.9466 93.75 77.9466 92.899V89.9623H78.5883V92.899ZM80.1063 91.1202C80.1063 92.4595 83.0152 91.4202 83.0152 93.3664C83.0152 94.2802 82.2757 94.7894 81.2643 94.7894C80.2459 94.7894 79.5483 94.322 79.339 93.3664H80.0087C80.1621 93.9314 80.5877 94.2383 81.2713 94.2383C81.9828 94.2383 82.3595 93.9244 82.3595 93.4501C82.3595 91.9992 79.4506 93.0804 79.4506 91.1621C79.4506 90.4785 80.0226 89.8786 81.069 89.8786C81.9828 89.8786 82.7152 90.318 82.8896 91.3295H82.213C82.0665 90.7017 81.6619 90.4297 81.055 90.4297C80.4551 90.4297 80.1063 90.7017 80.1063 91.1202ZM83.8211 94.7057V89.9623H85.3697C86.8415 89.9623 87.7623 90.8552 87.7623 92.341C87.7623 93.8268 86.8415 94.7057 85.3697 94.7057H83.8211ZM85.3697 94.1825C86.4579 94.1825 87.1066 93.4989 87.1066 92.341C87.1066 91.1691 86.4579 90.4855 85.3697 90.4855H84.4629V94.1825H85.3697ZM89.6009 94.7057V90.5064H87.9756V89.9623H91.868V90.5064H90.2427V94.7057H89.6009Z" fill="#E5E5E5"/>
<rect x="145.648" y="0.193766" width="145.066" height="42.0894" rx="6.00676" fill="#181818"/>
<rect x="145.648" y="0.193766" width="145.066" height="42.0894" rx="6.00676" stroke="#262626" stroke-width="0.387533"/>
<path d="M155.208 16.3008V12.3479H156.632C157.464 12.3479 157.993 12.7781 157.993 13.464C157.993 13.9175 157.772 14.2372 157.4 14.4057C157.656 14.522 157.789 14.7371 157.888 15.1266L158.185 16.3008H157.621L157.371 15.2312C157.254 14.7371 157.057 14.6441 156.58 14.6441H155.743V16.3008H155.208ZM156.621 12.7839H155.743V14.2081H156.609C157.132 14.2081 157.44 13.9291 157.44 13.4931C157.44 13.0571 157.132 12.7839 156.621 12.7839ZM161.446 15.2951C161.277 16.0159 160.76 16.3705 160.057 16.3705C159.162 16.3705 158.621 15.766 158.621 14.7603C158.621 13.714 159.162 13.1385 160.028 13.1385C160.9 13.1385 161.423 13.7373 161.423 14.7196V14.8475H159.144C159.173 15.5393 159.499 15.9287 160.057 15.9287C160.493 15.9287 160.801 15.7195 160.911 15.2951H161.446ZM160.028 13.5803C159.534 13.5803 159.237 13.8884 159.162 14.4639H160.888C160.818 13.8942 160.51 13.5803 160.028 13.5803ZM162.104 16.3008V12.1154H162.616V16.3008H162.104ZM166.095 15.2951C165.927 16.0159 165.409 16.3705 164.706 16.3705C163.811 16.3705 163.27 15.766 163.27 14.7603C163.27 13.714 163.811 13.1385 164.677 13.1385C165.549 13.1385 166.072 13.7373 166.072 14.7196V14.8475H163.793C163.822 15.5393 164.148 15.9287 164.706 15.9287C165.142 15.9287 165.45 15.7195 165.561 15.2951H166.095ZM164.677 13.5803C164.183 13.5803 163.886 13.8884 163.811 14.4639H165.537C165.467 13.8942 165.159 13.5803 164.677 13.5803ZM167.225 14.2197H166.713C166.812 13.5396 167.259 13.1385 168.015 13.1385C168.841 13.1385 169.242 13.621 169.242 14.3418V15.5567C169.242 15.9113 169.271 16.1322 169.352 16.3008H168.812C168.753 16.1787 168.736 15.9985 168.73 15.8125C168.469 16.202 168.05 16.3705 167.678 16.3705C167.039 16.3705 166.608 16.0741 166.608 15.487C166.608 15.0626 166.841 14.7545 167.294 14.6034C167.713 14.4639 168.137 14.429 168.73 14.4232V14.3534C168.73 13.8535 168.498 13.5803 167.969 13.5803C167.527 13.5803 167.289 13.8244 167.225 14.2197ZM167.132 15.4753C167.132 15.7602 167.37 15.9287 167.73 15.9287C168.3 15.9287 168.73 15.4811 168.73 14.9522V14.8068C167.416 14.8185 167.132 15.0975 167.132 15.4753ZM170.458 14.0046C170.458 14.865 172.464 14.1558 172.464 15.4288C172.464 16.0043 171.952 16.3705 171.225 16.3705C170.493 16.3705 169.981 16.0218 169.865 15.2951H170.377C170.447 15.7253 170.766 15.9636 171.243 15.9636C171.708 15.9636 171.952 15.7544 171.952 15.4637C171.952 14.6208 169.97 15.3184 169.97 14.0395C169.97 13.5687 170.336 13.1385 171.092 13.1385C171.76 13.1385 172.254 13.4524 172.353 14.2197H171.842C171.766 13.7373 171.499 13.557 171.063 13.557C170.679 13.557 170.458 13.7489 170.458 14.0046ZM175.74 15.2951C175.572 16.0159 175.054 16.3705 174.351 16.3705C173.456 16.3705 172.915 15.766 172.915 14.7603C172.915 13.714 173.456 13.1385 174.322 13.1385C175.194 13.1385 175.717 13.7373 175.717 14.7196V14.8475H173.438C173.467 15.5393 173.793 15.9287 174.351 15.9287C174.787 15.9287 175.095 15.7195 175.205 15.2951H175.74ZM174.322 13.5803C173.828 13.5803 173.531 13.8884 173.456 14.4639H175.182C175.112 13.8942 174.804 13.5803 174.322 13.5803ZM177.555 16.3705C176.736 16.3705 176.242 15.766 176.242 14.7603C176.242 13.714 176.747 13.1385 177.555 13.1385C177.922 13.1385 178.218 13.2897 178.421 13.5745V12.1154H178.933V16.3008H178.421V15.9113C178.218 16.202 177.922 16.3705 177.555 16.3705ZM177.59 15.9287C178.131 15.9287 178.421 15.516 178.421 14.7603C178.421 14.0105 178.119 13.5803 177.59 13.5803C177.055 13.5803 176.765 13.9988 176.765 14.7603C176.765 15.5044 177.067 15.9287 177.59 15.9287ZM180.958 16.3008V12.3479H182.312C183.208 12.3479 183.772 12.8246 183.772 13.5977C183.772 14.3941 183.202 14.8592 182.318 14.8592H181.493V16.3008H180.958ZM182.307 12.7839H181.493V14.4232H182.289C182.876 14.4232 183.219 14.1093 183.219 13.6036C183.219 13.1036 182.871 12.7839 182.307 12.7839ZM184.408 16.3008V13.2141H184.92V13.6907C185.129 13.3129 185.461 13.1385 185.833 13.1385C185.955 13.1385 186.065 13.1676 186.123 13.2141V13.6733C186.036 13.6442 185.926 13.6326 185.804 13.6326C185.187 13.6326 184.92 14.0163 184.92 14.5743V16.3008H184.408ZM187.776 16.3705C186.892 16.3705 186.363 15.766 186.363 14.7603C186.363 13.714 186.91 13.1385 187.776 13.1385C188.659 13.1385 189.188 13.7547 189.188 14.7603C189.188 15.8009 188.642 16.3705 187.776 16.3705ZM187.776 15.9287C188.351 15.9287 188.665 15.516 188.665 14.7603C188.665 14.0105 188.345 13.5803 187.776 13.5803C187.2 13.5803 186.886 13.9988 186.886 14.7603C186.886 15.5044 187.206 15.9287 187.776 15.9287ZM189.469 13.621V13.2141H189.899V13.0048C189.899 12.3538 190.166 12.0457 190.736 12.0457C190.864 12.0457 190.969 12.0689 191.021 12.0922V12.4584H190.969C190.521 12.4584 190.411 12.6328 190.411 13.0048V13.2141H191.021V13.621H190.411V16.3008H189.899V13.621H189.469ZM191.428 12.8014V12.1154H191.939V12.8014H191.428ZM191.428 16.3008V13.2141H191.939V16.3008H191.428ZM192.823 15.4114V13.621H192.393V13.2141H192.823V12.5049H193.335V13.2141H194.015V13.621H193.335V15.4114C193.335 15.7834 193.445 15.9578 193.898 15.9578H194.003V16.324C193.945 16.3531 193.817 16.3705 193.672 16.3705C193.096 16.3705 192.823 16.0624 192.823 15.4114Z" fill="#7D7D7D"/>
<g clip-path="url(#clip0_292_3426)">
<path d="M281.608 14.3008C281.608 14.914 281.426 15.5134 281.085 16.0232C280.745 16.5331 280.26 16.9304 279.694 17.1651C279.127 17.3997 278.504 17.4611 277.903 17.3415C277.301 17.2219 276.749 16.9266 276.315 16.493C275.882 16.0595 275.586 15.507 275.467 14.9057C275.347 14.3043 275.409 13.6809 275.643 13.1144C275.878 12.5479 276.275 12.0637 276.785 11.723C277.295 11.3824 277.894 11.2006 278.507 11.2006C279.329 11.2015 280.118 11.5284 280.699 12.1096C281.28 12.6908 281.607 13.4789 281.608 14.3008ZM279.024 14.3008C279.024 14.1638 278.97 14.0324 278.873 13.9355C278.776 13.8386 278.645 13.7841 278.507 13.7841H277.991V14.3008H278.507V16.1093H279.024V14.3008ZM278.507 12.4923C278.431 12.4923 278.356 12.5151 278.292 12.5576C278.228 12.6002 278.179 12.6608 278.149 12.7316C278.12 12.8024 278.112 12.8803 278.127 12.9555C278.142 13.0306 278.179 13.0997 278.233 13.1539C278.288 13.2081 278.357 13.245 278.432 13.26C278.507 13.2749 278.585 13.2672 278.656 13.2379C278.727 13.2086 278.787 13.1589 278.83 13.0952C278.872 13.0314 278.895 12.9565 278.895 12.8799C278.895 12.7771 278.854 12.6785 278.782 12.6058C278.709 12.5332 278.61 12.4923 278.507 12.4923Z" fill="#868686"/>
</g>
<path d="M155.74 27.4269V26.9386H156.856V25.8295H157.344V26.9386H158.453V27.4269H157.344V28.543H156.856V27.4269H155.74ZM159.543 29.401V29.2336C159.543 27.2176 162.026 27.3851 162.026 26.1783C162.026 25.6691 161.726 25.3621 161.168 25.3621C160.554 25.3621 160.254 25.676 160.171 26.1922H159.536C159.654 25.3482 160.219 24.832 161.175 24.832C162.152 24.832 162.654 25.411 162.654 26.1713C162.654 27.6222 160.436 27.6083 160.178 28.9127H162.703V29.401H159.543ZM163.548 29.401V28.6476H164.301V29.401H163.548ZM165.149 29.401V29.2336C165.149 27.2176 167.632 27.3851 167.632 26.1783C167.632 25.6691 167.332 25.3621 166.774 25.3621C166.161 25.3621 165.861 25.676 165.777 26.1922H165.142C165.261 25.3482 165.826 24.832 166.781 24.832C167.758 24.832 168.26 25.411 168.26 26.1713C168.26 27.6222 166.042 27.6083 165.784 28.9127H168.309V29.401H165.149ZM169.168 29.401V29.2336C169.168 27.2176 171.652 27.3851 171.652 26.1783C171.652 25.6691 171.352 25.3621 170.794 25.3621C170.18 25.3621 169.88 25.676 169.796 26.1922H169.161C169.28 25.3482 169.845 24.832 170.801 24.832C171.777 24.832 172.279 25.411 172.279 26.1713C172.279 27.6222 170.061 27.6083 169.803 28.9127H172.328V29.401H169.168Z" fill="#32D583"/>
<rect x="175.855" y="22.401" width="25.8753" height="10.7751" rx="2.3252" fill="#28513E"/>
<path d="M179.485 30.383C178.953 29.5529 178.677 28.7445 178.677 27.9361C178.677 27.1277 178.953 26.3248 179.485 25.4947H179.957C179.447 26.3465 179.187 27.1386 179.187 27.9361C179.187 28.7391 179.447 29.5312 179.957 30.383H179.485ZM180.577 27.8656V27.4858H181.445V26.6232H181.825V27.4858H182.688V27.8656H181.825V28.7337H181.445V27.8656H180.577ZM184.761 29.4661C183.899 29.4661 183.399 28.7933 183.399 27.6594C183.399 26.493 183.909 25.8473 184.761 25.8473C185.618 25.8473 186.118 26.5201 186.118 27.6594C186.118 28.8259 185.608 29.4661 184.761 29.4661ZM184.761 29.0538C185.32 29.0538 185.629 28.5546 185.629 27.6594C185.629 26.7697 185.315 26.2597 184.761 26.2597C184.197 26.2597 183.888 26.7534 183.888 27.6594C183.888 28.5384 184.202 29.0538 184.761 29.0538ZM186.65 29.401V28.8151H187.236V29.401H186.65ZM189.122 29.4661C188.259 29.4661 187.76 28.7933 187.76 27.6594C187.76 26.493 188.27 25.8473 189.122 25.8473C189.979 25.8473 190.478 26.5201 190.478 27.6594C190.478 28.8259 189.968 29.4661 189.122 29.4661ZM189.122 29.0538C189.681 29.0538 189.99 28.5546 189.99 27.6594C189.99 26.7697 189.675 26.2597 189.122 26.2597C188.557 26.2597 188.248 26.7534 188.248 27.6594C188.248 28.5384 188.563 29.0538 189.122 29.0538ZM193.11 29.401H192.622V28.5818H190.924V28.1477L192.671 25.9124H193.11V28.202H193.62V28.5818H193.11V29.401ZM191.374 28.202H192.622V26.5581L191.374 28.202ZM194.744 27.8113C194.218 27.8113 193.909 27.4533 193.909 26.8348C193.909 26.2054 194.224 25.8473 194.744 25.8473C195.271 25.8473 195.58 26.2163 195.58 26.8348C195.58 27.4587 195.271 27.8113 194.744 27.8113ZM194.435 29.401L196.953 25.9124H197.43L194.913 29.401H194.435ZM194.744 27.4641C195.01 27.4641 195.157 27.2417 195.157 26.8348C195.157 26.4279 195.01 26.2 194.744 26.2C194.479 26.2 194.337 26.4224 194.337 26.8348C194.337 27.2362 194.484 27.4641 194.744 27.4641ZM197.115 29.4444C196.589 29.4444 196.28 29.0809 196.28 28.4678C196.28 27.8385 196.594 27.4804 197.115 27.4804C197.642 27.4804 197.951 27.8439 197.951 28.4678C197.951 29.0917 197.642 29.4444 197.115 29.4444ZM197.115 29.0972C197.381 29.0972 197.528 28.8747 197.528 28.4678C197.528 28.0609 197.381 27.833 197.115 27.833C196.849 27.833 196.708 28.0555 196.708 28.4678C196.708 28.8693 196.855 29.0972 197.115 29.0972ZM198.641 30.383H198.169C198.679 29.5312 198.939 28.7391 198.939 27.9361C198.939 27.1386 198.679 26.3465 198.169 25.4947H198.641C199.173 26.3248 199.449 27.1277 199.449 27.9361C199.449 28.7445 199.173 29.5529 198.641 30.383Z" fill="white"/>
<rect x="145.648" y="48.8711" width="145.066" height="42.0894" rx="6.00676" fill="#181818"/>
<rect x="145.648" y="48.8711" width="145.066" height="42.0894" rx="6.00676" stroke="#262626" stroke-width="0.387533"/>
<path d="M158.318 63.4726C158.318 64.4492 157.714 65.0479 156.743 65.0479C155.766 65.0479 155.162 64.4492 155.162 63.4726V61.0253H155.702V63.4726C155.702 64.1876 156.092 64.6177 156.743 64.6177C157.394 64.6177 157.783 64.1818 157.783 63.4726V61.0253H158.318V63.4726ZM159.13 64.9781V61.8915H159.641V62.31C159.851 61.9845 160.188 61.8159 160.595 61.8159C161.252 61.8159 161.641 62.1995 161.641 62.9145V64.9781H161.13V63.0192C161.13 62.5541 160.92 62.2519 160.455 62.2519C159.944 62.2519 159.641 62.7111 159.641 63.1529V64.9781H159.13ZM162.456 64.9781V61.8915H162.968V62.3681C163.177 61.9903 163.509 61.8159 163.881 61.8159C164.003 61.8159 164.113 61.8449 164.171 61.8915V62.3507C164.084 62.3216 163.974 62.31 163.852 62.31C163.235 62.31 162.968 62.6936 162.968 63.2517V64.9781H162.456ZM167.236 63.9725C167.068 64.6933 166.55 65.0479 165.847 65.0479C164.952 65.0479 164.411 64.4434 164.411 63.4377C164.411 62.3914 164.952 61.8159 165.818 61.8159C166.69 61.8159 167.213 62.4146 167.213 63.397V63.5249H164.934C164.963 64.2166 165.289 64.6061 165.847 64.6061C166.283 64.6061 166.591 64.3969 166.702 63.9725H167.236ZM165.818 62.2577C165.324 62.2577 165.027 62.5658 164.952 63.1412H166.678C166.609 62.5716 166.3 62.2577 165.818 62.2577ZM167.895 64.9781V60.7928H168.406V64.9781H167.895ZM171.886 63.9725C171.717 64.6933 171.2 65.0479 170.496 65.0479C169.601 65.0479 169.06 64.4434 169.06 63.4377C169.06 62.3914 169.601 61.8159 170.467 61.8159C171.339 61.8159 171.862 62.4146 171.862 63.397V63.5249H169.584C169.613 64.2166 169.938 64.6061 170.496 64.6061C170.932 64.6061 171.24 64.3969 171.351 63.9725H171.886ZM170.467 62.2577C169.973 62.2577 169.677 62.5658 169.601 63.1412H171.328C171.258 62.5716 170.95 62.2577 170.467 62.2577ZM173.015 62.8971H172.503C172.602 62.217 173.05 61.8159 173.805 61.8159C174.631 61.8159 175.032 62.2984 175.032 63.0192V64.2341C175.032 64.5887 175.061 64.8096 175.142 64.9781H174.602C174.544 64.8561 174.526 64.6759 174.52 64.4899C174.259 64.8793 173.84 65.0479 173.468 65.0479C172.829 65.0479 172.399 64.7514 172.399 64.1643C172.399 63.74 172.631 63.4319 173.085 63.2808C173.503 63.1412 173.927 63.1064 174.52 63.1006V63.0308C174.52 62.5309 174.288 62.2577 173.759 62.2577C173.317 62.2577 173.079 62.5018 173.015 62.8971ZM172.922 64.1527C172.922 64.4375 173.16 64.6061 173.521 64.6061C174.09 64.6061 174.52 64.1585 174.52 63.6295V63.4842C173.207 63.4958 172.922 63.7749 172.922 64.1527ZM176.248 62.682C176.248 63.5423 178.254 62.8332 178.254 64.1062C178.254 64.6817 177.742 65.0479 177.016 65.0479C176.283 65.0479 175.772 64.6991 175.655 63.9725H176.167C176.237 64.4027 176.557 64.641 177.033 64.641C177.498 64.641 177.742 64.4317 177.742 64.1411C177.742 63.2982 175.76 63.9958 175.76 62.7169C175.76 62.246 176.126 61.8159 176.882 61.8159C177.551 61.8159 178.045 62.1298 178.143 62.8971H177.632C177.556 62.4146 177.289 62.2344 176.853 62.2344C176.469 62.2344 176.248 62.4262 176.248 62.682ZM181.53 63.9725C181.362 64.6933 180.844 65.0479 180.141 65.0479C179.246 65.0479 178.705 64.4434 178.705 63.4377C178.705 62.3914 179.246 61.8159 180.112 61.8159C180.984 61.8159 181.507 62.4146 181.507 63.397V63.5249H179.228C179.258 64.2166 179.583 64.6061 180.141 64.6061C180.577 64.6061 180.885 64.3969 180.996 63.9725H181.53ZM180.112 62.2577C179.618 62.2577 179.321 62.5658 179.246 63.1412H180.972C180.903 62.5716 180.594 62.2577 180.112 62.2577ZM183.346 65.0479C182.526 65.0479 182.032 64.4434 182.032 63.4377C182.032 62.3914 182.538 61.8159 183.346 61.8159C183.712 61.8159 184.008 61.967 184.212 62.2519V60.7928H184.723V64.9781H184.212V64.5887C184.008 64.8793 183.712 65.0479 183.346 65.0479ZM183.38 64.6061C183.921 64.6061 184.212 64.1934 184.212 63.4377C184.212 62.6878 183.909 62.2577 183.38 62.2577C182.846 62.2577 182.555 62.6762 182.555 63.4377C182.555 64.1818 182.857 64.6061 183.38 64.6061ZM186.748 64.9781V61.0253H188.103C188.998 61.0253 189.562 61.502 189.562 62.2751C189.562 63.0715 188.992 63.5365 188.109 63.5365H187.283V64.9781H186.748ZM188.097 61.4613H187.283V63.1006H188.079C188.667 63.1006 189.01 62.7867 189.01 62.2809C189.01 61.781 188.661 61.4613 188.097 61.4613ZM190.199 64.9781V61.8915H190.71V62.3681C190.919 61.9903 191.251 61.8159 191.623 61.8159C191.745 61.8159 191.855 61.8449 191.914 61.8915V62.3507C191.826 62.3216 191.716 62.31 191.594 62.31C190.978 62.31 190.71 62.6936 190.71 63.2517V64.9781H190.199ZM193.566 65.0479C192.682 65.0479 192.153 64.4434 192.153 63.4377C192.153 62.3914 192.7 61.8159 193.566 61.8159C194.45 61.8159 194.979 62.4321 194.979 63.4377C194.979 64.4782 194.432 65.0479 193.566 65.0479ZM193.566 64.6061C194.142 64.6061 194.455 64.1934 194.455 63.4377C194.455 62.6878 194.136 62.2577 193.566 62.2577C192.991 62.2577 192.677 62.6762 192.677 63.4377C192.677 64.1818 192.996 64.6061 193.566 64.6061ZM195.259 62.2984V61.8915H195.689V61.6822C195.689 61.0311 195.957 60.723 196.526 60.723C196.654 60.723 196.759 60.7463 196.811 60.7695V61.1358H196.759C196.311 61.1358 196.201 61.3102 196.201 61.6822V61.8915H196.811V62.2984H196.201V64.9781H195.689V62.2984H195.259ZM197.218 61.4787V60.7928H197.73V61.4787H197.218ZM197.218 64.9781V61.8915H197.73V64.9781H197.218ZM198.613 64.0888V62.2984H198.183V61.8915H198.613V61.1823H199.125V61.8915H199.805V62.2984H199.125V64.0888C199.125 64.4608 199.235 64.6352 199.689 64.6352H199.793V65.0014C199.735 65.0305 199.607 65.0479 199.462 65.0479C198.886 65.0479 198.613 64.7398 198.613 64.0888Z" fill="#7D7D7D"/>
<g clip-path="url(#clip1_292_3426)">
<path d="M281.608 62.9782C281.608 63.5914 281.426 64.1908 281.085 64.7006C280.745 65.2104 280.26 65.6078 279.694 65.8425C279.127 66.0771 278.504 66.1385 277.903 66.0189C277.301 65.8993 276.749 65.604 276.315 65.1704C275.882 64.7368 275.586 64.1844 275.467 63.583C275.347 62.9816 275.409 62.3583 275.643 61.7918C275.878 61.2253 276.275 60.7411 276.785 60.4004C277.295 60.0598 277.894 59.8779 278.507 59.8779C279.329 59.8788 280.118 60.2057 280.699 60.787C281.28 61.3682 281.607 62.1562 281.608 62.9782ZM279.024 62.9782C279.024 62.8412 278.97 62.7097 278.873 62.6128C278.776 62.5159 278.645 62.4615 278.507 62.4615H277.991V62.9782H278.507V64.7867H279.024V62.9782ZM278.507 61.1697C278.431 61.1697 278.356 61.1924 278.292 61.235C278.228 61.2776 278.179 61.3381 278.149 61.4089C278.12 61.4797 278.112 61.5577 278.127 61.6328C278.142 61.708 278.179 61.7771 278.233 61.8313C278.288 61.8855 278.357 61.9224 278.432 61.9373C278.507 61.9523 278.585 61.9446 278.656 61.9153C278.727 61.8859 278.787 61.8363 278.83 61.7725C278.872 61.7088 278.895 61.6339 278.895 61.5572C278.895 61.4545 278.854 61.3559 278.782 61.2832C278.709 61.2105 278.61 61.1697 278.507 61.1697Z" fill="#868686"/>
</g>
<path d="M155.789 76.4391V75.9159H157.645V76.4391H155.789ZM158.602 76.4391V75.9159H160.458V76.4391H158.602ZM161.416 76.4391V75.9159H163.271V76.4391H161.416Z" fill="#E5E5E5"/>
<rect x="166.855" y="71.0784" width="18.8753" height="10.7751" rx="2.3252" fill="#3E3E3E"/>
<path d="M170.659 79.0604C170.127 78.2303 169.851 77.4219 169.851 76.6135C169.851 75.8051 170.127 75.0021 170.659 74.172H171.131C170.621 75.0238 170.361 75.816 170.361 76.6135C170.361 77.4165 170.621 78.2086 171.131 79.0604H170.659ZM171.616 76.8034V76.3965H173.059V76.8034H171.616ZM173.804 76.8034V76.3965H175.247V76.8034H173.804ZM175.992 76.8034V76.3965H177.435V76.8034H175.992ZM178.744 76.4887C178.218 76.4887 177.909 76.1306 177.909 75.5121C177.909 74.8828 178.224 74.5247 178.744 74.5247C179.271 74.5247 179.58 74.8936 179.58 75.5121C179.58 76.1361 179.271 76.4887 178.744 76.4887ZM178.435 78.0784L180.953 74.5898H181.43L178.913 78.0784H178.435ZM178.744 76.1415C179.01 76.1415 179.157 75.919 179.157 75.5121C179.157 75.1052 179.01 74.8773 178.744 74.8773C178.479 74.8773 178.337 75.0998 178.337 75.5121C178.337 75.9136 178.484 76.1415 178.744 76.1415ZM181.115 78.1218C180.589 78.1218 180.28 77.7583 180.28 77.1452C180.28 76.5158 180.594 76.1578 181.115 76.1578C181.642 76.1578 181.951 76.5213 181.951 77.1452C181.951 77.7691 181.642 78.1218 181.115 78.1218ZM181.115 77.7745C181.381 77.7745 181.528 77.5521 181.528 77.1452C181.528 76.7383 181.381 76.5104 181.115 76.5104C180.849 76.5104 180.708 76.7329 180.708 77.1452C180.708 77.5467 180.855 77.7745 181.115 77.7745ZM182.641 79.0604H182.169C182.679 78.2086 182.939 77.4165 182.939 76.6135C182.939 75.816 182.679 75.0238 182.169 74.172H182.641C183.173 75.0021 183.449 75.8051 183.449 76.6135C183.449 77.4219 183.173 78.2303 182.641 79.0604Z" fill="white"/>
<rect x="145.648" y="97.5486" width="145.066" height="41.3143" rx="6.00676" fill="#181818"/>
<rect x="145.648" y="97.5486" width="145.066" height="41.3143" rx="6.00676" stroke="#262626" stroke-width="0.387533"/>
<path d="M155.208 113.656V109.703H157.888V110.139H155.743V111.389H157.673V111.825H155.743V113.22H157.888V113.656H155.208ZM159.708 113.725C158.888 113.725 158.394 113.121 158.394 112.115C158.394 111.069 158.9 110.493 159.708 110.493C160.074 110.493 160.37 110.645 160.574 110.929V110.569H161.085V114.934H160.574V113.266C160.37 113.557 160.074 113.725 159.708 113.725ZM159.742 113.284C160.283 113.284 160.574 112.871 160.574 112.115C160.574 111.365 160.271 110.935 159.742 110.935C159.208 110.935 158.917 111.354 158.917 112.115C158.917 112.859 159.219 113.284 159.742 113.284ZM163.871 112.394V110.569H164.382V113.656H163.871V113.237C163.661 113.563 163.336 113.725 162.935 113.725C162.289 113.725 161.906 113.348 161.906 112.633V110.569H162.417V112.528C162.417 112.993 162.621 113.289 163.074 113.289C163.574 113.289 163.871 112.836 163.871 112.394ZM165.198 110.156V109.47H165.71V110.156H165.198ZM165.198 113.656V110.569H165.71V113.656H165.198ZM166.591 112.766V110.976H166.161V110.569H166.591V109.86H167.102V110.569H167.782V110.976H167.102V112.766C167.102 113.138 167.213 113.313 167.666 113.313H167.771V113.679C167.713 113.708 167.585 113.725 167.439 113.725C166.864 113.725 166.591 113.417 166.591 112.766ZM168.409 115.004C168.293 115.004 168.171 114.975 168.107 114.958V114.562H168.264C168.641 114.562 168.746 114.487 169.048 113.795L169.153 113.557L167.892 110.569H168.444L169.281 112.609L169.42 113.022L169.56 112.609L170.374 110.569H170.897L169.455 114.063C169.147 114.807 168.944 115.004 168.409 115.004Z" fill="#7D7D7D"/>
<g clip-path="url(#clip2_292_3426)">
<path d="M281.608 111.656C281.608 112.269 281.426 112.868 281.085 113.378C280.745 113.888 280.26 114.285 279.694 114.52C279.127 114.755 278.504 114.816 277.903 114.696C277.301 114.577 276.749 114.281 276.315 113.848C275.882 113.414 275.586 112.862 275.467 112.261C275.347 111.659 275.409 111.036 275.643 110.469C275.878 109.903 276.275 109.419 276.785 109.078C277.295 108.737 277.894 108.555 278.507 108.555C279.329 108.556 280.118 108.883 280.699 109.464C281.28 110.046 281.607 110.834 281.608 111.656ZM279.024 111.656C279.024 111.519 278.97 111.387 278.873 111.29C278.776 111.193 278.645 111.139 278.507 111.139H277.991V111.656H278.507V113.464H279.024V111.656ZM278.507 109.847C278.431 109.847 278.356 109.87 278.292 109.913C278.228 109.955 278.179 110.016 278.149 110.086C278.12 110.157 278.112 110.235 278.127 110.31C278.142 110.386 278.179 110.455 278.233 110.509C278.288 110.563 278.357 110.6 278.432 110.615C278.507 110.63 278.585 110.622 278.656 110.593C278.727 110.563 278.787 110.514 278.83 110.45C278.872 110.386 278.895 110.311 278.895 110.235C278.895 110.132 278.854 110.033 278.782 109.961C278.709 109.888 278.61 109.847 278.507 109.847Z" fill="#868686"/>
</g>
<path d="M159.205 125.263C159.205 126.184 158.633 126.84 157.537 126.84C156.533 126.84 155.933 126.337 155.814 125.493H156.428C156.505 125.996 156.868 126.309 157.53 126.309C158.235 126.309 158.591 125.919 158.591 125.27C158.591 124.747 158.34 124.203 157.53 124.203C157 124.203 156.707 124.426 156.54 124.677L155.989 124.621L156.128 122.271H158.995V122.759H156.617L156.54 124.028C156.798 123.819 157.119 123.673 157.579 123.673C158.765 123.673 159.205 124.426 159.205 125.263ZM159.903 126.756V126.002H160.657V126.407C160.657 127.056 160.552 127.453 160.308 127.907H159.959C160.12 127.488 160.21 127.188 160.21 126.756H159.903ZM161.393 123.694C161.393 122.745 162.063 122.187 163.018 122.187C163.025 122.187 163.025 122.187 163.032 122.187C164.113 122.194 164.783 122.912 164.783 124.496C164.783 126.016 164.099 126.84 163.004 126.84C162.188 126.84 161.588 126.379 161.379 125.528H162.007C162.153 126.051 162.53 126.309 163.025 126.309C163.785 126.309 164.197 125.696 164.197 124.572C163.953 124.998 163.513 125.242 162.997 125.242C162.042 125.242 161.393 124.677 161.393 123.694ZM163.039 122.717C162.425 122.717 162.021 123.066 162.021 123.694C162.021 124.335 162.425 124.712 163.039 124.712C163.646 124.712 164.051 124.342 164.051 123.694C164.051 123.08 163.646 122.717 163.039 122.717ZM165.412 123.694C165.412 122.745 166.082 122.187 167.037 122.187C167.044 122.187 167.044 122.187 167.051 122.187C168.132 122.194 168.802 122.912 168.802 124.496C168.802 126.016 168.119 126.84 167.023 126.84C166.207 126.84 165.607 126.379 165.398 125.528H166.026C166.172 126.051 166.549 126.309 167.044 126.309C167.805 126.309 168.216 125.696 168.216 124.572C167.972 124.998 167.533 125.242 167.016 125.242C166.061 125.242 165.412 124.677 165.412 123.694ZM167.058 122.717C166.444 122.717 166.04 123.066 166.04 123.694C166.04 124.335 166.444 124.712 167.058 124.712C167.665 124.712 168.07 124.342 168.07 123.694C168.07 123.08 167.665 122.717 167.058 122.717ZM172.849 125.263C172.849 126.184 172.277 126.84 171.182 126.84C170.178 126.84 169.578 126.337 169.459 125.493H170.073C170.15 125.996 170.512 126.309 171.175 126.309C171.88 126.309 172.235 125.919 172.235 125.27C172.235 124.747 171.984 124.203 171.175 124.203C170.645 124.203 170.352 124.426 170.184 124.677L169.633 124.621L169.773 122.271H172.64V122.759H170.261L170.184 124.028C170.443 123.819 170.763 123.673 171.224 123.673C172.41 123.673 172.849 124.426 172.849 125.263ZM173.548 126.756V126.002H174.301V126.756H173.548ZM175.149 126.756V126.588C175.149 124.572 177.632 124.74 177.632 123.533C177.632 123.024 177.332 122.717 176.774 122.717C176.161 122.717 175.861 123.031 175.777 123.547H175.142C175.261 122.703 175.826 122.187 176.781 122.187C177.758 122.187 178.26 122.766 178.26 123.526C178.26 124.977 176.042 124.963 175.784 126.268H178.309V126.756H175.149ZM182.447 125.507C182.447 126.268 181.875 126.84 180.766 126.84C179.768 126.84 179.147 126.323 179.022 125.465H179.65C179.733 125.982 180.082 126.309 180.759 126.309C181.456 126.309 181.819 126.002 181.819 125.479C181.819 125.096 181.617 124.684 180.563 124.684H180.382V124.196H180.528C181.526 124.196 181.686 123.784 181.686 123.47C181.686 122.996 181.373 122.717 180.773 122.717C180.145 122.717 179.824 123.031 179.74 123.547H179.119C179.238 122.703 179.817 122.187 180.78 122.187C181.791 122.187 182.314 122.731 182.314 123.463C182.314 123.882 182.133 124.21 181.665 124.405C182.244 124.621 182.447 125.026 182.447 125.507Z" fill="#E5E5E5"/>
<defs>
<linearGradient id="paint0_linear_292_3426" x1="106.918" y1="90.0332" x2="69.6259" y2="50.3116" gradientUnits="userSpaceOnUse">
<stop stop-color="white"/>
<stop offset="1" stop-color="#737373"/>
</linearGradient>
<clipPath id="clip0_292_3426">
<rect width="6.20052" height="6.20052" fill="white" transform="translate(275.407 11.2006)"/>
</clipPath>
<clipPath id="clip1_292_3426">
<rect width="6.20052" height="6.20052" fill="white" transform="translate(275.407 59.8779)"/>
</clipPath>
<clipPath id="clip2_292_3426">
<rect width="6.20052" height="6.20052" fill="white" transform="translate(275.407 108.555)"/>
</clipPath>
</defs>
</svg>
