<svg width="28" height="26" viewBox="0 0 28 26" fill="none" xmlns="http://www.w3.org/2000/svg">
<path d="M25.9047 1.35505C24.5712 0.24322 22.8247 -0.214113 21.1225 0.0938867L16.6635 0.90472C15.5995 1.09955 14.6732 1.64439 14 2.40855C13.3257 1.64439 12.4005 1.09839 11.3342 0.90472L6.87633 0.0938867C5.17183 -0.214113 3.42767 0.24322 2.09533 1.35505C0.763 2.46689 0 4.09905 0 5.83389V18.4246C0 21.2444 2.01483 23.6582 4.79033 24.1634L12.1217 25.4969C12.7447 25.6101 13.3723 25.6672 14 25.6672C14.6277 25.6672 15.2542 25.6112 15.8772 25.4969L23.2097 24.1634C25.9852 23.6582 27.9988 21.2444 27.9988 18.4246V5.83272C27.9988 4.09789 27.2358 2.46572 25.9035 1.35505H25.9047ZM12.8333 23.2487C12.7353 23.2347 12.6373 23.2184 12.5393 23.2009L5.208 21.8674C3.542 21.5641 2.33333 20.1162 2.33333 18.4234V5.83272C2.33333 4.79205 2.79183 3.81322 3.591 3.14589C4.22683 2.61505 5.01783 2.33272 5.82983 2.33272C6.03867 2.33272 6.24983 2.35139 6.45983 2.38989L10.9177 3.20072C12.0283 3.40255 12.8345 4.36855 12.8345 5.49672V23.2487H12.8333ZM25.6667 18.4246C25.6667 20.1174 24.458 21.5652 22.7932 21.8686L15.4607 23.2021C15.3627 23.2196 15.2647 23.2359 15.1667 23.2499V5.49555C15.1667 4.36739 15.9717 3.40255 17.0823 3.19955L21.5402 2.38872C22.561 2.20089 23.6098 2.47739 24.4102 3.14472C25.2093 3.81205 25.6667 4.79089 25.6667 5.83155V18.4222V18.4246ZM23.5748 10.7409L22.0663 12.2494L23.5748 13.7579C24.031 14.2141 24.031 14.9514 23.5748 15.4076C23.3473 15.6351 23.0487 15.7494 22.75 15.7494C22.4513 15.7494 22.1527 15.6351 21.9252 15.4076L20.4167 13.8991L18.9082 15.4076C18.6807 15.6351 18.382 15.7494 18.0833 15.7494C17.7847 15.7494 17.486 15.6351 17.2585 15.4076C16.8023 14.9514 16.8023 14.2141 17.2585 13.7579L18.767 12.2494L17.2585 10.7409C16.8023 10.2847 16.8023 9.54739 17.2585 9.09122C17.7147 8.63505 18.452 8.63505 18.9082 9.09122L20.4167 10.5997L21.9252 9.09122C22.3813 8.63505 23.1187 8.63505 23.5748 9.09122C24.031 9.54739 24.031 10.2847 23.5748 10.7409ZM11.2362 10.2672C11.6772 10.7187 11.6795 11.4386 11.2408 11.8936L8.66133 14.4521C7.73267 15.4122 6.19033 15.4052 5.27217 14.4346L3.95267 13.0637C3.5245 12.6122 3.528 11.9029 3.95967 11.4549C4.4205 10.9754 5.18933 10.9789 5.6455 11.4619L6.97317 12.8421L9.56317 10.2731C10.0193 9.80055 10.7765 9.79822 11.235 10.2684L11.2362 10.2672Z" fill="#FF0000"/>
</svg>
