
<svg width="16" height="17" viewBox="0 0 16 17" fill="none" xmlns="http://www.w3.org/2000/svg">
<g clip-path="url(#clip0_0_8663)">
<path d="M3.66667 14.6079C3.22464 14.6079 2.80072 14.4323 2.48816 14.1198C2.17559 13.8072 2 13.3833 2 12.9412V1.60791C2 1.34269 1.89464 1.08834 1.70711 0.900803C1.51957 0.713267 1.26522 0.60791 1 0.60791C0.734784 0.60791 0.48043 0.713267 0.292893 0.900803C0.105357 1.08834 0 1.34269 0 1.60791L0 12.9412C0 13.9137 0.386308 14.8463 1.07394 15.534C1.76158 16.2216 2.69421 16.6079 3.66667 16.6079H15C15.2652 16.6079 15.5196 16.5026 15.7071 16.315C15.8946 16.1275 16 15.8731 16 15.6079C16 15.3427 15.8946 15.0883 15.7071 14.9008C15.5196 14.7133 15.2652 14.6079 15 14.6079H3.66667Z" fill="#E5E5E5"/>
<path d="M13 12.6079C13.2652 12.6079 13.5196 12.5026 13.7071 12.315C13.8946 12.1275 14 11.8731 14 11.6079V7.60791C14 7.34269 13.8946 7.08834 13.7071 6.9008C13.5196 6.71327 13.2652 6.60791 13 6.60791C12.7348 6.60791 12.4804 6.71327 12.2929 6.9008C12.1054 7.08834 12 7.34269 12 7.60791V11.6079C12 11.8731 12.1054 12.1275 12.2929 12.315C12.4804 12.5026 12.7348 12.6079 13 12.6079Z" fill="#E5E5E5"/>
<path d="M5 12.6079C5.26522 12.6079 5.51957 12.5026 5.70711 12.315C5.89464 12.1275 6 11.8731 6 11.6079V7.60791C6 7.34269 5.89464 7.08834 5.70711 6.9008C5.51957 6.71327 5.26522 6.60791 5 6.60791C4.73478 6.60791 4.48043 6.71327 4.29289 6.9008C4.10536 7.08834 4 7.34269 4 7.60791V11.6079C4 11.8731 4.10536 12.1275 4.29289 12.315C4.48043 12.5026 4.73478 12.6079 5 12.6079Z" fill="#E5E5E5"/>
<path d="M9 12.6079C9.26522 12.6079 9.51957 12.5026 9.70711 12.315C9.89464 12.1275 10 11.8731 10 11.6079V4.2746C10 4.00938 9.89464 3.75503 9.70711 3.56749C9.51957 3.37995 9.26522 3.2746 9 3.2746C8.73478 3.2746 8.48043 3.37995 8.29289 3.56749C8.10536 3.75503 8 4.00938 8 4.2746V11.6079C8 11.8731 8.10536 12.1275 8.29289 12.315C8.48043 12.5026 8.73478 12.6079 9 12.6079Z" fill="#E5E5E5"/>
</g>
<defs>
<clipPath id="clip0_0_8663">
<rect width="16" height="16" fill="white" transform="translate(0 0.60791)"/>
</clipPath>
</defs>
</svg>
