<svg width="343" height="548" viewBox="0 0 343 548" fill="none" xmlns="http://www.w3.org/2000/svg">
<rect y="24" width="343" height="500" rx="16" fill="white"/>
<path d="M26.624 57.808C26.624 60.672 33.216 58.416 33.216 62.864C33.216 65.008 31.472 66.208 29.088 66.208C26.672 66.208 25.008 65.104 24.56 62.832H26.432C26.736 64.064 27.648 64.736 29.104 64.736C30.592 64.736 31.376 64.08 31.376 63.104C31.376 60.032 24.784 62.32 24.784 57.952C24.784 56.32 26.16 54.912 28.64 54.912C30.784 54.912 32.544 55.936 32.928 58.32H31.024C30.72 56.976 29.872 56.384 28.592 56.384C27.344 56.384 26.624 56.944 26.624 57.808ZM40.1973 62.464V57.472H41.8933V66H40.1973V64.848C39.6373 65.76 38.7413 66.208 37.6533 66.208C35.9093 66.208 34.8213 65.184 34.8213 63.168V57.472H36.5333V62.816C36.5333 64.048 37.0453 64.784 38.1813 64.784C39.4293 64.784 40.1973 63.648 40.1973 62.464ZM43.9775 66V57.472H45.6895V58.56C46.2335 57.68 47.0815 57.248 48.0895 57.248C49.2255 57.248 50.0735 57.744 50.4895 58.72C51.0495 57.744 51.9775 57.248 53.0975 57.248C54.7775 57.248 55.8655 58.288 55.8655 60.304V66H54.1535V60.656C54.1535 59.424 53.6895 58.672 52.6335 58.672C51.4815 58.672 50.7775 59.808 50.7775 60.992V66H49.0655V60.656C49.0655 59.424 48.5855 58.672 47.5455 58.672C46.3935 58.672 45.6895 59.808 45.6895 60.992V66H43.9775ZM57.9463 66V57.472H59.6583V58.56C60.2023 57.68 61.0503 57.248 62.0583 57.248C63.1943 57.248 64.0423 57.744 64.4583 58.72C65.0183 57.744 65.9462 57.248 67.0663 57.248C68.7463 57.248 69.8343 58.288 69.8343 60.304V66H68.1223V60.656C68.1223 59.424 67.6583 58.672 66.6023 58.672C65.4503 58.672 64.7463 59.808 64.7463 60.992V66H63.0343V60.656C63.0343 59.424 62.5543 58.672 61.5143 58.672C60.3623 58.672 59.6583 59.808 59.6583 60.992V66H57.9463ZM73.531 60.256H71.819C72.091 58.368 73.387 57.248 75.515 57.248C77.835 57.248 78.987 58.608 78.987 60.592V63.92C78.987 64.944 79.083 65.536 79.275 66H77.483C77.355 65.68 77.307 65.232 77.291 64.752C76.571 65.76 75.467 66.208 74.443 66.208C72.715 66.208 71.531 65.392 71.531 63.76C71.531 62.592 72.171 61.728 73.451 61.296C74.587 60.912 75.739 60.816 77.275 60.8V60.608C77.275 59.36 76.699 58.688 75.387 58.688C74.283 58.688 73.691 59.296 73.531 60.256ZM73.259 63.696C73.259 64.416 73.851 64.864 74.763 64.864C76.187 64.864 77.275 63.728 77.275 62.352V61.968C73.995 62 73.259 62.72 73.259 63.696ZM81.1338 66V57.472H82.8458V58.736C83.4058 57.712 84.2858 57.248 85.2778 57.248C85.6138 57.248 85.9338 57.328 86.0938 57.472V58.976C85.8378 58.896 85.5338 58.864 85.1818 58.864C83.5498 58.864 82.8458 59.856 82.8458 61.344V66H81.1338ZM87.8668 69.728C87.4988 69.728 87.1148 69.632 86.9228 69.568V68.256H87.3868C88.3628 68.256 88.7308 68.064 89.4668 66.288L89.7228 65.696L86.2988 57.472H88.1388L90.2508 62.784L90.6188 63.952L90.9868 62.784L93.0348 57.472H94.7788L90.9068 66.992C90.0428 69.12 89.3868 69.728 87.8668 69.728Z" fill="#0E0E0E"/>
<path d="M31.802 115.424V112.256C28.442 111.68 26.138 109.6 25.594 105.984H29.05C29.37 108.288 31.258 109.536 33.882 109.536C36.442 109.536 37.786 108.256 37.786 106.464C37.786 101.184 26.074 104.768 26.074 96.832C26.074 94.112 28.058 91.584 31.802 91.104V88H35.034V91.168C38.01 91.744 40.314 93.664 40.698 97.28H37.21C36.858 94.912 35.322 93.888 33.018 93.888C30.778 93.888 29.594 95.072 29.594 96.832C29.594 101.664 41.306 98.368 41.306 106.144C41.306 109.76 38.714 111.968 35.034 112.352V115.424H31.802ZM51.6475 91.008C51.6795 91.008 51.6795 91.008 51.7115 91.008C56.7355 91.04 59.9035 94.4 59.9035 101.6C59.9035 108.608 56.7035 112.416 51.5515 112.416C47.7435 112.416 44.8955 110.272 43.9675 106.304H47.4555C48.0635 108.448 49.6315 109.504 51.6795 109.504C54.8155 109.504 56.5115 107.072 56.6395 102.464C55.4875 104.096 53.6635 105.056 51.5195 105.056C47.0395 105.056 44.0315 102.464 44.0315 97.952C44.0315 93.632 47.1675 91.008 51.6475 91.008ZM51.7755 93.888C49.2155 93.888 47.5515 95.36 47.5515 97.952C47.5515 100.64 49.2155 102.208 51.7755 102.208C54.3035 102.208 55.9675 100.672 55.9675 97.952C55.9675 95.392 54.3035 93.888 51.7755 93.888ZM70.085 91.008C70.117 91.008 70.117 91.008 70.149 91.008C75.173 91.04 78.341 94.4 78.341 101.6C78.341 108.608 75.141 112.416 69.989 112.416C66.181 112.416 63.333 110.272 62.405 106.304H65.893C66.501 108.448 68.069 109.504 70.117 109.504C73.253 109.504 74.949 107.072 75.077 102.464C73.925 104.096 72.101 105.056 69.957 105.056C65.477 105.056 62.469 102.464 62.469 97.952C62.469 93.632 65.605 91.008 70.085 91.008ZM70.213 93.888C67.653 93.888 65.989 95.36 65.989 97.952C65.989 100.64 67.653 102.208 70.213 102.208C72.741 102.208 74.405 100.672 74.405 97.952C74.405 95.392 72.741 93.888 70.213 93.888ZM81.3545 112V108.064H85.3225V112H81.3545ZM96.341 112.416C91.189 112.416 88.213 108.448 88.213 101.728C88.213 94.848 91.253 91.008 96.341 91.008C101.461 91.008 104.437 94.976 104.437 101.728C104.437 108.608 101.397 112.416 96.341 112.416ZM96.341 109.504C99.317 109.504 100.949 106.752 100.949 101.728C100.949 96.736 99.285 93.92 96.341 93.92C93.365 93.92 91.701 96.672 91.701 101.728C91.701 106.656 93.365 109.504 96.341 109.504ZM114.779 112.416C109.627 112.416 106.651 108.448 106.651 101.728C106.651 94.848 109.691 91.008 114.779 91.008C119.899 91.008 122.875 94.976 122.875 101.728C122.875 108.608 119.835 112.416 114.779 112.416ZM114.779 109.504C117.755 109.504 119.387 106.752 119.387 101.728C119.387 96.736 117.723 93.92 114.779 93.92C111.803 93.92 110.139 96.672 110.139 101.728C110.139 106.656 111.803 109.504 114.779 109.504Z" fill="#0C0E12"/>
<line x1="24" y1="135.5" x2="319" y2="135.5" stroke="#D7D7D7"/>
<path d="M33.058 170.308H31.42C31.098 169.216 30.188 168.614 29.054 168.614C27.318 168.614 26.282 170 26.282 172.254C26.282 174.508 27.304 175.866 29.054 175.866C30.146 175.866 31.028 175.306 31.392 174.228H33.044C32.526 176.118 30.93 177.182 29.054 177.182C26.338 177.182 24.686 175.32 24.686 172.254C24.686 169.202 26.352 167.298 29.096 167.298C30.986 167.298 32.61 168.334 33.058 170.308ZM34.5077 177V166.92H36.0057V170.532C36.5097 169.734 37.2937 169.342 38.2597 169.342C39.8137 169.342 40.7797 170.252 40.7797 172.016V177H39.2957V172.324C39.2957 171.246 38.8197 170.588 37.7977 170.588C36.6777 170.588 36.0057 171.582 36.0057 172.618V177H34.5077ZM44.0154 171.974H42.5174C42.7554 170.322 43.8894 169.342 45.7514 169.342C47.7814 169.342 48.7894 170.532 48.7894 172.268V175.18C48.7894 176.076 48.8734 176.594 49.0414 177H47.4734C47.3614 176.72 47.3194 176.328 47.3054 175.908C46.6754 176.79 45.7094 177.182 44.8134 177.182C43.3014 177.182 42.2654 176.468 42.2654 175.04C42.2654 174.018 42.8254 173.262 43.9454 172.884C44.9394 172.548 45.9474 172.464 47.2914 172.45V172.282C47.2914 171.19 46.7874 170.602 45.6394 170.602C44.6734 170.602 44.1554 171.134 44.0154 171.974ZM43.7774 174.984C43.7774 175.614 44.2954 176.006 45.0934 176.006C46.3394 176.006 47.2914 175.012 47.2914 173.808V173.472C44.4214 173.5 43.7774 174.13 43.7774 174.984ZM50.6678 177V166.92H52.1658V177H50.6678ZM53.9764 177V166.92H55.4744V177H53.9764ZM63.907 174.564C63.501 176.3 62.213 177.182 60.463 177.182C58.265 177.182 56.921 175.712 56.921 173.276C56.921 170.742 58.265 169.342 60.393 169.342C62.549 169.342 63.851 170.798 63.851 173.192V173.556H58.447C58.531 175.082 59.245 175.936 60.463 175.936C61.415 175.936 62.087 175.488 62.339 174.564H63.907ZM60.393 170.588C59.315 170.588 58.671 171.274 58.489 172.534H62.297C62.115 171.274 61.457 170.588 60.393 170.588ZM65.3514 177V169.538H66.8494V170.532C67.3534 169.734 68.1374 169.342 69.1034 169.342C70.6574 169.342 71.6234 170.252 71.6234 172.016V177H70.1394V172.324C70.1394 171.246 69.6634 170.588 68.6414 170.588C67.5214 170.588 66.8494 171.582 66.8494 172.618V177H65.3514ZM76.1332 177.042C74.2292 177.042 73.0812 175.586 73.0812 173.206C73.0812 170.714 74.2572 169.342 76.1332 169.342C77.0852 169.342 77.7992 169.678 78.2752 170.322V169.538H79.7732V177.238C79.7732 179.282 78.4152 180.276 76.6232 180.276C74.8312 180.276 73.5432 179.436 73.2772 177.7H74.7752C74.9152 178.596 75.6292 179.072 76.6092 179.072C77.6032 179.072 78.2752 178.554 78.2752 177.266V176.006C77.7712 176.692 77.0432 177.042 76.1332 177.042ZM76.4412 175.782C77.6312 175.782 78.2752 174.872 78.2752 173.192C78.2752 171.554 77.6032 170.602 76.4412 170.602C75.2512 170.602 74.6072 171.512 74.6072 173.206C74.6072 174.844 75.2652 175.782 76.4412 175.782ZM88.2156 174.564C87.8096 176.3 86.5216 177.182 84.7716 177.182C82.5736 177.182 81.2296 175.712 81.2296 173.276C81.2296 170.742 82.5736 169.342 84.7016 169.342C86.8576 169.342 88.1596 170.798 88.1596 173.192V173.556H82.7556C82.8396 175.082 83.5536 175.936 84.7716 175.936C85.7236 175.936 86.3956 175.488 86.6476 174.564H88.2156ZM84.7016 170.588C83.6236 170.588 82.9796 171.274 82.7976 172.534H86.6056C86.4236 171.274 85.7656 170.588 84.7016 170.588ZM94.8086 177V168.796H91.6306V167.48H99.5406V168.796H96.3766V177H94.8086ZM100.678 180.262C100.356 180.262 100.02 180.178 99.8523 180.122V178.974H100.258C101.112 178.974 101.434 178.806 102.078 177.252L102.302 176.734L99.3063 169.538H100.916L102.764 174.186L103.086 175.208L103.408 174.186L105.2 169.538H106.726L103.338 177.868C102.582 179.73 102.008 180.262 100.678 180.262ZM109.205 180.08H107.707V169.538H109.205V170.434C109.681 169.734 110.381 169.342 111.235 169.342C113.209 169.342 114.399 170.812 114.399 173.248C114.399 175.782 113.181 177.182 111.235 177.182C110.381 177.182 109.681 176.832 109.205 176.146V180.08ZM111.053 170.602C109.849 170.602 109.205 171.54 109.205 173.248C109.205 174.956 109.877 175.922 111.053 175.922C112.229 175.922 112.873 174.97 112.873 173.248C112.873 171.554 112.201 170.602 111.053 170.602ZM122.477 174.564C122.071 176.3 120.783 177.182 119.033 177.182C116.835 177.182 115.491 175.712 115.491 173.276C115.491 170.742 116.835 169.342 118.963 169.342C121.119 169.342 122.421 170.798 122.421 173.192V173.556H117.017C117.101 175.082 117.815 175.936 119.033 175.936C119.985 175.936 120.657 175.488 120.909 174.564H122.477ZM118.963 170.588C117.885 170.588 117.241 171.274 117.059 172.534H120.867C120.685 171.274 120.027 170.588 118.963 170.588Z" fill="#717680"/>
<path d="M254.813 178.208C251.565 178.208 249.581 176.064 249.581 172.576C249.581 169.088 251.565 166.912 254.813 166.912C258.029 166.912 260.029 169.088 260.029 172.576C260.029 176.064 258.029 178.208 254.813 178.208ZM254.813 176.704C256.941 176.704 258.205 175.136 258.205 172.576C258.205 170 256.941 168.416 254.813 168.416C252.685 168.416 251.405 170 251.405 172.576C251.405 175.136 252.685 176.704 254.813 176.704ZM261.853 178V169.472H263.565V170.608C264.141 169.696 265.036 169.248 266.141 169.248C267.917 169.248 269.021 170.288 269.021 172.304V178H267.325V172.656C267.325 171.424 266.781 170.672 265.613 170.672C264.333 170.672 263.565 171.808 263.565 172.992V178H261.853ZM278.671 175.216C278.207 177.2 276.735 178.208 274.735 178.208C272.223 178.208 270.687 176.528 270.687 173.744C270.687 170.848 272.223 169.248 274.655 169.248C277.119 169.248 278.607 170.912 278.607 173.648V174.064H272.431C272.527 175.808 273.343 176.784 274.735 176.784C275.823 176.784 276.591 176.272 276.879 175.216H278.671ZM274.655 170.672C273.423 170.672 272.687 171.456 272.479 172.896H276.831C276.623 171.456 275.871 170.672 274.655 170.672ZM280.289 174.368V172.912H284.593V174.368H280.289ZM288.249 169.808C288.249 172.672 294.841 170.416 294.841 174.864C294.841 177.008 293.097 178.208 290.713 178.208C288.297 178.208 286.633 177.104 286.185 174.832H288.057C288.361 176.064 289.273 176.736 290.729 176.736C292.217 176.736 293.001 176.08 293.001 175.104C293.001 172.032 286.409 174.32 286.409 169.952C286.409 168.32 287.785 166.912 290.265 166.912C292.409 166.912 294.169 167.936 294.553 170.32H292.649C292.345 168.976 291.497 168.384 290.217 168.384C288.969 168.384 288.249 168.944 288.249 169.808ZM296.67 175.456V170.8H295.518V169.472H296.67V167.504H298.382V169.472H300.222V170.8H298.382V175.36C298.382 176.336 298.654 176.8 299.854 176.8H300.19V178.048C299.998 178.144 299.598 178.208 299.118 178.208C297.454 178.208 296.67 177.296 296.67 175.456ZM309.077 175.216C308.613 177.2 307.141 178.208 305.141 178.208C302.629 178.208 301.093 176.528 301.093 173.744C301.093 170.848 302.629 169.248 305.061 169.248C307.525 169.248 309.013 170.912 309.013 173.648V174.064H302.837C302.933 175.808 303.749 176.784 305.141 176.784C306.229 176.784 306.997 176.272 307.285 175.216H309.077ZM305.061 170.672C303.829 170.672 303.093 171.456 302.885 172.896H307.237C307.029 171.456 306.277 170.672 305.061 170.672ZM312.44 181.52H310.728V169.472H312.44V170.496C312.984 169.696 313.784 169.248 314.76 169.248C317.016 169.248 318.376 170.928 318.376 173.712C318.376 176.608 316.984 178.208 314.76 178.208C313.784 178.208 312.984 177.808 312.44 177.024V181.52ZM314.552 170.688C313.176 170.688 312.44 171.76 312.44 173.712C312.44 175.664 313.208 176.768 314.552 176.768C315.896 176.768 316.632 175.68 316.632 173.712C316.632 171.776 315.864 170.688 314.552 170.688Z" fill="#0C0E12"/>
<path d="M33.058 202.308H31.42C31.098 201.216 30.188 200.614 29.054 200.614C27.318 200.614 26.282 202 26.282 204.254C26.282 206.508 27.304 207.866 29.054 207.866C30.146 207.866 31.028 207.306 31.392 206.228H33.044C32.526 208.118 30.93 209.182 29.054 209.182C26.338 209.182 24.686 207.32 24.686 204.254C24.686 201.202 26.352 199.298 29.096 199.298C30.986 199.298 32.61 200.334 33.058 202.308ZM34.5077 209V198.92H36.0057V202.532C36.5097 201.734 37.2937 201.342 38.2597 201.342C39.8137 201.342 40.7797 202.252 40.7797 204.016V209H39.2957V204.324C39.2957 203.246 38.8197 202.588 37.7977 202.588C36.6777 202.588 36.0057 203.582 36.0057 204.618V209H34.5077ZM44.0154 203.974H42.5174C42.7554 202.322 43.8894 201.342 45.7514 201.342C47.7814 201.342 48.7894 202.532 48.7894 204.268V207.18C48.7894 208.076 48.8734 208.594 49.0414 209H47.4734C47.3614 208.72 47.3194 208.328 47.3054 207.908C46.6754 208.79 45.7094 209.182 44.8134 209.182C43.3014 209.182 42.2654 208.468 42.2654 207.04C42.2654 206.018 42.8254 205.262 43.9454 204.884C44.9394 204.548 45.9474 204.464 47.2914 204.45V204.282C47.2914 203.19 46.7874 202.602 45.6394 202.602C44.6734 202.602 44.1554 203.134 44.0154 203.974ZM43.7774 206.984C43.7774 207.614 44.2954 208.006 45.0934 208.006C46.3394 208.006 47.2914 207.012 47.2914 205.808V205.472C44.4214 205.5 43.7774 206.13 43.7774 206.984ZM50.6678 209V198.92H52.1658V209H50.6678ZM53.9764 209V198.92H55.4744V209H53.9764ZM63.907 206.564C63.501 208.3 62.213 209.182 60.463 209.182C58.265 209.182 56.921 207.712 56.921 205.276C56.921 202.742 58.265 201.342 60.393 201.342C62.549 201.342 63.851 202.798 63.851 205.192V205.556H58.447C58.531 207.082 59.245 207.936 60.463 207.936C61.415 207.936 62.087 207.488 62.339 206.564H63.907ZM60.393 202.588C59.315 202.588 58.671 203.274 58.489 204.534H62.297C62.115 203.274 61.457 202.588 60.393 202.588ZM65.3514 209V201.538H66.8494V202.532C67.3534 201.734 68.1374 201.342 69.1034 201.342C70.6574 201.342 71.6234 202.252 71.6234 204.016V209H70.1394V204.324C70.1394 203.246 69.6634 202.588 68.6414 202.588C67.5214 202.588 66.8494 203.582 66.8494 204.618V209H65.3514ZM76.1332 209.042C74.2292 209.042 73.0812 207.586 73.0812 205.206C73.0812 202.714 74.2572 201.342 76.1332 201.342C77.0852 201.342 77.7992 201.678 78.2752 202.322V201.538H79.7732V209.238C79.7732 211.282 78.4152 212.276 76.6232 212.276C74.8312 212.276 73.5432 211.436 73.2772 209.7H74.7752C74.9152 210.596 75.6292 211.072 76.6092 211.072C77.6032 211.072 78.2752 210.554 78.2752 209.266V208.006C77.7712 208.692 77.0432 209.042 76.1332 209.042ZM76.4412 207.782C77.6312 207.782 78.2752 206.872 78.2752 205.192C78.2752 203.554 77.6032 202.602 76.4412 202.602C75.2512 202.602 74.6072 203.512 74.6072 205.206C74.6072 206.844 75.2652 207.782 76.4412 207.782ZM88.2156 206.564C87.8096 208.3 86.5216 209.182 84.7716 209.182C82.5736 209.182 81.2296 207.712 81.2296 205.276C81.2296 202.742 82.5736 201.342 84.7016 201.342C86.8576 201.342 88.1596 202.798 88.1596 205.192V205.556H82.7556C82.8396 207.082 83.5536 207.936 84.7716 207.936C85.7236 207.936 86.3956 207.488 86.6476 206.564H88.2156ZM84.7016 202.588C83.6236 202.588 82.9796 203.274 82.7976 204.534H86.6056C86.4236 203.274 85.7656 202.588 84.7016 202.588ZM92.52 209V199.48H94.158L98.148 205.696L98.75 206.816L98.708 199.48H100.276V209H98.638L94.662 202.812L94.046 201.65L94.088 209H92.52ZM103.625 203.974H102.127C102.365 202.322 103.499 201.342 105.361 201.342C107.391 201.342 108.399 202.532 108.399 204.268V207.18C108.399 208.076 108.483 208.594 108.651 209H107.083C106.971 208.72 106.929 208.328 106.915 207.908C106.285 208.79 105.319 209.182 104.423 209.182C102.911 209.182 101.875 208.468 101.875 207.04C101.875 206.018 102.435 205.262 103.555 204.884C104.549 204.548 105.557 204.464 106.901 204.45V204.282C106.901 203.19 106.397 202.602 105.249 202.602C104.283 202.602 103.765 203.134 103.625 203.974ZM103.387 206.984C103.387 207.614 103.905 208.006 104.703 208.006C105.949 208.006 106.901 207.012 106.901 205.808V205.472C104.031 205.5 103.387 206.13 103.387 206.984ZM110.277 209V201.538H111.775V202.49C112.251 201.72 112.993 201.342 113.875 201.342C114.869 201.342 115.611 201.776 115.975 202.63C116.465 201.776 117.277 201.342 118.257 201.342C119.727 201.342 120.679 202.252 120.679 204.016V209H119.181V204.324C119.181 203.246 118.775 202.588 117.851 202.588C116.843 202.588 116.227 203.582 116.227 204.618V209H114.729V204.324C114.729 203.246 114.309 202.588 113.399 202.588C112.391 202.588 111.775 203.582 111.775 204.618V209H110.277ZM129.122 206.564C128.716 208.3 127.428 209.182 125.678 209.182C123.48 209.182 122.136 207.712 122.136 205.276C122.136 202.742 123.48 201.342 125.608 201.342C127.764 201.342 129.066 202.798 129.066 205.192V205.556H123.662C123.746 207.082 124.46 207.936 125.678 207.936C126.63 207.936 127.302 207.488 127.554 206.564H129.122ZM125.608 202.588C124.53 202.588 123.886 203.274 123.704 204.534H127.512C127.33 203.274 126.672 202.588 125.608 202.588Z" fill="#717680"/>
<path d="M264.543 210V199.12H266.335V210H264.543ZM268.54 210V201.472H270.252V202.608C270.828 201.696 271.724 201.248 272.828 201.248C274.604 201.248 275.708 202.288 275.708 204.304V210H274.012V204.656C274.012 203.424 273.468 202.672 272.3 202.672C271.02 202.672 270.252 203.808 270.252 204.992V210H268.54ZM277.79 200.416V198.48H279.502V200.416H277.79ZM277.79 210V201.472H279.502V210H277.79ZM281.795 207.456V202.8H280.643V201.472H281.795V199.504H283.507V201.472H285.347V202.8H283.507V207.36C283.507 208.336 283.779 208.8 284.979 208.8H285.315V210.048C285.123 210.144 284.723 210.208 284.243 210.208C282.579 210.208 281.795 209.296 281.795 207.456ZM286.634 200.416V198.48H288.346V200.416H286.634ZM286.634 210V201.472H288.346V210H286.634ZM292.031 204.256H290.319C290.591 202.368 291.887 201.248 294.015 201.248C296.335 201.248 297.487 202.608 297.487 204.592V207.92C297.487 208.944 297.583 209.536 297.775 210H295.983C295.855 209.68 295.807 209.232 295.791 208.752C295.071 209.76 293.967 210.208 292.943 210.208C291.215 210.208 290.031 209.392 290.031 207.76C290.031 206.592 290.671 205.728 291.951 205.296C293.087 204.912 294.239 204.816 295.775 204.8V204.608C295.775 203.36 295.199 202.688 293.887 202.688C292.783 202.688 292.191 203.296 292.031 204.256ZM291.759 207.696C291.759 208.416 292.351 208.864 293.263 208.864C294.687 208.864 295.775 207.728 295.775 206.352V205.968C292.495 206 291.759 206.72 291.759 207.696ZM299.858 207.456V202.8H298.706V201.472H299.858V199.504H301.57V201.472H303.41V202.8H301.57V207.36C301.57 208.336 301.842 208.8 303.042 208.8H303.378V210.048C303.186 210.144 302.786 210.208 302.306 210.208C300.642 210.208 299.858 209.296 299.858 207.456ZM312.264 207.216C311.8 209.2 310.328 210.208 308.328 210.208C305.816 210.208 304.28 208.528 304.28 205.744C304.28 202.848 305.816 201.248 308.248 201.248C310.712 201.248 312.2 202.912 312.2 205.648V206.064H306.024C306.12 207.808 306.936 208.784 308.328 208.784C309.416 208.784 310.184 208.272 310.472 207.216H312.264ZM308.248 202.672C307.016 202.672 306.28 203.456 306.072 204.896H310.424C310.216 203.456 309.464 202.672 308.248 202.672ZM313.915 210V201.472H315.627V202.736C316.187 201.712 317.067 201.248 318.059 201.248C318.395 201.248 318.715 201.328 318.875 201.472V202.976C318.619 202.896 318.315 202.864 317.963 202.864C316.331 202.864 315.627 203.856 315.627 205.344V210H313.915Z" fill="#0C0E12"/>
<path d="M27.584 241V232.796H24.406V231.48H32.316V232.796H29.152V241H27.584ZM32.9901 241V233.538H34.4881V234.644C34.9781 233.748 35.7481 233.342 36.6161 233.342C36.9101 233.342 37.1901 233.412 37.3301 233.538V234.854C37.1061 234.784 36.8401 234.756 36.5321 234.756C35.1041 234.756 34.4881 235.624 34.4881 236.926V241H32.9901ZM39.6541 235.974H38.1561C38.3941 234.322 39.5281 233.342 41.3901 233.342C43.4201 233.342 44.4281 234.532 44.4281 236.268V239.18C44.4281 240.076 44.5121 240.594 44.6801 241H43.1121C43.0001 240.72 42.9581 240.328 42.9441 239.908C42.3141 240.79 41.3481 241.182 40.4521 241.182C38.9401 241.182 37.9041 240.468 37.9041 239.04C37.9041 238.018 38.4641 237.262 39.5841 236.884C40.5781 236.548 41.5861 236.464 42.9301 236.45V236.282C42.9301 235.19 42.4261 234.602 41.2781 234.602C40.3121 234.602 39.7941 235.134 39.6541 235.974ZM39.4161 238.984C39.4161 239.614 39.9341 240.006 40.7321 240.006C41.9781 240.006 42.9301 239.012 42.9301 237.808V237.472C40.0601 237.5 39.4161 238.13 39.4161 238.984ZM49.1065 241.182C47.1325 241.182 45.9425 239.712 45.9425 237.276C45.9425 234.742 47.1605 233.342 49.1065 233.342C49.9605 233.342 50.6605 233.692 51.1365 234.378V230.92H52.6345V241H51.1365V240.09C50.6605 240.79 49.9605 241.182 49.1065 241.182ZM49.3025 239.922C50.4925 239.922 51.1365 238.998 51.1365 237.276C51.1365 235.568 50.4645 234.602 49.3025 234.602C48.1125 234.602 47.4685 235.554 47.4685 237.276C47.4685 238.97 48.1405 239.922 49.3025 239.922ZM54.4413 232.614V230.92H55.9393V232.614H54.4413ZM54.4413 241V233.538H55.9393V241H54.4413ZM57.7498 241V233.538H59.2478V234.532C59.7518 233.734 60.5358 233.342 61.5018 233.342C63.0558 233.342 64.0218 234.252 64.0218 236.016V241H62.5378V236.324C62.5378 235.246 62.0618 234.588 61.0398 234.588C59.9198 234.588 59.2478 235.582 59.2478 236.618V241H57.7498ZM68.5316 241.042C66.6276 241.042 65.4796 239.586 65.4796 237.206C65.4796 234.714 66.6556 233.342 68.5316 233.342C69.4836 233.342 70.1976 233.678 70.6736 234.322V233.538H72.1716V241.238C72.1716 243.282 70.8136 244.276 69.0216 244.276C67.2296 244.276 65.9416 243.436 65.6756 241.7H67.1736C67.3136 242.596 68.0276 243.072 69.0076 243.072C70.0016 243.072 70.6736 242.554 70.6736 241.266V240.006C70.1696 240.692 69.4416 241.042 68.5316 241.042ZM68.8396 239.782C70.0296 239.782 70.6736 238.872 70.6736 237.192C70.6736 235.554 70.0016 234.602 68.8396 234.602C67.6496 234.602 67.0056 235.512 67.0056 237.206C67.0056 238.844 67.6636 239.782 68.8396 239.782ZM84.8881 234.308H83.2501C82.9281 233.216 82.0181 232.614 80.8841 232.614C79.1481 232.614 78.1121 234 78.1121 236.254C78.1121 238.508 79.1341 239.866 80.8841 239.866C81.9761 239.866 82.8581 239.306 83.2221 238.228H84.8741C84.3561 240.118 82.7601 241.182 80.8841 241.182C78.1681 241.182 76.5161 239.32 76.5161 236.254C76.5161 233.202 78.1821 231.298 80.9261 231.298C82.8161 231.298 84.4401 232.334 84.8881 234.308ZM87.7517 235.974H86.2537C86.4917 234.322 87.6257 233.342 89.4877 233.342C91.5177 233.342 92.5257 234.532 92.5257 236.268V239.18C92.5257 240.076 92.6097 240.594 92.7777 241H91.2097C91.0977 240.72 91.0557 240.328 91.0417 239.908C90.4117 240.79 89.4457 241.182 88.5497 241.182C87.0377 241.182 86.0017 240.468 86.0017 239.04C86.0017 238.018 86.5617 237.262 87.6817 236.884C88.6757 236.548 89.6837 236.464 91.0277 236.45V236.282C91.0277 235.19 90.5237 234.602 89.3757 234.602C88.4097 234.602 87.8917 235.134 87.7517 235.974ZM87.5137 238.984C87.5137 239.614 88.0317 240.006 88.8297 240.006C90.0757 240.006 91.0277 239.012 91.0277 237.808V237.472C88.1577 237.5 87.5137 238.13 87.5137 238.984ZM95.9021 244.08H94.4041V233.538H95.9021V234.434C96.3781 233.734 97.0781 233.342 97.9321 233.342C99.9061 233.342 101.096 234.812 101.096 237.248C101.096 239.782 99.8781 241.182 97.9321 241.182C97.0781 241.182 96.3781 240.832 95.9021 240.146V244.08ZM97.7501 234.602C96.5461 234.602 95.9021 235.54 95.9021 237.248C95.9021 238.956 96.5741 239.922 97.7501 239.922C98.9261 239.922 99.5701 238.97 99.5701 237.248C99.5701 235.554 98.8981 234.602 97.7501 234.602ZM102.553 232.614V230.92H104.051V232.614H102.553ZM102.553 241V233.538H104.051V241H102.553ZM106.057 238.774V234.7H105.049V233.538H106.057V231.816H107.555V233.538H109.165V234.7H107.555V238.69C107.555 239.544 107.793 239.95 108.843 239.95H109.137V241.042C108.969 241.126 108.619 241.182 108.199 241.182C106.743 241.182 106.057 240.384 106.057 238.774ZM111.705 235.974H110.207C110.445 234.322 111.579 233.342 113.441 233.342C115.471 233.342 116.479 234.532 116.479 236.268V239.18C116.479 240.076 116.563 240.594 116.731 241H115.163C115.051 240.72 115.009 240.328 114.995 239.908C114.365 240.79 113.399 241.182 112.503 241.182C110.991 241.182 109.955 240.468 109.955 239.04C109.955 238.018 110.515 237.262 111.635 236.884C112.629 236.548 113.637 236.464 114.981 236.45V236.282C114.981 235.19 114.477 234.602 113.329 234.602C112.363 234.602 111.845 235.134 111.705 235.974ZM111.467 238.984C111.467 239.614 111.985 240.006 112.783 240.006C114.029 240.006 114.981 239.012 114.981 237.808V237.472C112.111 237.5 111.467 238.13 111.467 238.984ZM118.357 241V230.92H119.855V241H118.357Z" fill="#717680"/>
<path d="M219.495 243.712V242.128C217.815 241.84 216.663 240.8 216.391 238.992H218.119C218.279 240.144 219.223 240.768 220.535 240.768C221.815 240.768 222.487 240.128 222.487 239.232C222.487 236.592 216.631 238.384 216.631 234.416C216.631 233.056 217.623 231.792 219.495 231.552V230H221.111V231.584C222.599 231.872 223.751 232.832 223.943 234.64H222.199C222.023 233.456 221.255 232.944 220.103 232.944C218.983 232.944 218.391 233.536 218.391 234.416C218.391 236.832 224.247 235.184 224.247 239.072C224.247 240.88 222.951 241.984 221.111 242.176V243.712H219.495ZM227.002 242V240.672H228.954V233.92H227.002V232.608H228.042C228.986 232.608 229.242 232.384 229.242 231.888V231.712H230.746V240.672H232.682V242H227.002ZM238.764 242.208C236.188 242.208 234.7 240.224 234.7 236.864C234.7 233.424 236.22 231.504 238.764 231.504C241.324 231.504 242.812 233.488 242.812 236.864C242.812 240.304 241.292 242.208 238.764 242.208ZM238.764 240.752C240.252 240.752 241.068 239.376 241.068 236.864C241.068 234.368 240.236 232.96 238.764 232.96C237.276 232.96 236.444 234.336 236.444 236.864C236.444 239.328 237.276 240.752 238.764 240.752ZM244.271 242V240.032H246.255V241.088C246.255 242.624 245.983 243.584 245.359 244.688H244.431C244.815 243.728 245.071 242.992 245.071 242H244.271ZM251.764 242.208C249.188 242.208 247.7 240.224 247.7 236.864C247.7 233.424 249.22 231.504 251.764 231.504C254.324 231.504 255.812 233.488 255.812 236.864C255.812 240.304 254.292 242.208 251.764 242.208ZM251.764 240.752C253.252 240.752 254.068 239.376 254.068 236.864C254.068 234.368 253.236 232.96 251.764 232.96C250.276 232.96 249.444 234.336 249.444 236.864C249.444 239.328 250.276 240.752 251.764 240.752ZM260.983 242.208C258.407 242.208 256.919 240.224 256.919 236.864C256.919 233.424 258.439 231.504 260.983 231.504C263.543 231.504 265.031 233.488 265.031 236.864C265.031 240.304 263.511 242.208 260.983 242.208ZM260.983 240.752C262.471 240.752 263.287 239.376 263.287 236.864C263.287 234.368 262.455 232.96 260.983 232.96C259.495 232.96 258.663 234.336 258.663 236.864C258.663 239.328 259.495 240.752 260.983 240.752ZM270.202 242.208C267.626 242.208 266.138 240.224 266.138 236.864C266.138 233.424 267.658 231.504 270.202 231.504C272.762 231.504 274.25 233.488 274.25 236.864C274.25 240.304 272.73 242.208 270.202 242.208ZM270.202 240.752C271.69 240.752 272.506 239.376 272.506 236.864C272.506 234.368 271.674 232.96 270.202 232.96C268.714 232.96 267.882 234.336 267.882 236.864C267.882 239.328 268.714 240.752 270.202 240.752ZM287.873 237.856C287.873 240.56 286.177 242.208 283.441 242.208C280.705 242.208 279.009 240.56 279.009 237.856V231.12H280.801V237.856C280.801 239.68 281.793 240.768 283.441 240.768C285.105 240.768 286.081 239.664 286.081 237.856V231.12H287.873V237.856ZM291.53 233.808C291.53 236.672 298.122 234.416 298.122 238.864C298.122 241.008 296.378 242.208 293.994 242.208C291.578 242.208 289.914 241.104 289.466 238.832H291.338C291.642 240.064 292.554 240.736 294.01 240.736C295.498 240.736 296.282 240.08 296.282 239.104C296.282 236.032 289.69 238.32 289.69 233.952C289.69 232.32 291.066 230.912 293.546 230.912C295.69 230.912 297.45 231.936 297.834 234.32H295.93C295.626 232.976 294.778 232.384 293.498 232.384C292.25 232.384 291.53 232.944 291.53 233.808ZM299.856 242V231.12H303.584C306.992 231.12 309.104 233.168 309.104 236.576C309.104 239.984 306.992 242 303.584 242H299.856ZM303.584 240.544C305.904 240.544 307.28 239.072 307.28 236.576C307.28 234.048 305.904 232.576 303.584 232.576H301.648V240.544H303.584ZM313.127 242V232.624H309.495V231.12H318.535V232.624H314.919V242H313.127Z" fill="#FF0000"/>
<line x1="24" y1="271.5" x2="319" y2="271.5" stroke="#D7D7D7"/>
<path d="M27.952 314V310.128L24.144 303.12H26.56L28.624 307.12L29.088 308.288L29.552 307.12L31.616 303.12H33.904L30.096 310.128V314H27.952ZM37.6248 314.24C35.0807 314.24 33.5128 312.528 33.5128 309.728C33.5128 306.816 35.1288 305.184 37.6248 305.184C40.1528 305.184 41.7208 306.912 41.7208 309.728C41.7208 312.608 40.1048 314.24 37.6248 314.24ZM37.6248 312.544C38.9208 312.544 39.6088 311.552 39.6088 309.728C39.6088 307.904 38.9048 306.88 37.6248 306.88C36.3128 306.88 35.6248 307.888 35.6248 309.728C35.6248 311.536 36.3288 312.544 37.6248 312.544ZM48.5376 310.4V305.424H50.5856V314H48.5376V312.848C47.9776 313.792 47.0976 314.24 46.0416 314.24C44.3456 314.24 43.2096 313.216 43.2096 311.152V305.424H45.2576V310.736C45.2576 311.904 45.7376 312.544 46.7456 312.544C47.8496 312.544 48.5376 311.552 48.5376 310.4ZM52.4753 314V305.424H54.5233V306.672C55.0833 305.648 55.9473 305.184 56.8753 305.184C57.2273 305.184 57.5473 305.28 57.7073 305.424V307.2C57.4353 307.12 57.1313 307.088 56.7633 307.088C55.2113 307.088 54.5233 308.016 54.5233 309.44V314H52.4753ZM69.2899 308.464H67.2419C67.0499 307.344 66.3779 306.88 65.5139 306.88C64.2499 306.88 63.5779 307.888 63.5779 309.728C63.5779 311.536 64.2819 312.544 65.5779 312.544C66.4579 312.544 67.0819 312.064 67.2899 311.088H69.3539C68.9699 313.232 67.4659 314.24 65.5299 314.24C63.0019 314.24 61.4659 312.512 61.4659 309.728C61.4659 306.816 63.0499 305.184 65.5139 305.184C67.4659 305.184 69.0019 306.272 69.2899 308.464ZM70.7721 314V302.48H72.8201V306.576C73.3801 305.648 74.2761 305.184 75.3641 305.184C77.0761 305.184 78.2441 306.208 78.2441 308.288V314H76.1961V308.704C76.1961 307.536 75.7001 306.88 74.6601 306.88C73.5241 306.88 72.8201 307.872 72.8201 309.024V314H70.7721ZM82.1155 308.24H80.0515C80.3235 306.336 81.7155 305.184 83.8755 305.184C86.2595 305.184 87.4755 306.592 87.4755 308.576V311.904C87.4755 312.96 87.5715 313.552 87.7315 314H85.6035C85.4915 313.712 85.4435 313.296 85.4275 312.832C84.7235 313.824 83.6675 314.24 82.6435 314.24C80.9635 314.24 79.7635 313.408 79.7635 311.76C79.7635 310.592 80.4195 309.712 81.7315 309.28C82.8675 308.896 83.9715 308.8 85.4115 308.784V308.576C85.4115 307.472 84.8835 306.88 83.7475 306.88C82.7715 306.88 82.2435 307.424 82.1155 308.24ZM81.8275 311.648C81.8275 312.304 82.3395 312.72 83.1715 312.72C84.4355 312.72 85.4115 311.696 85.4115 310.416V310.048C82.4995 310.096 81.8275 310.784 81.8275 311.648ZM89.4284 314V302.48H91.4764V314H89.4284ZM93.3503 314V302.48H95.3983V314H93.3503ZM105.096 311.2C104.632 313.184 103.096 314.24 101.048 314.24C98.4561 314.24 96.8721 312.528 96.8721 309.728C96.8721 306.816 98.4721 305.184 100.968 305.184C103.48 305.184 105.032 306.88 105.032 309.648V310.128H98.9841C99.0801 311.696 99.8001 312.56 101.048 312.56C102.008 312.56 102.664 312.112 102.936 311.2H105.096ZM100.968 306.864C99.8801 306.864 99.2241 307.552 99.0321 308.848H102.888C102.696 307.568 102.04 306.864 100.968 306.864ZM106.569 314V305.424H108.617V306.576C109.177 305.648 110.073 305.184 111.161 305.184C112.873 305.184 114.041 306.208 114.041 308.288V314H111.993V308.704C111.993 307.536 111.497 306.88 110.457 306.88C109.321 306.88 108.617 307.872 108.617 309.024V314H106.569ZM119.048 314.032C116.872 314.032 115.528 312.352 115.528 309.616C115.528 306.768 116.904 305.184 119.048 305.184C120.072 305.184 120.872 305.568 121.4 306.288V305.424H123.448V314.272C123.448 316.592 121.848 317.776 119.72 317.776C117.608 317.776 116.072 316.8 115.768 314.768H117.832C117.96 315.68 118.696 316.16 119.688 316.16C120.712 316.16 121.4 315.664 121.4 314.304V312.864C120.84 313.632 120.04 314.032 119.048 314.032ZM119.512 312.336C120.744 312.336 121.4 311.376 121.4 309.616C121.4 307.872 120.712 306.88 119.512 306.88C118.296 306.88 117.64 307.84 117.64 309.616C117.64 311.36 118.296 312.336 119.512 312.336ZM133.159 311.2C132.695 313.184 131.159 314.24 129.111 314.24C126.519 314.24 124.935 312.528 124.935 309.728C124.935 306.816 126.535 305.184 129.031 305.184C131.543 305.184 133.095 306.88 133.095 309.648V310.128H127.047C127.143 311.696 127.863 312.56 129.111 312.56C130.071 312.56 130.727 312.112 130.999 311.2H133.159ZM129.031 306.864C127.943 306.864 127.287 307.552 127.095 308.848H130.951C130.759 307.568 130.103 306.864 129.031 306.864ZM137.71 304.464V302.48H139.758V304.464H137.71ZM137.71 314V305.424H139.758V314H137.71ZM141.632 314V305.424H143.68V306.576C144.24 305.648 145.136 305.184 146.224 305.184C147.936 305.184 149.104 306.208 149.104 308.288V314H147.056V308.704C147.056 307.536 146.56 306.88 145.52 306.88C144.384 306.88 143.68 307.872 143.68 309.024V314H141.632ZM158.415 308.464H156.367C156.175 307.344 155.503 306.88 154.639 306.88C153.375 306.88 152.703 307.888 152.703 309.728C152.703 311.536 153.407 312.544 154.703 312.544C155.583 312.544 156.207 312.064 156.415 311.088H158.479C158.095 313.232 156.591 314.24 154.655 314.24C152.127 314.24 150.591 312.512 150.591 309.728C150.591 306.816 152.175 305.184 154.639 305.184C156.591 305.184 158.127 306.272 158.415 308.464ZM159.897 314V302.48H161.945V314H159.897ZM169.147 310.4V305.424H171.195V314H169.147V312.848C168.587 313.792 167.707 314.24 166.651 314.24C164.955 314.24 163.819 313.216 163.819 311.152V305.424H165.867V310.736C165.867 311.904 166.347 312.544 167.355 312.544C168.459 312.544 169.147 311.552 169.147 310.4ZM176.301 314.24C174.061 314.24 172.685 312.528 172.685 309.728C172.685 306.816 174.093 305.184 176.301 305.184C177.245 305.184 178.029 305.584 178.557 306.352V302.48H180.605V314H178.557V313.024C178.013 313.808 177.245 314.24 176.301 314.24ZM176.669 312.544C177.901 312.544 178.557 311.552 178.557 309.728C178.557 307.904 177.869 306.88 176.669 306.88C175.453 306.88 174.797 307.888 174.797 309.728C174.797 311.536 175.469 312.544 176.669 312.544ZM190.299 311.2C189.835 313.184 188.299 314.24 186.251 314.24C183.659 314.24 182.075 312.528 182.075 309.728C182.075 306.816 183.675 305.184 186.171 305.184C188.683 305.184 190.235 306.88 190.235 309.648V310.128H184.187C184.283 311.696 185.003 312.56 186.251 312.56C187.211 312.56 187.867 312.112 188.139 311.2H190.299ZM186.171 306.864C185.083 306.864 184.427 307.552 184.235 308.848H188.091C187.899 307.568 187.243 306.864 186.171 306.864ZM193.484 307.728C193.484 309.696 198.892 308.032 198.892 311.472C198.892 313.12 197.372 314.24 195.228 314.24C193.116 314.24 191.596 313.264 191.292 311.2H193.34C193.484 312.128 194.22 312.656 195.292 312.656C196.3 312.656 196.828 312.224 196.828 311.6C196.828 309.68 191.532 311.328 191.532 307.856C191.532 306.464 192.62 305.184 194.86 305.184C196.828 305.184 198.316 306.112 198.572 308.24H196.524C196.364 307.2 195.756 306.784 194.78 306.784C193.964 306.784 193.484 307.184 193.484 307.728Z" fill="#0E0E0E"/>
<path d="M24 345.98H38V331.98H24V345.98ZM49.428 341.374C49.428 343.74 47.944 345.182 45.55 345.182C43.156 345.182 41.672 343.74 41.672 341.374V335.48H43.24V341.374C43.24 342.97 44.108 343.922 45.55 343.922C47.006 343.922 47.86 342.956 47.86 341.374V335.48H49.428V341.374ZM52.74 348.08H51.242V337.538H52.74V338.434C53.216 337.734 53.916 337.342 54.77 337.342C56.744 337.342 57.934 338.812 57.934 341.248C57.934 343.782 56.716 345.182 54.77 345.182C53.916 345.182 53.216 344.832 52.74 344.146V348.08ZM54.588 338.602C53.384 338.602 52.74 339.54 52.74 341.248C52.74 342.956 53.412 343.922 54.588 343.922C55.764 343.922 56.408 342.97 56.408 341.248C56.408 339.554 55.736 338.602 54.588 338.602ZM62.3345 342.774V338.7H61.3265V337.538H62.3345V335.816H63.8325V337.538H65.4425V338.7H63.8325V342.69C63.8325 343.544 64.0705 343.95 65.1205 343.95H65.4145V345.042C65.2465 345.126 64.8965 345.182 64.4765 345.182C63.0205 345.182 62.3345 344.384 62.3345 342.774ZM69.6902 345.182C67.5202 345.182 66.2042 343.712 66.2042 341.276C66.2042 338.742 67.5622 337.342 69.6902 337.342C71.8602 337.342 73.1762 338.84 73.1762 341.276C73.1762 343.796 71.8182 345.182 69.6902 345.182ZM69.6902 343.922C70.9642 343.922 71.6502 342.998 71.6502 341.276C71.6502 339.568 70.9502 338.602 69.6902 338.602C68.4302 338.602 67.7302 339.54 67.7302 341.276C67.7302 342.97 68.4302 343.922 69.6902 343.922ZM80.3927 335.816C80.4067 335.816 80.4067 335.816 80.4207 335.816C82.6187 335.83 84.0047 337.3 84.0047 340.45C84.0047 343.516 82.6047 345.182 80.3507 345.182C78.6847 345.182 77.4387 344.244 77.0327 342.508H78.5587C78.8247 343.446 79.5107 343.908 80.4067 343.908C81.7787 343.908 82.5207 342.844 82.5767 340.828C82.0727 341.542 81.2747 341.962 80.3367 341.962C78.3767 341.962 77.0607 340.828 77.0607 338.854C77.0607 336.964 78.4327 335.816 80.3927 335.816ZM80.4487 337.076C79.3287 337.076 78.6007 337.72 78.6007 338.854C78.6007 340.03 79.3287 340.716 80.4487 340.716C81.5547 340.716 82.2827 340.044 82.2827 338.854C82.2827 337.734 81.5547 337.076 80.4487 337.076ZM88.5711 345.182C86.3171 345.182 85.0151 343.446 85.0151 340.506C85.0151 337.496 86.3451 335.816 88.5711 335.816C90.8111 335.816 92.1131 337.552 92.1131 340.506C92.1131 343.516 90.7831 345.182 88.5711 345.182ZM88.5711 343.908C89.8731 343.908 90.5871 342.704 90.5871 340.506C90.5871 338.322 89.8591 337.09 88.5711 337.09C87.2691 337.09 86.5411 338.294 86.5411 340.506C86.5411 342.662 87.2691 343.908 88.5711 343.908ZM95.0135 340.898C93.6415 340.898 92.8295 339.974 92.8295 338.364C92.8295 336.74 93.6555 335.816 95.0135 335.816C96.3855 335.816 97.1975 336.768 97.1975 338.364C97.1975 339.974 96.3855 340.898 95.0135 340.898ZM94.3275 345L100.627 335.998H102.027L95.7415 345H94.3275ZM95.0135 339.89C95.6295 339.89 95.9655 339.358 95.9655 338.364C95.9655 337.384 95.6295 336.838 95.0135 336.838C94.3975 336.838 94.0755 337.37 94.0755 338.364C94.0755 339.344 94.4115 339.89 95.0135 339.89ZM101.327 345.126C99.9555 345.126 99.1435 344.188 99.1435 342.592C99.1435 340.968 99.9695 340.03 101.327 340.03C102.699 340.03 103.511 340.982 103.511 342.592C103.511 344.202 102.713 345.126 101.327 345.126ZM101.327 344.118C101.943 344.118 102.279 343.586 102.279 342.592C102.279 341.598 101.943 341.052 101.327 341.052C100.725 341.052 100.389 341.598 100.389 342.592C100.389 343.572 100.725 344.118 101.327 344.118ZM107.518 345V335.48H110.906C113.132 335.48 114.504 336.642 114.504 338.546C114.504 340.492 113.104 341.626 110.934 341.626H109.086V345H107.518ZM110.892 336.74H109.086V340.366H110.85C112.166 340.366 112.894 339.666 112.894 338.56C112.894 337.454 112.152 336.74 110.892 336.74ZM122.573 342.564C122.167 344.3 120.879 345.182 119.129 345.182C116.931 345.182 115.587 343.712 115.587 341.276C115.587 338.742 116.931 337.342 119.059 337.342C121.215 337.342 122.517 338.798 122.517 341.192V341.556H117.113C117.197 343.082 117.911 343.936 119.129 343.936C120.081 343.936 120.753 343.488 121.005 342.564H122.573ZM119.059 338.588C117.981 338.588 117.337 339.274 117.155 340.534H120.963C120.781 339.274 120.123 338.588 119.059 338.588ZM124.017 345V337.538H125.515V338.644C126.005 337.748 126.775 337.342 127.643 337.342C127.937 337.342 128.217 337.412 128.357 337.538V338.854C128.133 338.784 127.867 338.756 127.559 338.756C126.131 338.756 125.515 339.624 125.515 340.926V345H124.017ZM128.537 338.7V337.538H129.545V337.146C129.545 335.522 130.231 334.738 131.631 334.738C132.009 334.738 132.303 334.808 132.457 334.878V335.886H132.317C131.281 335.886 131.029 336.306 131.029 337.16V337.538H132.457V338.7H131.029V345H129.545V338.7H128.537ZM136.505 345.182C134.335 345.182 133.019 343.712 133.019 341.276C133.019 338.742 134.377 337.342 136.505 337.342C138.675 337.342 139.991 338.84 139.991 341.276C139.991 343.796 138.633 345.182 136.505 345.182ZM136.505 343.922C137.779 343.922 138.465 342.998 138.465 341.276C138.465 339.568 137.765 338.602 136.505 338.602C135.245 338.602 134.545 339.54 134.545 341.276C134.545 342.97 135.245 343.922 136.505 343.922ZM141.449 345V337.538H142.947V338.644C143.437 337.748 144.207 337.342 145.075 337.342C145.369 337.342 145.649 337.412 145.789 337.538V338.854C145.565 338.784 145.299 338.756 144.991 338.756C143.563 338.756 142.947 339.624 142.947 340.926V345H141.449ZM146.808 345V337.538H148.306V338.49C148.782 337.72 149.524 337.342 150.406 337.342C151.4 337.342 152.142 337.776 152.506 338.63C152.996 337.776 153.808 337.342 154.788 337.342C156.258 337.342 157.21 338.252 157.21 340.016V345H155.712V340.324C155.712 339.246 155.306 338.588 154.382 338.588C153.374 338.588 152.758 339.582 152.758 340.618V345H151.26V340.324C151.26 339.246 150.84 338.588 149.93 338.588C148.922 338.588 148.306 339.582 148.306 340.618V345H146.808ZM160.445 339.974H158.947C159.185 338.322 160.319 337.342 162.181 337.342C164.211 337.342 165.219 338.532 165.219 340.268V343.18C165.219 344.076 165.303 344.594 165.471 345H163.903C163.791 344.72 163.749 344.328 163.735 343.908C163.105 344.79 162.139 345.182 161.243 345.182C159.731 345.182 158.695 344.468 158.695 343.04C158.695 342.018 159.255 341.262 160.375 340.884C161.369 340.548 162.377 340.464 163.721 340.45V340.282C163.721 339.19 163.217 338.602 162.069 338.602C161.103 338.602 160.585 339.134 160.445 339.974ZM160.207 342.984C160.207 343.614 160.725 344.006 161.523 344.006C162.769 344.006 163.721 343.012 163.721 341.808V341.472C160.851 341.5 160.207 342.13 160.207 342.984ZM167.098 345V337.538H168.596V338.532C169.1 337.734 169.883 337.342 170.85 337.342C172.404 337.342 173.37 338.252 173.37 340.016V345H171.886V340.324C171.886 339.246 171.41 338.588 170.388 338.588C169.268 338.588 168.596 339.582 168.596 340.618V345H167.098ZM181.505 340.142H180.007C179.825 339.078 179.139 338.602 178.271 338.602C177.025 338.602 176.353 339.554 176.353 341.276C176.353 342.97 177.053 343.936 178.313 343.936C179.209 343.936 179.839 343.446 180.063 342.494H181.547C181.225 344.356 179.937 345.182 178.285 345.182C176.129 345.182 174.827 343.698 174.827 341.276C174.827 338.742 176.157 337.342 178.271 337.342C179.937 337.342 181.253 338.28 181.505 340.142ZM189.565 342.564C189.159 344.3 187.871 345.182 186.121 345.182C183.923 345.182 182.579 343.712 182.579 341.276C182.579 338.742 183.923 337.342 186.051 337.342C188.207 337.342 189.509 338.798 189.509 341.192V341.556H184.105C184.189 343.082 184.903 343.936 186.121 343.936C187.073 343.936 187.745 343.488 187.997 342.564H189.565ZM186.051 338.588C184.973 338.588 184.329 339.274 184.147 340.534H187.955C187.773 339.274 187.115 338.588 186.051 338.588ZM193.87 345V335.48H197.44C199.498 335.48 200.8 336.544 200.8 338.224C200.8 339.302 200.31 340.058 199.456 340.478C200.016 340.772 200.324 341.29 200.534 342.144L201.248 345H199.596L199.022 342.452C198.77 341.36 198.35 341.15 197.3 341.15H195.438V345H193.87ZM197.398 336.74H195.438V339.89H197.37C198.532 339.89 199.19 339.274 199.19 338.308C199.19 337.356 198.532 336.74 197.398 336.74ZM209.198 342.564C208.792 344.3 207.504 345.182 205.754 345.182C203.556 345.182 202.212 343.712 202.212 341.276C202.212 338.742 203.556 337.342 205.684 337.342C207.84 337.342 209.142 338.798 209.142 341.192V341.556H203.738C203.822 343.082 204.536 343.936 205.754 343.936C206.706 343.936 207.378 343.488 207.63 342.564H209.198ZM205.684 338.588C204.606 338.588 203.962 339.274 203.78 340.534H207.588C207.406 339.274 206.748 338.588 205.684 338.588ZM217.057 345L215.573 339.694L215.419 338.854L215.251 339.694L213.767 345H211.919L209.763 337.538H211.373L212.745 343.082L212.927 343.922L213.123 343.082L214.691 337.538H216.273L217.855 343.082L218.023 343.88L218.191 343.082L219.563 337.538H221.103L218.933 345H217.057ZM223.541 339.974H222.043C222.281 338.322 223.415 337.342 225.277 337.342C227.307 337.342 228.315 338.532 228.315 340.268V343.18C228.315 344.076 228.399 344.594 228.567 345H226.999C226.887 344.72 226.845 344.328 226.831 343.908C226.201 344.79 225.235 345.182 224.339 345.182C222.827 345.182 221.791 344.468 221.791 343.04C221.791 342.018 222.351 341.262 223.471 340.884C224.465 340.548 225.473 340.464 226.817 340.45V340.282C226.817 339.19 226.313 338.602 225.165 338.602C224.199 338.602 223.681 339.134 223.541 339.974ZM223.303 342.984C223.303 343.614 223.821 344.006 224.619 344.006C225.865 344.006 226.817 343.012 226.817 341.808V341.472C223.947 341.5 223.303 342.13 223.303 342.984ZM230.193 345V337.538H231.691V338.644C232.181 337.748 232.951 337.342 233.819 337.342C234.113 337.342 234.393 337.412 234.533 337.538V338.854C234.309 338.784 234.043 338.756 233.735 338.756C232.307 338.756 231.691 339.624 231.691 340.926V345H230.193ZM238.216 345.182C236.242 345.182 235.052 343.712 235.052 341.276C235.052 338.742 236.27 337.342 238.216 337.342C239.07 337.342 239.77 337.692 240.246 338.378V334.92H241.744V345H240.246V344.09C239.77 344.79 239.07 345.182 238.216 345.182ZM238.412 343.922C239.602 343.922 240.246 342.998 240.246 341.276C240.246 339.568 239.574 338.602 238.412 338.602C237.222 338.602 236.578 339.554 236.578 341.276C236.578 342.97 237.25 343.922 238.412 343.922ZM244.741 339.498C244.741 341.402 249.515 339.806 249.515 342.844C249.515 344.258 248.241 345.182 246.435 345.182C244.629 345.182 243.355 344.342 243.075 342.564H244.573C244.727 343.502 245.427 344.02 246.477 344.02C247.485 344.02 248.017 343.572 248.017 342.942C248.017 341.08 243.313 342.648 243.313 339.582C243.313 338.42 244.223 337.342 246.113 337.342C247.779 337.342 249.011 338.112 249.249 339.974H247.751C247.583 338.924 246.995 338.532 246.043 338.532C245.217 338.532 244.741 338.938 244.741 339.498Z" fill="#3E3E3E"/>
<path d="M24 373.98H38V359.98H24V373.98ZM41.434 373V371.684L46.894 364.796H41.434V363.48H48.7V364.796L43.24 371.684H48.7V373H41.434ZM56.7293 370.564C56.3233 372.3 55.0353 373.182 53.2853 373.182C51.0873 373.182 49.7433 371.712 49.7433 369.276C49.7433 366.742 51.0873 365.342 53.2153 365.342C55.3713 365.342 56.6733 366.798 56.6733 369.192V369.556H51.2693C51.3533 371.082 52.0673 371.936 53.2853 371.936C54.2373 371.936 54.9093 371.488 55.1613 370.564H56.7293ZM53.2153 366.588C52.1373 366.588 51.4933 367.274 51.3113 368.534H55.1193C54.9373 367.274 54.2793 366.588 53.2153 366.588ZM58.1737 373V365.538H59.6717V366.644C60.1617 365.748 60.9317 365.342 61.7997 365.342C62.0937 365.342 62.3737 365.412 62.5137 365.538V366.854C62.2897 366.784 62.0237 366.756 61.7157 366.756C60.2877 366.756 59.6717 367.624 59.6717 368.926V373H58.1737ZM66.5183 373.182C64.3483 373.182 63.0323 371.712 63.0323 369.276C63.0323 366.742 64.3903 365.342 66.5183 365.342C68.6883 365.342 70.0043 366.84 70.0043 369.276C70.0043 371.796 68.6463 373.182 66.5183 373.182ZM66.5183 371.922C67.7923 371.922 68.4783 370.998 68.4783 369.276C68.4783 367.568 67.7783 366.602 66.5183 366.602C65.2583 366.602 64.5583 367.54 64.5583 369.276C64.5583 370.97 65.2583 371.922 66.5183 371.922ZM74.3228 373V363.48H77.8928C79.9508 363.48 81.2528 364.544 81.2528 366.224C81.2528 367.302 80.7628 368.058 79.9088 368.478C80.4688 368.772 80.7768 369.29 80.9868 370.144L81.7008 373H80.0488L79.4748 370.452C79.2228 369.36 78.8028 369.15 77.7528 369.15H75.8908V373H74.3228ZM77.8508 364.74H75.8908V367.89H77.8228C78.9848 367.89 79.6428 367.274 79.6428 366.308C79.6428 365.356 78.9848 364.74 77.8508 364.74ZM89.6511 370.564C89.2451 372.3 87.9571 373.182 86.2071 373.182C84.0091 373.182 82.6651 371.712 82.6651 369.276C82.6651 366.742 84.0091 365.342 86.1371 365.342C88.2931 365.342 89.5951 366.798 89.5951 369.192V369.556H84.1911C84.2751 371.082 84.9891 371.936 86.2071 371.936C87.1591 371.936 87.8311 371.488 88.0831 370.564H89.6511ZM86.1371 366.588C85.0591 366.588 84.4151 367.274 84.2331 368.534H88.0411C87.8591 367.274 87.2011 366.588 86.1371 366.588ZM92.5095 367.974H91.0115C91.2495 366.322 92.3835 365.342 94.2455 365.342C96.2755 365.342 97.2835 366.532 97.2835 368.268V371.18C97.2835 372.076 97.3675 372.594 97.5355 373H95.9675C95.8555 372.72 95.8135 372.328 95.7995 371.908C95.1695 372.79 94.2035 373.182 93.3075 373.182C91.7955 373.182 90.7595 372.468 90.7595 371.04C90.7595 370.018 91.3195 369.262 92.4395 368.884C93.4335 368.548 94.4415 368.464 95.7855 368.45V368.282C95.7855 367.19 95.2815 366.602 94.1335 366.602C93.1675 366.602 92.6495 367.134 92.5095 367.974ZM92.2715 370.984C92.2715 371.614 92.7895 372.006 93.5875 372.006C94.8335 372.006 95.7855 371.012 95.7855 369.808V369.472C92.9155 369.5 92.2715 370.13 92.2715 370.984ZM99.162 373V362.92H100.66V373H99.162ZM105.331 373V363.48H111.897V364.74H106.899V367.736H111.365V368.996H106.899V373H105.331ZM113.285 364.614V362.92H114.783V364.614H113.285ZM113.285 373V365.538H114.783V373H113.285ZM116.594 373V365.538H118.092V366.532C118.596 365.734 119.38 365.342 120.346 365.342C121.9 365.342 122.866 366.252 122.866 368.016V373H121.382V368.324C121.382 367.246 120.906 366.588 119.884 366.588C118.764 366.588 118.092 367.582 118.092 368.618V373H116.594ZM126.101 367.974H124.603C124.841 366.322 125.975 365.342 127.837 365.342C129.867 365.342 130.875 366.532 130.875 368.268V371.18C130.875 372.076 130.959 372.594 131.127 373H129.559C129.447 372.72 129.405 372.328 129.391 371.908C128.761 372.79 127.795 373.182 126.899 373.182C125.387 373.182 124.351 372.468 124.351 371.04C124.351 370.018 124.911 369.262 126.031 368.884C127.025 368.548 128.033 368.464 129.377 368.45V368.282C129.377 367.19 128.873 366.602 127.725 366.602C126.759 366.602 126.241 367.134 126.101 367.974ZM125.863 370.984C125.863 371.614 126.381 372.006 127.179 372.006C128.425 372.006 129.377 371.012 129.377 369.808V369.472C126.507 369.5 125.863 370.13 125.863 370.984ZM132.754 373V365.538H134.252V366.532C134.756 365.734 135.54 365.342 136.506 365.342C138.06 365.342 139.026 366.252 139.026 368.016V373H137.542V368.324C137.542 367.246 137.066 366.588 136.044 366.588C134.924 366.588 134.252 367.582 134.252 368.618V373H132.754ZM147.162 368.142H145.664C145.482 367.078 144.796 366.602 143.928 366.602C142.682 366.602 142.01 367.554 142.01 369.276C142.01 370.97 142.71 371.936 143.97 371.936C144.866 371.936 145.496 371.446 145.72 370.494H147.204C146.882 372.356 145.594 373.182 143.942 373.182C141.785 373.182 140.484 371.698 140.484 369.276C140.484 366.742 141.814 365.342 143.928 365.342C145.594 365.342 146.91 366.28 147.162 368.142ZM148.599 364.614V362.92H150.097V364.614H148.599ZM148.599 373V365.538H150.097V373H148.599ZM153.322 367.974H151.824C152.062 366.322 153.196 365.342 155.058 365.342C157.088 365.342 158.096 366.532 158.096 368.268V371.18C158.096 372.076 158.18 372.594 158.348 373H156.78C156.668 372.72 156.626 372.328 156.612 371.908C155.982 372.79 155.016 373.182 154.12 373.182C152.608 373.182 151.572 372.468 151.572 371.04C151.572 370.018 152.132 369.262 153.252 368.884C154.246 368.548 155.254 368.464 156.598 368.45V368.282C156.598 367.19 156.094 366.602 154.946 366.602C153.98 366.602 153.462 367.134 153.322 367.974ZM153.084 370.984C153.084 371.614 153.602 372.006 154.4 372.006C155.646 372.006 156.598 371.012 156.598 369.808V369.472C153.728 369.5 153.084 370.13 153.084 370.984ZM159.974 373V362.92H161.472V373H159.974ZM166.143 373V363.48H169.713C171.771 363.48 173.073 364.544 173.073 366.224C173.073 367.302 172.583 368.058 171.729 368.478C172.289 368.772 172.597 369.29 172.807 370.144L173.521 373H171.869L171.295 370.452C171.043 369.36 170.623 369.15 169.573 369.15H167.711V373H166.143ZM169.671 364.74H167.711V367.89H169.643C170.805 367.89 171.463 367.274 171.463 366.308C171.463 365.356 170.805 364.74 169.671 364.74ZM174.849 364.614V362.92H176.347V364.614H174.849ZM174.849 373V365.538H176.347V373H174.849ZM179.348 367.498C179.348 369.402 184.122 367.806 184.122 370.844C184.122 372.258 182.848 373.182 181.042 373.182C179.236 373.182 177.962 372.342 177.682 370.564H179.18C179.334 371.502 180.034 372.02 181.084 372.02C182.092 372.02 182.624 371.572 182.624 370.942C182.624 369.08 177.92 370.648 177.92 367.582C177.92 366.42 178.83 365.342 180.72 365.342C182.386 365.342 183.618 366.112 183.856 367.974H182.358C182.19 366.924 181.602 366.532 180.65 366.532C179.824 366.532 179.348 366.938 179.348 367.498ZM185.486 373V362.92H186.984V368.702L189.952 365.538H191.744L188.524 368.856L191.94 373H190.078L186.984 369.276V373H185.486Z" fill="#3E3E3E"/>
<path d="M24 401.98H38V387.98H24V401.98ZM41.77 401V391.48H45.032C48.014 391.48 49.862 393.272 49.862 396.254C49.862 399.236 48.014 401 45.032 401H41.77ZM45.032 399.726C47.062 399.726 48.266 398.438 48.266 396.254C48.266 394.042 47.062 392.754 45.032 392.754H43.338V399.726H45.032ZM58.0965 398.564C57.6905 400.3 56.4025 401.182 54.6525 401.182C52.4545 401.182 51.1105 399.712 51.1105 397.276C51.1105 394.742 52.4545 393.342 54.5825 393.342C56.7385 393.342 58.0405 394.798 58.0405 397.192V397.556H52.6365C52.7205 399.082 53.4345 399.936 54.6525 399.936C55.6045 399.936 56.2765 399.488 56.5285 398.564H58.0965ZM54.5825 394.588C53.5045 394.588 52.8605 395.274 52.6785 396.534H56.4865C56.3045 395.274 55.6465 394.588 54.5825 394.588ZM62.3409 401.182C60.3669 401.182 59.1769 399.712 59.1769 397.276C59.1769 394.742 60.3949 393.342 62.3409 393.342C63.1949 393.342 63.8949 393.692 64.3709 394.378V390.92H65.8689V401H64.3709V400.09C63.8949 400.79 63.1949 401.182 62.3409 401.182ZM62.5369 399.922C63.7269 399.922 64.3709 398.998 64.3709 397.276C64.3709 395.568 63.6989 394.602 62.5369 394.602C61.3469 394.602 60.7029 395.554 60.7029 397.276C60.7029 398.97 61.3749 399.922 62.5369 399.922ZM67.6756 392.614V390.92H69.1736V392.614H67.6756ZM67.6756 401V393.538H69.1736V401H67.6756ZM77.2982 396.142H75.8002C75.6182 395.078 74.9322 394.602 74.0642 394.602C72.8182 394.602 72.1462 395.554 72.1462 397.276C72.1462 398.97 72.8462 399.936 74.1062 399.936C75.0022 399.936 75.6322 399.446 75.8562 398.494H77.3402C77.0182 400.356 75.7302 401.182 74.0782 401.182C71.9222 401.182 70.6202 399.698 70.6202 397.276C70.6202 394.742 71.9502 393.342 74.0642 393.342C75.7302 393.342 77.0462 394.28 77.2982 396.142ZM80.1502 395.974H78.6522C78.8902 394.322 80.0242 393.342 81.8862 393.342C83.9162 393.342 84.9242 394.532 84.9242 396.268V399.18C84.9242 400.076 85.0082 400.594 85.1762 401H83.6082C83.4962 400.72 83.4542 400.328 83.4402 399.908C82.8102 400.79 81.8442 401.182 80.9482 401.182C79.4362 401.182 78.4002 400.468 78.4002 399.04C78.4002 398.018 78.9602 397.262 80.0802 396.884C81.0742 396.548 82.0822 396.464 83.4262 396.45V396.282C83.4262 395.19 82.9222 394.602 81.7742 394.602C80.8082 394.602 80.2902 395.134 80.1502 395.974ZM79.9122 398.984C79.9122 399.614 80.4302 400.006 81.2282 400.006C82.4742 400.006 83.4262 399.012 83.4262 397.808V397.472C80.5562 397.5 79.9122 398.13 79.9122 398.984ZM86.9986 398.774V394.7H85.9906V393.538H86.9986V391.816H88.4966V393.538H90.1066V394.7H88.4966V398.69C88.4966 399.544 88.7346 399.95 89.7846 399.95H90.0786V401.042C89.9106 401.126 89.5606 401.182 89.1406 401.182C87.6846 401.182 86.9986 400.384 86.9986 398.774ZM97.8543 398.564C97.4483 400.3 96.1603 401.182 94.4103 401.182C92.2123 401.182 90.8683 399.712 90.8683 397.276C90.8683 394.742 92.2123 393.342 94.3403 393.342C96.4963 393.342 97.7983 394.798 97.7983 397.192V397.556H92.3943C92.4783 399.082 93.1923 399.936 94.4103 399.936C95.3623 399.936 96.0343 399.488 96.2863 398.564H97.8543ZM94.3403 394.588C93.2623 394.588 92.6183 395.274 92.4363 396.534H96.2443C96.0623 395.274 95.4043 394.588 94.3403 394.588ZM102.099 401.182C100.125 401.182 98.9347 399.712 98.9347 397.276C98.9347 394.742 100.153 393.342 102.099 393.342C102.953 393.342 103.653 393.692 104.129 394.378V390.92H105.627V401H104.129V400.09C103.653 400.79 102.953 401.182 102.099 401.182ZM102.295 399.922C103.485 399.922 104.129 398.998 104.129 397.276C104.129 395.568 103.457 394.602 102.295 394.602C101.105 394.602 100.461 395.554 100.461 397.276C100.461 398.97 101.133 399.922 102.295 399.922ZM110.293 401V391.48H113.681C115.907 391.48 117.279 392.642 117.279 394.546C117.279 396.492 115.879 397.626 113.709 397.626H111.861V401H110.293ZM113.667 392.74H111.861V396.366H113.625C114.941 396.366 115.669 395.666 115.669 394.56C115.669 393.454 114.927 392.74 113.667 392.74ZM125.348 398.564C124.942 400.3 123.654 401.182 121.904 401.182C119.706 401.182 118.362 399.712 118.362 397.276C118.362 394.742 119.706 393.342 121.834 393.342C123.99 393.342 125.292 394.798 125.292 397.192V397.556H119.888C119.972 399.082 120.686 399.936 121.904 399.936C122.856 399.936 123.528 399.488 123.78 398.564H125.348ZM121.834 394.588C120.756 394.588 120.112 395.274 119.93 396.534H123.738C123.556 395.274 122.898 394.588 121.834 394.588ZM126.793 401V393.538H128.291V394.644C128.781 393.748 129.551 393.342 130.419 393.342C130.713 393.342 130.993 393.412 131.133 393.538V394.854C130.909 394.784 130.643 394.756 130.335 394.756C128.907 394.756 128.291 395.624 128.291 396.926V401H126.793ZM133.342 395.498C133.342 397.402 138.116 395.806 138.116 398.844C138.116 400.258 136.842 401.182 135.036 401.182C133.23 401.182 131.956 400.342 131.676 398.564H133.174C133.328 399.502 134.028 400.02 135.078 400.02C136.086 400.02 136.618 399.572 136.618 398.942C136.618 397.08 131.914 398.648 131.914 395.582C131.914 394.42 132.824 393.342 134.714 393.342C136.38 393.342 137.612 394.112 137.85 395.974H136.352C136.184 394.924 135.596 394.532 134.644 394.532C133.818 394.532 133.342 394.938 133.342 395.498ZM142.602 401.182C140.432 401.182 139.116 399.712 139.116 397.276C139.116 394.742 140.474 393.342 142.602 393.342C144.772 393.342 146.088 394.84 146.088 397.276C146.088 399.796 144.73 401.182 142.602 401.182ZM142.602 399.922C143.876 399.922 144.562 398.998 144.562 397.276C144.562 395.568 143.862 394.602 142.602 394.602C141.342 394.602 140.642 395.54 140.642 397.276C140.642 398.97 141.342 399.922 142.602 399.922ZM147.547 401V393.538H149.045V394.532C149.549 393.734 150.333 393.342 151.299 393.342C152.853 393.342 153.819 394.252 153.819 396.016V401H152.335V396.324C152.335 395.246 151.859 394.588 150.837 394.588C149.717 394.588 149.045 395.582 149.045 396.618V401H147.547ZM157.054 395.974H155.556C155.794 394.322 156.928 393.342 158.79 393.342C160.82 393.342 161.828 394.532 161.828 396.268V399.18C161.828 400.076 161.912 400.594 162.08 401H160.512C160.4 400.72 160.358 400.328 160.344 399.908C159.714 400.79 158.748 401.182 157.852 401.182C156.34 401.182 155.304 400.468 155.304 399.04C155.304 398.018 155.864 397.262 156.984 396.884C157.978 396.548 158.986 396.464 160.33 396.45V396.282C160.33 395.19 159.826 394.602 158.678 394.602C157.712 394.602 157.194 395.134 157.054 395.974ZM156.816 398.984C156.816 399.614 157.334 400.006 158.132 400.006C159.378 400.006 160.33 399.012 160.33 397.808V397.472C157.46 397.5 156.816 398.13 156.816 398.984ZM163.707 401V390.92H165.205V401H163.707ZM171.15 393.832C171.15 396.338 176.918 394.364 176.918 398.256C176.918 400.132 175.392 401.182 173.306 401.182C171.192 401.182 169.736 400.216 169.344 398.228H170.982C171.248 399.306 172.046 399.894 173.32 399.894C174.622 399.894 175.308 399.32 175.308 398.466C175.308 395.778 169.54 397.78 169.54 393.958C169.54 392.53 170.744 391.298 172.914 391.298C174.79 391.298 176.33 392.194 176.666 394.28H175C174.734 393.104 173.992 392.586 172.872 392.586C171.78 392.586 171.15 393.076 171.15 393.832ZM183.026 397.906V393.538H184.51V401H183.026V399.992C182.536 400.79 181.752 401.182 180.8 401.182C179.274 401.182 178.322 400.286 178.322 398.522V393.538H179.82V398.214C179.82 399.292 180.268 399.936 181.262 399.936C182.354 399.936 183.026 398.942 183.026 397.906ZM187.832 404.08H186.334V393.538H187.832V394.434C188.308 393.734 189.008 393.342 189.862 393.342C191.836 393.342 193.026 394.812 193.026 397.248C193.026 399.782 191.808 401.182 189.862 401.182C189.008 401.182 188.308 400.832 187.832 400.146V404.08ZM189.68 394.602C188.476 394.602 187.832 395.54 187.832 397.248C187.832 398.956 188.504 399.922 189.68 399.922C190.856 399.922 191.5 398.97 191.5 397.248C191.5 395.554 190.828 394.602 189.68 394.602ZM195.98 404.08H194.482V393.538H195.98V394.434C196.456 393.734 197.156 393.342 198.01 393.342C199.984 393.342 201.174 394.812 201.174 397.248C201.174 399.782 199.956 401.182 198.01 401.182C197.156 401.182 196.456 400.832 195.98 400.146V404.08ZM197.828 394.602C196.624 394.602 195.98 395.54 195.98 397.248C195.98 398.956 196.652 399.922 197.828 399.922C199.004 399.922 199.648 398.97 199.648 397.248C199.648 395.554 198.976 394.602 197.828 394.602ZM205.753 401.182C203.583 401.182 202.267 399.712 202.267 397.276C202.267 394.742 203.625 393.342 205.753 393.342C207.923 393.342 209.239 394.84 209.239 397.276C209.239 399.796 207.881 401.182 205.753 401.182ZM205.753 399.922C207.027 399.922 207.713 398.998 207.713 397.276C207.713 395.568 207.013 394.602 205.753 394.602C204.493 394.602 203.793 395.54 203.793 397.276C203.793 398.97 204.493 399.922 205.753 399.922ZM210.697 401V393.538H212.195V394.644C212.685 393.748 213.455 393.342 214.323 393.342C214.617 393.342 214.897 393.412 215.037 393.538V394.854C214.813 394.784 214.547 394.756 214.239 394.756C212.811 394.756 212.195 395.624 212.195 396.926V401H210.697ZM216.252 398.774V394.7H215.244V393.538H216.252V391.816H217.75V393.538H219.36V394.7H217.75V398.69C217.75 399.544 217.988 399.95 219.038 399.95H219.332V401.042C219.164 401.126 218.814 401.182 218.394 401.182C216.938 401.182 216.252 400.384 216.252 398.774Z" fill="#3E3E3E"/>
<path d="M24 429.98H38V415.98H24V429.98ZM41.77 429V419.48H43.884L46.572 426.074L46.894 427.082L47.216 426.074L49.876 419.48H51.934V429H50.366L50.408 421.286L49.722 423.33L47.412 429H46.292L43.968 423.316L43.296 421.328L43.338 429H41.77ZM58.571 425.906V421.538H60.055V429H58.571V427.992C58.081 428.79 57.297 429.182 56.345 429.182C54.819 429.182 53.867 428.286 53.867 426.522V421.538H55.365V426.214C55.365 427.292 55.813 427.936 56.807 427.936C57.899 427.936 58.571 426.942 58.571 425.906ZM61.8788 429V418.92H63.3768V429H61.8788ZM65.3833 426.774V422.7H64.3753V421.538H65.3833V419.816H66.8813V421.538H68.4913V422.7H66.8813V426.69C66.8813 427.544 67.1193 427.95 68.1693 427.95H68.4633V429.042C68.2953 429.126 67.9453 429.182 67.5253 429.182C66.0693 429.182 65.3833 428.384 65.3833 426.774ZM69.617 420.614V418.92H71.115V420.614H69.617ZM69.617 429V421.538H71.115V429H69.617ZM74.4236 432.08H72.9256V421.538H74.4236V422.434C74.8996 421.734 75.5996 421.342 76.4536 421.342C78.4276 421.342 79.6176 422.812 79.6176 425.248C79.6176 427.782 78.3996 429.182 76.4536 429.182C75.5996 429.182 74.8996 428.832 74.4236 428.146V432.08ZM76.2716 422.602C75.0676 422.602 74.4236 423.54 74.4236 425.248C74.4236 426.956 75.0956 427.922 76.2716 427.922C77.4476 427.922 78.0916 426.97 78.0916 425.248C78.0916 423.554 77.4196 422.602 76.2716 422.602ZM81.0741 429V418.92H82.5721V429H81.0741ZM91.0047 426.564C90.5987 428.3 89.3107 429.182 87.5607 429.182C85.3627 429.182 84.0187 427.712 84.0187 425.276C84.0187 422.742 85.3627 421.342 87.4907 421.342C89.6467 421.342 90.9487 422.798 90.9487 425.192V425.556H85.5447C85.6287 427.082 86.3427 427.936 87.5607 427.936C88.5127 427.936 89.1847 427.488 89.4367 426.564H91.0047ZM87.4907 422.588C86.4127 422.588 85.7687 423.274 85.5867 424.534H89.3947C89.2127 423.274 88.5547 422.588 87.4907 422.588ZM101.619 429L100.807 426.858H96.4673L95.6553 429H94.0873L97.7553 419.48H99.5893L103.257 429H101.619ZM98.3573 421.916L96.9433 425.626H100.331L98.9173 421.916L98.6373 420.992L98.3573 421.916ZM110.521 424.142H109.023C108.841 423.078 108.155 422.602 107.287 422.602C106.041 422.602 105.369 423.554 105.369 425.276C105.369 426.97 106.069 427.936 107.329 427.936C108.225 427.936 108.855 427.446 109.079 426.494H110.563C110.241 428.356 108.953 429.182 107.301 429.182C105.145 429.182 103.843 427.698 103.843 425.276C103.843 422.742 105.173 421.342 107.287 421.342C108.953 421.342 110.269 422.28 110.521 424.142ZM118.273 424.142H116.775C116.593 423.078 115.907 422.602 115.039 422.602C113.793 422.602 113.121 423.554 113.121 425.276C113.121 426.97 113.821 427.936 115.081 427.936C115.977 427.936 116.607 427.446 116.831 426.494H118.315C117.993 428.356 116.705 429.182 115.053 429.182C112.897 429.182 111.595 427.698 111.595 425.276C111.595 422.742 112.925 421.342 115.039 421.342C116.705 421.342 118.021 422.28 118.273 424.142ZM122.833 429.182C120.663 429.182 119.347 427.712 119.347 425.276C119.347 422.742 120.705 421.342 122.833 421.342C125.003 421.342 126.319 422.84 126.319 425.276C126.319 427.796 124.961 429.182 122.833 429.182ZM122.833 427.922C124.107 427.922 124.793 426.998 124.793 425.276C124.793 423.568 124.093 422.602 122.833 422.602C121.573 422.602 120.873 423.54 120.873 425.276C120.873 426.97 121.573 427.922 122.833 427.922ZM132.481 425.906V421.538H133.965V429H132.481V427.992C131.991 428.79 131.207 429.182 130.255 429.182C128.729 429.182 127.777 428.286 127.777 426.522V421.538H129.275V426.214C129.275 427.292 129.723 427.936 130.717 427.936C131.809 427.936 132.481 426.942 132.481 425.906ZM135.789 429V421.538H137.287V422.532C137.791 421.734 138.575 421.342 139.541 421.342C141.095 421.342 142.061 422.252 142.061 424.016V429H140.577V424.324C140.577 423.246 140.101 422.588 139.079 422.588C137.959 422.588 137.287 423.582 137.287 424.618V429H135.789ZM144.079 426.774V422.7H143.071V421.538H144.079V419.816H145.577V421.538H147.187V422.7H145.577V426.69C145.577 427.544 145.815 427.95 146.865 427.95H147.159V429.042C146.991 429.126 146.641 429.182 146.221 429.182C144.765 429.182 144.079 428.384 144.079 426.774ZM152.446 421.832C152.446 424.338 158.214 422.364 158.214 426.256C158.214 428.132 156.688 429.182 154.602 429.182C152.488 429.182 151.032 428.216 150.64 426.228H152.278C152.544 427.306 153.342 427.894 154.616 427.894C155.918 427.894 156.604 427.32 156.604 426.466C156.604 423.778 150.836 425.78 150.836 421.958C150.836 420.53 152.04 419.298 154.21 419.298C156.086 419.298 157.626 420.194 157.962 422.28H156.296C156.03 421.104 155.288 420.586 154.168 420.586C153.076 420.586 152.446 421.076 152.446 421.832ZM159.619 420.614V418.92H161.117V420.614H159.619ZM159.619 429V421.538H161.117V429H159.619ZM162.438 429V427.838L166.694 422.7H162.606V421.538H168.472V422.7L164.216 427.838H168.71V429H162.438ZM176.454 426.564C176.048 428.3 174.76 429.182 173.01 429.182C170.812 429.182 169.468 427.712 169.468 425.276C169.468 422.742 170.812 421.342 172.94 421.342C175.096 421.342 176.398 422.798 176.398 425.192V425.556H170.994C171.078 427.082 171.792 427.936 173.01 427.936C173.962 427.936 174.634 427.488 174.886 426.564H176.454ZM172.94 422.588C171.862 422.588 171.218 423.274 171.036 424.534H174.844C174.662 423.274 174.004 422.588 172.94 422.588ZM179.088 423.498C179.088 425.402 183.862 423.806 183.862 426.844C183.862 428.258 182.588 429.182 180.782 429.182C178.976 429.182 177.702 428.342 177.422 426.564H178.92C179.074 427.502 179.774 428.02 180.824 428.02C181.832 428.02 182.364 427.572 182.364 426.942C182.364 425.08 177.66 426.648 177.66 423.582C177.66 422.42 178.57 421.342 180.46 421.342C182.126 421.342 183.358 422.112 183.596 423.974H182.098C181.93 422.924 181.342 422.532 180.39 422.532C179.564 422.532 179.088 422.938 179.088 423.498ZM194.036 421.454C194.036 422.84 193.042 423.358 191.978 423.806L194.274 426.032C194.512 425.472 194.652 424.8 194.652 424.03H196.122C196.122 425.108 195.842 426.158 195.31 427.026L197.368 429H195.394L194.428 428.076C193.644 428.762 192.608 429.182 191.334 429.182C189.178 429.182 187.876 427.964 187.876 426.34C187.876 424.842 188.772 424.114 189.794 423.61C189.122 422.84 188.87 422.28 188.87 421.538C188.87 420.194 189.976 419.298 191.53 419.298C193.182 419.298 194.036 420.334 194.036 421.454ZM190.34 421.538C190.34 422.056 190.592 422.434 191.166 423.008C191.964 422.658 192.594 422.28 192.594 421.552C192.594 421.034 192.188 420.53 191.516 420.53C190.802 420.53 190.34 420.992 190.34 421.538ZM189.402 426.27C189.402 427.222 190.102 427.922 191.446 427.922C192.23 427.922 192.93 427.67 193.476 427.18L190.942 424.786C190.816 424.66 190.69 424.548 190.578 424.436C189.906 424.814 189.402 425.332 189.402 426.27ZM201.335 429V419.48H204.723C206.949 419.48 208.321 420.642 208.321 422.546C208.321 424.492 206.921 425.626 204.751 425.626H202.903V429H201.335ZM204.709 420.74H202.903V424.366H204.667C205.983 424.366 206.711 423.666 206.711 422.56C206.711 421.454 205.969 420.74 204.709 420.74ZM211.154 423.974H209.656C209.894 422.322 211.028 421.342 212.89 421.342C214.92 421.342 215.928 422.532 215.928 424.268V427.18C215.928 428.076 216.012 428.594 216.18 429H214.612C214.5 428.72 214.458 428.328 214.444 427.908C213.814 428.79 212.848 429.182 211.952 429.182C210.44 429.182 209.404 428.468 209.404 427.04C209.404 426.018 209.964 425.262 211.084 424.884C212.078 424.548 213.086 424.464 214.43 424.45V424.282C214.43 423.19 213.926 422.602 212.778 422.602C211.812 422.602 211.294 423.134 211.154 423.974ZM210.916 426.984C210.916 427.614 211.434 428.006 212.232 428.006C213.478 428.006 214.43 427.012 214.43 425.808V425.472C211.56 425.5 210.916 426.13 210.916 426.984ZM218.002 426.774V422.7H216.994V421.538H218.002V419.816H219.5V421.538H221.11V422.7H219.5V426.69C219.5 427.544 219.738 427.95 220.788 427.95H221.082V429.042C220.914 429.126 220.564 429.182 220.144 429.182C218.688 429.182 218.002 428.384 218.002 426.774ZM222.236 429V418.92H223.734V422.532C224.238 421.734 225.022 421.342 225.988 421.342C227.542 421.342 228.508 422.252 228.508 424.016V429H227.024V424.324C227.024 423.246 226.548 422.588 225.526 422.588C224.406 422.588 223.734 423.582 223.734 424.618V429H222.236ZM231.52 423.498C231.52 425.402 236.294 423.806 236.294 426.844C236.294 428.258 235.02 429.182 233.214 429.182C231.408 429.182 230.134 428.342 229.854 426.564H231.352C231.506 427.502 232.206 428.02 233.256 428.02C234.264 428.02 234.796 427.572 234.796 426.942C234.796 425.08 230.092 426.648 230.092 423.582C230.092 422.42 231.002 421.342 232.892 421.342C234.558 421.342 235.79 422.112 236.028 423.974H234.53C234.362 422.924 233.774 422.532 232.822 422.532C231.996 422.532 231.52 422.938 231.52 423.498ZM240.602 426.774V422.7H239.594V421.538H240.602V419.816H242.1V421.538H243.71V422.7H242.1V426.69C242.1 427.544 242.338 427.95 243.388 427.95H243.682V429.042C243.514 429.126 243.164 429.182 242.744 429.182C241.288 429.182 240.602 428.384 240.602 426.774ZM247.958 429.182C245.788 429.182 244.472 427.712 244.472 425.276C244.472 422.742 245.83 421.342 247.958 421.342C250.128 421.342 251.444 422.84 251.444 425.276C251.444 427.796 250.086 429.182 247.958 429.182ZM247.958 427.922C249.232 427.922 249.918 426.998 249.918 425.276C249.918 423.568 249.218 422.602 247.958 422.602C246.698 422.602 245.998 423.54 245.998 425.276C245.998 426.97 246.698 427.922 247.958 427.922ZM255.762 429V419.48H262.328V420.74H257.33V423.736H261.796V424.996H257.33V429H255.762ZM268.284 425.906V421.538H269.768V429H268.284V427.992C267.794 428.79 267.01 429.182 266.058 429.182C264.532 429.182 263.58 428.286 263.58 426.522V421.538H265.078V426.214C265.078 427.292 265.526 427.936 266.52 427.936C267.612 427.936 268.284 426.942 268.284 425.906ZM271.592 429V421.538H273.09V422.532C273.594 421.734 274.378 421.342 275.344 421.342C276.898 421.342 277.864 422.252 277.864 424.016V429H276.38V424.324C276.38 423.246 275.904 422.588 274.882 422.588C273.762 422.588 273.09 423.582 273.09 424.618V429H271.592ZM282.485 429.182C280.511 429.182 279.321 427.712 279.321 425.276C279.321 422.742 280.539 421.342 282.485 421.342C283.339 421.342 284.039 421.692 284.515 422.378V418.92H286.013V429H284.515V428.09C284.039 428.79 283.339 429.182 282.485 429.182ZM282.681 427.922C283.871 427.922 284.515 426.998 284.515 425.276C284.515 423.568 283.843 422.602 282.681 422.602C281.491 422.602 280.847 423.554 280.847 425.276C280.847 426.97 281.519 427.922 282.681 427.922ZM287.82 420.614V418.92H289.318V420.614H287.82ZM287.82 429V421.538H289.318V429H287.82ZM291.129 429V421.538H292.627V422.532C293.131 421.734 293.915 421.342 294.881 421.342C296.435 421.342 297.401 422.252 297.401 424.016V429H295.917V424.324C295.917 423.246 295.441 422.588 294.419 422.588C293.299 422.588 292.627 423.582 292.627 424.618V429H291.129ZM301.91 429.042C300.007 429.042 298.859 427.586 298.859 425.206C298.859 422.714 300.035 421.342 301.91 421.342C302.863 421.342 303.577 421.678 304.053 422.322V421.538H305.551V429.238C305.551 431.282 304.193 432.276 302.401 432.276C300.609 432.276 299.321 431.436 299.055 429.7H300.553C300.693 430.596 301.407 431.072 302.387 431.072C303.381 431.072 304.053 430.554 304.053 429.266V428.006C303.549 428.692 302.821 429.042 301.91 429.042ZM302.219 427.782C303.409 427.782 304.053 426.872 304.053 425.192C304.053 423.554 303.381 422.602 302.219 422.602C301.029 422.602 300.385 423.512 300.385 425.206C300.385 426.844 301.043 427.782 302.219 427.782Z" fill="#3E3E3E"/>
<rect x="24" y="460" width="295" height="40" rx="8" fill="#FF0000"/>
<path d="M140.168 486V475.12H144.04C146.584 475.12 148.152 476.448 148.152 478.624C148.152 480.848 146.552 482.144 144.072 482.144H141.96V486H140.168ZM144.024 476.56H141.96V480.704H143.976C145.48 480.704 146.312 479.904 146.312 478.64C146.312 477.376 145.464 476.56 144.024 476.56ZM151.39 480.256H149.678C149.95 478.368 151.246 477.248 153.374 477.248C155.694 477.248 156.846 478.608 156.846 480.592V483.92C156.846 484.944 156.942 485.536 157.134 486H155.342C155.214 485.68 155.166 485.232 155.15 484.752C154.43 485.76 153.326 486.208 152.302 486.208C150.574 486.208 149.39 485.392 149.39 483.76C149.39 482.592 150.03 481.728 151.31 481.296C152.446 480.912 153.598 480.816 155.134 480.8V480.608C155.134 479.36 154.558 478.688 153.246 478.688C152.142 478.688 151.55 479.296 151.39 480.256ZM151.118 483.696C151.118 484.416 151.71 484.864 152.622 484.864C154.046 484.864 155.134 483.728 155.134 482.352V481.968C151.854 482 151.118 482.72 151.118 483.696ZM159.367 489.728C158.999 489.728 158.615 489.632 158.423 489.568V488.256H158.887C159.863 488.256 160.231 488.064 160.967 486.288L161.223 485.696L157.799 477.472H159.639L161.751 482.784L162.119 483.952L162.487 482.784L164.535 477.472H166.279L162.407 486.992C161.543 489.12 160.887 489.728 159.367 489.728ZM170.668 486V475.12H172.54L177.1 482.224L177.788 483.504L177.74 475.12H179.532V486H177.66L173.116 478.928L172.412 477.6L172.46 486H170.668ZM185.311 486.208C182.831 486.208 181.327 484.528 181.327 481.744C181.327 478.848 182.879 477.248 185.311 477.248C187.791 477.248 189.295 478.96 189.295 481.744C189.295 484.624 187.743 486.208 185.311 486.208ZM185.311 484.768C186.767 484.768 187.551 483.712 187.551 481.744C187.551 479.792 186.751 478.688 185.311 478.688C183.871 478.688 183.071 479.76 183.071 481.744C183.071 483.68 183.871 484.768 185.311 484.768ZM198.293 486L196.597 479.936L196.421 478.976L196.229 479.936L194.533 486H192.421L189.957 477.472H191.797L193.365 483.808L193.573 484.768L193.797 483.808L195.589 477.472H197.397L199.205 483.808L199.397 484.72L199.589 483.808L201.157 477.472H202.917L200.437 486H198.293Z" fill="white"/>
</svg>
