<svg width="28" height="28" viewBox="0 0 28 28" fill="none" xmlns="http://www.w3.org/2000/svg">
<g clip-path="url(#clip0_2337_2733)">
<path d="M26.8335 12.8333C26.5241 12.8333 26.2273 12.9563 26.0085 13.175C25.7897 13.3938 25.6668 13.6906 25.6668 14C25.6763 16.7128 24.7433 19.3447 23.0273 21.4458C21.3113 23.547 18.9187 24.9869 16.2587 25.5195C13.5987 26.052 10.8362 25.6442 8.44355 24.3657C6.05088 23.0872 4.17653 21.0173 3.14087 18.51C2.10521 16.0026 1.97254 13.2134 2.76554 10.619C3.55853 8.02466 5.22796 5.78627 7.48847 4.28642C9.74899 2.78657 12.4602 2.11838 15.1588 2.39607C17.8574 2.67375 20.3758 3.88007 22.2835 5.80883C22.2451 5.8193 22.2062 5.82748 22.1668 5.83333H18.6668C18.3574 5.83333 18.0607 5.95625 17.8419 6.17504C17.6231 6.39384 17.5002 6.69058 17.5002 7C17.5002 7.30942 17.6231 7.60617 17.8419 7.82496C18.0607 8.04375 18.3574 8.16667 18.6668 8.16667H22.1668C23.0951 8.16667 23.9853 7.79792 24.6417 7.14154C25.2981 6.48516 25.6668 5.59492 25.6668 4.66667V1.16667C25.6668 0.857247 25.5439 0.560501 25.3251 0.341709C25.1063 0.122916 24.8096 0 24.5002 0C24.1907 0 23.894 0.122916 23.6752 0.341709C23.4564 0.560501 23.3335 0.857247 23.3335 1.16667V3.57583C20.9448 1.44029 17.8956 0.189194 14.6953 0.0316197C11.4951 -0.125955 8.33769 0.819533 5.75076 2.71009C3.16383 4.60065 1.30407 7.32175 0.482261 10.4187C-0.33955 13.5156 -0.0736335 16.8008 1.23558 19.7252C2.54478 22.6497 4.81798 25.0363 7.6753 26.4861C10.5326 27.936 13.801 28.3614 16.9342 27.6911C20.0674 27.0209 22.8758 25.2957 24.8899 22.8037C26.904 20.3118 28.0019 17.2041 28.0002 14C28.0002 13.6906 27.8772 13.3938 27.6585 13.175C27.4397 12.9563 27.1429 12.8333 26.8335 12.8333Z" fill="#FF0000"/>
<path d="M13.9999 7C13.6905 7 13.3938 7.12292 13.175 7.34171C12.9562 7.5605 12.8333 7.85725 12.8333 8.16667V14C12.8333 14.3094 12.9563 14.6061 13.1751 14.8248L16.6751 18.3248C16.8951 18.5374 17.1898 18.6549 17.4957 18.6523C17.8016 18.6496 18.0942 18.5269 18.3105 18.3106C18.5268 18.0943 18.6495 17.8017 18.6522 17.4958C18.6549 17.1899 18.5373 16.8952 18.3248 16.6752L15.1666 13.517V8.16667C15.1666 7.85725 15.0437 7.5605 14.8249 7.34171C14.6061 7.12292 14.3093 7 13.9999 7Z" fill="#FF0000"/>
</g>
<defs>
<clipPath id="clip0_2337_2733">
<rect width="28" height="28" fill="white"/>
</clipPath>
</defs>
</svg>
