<svg width="35" height="34" viewBox="0 0 35 34" fill="none" xmlns="http://www.w3.org/2000/svg">
<rect x="0.25" width="34" height="34" rx="17" fill="#F8DFDF"/>
<g clip-path="url(#clip0_292_3614)">
<path d="M11.3475 15.88H10.9237V15.0391C10.9237 14.9728 10.8974 14.9092 10.8505 14.8623C10.8036 14.8154 10.7401 14.7891 10.6737 14.7891C10.6074 14.7891 10.5439 14.8154 10.497 14.8623C10.4501 14.9092 10.4237 14.9728 10.4237 15.0391V15.88H10C9.86751 15.8804 9.74056 15.9332 9.64688 16.0269C9.55319 16.1206 9.50039 16.2475 9.5 16.38V22.4275C9.49998 22.4932 9.5129 22.5582 9.53802 22.6189C9.56315 22.6796 9.59998 22.7347 9.64641 22.7811C9.69284 22.8275 9.74797 22.8644 9.80864 22.8895C9.86931 22.9146 9.93433 22.9275 10 22.9275H10.4237V23.77C10.4247 23.8357 10.4515 23.8983 10.4983 23.9444C10.5451 23.9905 10.6081 24.0163 10.6738 24.0163C10.7394 24.0163 10.8025 23.9905 10.8492 23.9444C10.896 23.8983 10.9228 23.8357 10.9237 23.77V22.9275H11.3475C11.4132 22.9275 11.4782 22.9146 11.5389 22.8895C11.5995 22.8644 11.6547 22.8275 11.7011 22.7811C11.7475 22.7347 11.7844 22.6796 11.8095 22.6189C11.8346 22.5582 11.8475 22.4932 11.8475 22.4275V16.38C11.8471 16.2475 11.7943 16.1206 11.7006 16.0269C11.6069 15.9332 11.48 15.8804 11.3475 15.88Z" fill="#FF0000"/>
<path d="M15.6204 12.78H15.1983V11.939C15.1983 11.8727 15.172 11.8091 15.1251 11.7622C15.0782 11.7153 15.0146 11.689 14.9483 11.689C14.882 11.689 14.8184 11.7153 14.7715 11.7622C14.7246 11.8091 14.6983 11.8727 14.6983 11.939V12.78H14.2754C14.1429 12.7804 14.0159 12.8332 13.9223 12.9269C13.8286 13.0206 13.7758 13.1475 13.7754 13.28V19.3275C13.7754 19.3932 13.7883 19.4582 13.8134 19.5189C13.8385 19.5796 13.8754 19.6347 13.9218 19.6811C13.9682 19.7275 14.0234 19.7644 14.084 19.7895C14.1447 19.8146 14.2097 19.8275 14.2754 19.8275H14.6983V20.6699C14.6993 20.7356 14.726 20.7982 14.7728 20.8443C14.8196 20.8904 14.8826 20.9162 14.9483 20.9162C15.014 20.9162 15.077 20.8904 15.1238 20.8443C15.1706 20.7982 15.1973 20.7356 15.1983 20.6699V19.8275H15.6204C15.6861 19.8277 15.7512 19.815 15.812 19.7899C15.8728 19.7649 15.928 19.7281 15.9745 19.6816C16.0209 19.6351 16.0577 19.5799 16.0828 19.5191C16.1078 19.4584 16.1206 19.3932 16.1204 19.3275V13.28C16.1204 13.2143 16.1075 13.1493 16.0824 13.0887C16.0572 13.028 16.0204 12.9729 15.974 12.9264C15.9276 12.88 15.8724 12.8432 15.8118 12.818C15.7511 12.7929 15.6861 12.78 15.6204 12.78Z" fill="#FF0000"/>
<path d="M19.8948 14.5225H19.4719V13.6807C19.4719 13.6144 19.4456 13.5508 19.3987 13.5039C19.3518 13.457 19.2882 13.4307 19.2219 13.4307C19.1556 13.4307 19.092 13.457 19.0451 13.5039C18.9982 13.5508 18.9719 13.6144 18.9719 13.6807V14.5225H18.5498C18.4841 14.5225 18.4191 14.5354 18.3584 14.5605C18.2978 14.5857 18.2426 14.6225 18.1962 14.6689C18.1498 14.7154 18.1129 14.7705 18.0878 14.8312C18.0627 14.8918 18.0498 14.9569 18.0498 15.0225V21.07C18.0498 21.1357 18.0627 21.2007 18.0878 21.2614C18.1129 21.3221 18.1498 21.3772 18.1962 21.4236C18.2426 21.47 18.2978 21.5069 18.3584 21.532C18.4191 21.5571 18.4841 21.57 18.5498 21.57H18.9719V22.4116C18.9729 22.4773 18.9996 22.5399 19.0464 22.586C19.0932 22.6321 19.1562 22.6579 19.2219 22.6579C19.2876 22.6579 19.3506 22.6321 19.3974 22.586C19.4442 22.5399 19.4709 22.4773 19.4719 22.4116V21.57H19.8948C20.0273 21.5696 20.1542 21.5168 20.2479 21.4231C20.3416 21.3295 20.3944 21.2025 20.3948 21.07V15.0225C20.3944 14.89 20.3416 14.7631 20.2479 14.6694C20.1542 14.5757 20.0273 14.5229 19.8948 14.5225Z" fill="#FF0000"/>
<path d="M24.1698 11.1125H23.746V10.27C23.746 10.2037 23.7197 10.1401 23.6728 10.0932C23.6259 10.0464 23.5623 10.02 23.496 10.02C23.4297 10.02 23.3661 10.0464 23.3192 10.0932C23.2724 10.1401 23.246 10.2037 23.246 10.27V11.1125H22.8223C22.7566 11.1125 22.6916 11.1254 22.6309 11.1505C22.5702 11.1757 22.5151 11.2125 22.4687 11.2589C22.4222 11.3054 22.3854 11.3605 22.3603 11.4212C22.3352 11.4818 22.3222 11.5469 22.3223 11.6125V17.66C22.3227 17.7925 22.3755 17.9195 22.4691 18.0131C22.5628 18.1068 22.6898 18.1596 22.8223 18.16H23.246V19.001C23.247 19.0666 23.2738 19.1293 23.3205 19.1754C23.3673 19.2215 23.4304 19.2473 23.496 19.2473C23.5617 19.2473 23.6247 19.2215 23.6715 19.1754C23.7183 19.1293 23.745 19.0666 23.746 19.001V18.16H24.1698C24.3023 18.1596 24.4292 18.1068 24.5229 18.0131C24.6166 17.9195 24.6694 17.7925 24.6698 17.66V11.6125C24.6698 11.5469 24.6569 11.4818 24.6317 11.4212C24.6066 11.3605 24.5698 11.3054 24.5234 11.2589C24.4769 11.2125 24.4218 11.1757 24.3611 11.1505C24.3005 11.1254 24.2354 11.1125 24.1698 11.1125Z" fill="#FF0000"/>
</g>
<defs>
<clipPath id="clip0_292_3614">
<rect width="16" height="16" fill="white" transform="translate(9.5 9.02002)"/>
</clipPath>
</defs>
</svg>
