
<svg width="16" height="16" viewBox="0 0 16 16" fill="none" xmlns="http://www.w3.org/2000/svg">
<path fill-rule="evenodd" clip-rule="evenodd" d="M12.666 3.33333H3.33268C2.5963 3.33333 1.99935 3.93029 1.99935 4.66667V11.3333C1.99935 12.0697 2.5963 12.6667 3.33268 12.6667H12.666C13.4024 12.6667 13.9993 12.0697 13.9993 11.3333V4.66667C13.9993 3.93029 13.4024 3.33333 12.666 3.33333ZM3.33268 2C1.85992 2 0.666016 3.19391 0.666016 4.66667V11.3333C0.666016 12.8061 1.85992 14 3.33268 14H12.666C14.1388 14 15.3327 12.8061 15.3327 11.3333V4.66667C15.3327 3.19391 14.1388 2 12.666 2H3.33268Z" fill="#E6E8EC"/>
<path fill-rule="evenodd" clip-rule="evenodd" d="M8.66602 7.99999C8.66602 6.15904 10.1584 4.66666 11.9993 4.66666H14.666C15.0342 4.66666 15.3327 4.96513 15.3327 5.33332C15.3327 5.70151 15.0342 5.99999 14.666 5.99999H11.9993C10.8948 5.99999 9.99935 6.89542 9.99935 7.99999C9.99935 9.10456 10.8948 9.99999 11.9993 9.99999H14.666C15.0342 9.99999 15.3327 10.2985 15.3327 10.6667C15.3327 11.0348 15.0342 11.3333 14.666 11.3333H11.9993C10.1584 11.3333 8.66602 9.84094 8.66602 7.99999Z" fill="#E6E8EC"/>
<path d="M12.6673 8.00001C12.6673 8.3682 12.3688 8.66668 12.0007 8.66668C11.6325 8.66668 11.334 8.3682 11.334 8.00001C11.334 7.63182 11.6325 7.33334 12.0007 7.33334C12.3688 7.33334 12.6673 7.63182 12.6673 8.00001Z" fill="#E6E8EC"/>
</svg>
