<svg width="28" height="28" viewBox="0 0 28 28" fill="none" xmlns="http://www.w3.org/2000/svg">
<path d="M18.6667 14.0117C18.6667 11.4333 16.5783 9.345 14 9.345C11.4217 9.345 9.33333 11.4333 9.33333 14.0117C9.33333 16.59 11.4217 18.6783 14 18.6783C16.5783 18.6783 18.6667 16.59 18.6667 14.0117ZM14 16.345C12.7167 16.345 11.6667 15.295 11.6667 14.0117C11.6667 12.7283 12.7167 11.6783 14 11.6783C15.2833 11.6783 16.3333 12.7283 16.3333 14.0117C16.3333 15.295 15.2833 16.345 14 16.345ZM23.3333 0H4.66667C2.08833 0 0 2.1 0 4.67833V5.845C0 8.41167 2.08833 10.5117 4.66667 10.5117V22.1783C4.66667 25.3983 7.28 28.0117 10.5 28.0117H17.5C20.72 28.0117 23.3333 25.3983 23.3333 22.1783V10.5117C25.9117 10.5117 28 8.42333 28 5.845V4.67833C28 2.1 25.9117 0 23.3333 0ZM25.6667 5.83333C25.6667 7.11667 24.6167 8.16667 23.3333 8.16667V5.83333C23.3333 5.19167 22.8083 4.66667 22.1667 4.66667C21.525 4.66667 21 5.19167 21 5.83333V22.1667C21 24.0917 19.425 25.6667 17.5 25.6667H10.5C8.575 25.6667 7 24.0917 7 22.1667V5.845C7 5.20333 6.475 4.67833 5.83333 4.67833C5.19167 4.67833 4.66667 5.20333 4.66667 5.845V8.17833C3.38333 8.17833 2.33333 7.12833 2.33333 5.845V4.67833C2.33333 3.395 3.38333 2.345 4.66667 2.345H23.3333C24.6167 2.345 25.6667 3.395 25.6667 4.67833V5.845V5.83333ZM19.8333 22.75C19.8333 23.7183 19.0517 24.5 18.0833 24.5C17.115 24.5 16.3333 23.7183 16.3333 22.75C16.3333 21.7817 17.115 21 18.0833 21C19.0517 21 19.8333 21.7817 19.8333 22.75ZM11.6667 22.75C11.6667 23.7183 10.885 24.5 9.91667 24.5C8.94833 24.5 8.16667 23.7183 8.16667 22.75C8.16667 21.7817 8.94833 21 9.91667 21C10.885 21 11.6667 21.7817 11.6667 22.75Z" fill="#FF0000"/>
</svg>
